%TF.GenerationSoftware,KiCad,Pcbnew,(6.0.4)*%
%TF.CreationDate,2022-05-22T16:26:11-03:00*%
%TF.ProjectId,G-Code_Keeb,472d436f-6465-45f4-9b65-65622e6b6963,1*%
%TF.SameCoordinates,Original*%
%TF.FileFunction,Legend,Bot*%
%TF.FilePolarity,Positive*%
%FSLAX46Y46*%
G04 Gerber Fmt 4.6, Leading zero omitted, Abs format (unit mm)*
G04 Created by KiCad (PCBNEW (6.0.4)) date 2022-05-22 16:26:11*
%MOMM*%
%LPD*%
G01*
G04 APERTURE LIST*
%ADD10C,0.300000*%
%ADD11C,0.150000*%
%ADD12C,0.120000*%
G04 APERTURE END LIST*
D10*
X75430238Y-29173428D02*
X74135000Y-29173428D01*
X73325476Y-29173428D02*
X72030238Y-29173428D01*
X71220714Y-29173428D02*
X69925476Y-29173428D01*
X69115952Y-29173428D02*
X67820714Y-29173428D01*
X67011190Y-29173428D02*
X65715952Y-29173428D01*
X64906428Y-29173428D02*
X63611190Y-29173428D01*
X62801666Y-29173428D02*
X61506428Y-29173428D01*
X60696904Y-29173428D02*
X59401666Y-29173428D01*
X58592142Y-29173428D02*
X57296904Y-29173428D01*
X56487380Y-29173428D02*
X55192142Y-29173428D01*
X54382619Y-29173428D02*
X53087380Y-29173428D01*
X52277857Y-29173428D02*
X50982619Y-29173428D01*
X50173095Y-29173428D02*
X48877857Y-29173428D01*
X48068333Y-29173428D02*
X46773095Y-29173428D01*
X45963571Y-29173428D02*
X44668333Y-29173428D01*
X75025476Y-33124714D02*
X75025476Y-30696142D01*
X71949285Y-31667571D02*
X72515952Y-31667571D01*
X72515952Y-32558047D02*
X72515952Y-30858047D01*
X71706428Y-30858047D01*
X70330238Y-31424714D02*
X70330238Y-32558047D01*
X71058809Y-31424714D02*
X71058809Y-32315190D01*
X70977857Y-32477095D01*
X70815952Y-32558047D01*
X70573095Y-32558047D01*
X70411190Y-32477095D01*
X70330238Y-32396142D01*
X69520714Y-31424714D02*
X69520714Y-32558047D01*
X69520714Y-31586619D02*
X69439761Y-31505666D01*
X69277857Y-31424714D01*
X69035000Y-31424714D01*
X68873095Y-31505666D01*
X68792142Y-31667571D01*
X68792142Y-32558047D01*
X67254047Y-32477095D02*
X67415952Y-32558047D01*
X67739761Y-32558047D01*
X67901666Y-32477095D01*
X67982619Y-32396142D01*
X68063571Y-32234238D01*
X68063571Y-31748523D01*
X67982619Y-31586619D01*
X67901666Y-31505666D01*
X67739761Y-31424714D01*
X67415952Y-31424714D01*
X67254047Y-31505666D01*
X66768333Y-31424714D02*
X66120714Y-31424714D01*
X66525476Y-30858047D02*
X66525476Y-32315190D01*
X66444523Y-32477095D01*
X66282619Y-32558047D01*
X66120714Y-32558047D01*
X65554047Y-32558047D02*
X65554047Y-31424714D01*
X65554047Y-30858047D02*
X65635000Y-30939000D01*
X65554047Y-31019952D01*
X65473095Y-30939000D01*
X65554047Y-30858047D01*
X65554047Y-31019952D01*
X64501666Y-32558047D02*
X64663571Y-32477095D01*
X64744523Y-32396142D01*
X64825476Y-32234238D01*
X64825476Y-31748523D01*
X64744523Y-31586619D01*
X64663571Y-31505666D01*
X64501666Y-31424714D01*
X64258809Y-31424714D01*
X64096904Y-31505666D01*
X64015952Y-31586619D01*
X63935000Y-31748523D01*
X63935000Y-32234238D01*
X64015952Y-32396142D01*
X64096904Y-32477095D01*
X64258809Y-32558047D01*
X64501666Y-32558047D01*
X63206428Y-31424714D02*
X63206428Y-32558047D01*
X63206428Y-31586619D02*
X63125476Y-31505666D01*
X62963571Y-31424714D01*
X62720714Y-31424714D01*
X62558809Y-31505666D01*
X62477857Y-31667571D01*
X62477857Y-32558047D01*
X59968333Y-33124714D02*
X59968333Y-30696142D01*
X57458809Y-32558047D02*
X57458809Y-30858047D01*
X56892142Y-32072333D01*
X56325476Y-30858047D01*
X56325476Y-32558047D01*
X54544523Y-32396142D02*
X54625476Y-32477095D01*
X54868333Y-32558047D01*
X55030238Y-32558047D01*
X55273095Y-32477095D01*
X55434999Y-32315190D01*
X55515952Y-32153285D01*
X55596904Y-31829476D01*
X55596904Y-31586619D01*
X55515952Y-31262809D01*
X55434999Y-31100904D01*
X55273095Y-30939000D01*
X55030238Y-30858047D01*
X54868333Y-30858047D01*
X54625476Y-30939000D01*
X54544523Y-31019952D01*
X53815952Y-30858047D02*
X53815952Y-32234238D01*
X53734999Y-32396142D01*
X53654047Y-32477095D01*
X53492142Y-32558047D01*
X53168333Y-32558047D01*
X53006428Y-32477095D01*
X52925476Y-32396142D01*
X52844523Y-32234238D01*
X52844523Y-30858047D01*
X50739761Y-31424714D02*
X50739761Y-33124714D01*
X50739761Y-31505666D02*
X50577857Y-31424714D01*
X50254047Y-31424714D01*
X50092142Y-31505666D01*
X50011190Y-31586619D01*
X49930238Y-31748523D01*
X49930238Y-32234238D01*
X50011190Y-32396142D01*
X50092142Y-32477095D01*
X50254047Y-32558047D01*
X50577857Y-32558047D01*
X50739761Y-32477095D01*
X49201666Y-32558047D02*
X49201666Y-31424714D01*
X49201666Y-30858047D02*
X49282619Y-30939000D01*
X49201666Y-31019952D01*
X49120714Y-30939000D01*
X49201666Y-30858047D01*
X49201666Y-31019952D01*
X48392142Y-31424714D02*
X48392142Y-32558047D01*
X48392142Y-31586619D02*
X48311190Y-31505666D01*
X48149285Y-31424714D01*
X47906428Y-31424714D01*
X47744523Y-31505666D01*
X47663571Y-31667571D01*
X47663571Y-32558047D01*
X45154047Y-33124714D02*
X45154047Y-30696142D01*
X75430238Y-34647428D02*
X74135000Y-34647428D01*
X73325476Y-34647428D02*
X72030238Y-34647428D01*
X71220714Y-34647428D02*
X69925476Y-34647428D01*
X69115952Y-34647428D02*
X67820714Y-34647428D01*
X67011190Y-34647428D02*
X65715952Y-34647428D01*
X64906428Y-34647428D02*
X63611190Y-34647428D01*
X62801666Y-34647428D02*
X61506428Y-34647428D01*
X60696904Y-34647428D02*
X59401666Y-34647428D01*
X58592142Y-34647428D02*
X57296904Y-34647428D01*
X56487380Y-34647428D02*
X55192142Y-34647428D01*
X54382619Y-34647428D02*
X53087380Y-34647428D01*
X52277857Y-34647428D02*
X50982619Y-34647428D01*
X50173095Y-34647428D02*
X48877857Y-34647428D01*
X48068333Y-34647428D02*
X46773095Y-34647428D01*
X45963571Y-34647428D02*
X44668333Y-34647428D01*
X75025476Y-38598714D02*
X75025476Y-36170142D01*
X72677857Y-36332047D02*
X71544523Y-38032047D01*
X71544523Y-36332047D02*
X72677857Y-38032047D01*
X70896904Y-37384428D02*
X69601666Y-37384428D01*
X70249285Y-38032047D02*
X70249285Y-36736809D01*
X67901666Y-38032047D02*
X68873095Y-38032047D01*
X68387380Y-38032047D02*
X68387380Y-36332047D01*
X68549285Y-36574904D01*
X68711190Y-36736809D01*
X68873095Y-36817761D01*
X58996904Y-38598714D02*
X58996904Y-36170142D01*
X55758809Y-36898714D02*
X55758809Y-38274904D01*
X55839761Y-38436809D01*
X55920714Y-38517761D01*
X56082619Y-38598714D01*
X56325476Y-38598714D01*
X56487380Y-38517761D01*
X55758809Y-37951095D02*
X55920714Y-38032047D01*
X56244523Y-38032047D01*
X56406428Y-37951095D01*
X56487380Y-37870142D01*
X56568333Y-37708238D01*
X56568333Y-37222523D01*
X56487380Y-37060619D01*
X56406428Y-36979666D01*
X56244523Y-36898714D01*
X55920714Y-36898714D01*
X55758809Y-36979666D01*
X54949285Y-36898714D02*
X54949285Y-38598714D01*
X54949285Y-36979666D02*
X54787380Y-36898714D01*
X54463571Y-36898714D01*
X54301666Y-36979666D01*
X54220714Y-37060619D01*
X54139761Y-37222523D01*
X54139761Y-37708238D01*
X54220714Y-37870142D01*
X54301666Y-37951095D01*
X54463571Y-38032047D01*
X54787380Y-38032047D01*
X54949285Y-37951095D01*
X53411190Y-38032047D02*
X53411190Y-36898714D01*
X53411190Y-36332047D02*
X53492142Y-36413000D01*
X53411190Y-36493952D01*
X53330238Y-36413000D01*
X53411190Y-36332047D01*
X53411190Y-36493952D01*
X52358809Y-38032047D02*
X52520714Y-37951095D01*
X52601666Y-37870142D01*
X52682619Y-37708238D01*
X52682619Y-37222523D01*
X52601666Y-37060619D01*
X52520714Y-36979666D01*
X52358809Y-36898714D01*
X52115952Y-36898714D01*
X51954047Y-36979666D01*
X51873095Y-37060619D01*
X51792142Y-37222523D01*
X51792142Y-37708238D01*
X51873095Y-37870142D01*
X51954047Y-37951095D01*
X52115952Y-38032047D01*
X52358809Y-38032047D01*
X50173095Y-38032047D02*
X51144523Y-38032047D01*
X50658809Y-38032047D02*
X50658809Y-36332047D01*
X50820714Y-36574904D01*
X50982619Y-36736809D01*
X51144523Y-36817761D01*
X48715952Y-36898714D02*
X48715952Y-38032047D01*
X49120714Y-36251095D02*
X49525476Y-37465380D01*
X48473095Y-37465380D01*
X44830238Y-38598714D02*
X44830238Y-36170142D01*
X75430238Y-40121428D02*
X74135000Y-40121428D01*
X73325476Y-40121428D02*
X72030238Y-40121428D01*
X71220714Y-40121428D02*
X69925476Y-40121428D01*
X69115952Y-40121428D02*
X67820714Y-40121428D01*
X67011190Y-40121428D02*
X65715952Y-40121428D01*
X64906428Y-40121428D02*
X63611190Y-40121428D01*
X62801666Y-40121428D02*
X61506428Y-40121428D01*
X60696904Y-40121428D02*
X59401666Y-40121428D01*
X58592142Y-40121428D02*
X57296904Y-40121428D01*
X56487380Y-40121428D02*
X55192142Y-40121428D01*
X54382619Y-40121428D02*
X53087380Y-40121428D01*
X52277857Y-40121428D02*
X50982619Y-40121428D01*
X50173095Y-40121428D02*
X48877857Y-40121428D01*
X48068333Y-40121428D02*
X46773095Y-40121428D01*
X45963571Y-40121428D02*
X44668333Y-40121428D01*
X75025476Y-44072714D02*
X75025476Y-41644142D01*
X72677857Y-41806047D02*
X71544523Y-43506047D01*
X71544523Y-41806047D02*
X72677857Y-43506047D01*
X70896904Y-42858428D02*
X69601666Y-42858428D01*
X70249285Y-43506047D02*
X70249285Y-42210809D01*
X67901666Y-43506047D02*
X68873095Y-43506047D01*
X68387380Y-43506047D02*
X68387380Y-41806047D01*
X68549285Y-42048904D01*
X68711190Y-42210809D01*
X68873095Y-42291761D01*
X66849285Y-41806047D02*
X66687380Y-41806047D01*
X66525476Y-41887000D01*
X66444523Y-41967952D01*
X66363571Y-42129857D01*
X66282619Y-42453666D01*
X66282619Y-42858428D01*
X66363571Y-43182238D01*
X66444523Y-43344142D01*
X66525476Y-43425095D01*
X66687380Y-43506047D01*
X66849285Y-43506047D01*
X67011190Y-43425095D01*
X67092142Y-43344142D01*
X67173095Y-43182238D01*
X67254047Y-42858428D01*
X67254047Y-42453666D01*
X67173095Y-42129857D01*
X67092142Y-41967952D01*
X67011190Y-41887000D01*
X66849285Y-41806047D01*
X58673095Y-44072714D02*
X58673095Y-41644142D01*
X55434999Y-42372714D02*
X55434999Y-43748904D01*
X55515952Y-43910809D01*
X55596904Y-43991761D01*
X55758809Y-44072714D01*
X56001666Y-44072714D01*
X56163571Y-43991761D01*
X55434999Y-43425095D02*
X55596904Y-43506047D01*
X55920714Y-43506047D01*
X56082619Y-43425095D01*
X56163571Y-43344142D01*
X56244523Y-43182238D01*
X56244523Y-42696523D01*
X56163571Y-42534619D01*
X56082619Y-42453666D01*
X55920714Y-42372714D01*
X55596904Y-42372714D01*
X55434999Y-42453666D01*
X54625476Y-42372714D02*
X54625476Y-44072714D01*
X54625476Y-42453666D02*
X54463571Y-42372714D01*
X54139761Y-42372714D01*
X53977857Y-42453666D01*
X53896904Y-42534619D01*
X53815952Y-42696523D01*
X53815952Y-43182238D01*
X53896904Y-43344142D01*
X53977857Y-43425095D01*
X54139761Y-43506047D01*
X54463571Y-43506047D01*
X54625476Y-43425095D01*
X53087380Y-43506047D02*
X53087380Y-42372714D01*
X53087380Y-41806047D02*
X53168333Y-41887000D01*
X53087380Y-41967952D01*
X53006428Y-41887000D01*
X53087380Y-41806047D01*
X53087380Y-41967952D01*
X52034999Y-43506047D02*
X52196904Y-43425095D01*
X52277857Y-43344142D01*
X52358809Y-43182238D01*
X52358809Y-42696523D01*
X52277857Y-42534619D01*
X52196904Y-42453666D01*
X52034999Y-42372714D01*
X51792142Y-42372714D01*
X51630238Y-42453666D01*
X51549285Y-42534619D01*
X51468333Y-42696523D01*
X51468333Y-43182238D01*
X51549285Y-43344142D01*
X51630238Y-43425095D01*
X51792142Y-43506047D01*
X52034999Y-43506047D01*
X49849285Y-43506047D02*
X50820714Y-43506047D01*
X50334999Y-43506047D02*
X50334999Y-41806047D01*
X50496904Y-42048904D01*
X50658809Y-42210809D01*
X50820714Y-42291761D01*
X49282619Y-41806047D02*
X48230238Y-41806047D01*
X48796904Y-42453666D01*
X48554047Y-42453666D01*
X48392142Y-42534619D01*
X48311190Y-42615571D01*
X48230238Y-42777476D01*
X48230238Y-43182238D01*
X48311190Y-43344142D01*
X48392142Y-43425095D01*
X48554047Y-43506047D01*
X49039761Y-43506047D01*
X49201666Y-43425095D01*
X49282619Y-43344142D01*
X44506428Y-44072714D02*
X44506428Y-41644142D01*
X75430238Y-45595428D02*
X74135000Y-45595428D01*
X73325476Y-45595428D02*
X72030238Y-45595428D01*
X71220714Y-45595428D02*
X69925476Y-45595428D01*
X69115952Y-45595428D02*
X67820714Y-45595428D01*
X67011190Y-45595428D02*
X65715952Y-45595428D01*
X64906428Y-45595428D02*
X63611190Y-45595428D01*
X62801666Y-45595428D02*
X61506428Y-45595428D01*
X60696904Y-45595428D02*
X59401666Y-45595428D01*
X58592142Y-45595428D02*
X57296904Y-45595428D01*
X56487380Y-45595428D02*
X55192142Y-45595428D01*
X54382619Y-45595428D02*
X53087380Y-45595428D01*
X52277857Y-45595428D02*
X50982619Y-45595428D01*
X50173095Y-45595428D02*
X48877857Y-45595428D01*
X48068333Y-45595428D02*
X46773095Y-45595428D01*
X45963571Y-45595428D02*
X44668333Y-45595428D01*
X75025476Y-49546714D02*
X75025476Y-47118142D01*
X72677857Y-47280047D02*
X71544523Y-48980047D01*
X71544523Y-47280047D02*
X72677857Y-48980047D01*
X70896904Y-48332428D02*
X69601666Y-48332428D01*
X70249285Y-48980047D02*
X70249285Y-47684809D01*
X67901666Y-48980047D02*
X68873095Y-48980047D01*
X68387380Y-48980047D02*
X68387380Y-47280047D01*
X68549285Y-47522904D01*
X68711190Y-47684809D01*
X68873095Y-47765761D01*
X66849285Y-47280047D02*
X66687380Y-47280047D01*
X66525476Y-47361000D01*
X66444523Y-47441952D01*
X66363571Y-47603857D01*
X66282619Y-47927666D01*
X66282619Y-48332428D01*
X66363571Y-48656238D01*
X66444523Y-48818142D01*
X66525476Y-48899095D01*
X66687380Y-48980047D01*
X66849285Y-48980047D01*
X67011190Y-48899095D01*
X67092142Y-48818142D01*
X67173095Y-48656238D01*
X67254047Y-48332428D01*
X67254047Y-47927666D01*
X67173095Y-47603857D01*
X67092142Y-47441952D01*
X67011190Y-47361000D01*
X66849285Y-47280047D01*
X65230238Y-47280047D02*
X65068333Y-47280047D01*
X64906428Y-47361000D01*
X64825476Y-47441952D01*
X64744523Y-47603857D01*
X64663571Y-47927666D01*
X64663571Y-48332428D01*
X64744523Y-48656238D01*
X64825476Y-48818142D01*
X64906428Y-48899095D01*
X65068333Y-48980047D01*
X65230238Y-48980047D01*
X65392142Y-48899095D01*
X65473095Y-48818142D01*
X65554047Y-48656238D01*
X65635000Y-48332428D01*
X65635000Y-47927666D01*
X65554047Y-47603857D01*
X65473095Y-47441952D01*
X65392142Y-47361000D01*
X65230238Y-47280047D01*
X58349285Y-49546714D02*
X58349285Y-47118142D01*
X55111190Y-47846714D02*
X55111190Y-49222904D01*
X55192142Y-49384809D01*
X55273095Y-49465761D01*
X55434999Y-49546714D01*
X55677857Y-49546714D01*
X55839761Y-49465761D01*
X55111190Y-48899095D02*
X55273095Y-48980047D01*
X55596904Y-48980047D01*
X55758809Y-48899095D01*
X55839761Y-48818142D01*
X55920714Y-48656238D01*
X55920714Y-48170523D01*
X55839761Y-48008619D01*
X55758809Y-47927666D01*
X55596904Y-47846714D01*
X55273095Y-47846714D01*
X55111190Y-47927666D01*
X54301666Y-47846714D02*
X54301666Y-49546714D01*
X54301666Y-47927666D02*
X54139761Y-47846714D01*
X53815952Y-47846714D01*
X53654047Y-47927666D01*
X53573095Y-48008619D01*
X53492142Y-48170523D01*
X53492142Y-48656238D01*
X53573095Y-48818142D01*
X53654047Y-48899095D01*
X53815952Y-48980047D01*
X54139761Y-48980047D01*
X54301666Y-48899095D01*
X52763571Y-48980047D02*
X52763571Y-47846714D01*
X52763571Y-47280047D02*
X52844523Y-47361000D01*
X52763571Y-47441952D01*
X52682619Y-47361000D01*
X52763571Y-47280047D01*
X52763571Y-47441952D01*
X51711190Y-48980047D02*
X51873095Y-48899095D01*
X51954047Y-48818142D01*
X52034999Y-48656238D01*
X52034999Y-48170523D01*
X51954047Y-48008619D01*
X51873095Y-47927666D01*
X51711190Y-47846714D01*
X51468333Y-47846714D01*
X51306428Y-47927666D01*
X51225476Y-48008619D01*
X51144523Y-48170523D01*
X51144523Y-48656238D01*
X51225476Y-48818142D01*
X51306428Y-48899095D01*
X51468333Y-48980047D01*
X51711190Y-48980047D01*
X50173095Y-48008619D02*
X50334999Y-47927666D01*
X50415952Y-47846714D01*
X50496904Y-47684809D01*
X50496904Y-47603857D01*
X50415952Y-47441952D01*
X50334999Y-47361000D01*
X50173095Y-47280047D01*
X49849285Y-47280047D01*
X49687380Y-47361000D01*
X49606428Y-47441952D01*
X49525476Y-47603857D01*
X49525476Y-47684809D01*
X49606428Y-47846714D01*
X49687380Y-47927666D01*
X49849285Y-48008619D01*
X50173095Y-48008619D01*
X50334999Y-48089571D01*
X50415952Y-48170523D01*
X50496904Y-48332428D01*
X50496904Y-48656238D01*
X50415952Y-48818142D01*
X50334999Y-48899095D01*
X50173095Y-48980047D01*
X49849285Y-48980047D01*
X49687380Y-48899095D01*
X49606428Y-48818142D01*
X49525476Y-48656238D01*
X49525476Y-48332428D01*
X49606428Y-48170523D01*
X49687380Y-48089571D01*
X49849285Y-48008619D01*
X44506428Y-49546714D02*
X44506428Y-47118142D01*
X75430238Y-51069428D02*
X74135000Y-51069428D01*
X73325476Y-51069428D02*
X72030238Y-51069428D01*
X71220714Y-51069428D02*
X69925476Y-51069428D01*
X69115952Y-51069428D02*
X67820714Y-51069428D01*
X67011190Y-51069428D02*
X65715952Y-51069428D01*
X64906428Y-51069428D02*
X63611190Y-51069428D01*
X62801666Y-51069428D02*
X61506428Y-51069428D01*
X60696904Y-51069428D02*
X59401666Y-51069428D01*
X58592142Y-51069428D02*
X57296904Y-51069428D01*
X56487380Y-51069428D02*
X55192142Y-51069428D01*
X54382619Y-51069428D02*
X53087380Y-51069428D01*
X52277857Y-51069428D02*
X50982619Y-51069428D01*
X50173095Y-51069428D02*
X48877857Y-51069428D01*
X48068333Y-51069428D02*
X46773095Y-51069428D01*
X45963571Y-51069428D02*
X44668333Y-51069428D01*
X75025476Y-55020714D02*
X75025476Y-52592142D01*
X72677857Y-52754047D02*
X71544523Y-54454047D01*
X71544523Y-52754047D02*
X72677857Y-54454047D01*
X70896904Y-53806428D02*
X69601666Y-53806428D01*
X67901666Y-54454047D02*
X68873095Y-54454047D01*
X68387380Y-54454047D02*
X68387380Y-52754047D01*
X68549285Y-52996904D01*
X68711190Y-53158809D01*
X68873095Y-53239761D01*
X58996904Y-55020714D02*
X58996904Y-52592142D01*
X55758809Y-53320714D02*
X55758809Y-54696904D01*
X55839761Y-54858809D01*
X55920714Y-54939761D01*
X56082619Y-55020714D01*
X56325476Y-55020714D01*
X56487380Y-54939761D01*
X55758809Y-54373095D02*
X55920714Y-54454047D01*
X56244523Y-54454047D01*
X56406428Y-54373095D01*
X56487380Y-54292142D01*
X56568333Y-54130238D01*
X56568333Y-53644523D01*
X56487380Y-53482619D01*
X56406428Y-53401666D01*
X56244523Y-53320714D01*
X55920714Y-53320714D01*
X55758809Y-53401666D01*
X54949285Y-53320714D02*
X54949285Y-55020714D01*
X54949285Y-53401666D02*
X54787380Y-53320714D01*
X54463571Y-53320714D01*
X54301666Y-53401666D01*
X54220714Y-53482619D01*
X54139761Y-53644523D01*
X54139761Y-54130238D01*
X54220714Y-54292142D01*
X54301666Y-54373095D01*
X54463571Y-54454047D01*
X54787380Y-54454047D01*
X54949285Y-54373095D01*
X53411190Y-54454047D02*
X53411190Y-53320714D01*
X53411190Y-52754047D02*
X53492142Y-52835000D01*
X53411190Y-52915952D01*
X53330238Y-52835000D01*
X53411190Y-52754047D01*
X53411190Y-52915952D01*
X52358809Y-54454047D02*
X52520714Y-54373095D01*
X52601666Y-54292142D01*
X52682619Y-54130238D01*
X52682619Y-53644523D01*
X52601666Y-53482619D01*
X52520714Y-53401666D01*
X52358809Y-53320714D01*
X52115952Y-53320714D01*
X51954047Y-53401666D01*
X51873095Y-53482619D01*
X51792142Y-53644523D01*
X51792142Y-54130238D01*
X51873095Y-54292142D01*
X51954047Y-54373095D01*
X52115952Y-54454047D01*
X52358809Y-54454047D01*
X50173095Y-54454047D02*
X51144523Y-54454047D01*
X50658809Y-54454047D02*
X50658809Y-52754047D01*
X50820714Y-52996904D01*
X50982619Y-53158809D01*
X51144523Y-53239761D01*
X48715952Y-52754047D02*
X49039761Y-52754047D01*
X49201666Y-52835000D01*
X49282619Y-52915952D01*
X49444523Y-53158809D01*
X49525476Y-53482619D01*
X49525476Y-54130238D01*
X49444523Y-54292142D01*
X49363571Y-54373095D01*
X49201666Y-54454047D01*
X48877857Y-54454047D01*
X48715952Y-54373095D01*
X48634999Y-54292142D01*
X48554047Y-54130238D01*
X48554047Y-53725476D01*
X48634999Y-53563571D01*
X48715952Y-53482619D01*
X48877857Y-53401666D01*
X49201666Y-53401666D01*
X49363571Y-53482619D01*
X49444523Y-53563571D01*
X49525476Y-53725476D01*
X44830238Y-55020714D02*
X44830238Y-52592142D01*
X75430238Y-56543428D02*
X74135000Y-56543428D01*
X73325476Y-56543428D02*
X72030238Y-56543428D01*
X71220714Y-56543428D02*
X69925476Y-56543428D01*
X69115952Y-56543428D02*
X67820714Y-56543428D01*
X67011190Y-56543428D02*
X65715952Y-56543428D01*
X64906428Y-56543428D02*
X63611190Y-56543428D01*
X62801666Y-56543428D02*
X61506428Y-56543428D01*
X60696904Y-56543428D02*
X59401666Y-56543428D01*
X58592142Y-56543428D02*
X57296904Y-56543428D01*
X56487380Y-56543428D02*
X55192142Y-56543428D01*
X54382619Y-56543428D02*
X53087380Y-56543428D01*
X52277857Y-56543428D02*
X50982619Y-56543428D01*
X50173095Y-56543428D02*
X48877857Y-56543428D01*
X48068333Y-56543428D02*
X46773095Y-56543428D01*
X45963571Y-56543428D02*
X44668333Y-56543428D01*
X75025476Y-60494714D02*
X75025476Y-58066142D01*
X72677857Y-58228047D02*
X71544523Y-59928047D01*
X71544523Y-58228047D02*
X72677857Y-59928047D01*
X70896904Y-59280428D02*
X69601666Y-59280428D01*
X67901666Y-59928047D02*
X68873095Y-59928047D01*
X68387380Y-59928047D02*
X68387380Y-58228047D01*
X68549285Y-58470904D01*
X68711190Y-58632809D01*
X68873095Y-58713761D01*
X66849285Y-58228047D02*
X66687380Y-58228047D01*
X66525476Y-58309000D01*
X66444523Y-58389952D01*
X66363571Y-58551857D01*
X66282619Y-58875666D01*
X66282619Y-59280428D01*
X66363571Y-59604238D01*
X66444523Y-59766142D01*
X66525476Y-59847095D01*
X66687380Y-59928047D01*
X66849285Y-59928047D01*
X67011190Y-59847095D01*
X67092142Y-59766142D01*
X67173095Y-59604238D01*
X67254047Y-59280428D01*
X67254047Y-58875666D01*
X67173095Y-58551857D01*
X67092142Y-58389952D01*
X67011190Y-58309000D01*
X66849285Y-58228047D01*
X58673095Y-60494714D02*
X58673095Y-58066142D01*
X55434999Y-58794714D02*
X55434999Y-60170904D01*
X55515952Y-60332809D01*
X55596904Y-60413761D01*
X55758809Y-60494714D01*
X56001666Y-60494714D01*
X56163571Y-60413761D01*
X55434999Y-59847095D02*
X55596904Y-59928047D01*
X55920714Y-59928047D01*
X56082619Y-59847095D01*
X56163571Y-59766142D01*
X56244523Y-59604238D01*
X56244523Y-59118523D01*
X56163571Y-58956619D01*
X56082619Y-58875666D01*
X55920714Y-58794714D01*
X55596904Y-58794714D01*
X55434999Y-58875666D01*
X54625476Y-58794714D02*
X54625476Y-60494714D01*
X54625476Y-58875666D02*
X54463571Y-58794714D01*
X54139761Y-58794714D01*
X53977857Y-58875666D01*
X53896904Y-58956619D01*
X53815952Y-59118523D01*
X53815952Y-59604238D01*
X53896904Y-59766142D01*
X53977857Y-59847095D01*
X54139761Y-59928047D01*
X54463571Y-59928047D01*
X54625476Y-59847095D01*
X53087380Y-59928047D02*
X53087380Y-58794714D01*
X53087380Y-58228047D02*
X53168333Y-58309000D01*
X53087380Y-58389952D01*
X53006428Y-58309000D01*
X53087380Y-58228047D01*
X53087380Y-58389952D01*
X52034999Y-59928047D02*
X52196904Y-59847095D01*
X52277857Y-59766142D01*
X52358809Y-59604238D01*
X52358809Y-59118523D01*
X52277857Y-58956619D01*
X52196904Y-58875666D01*
X52034999Y-58794714D01*
X51792142Y-58794714D01*
X51630238Y-58875666D01*
X51549285Y-58956619D01*
X51468333Y-59118523D01*
X51468333Y-59604238D01*
X51549285Y-59766142D01*
X51630238Y-59847095D01*
X51792142Y-59928047D01*
X52034999Y-59928047D01*
X49849285Y-59928047D02*
X50820714Y-59928047D01*
X50334999Y-59928047D02*
X50334999Y-58228047D01*
X50496904Y-58470904D01*
X50658809Y-58632809D01*
X50820714Y-58713761D01*
X49282619Y-58228047D02*
X48149285Y-58228047D01*
X48877857Y-59928047D01*
X44506428Y-60494714D02*
X44506428Y-58066142D01*
X75430238Y-62017428D02*
X74135000Y-62017428D01*
X73325476Y-62017428D02*
X72030238Y-62017428D01*
X71220714Y-62017428D02*
X69925476Y-62017428D01*
X69115952Y-62017428D02*
X67820714Y-62017428D01*
X67011190Y-62017428D02*
X65715952Y-62017428D01*
X64906428Y-62017428D02*
X63611190Y-62017428D01*
X62801666Y-62017428D02*
X61506428Y-62017428D01*
X60696904Y-62017428D02*
X59401666Y-62017428D01*
X58592142Y-62017428D02*
X57296904Y-62017428D01*
X56487380Y-62017428D02*
X55192142Y-62017428D01*
X54382619Y-62017428D02*
X53087380Y-62017428D01*
X52277857Y-62017428D02*
X50982619Y-62017428D01*
X50173095Y-62017428D02*
X48877857Y-62017428D01*
X48068333Y-62017428D02*
X46773095Y-62017428D01*
X45963571Y-62017428D02*
X44668333Y-62017428D01*
X75025476Y-65968714D02*
X75025476Y-63540142D01*
X72677857Y-63702047D02*
X71544523Y-65402047D01*
X71544523Y-63702047D02*
X72677857Y-65402047D01*
X70896904Y-64754428D02*
X69601666Y-64754428D01*
X67901666Y-65402047D02*
X68873095Y-65402047D01*
X68387380Y-65402047D02*
X68387380Y-63702047D01*
X68549285Y-63944904D01*
X68711190Y-64106809D01*
X68873095Y-64187761D01*
X66849285Y-63702047D02*
X66687380Y-63702047D01*
X66525476Y-63783000D01*
X66444523Y-63863952D01*
X66363571Y-64025857D01*
X66282619Y-64349666D01*
X66282619Y-64754428D01*
X66363571Y-65078238D01*
X66444523Y-65240142D01*
X66525476Y-65321095D01*
X66687380Y-65402047D01*
X66849285Y-65402047D01*
X67011190Y-65321095D01*
X67092142Y-65240142D01*
X67173095Y-65078238D01*
X67254047Y-64754428D01*
X67254047Y-64349666D01*
X67173095Y-64025857D01*
X67092142Y-63863952D01*
X67011190Y-63783000D01*
X66849285Y-63702047D01*
X65230238Y-63702047D02*
X65068333Y-63702047D01*
X64906428Y-63783000D01*
X64825476Y-63863952D01*
X64744523Y-64025857D01*
X64663571Y-64349666D01*
X64663571Y-64754428D01*
X64744523Y-65078238D01*
X64825476Y-65240142D01*
X64906428Y-65321095D01*
X65068333Y-65402047D01*
X65230238Y-65402047D01*
X65392142Y-65321095D01*
X65473095Y-65240142D01*
X65554047Y-65078238D01*
X65635000Y-64754428D01*
X65635000Y-64349666D01*
X65554047Y-64025857D01*
X65473095Y-63863952D01*
X65392142Y-63783000D01*
X65230238Y-63702047D01*
X58349285Y-65968714D02*
X58349285Y-63540142D01*
X55111190Y-64268714D02*
X55111190Y-65644904D01*
X55192142Y-65806809D01*
X55273095Y-65887761D01*
X55434999Y-65968714D01*
X55677857Y-65968714D01*
X55839761Y-65887761D01*
X55111190Y-65321095D02*
X55273095Y-65402047D01*
X55596904Y-65402047D01*
X55758809Y-65321095D01*
X55839761Y-65240142D01*
X55920714Y-65078238D01*
X55920714Y-64592523D01*
X55839761Y-64430619D01*
X55758809Y-64349666D01*
X55596904Y-64268714D01*
X55273095Y-64268714D01*
X55111190Y-64349666D01*
X54301666Y-64268714D02*
X54301666Y-65968714D01*
X54301666Y-64349666D02*
X54139761Y-64268714D01*
X53815952Y-64268714D01*
X53654047Y-64349666D01*
X53573095Y-64430619D01*
X53492142Y-64592523D01*
X53492142Y-65078238D01*
X53573095Y-65240142D01*
X53654047Y-65321095D01*
X53815952Y-65402047D01*
X54139761Y-65402047D01*
X54301666Y-65321095D01*
X52763571Y-65402047D02*
X52763571Y-64268714D01*
X52763571Y-63702047D02*
X52844523Y-63783000D01*
X52763571Y-63863952D01*
X52682619Y-63783000D01*
X52763571Y-63702047D01*
X52763571Y-63863952D01*
X51711190Y-65402047D02*
X51873095Y-65321095D01*
X51954047Y-65240142D01*
X52034999Y-65078238D01*
X52034999Y-64592523D01*
X51954047Y-64430619D01*
X51873095Y-64349666D01*
X51711190Y-64268714D01*
X51468333Y-64268714D01*
X51306428Y-64349666D01*
X51225476Y-64430619D01*
X51144523Y-64592523D01*
X51144523Y-65078238D01*
X51225476Y-65240142D01*
X51306428Y-65321095D01*
X51468333Y-65402047D01*
X51711190Y-65402047D01*
X49525476Y-65402047D02*
X50496904Y-65402047D01*
X50011190Y-65402047D02*
X50011190Y-63702047D01*
X50173095Y-63944904D01*
X50334999Y-64106809D01*
X50496904Y-64187761D01*
X48554047Y-64430619D02*
X48715952Y-64349666D01*
X48796904Y-64268714D01*
X48877857Y-64106809D01*
X48877857Y-64025857D01*
X48796904Y-63863952D01*
X48715952Y-63783000D01*
X48554047Y-63702047D01*
X48230238Y-63702047D01*
X48068333Y-63783000D01*
X47987380Y-63863952D01*
X47906428Y-64025857D01*
X47906428Y-64106809D01*
X47987380Y-64268714D01*
X48068333Y-64349666D01*
X48230238Y-64430619D01*
X48554047Y-64430619D01*
X48715952Y-64511571D01*
X48796904Y-64592523D01*
X48877857Y-64754428D01*
X48877857Y-65078238D01*
X48796904Y-65240142D01*
X48715952Y-65321095D01*
X48554047Y-65402047D01*
X48230238Y-65402047D01*
X48068333Y-65321095D01*
X47987380Y-65240142D01*
X47906428Y-65078238D01*
X47906428Y-64754428D01*
X47987380Y-64592523D01*
X48068333Y-64511571D01*
X48230238Y-64430619D01*
X44182619Y-65968714D02*
X44182619Y-63540142D01*
X75430238Y-67491428D02*
X74135000Y-67491428D01*
X73325476Y-67491428D02*
X72030238Y-67491428D01*
X71220714Y-67491428D02*
X69925476Y-67491428D01*
X69115952Y-67491428D02*
X67820714Y-67491428D01*
X67011190Y-67491428D02*
X65715952Y-67491428D01*
X64906428Y-67491428D02*
X63611190Y-67491428D01*
X62801666Y-67491428D02*
X61506428Y-67491428D01*
X60696904Y-67491428D02*
X59401666Y-67491428D01*
X58592142Y-67491428D02*
X57296904Y-67491428D01*
X56487380Y-67491428D02*
X55192142Y-67491428D01*
X54382619Y-67491428D02*
X53087380Y-67491428D01*
X52277857Y-67491428D02*
X50982619Y-67491428D01*
X50173095Y-67491428D02*
X48877857Y-67491428D01*
X48068333Y-67491428D02*
X46773095Y-67491428D01*
X45963571Y-67491428D02*
X44668333Y-67491428D01*
X75025476Y-71442714D02*
X75025476Y-69014142D01*
X72192142Y-70066523D02*
X72192142Y-70876047D01*
X72758809Y-69176047D02*
X72192142Y-70066523D01*
X71625476Y-69176047D01*
X71058809Y-70228428D02*
X69763571Y-70228428D01*
X70411190Y-70876047D02*
X70411190Y-69580809D01*
X68063571Y-70876047D02*
X69035000Y-70876047D01*
X68549285Y-70876047D02*
X68549285Y-69176047D01*
X68711190Y-69418904D01*
X68873095Y-69580809D01*
X69035000Y-69661761D01*
X59158809Y-71442714D02*
X59158809Y-69014142D01*
X55920714Y-69742714D02*
X55920714Y-71118904D01*
X56001666Y-71280809D01*
X56082619Y-71361761D01*
X56244523Y-71442714D01*
X56487380Y-71442714D01*
X56649285Y-71361761D01*
X55920714Y-70795095D02*
X56082619Y-70876047D01*
X56406428Y-70876047D01*
X56568333Y-70795095D01*
X56649285Y-70714142D01*
X56730238Y-70552238D01*
X56730238Y-70066523D01*
X56649285Y-69904619D01*
X56568333Y-69823666D01*
X56406428Y-69742714D01*
X56082619Y-69742714D01*
X55920714Y-69823666D01*
X55111190Y-69742714D02*
X55111190Y-71442714D01*
X55111190Y-69823666D02*
X54949285Y-69742714D01*
X54625476Y-69742714D01*
X54463571Y-69823666D01*
X54382619Y-69904619D01*
X54301666Y-70066523D01*
X54301666Y-70552238D01*
X54382619Y-70714142D01*
X54463571Y-70795095D01*
X54625476Y-70876047D01*
X54949285Y-70876047D01*
X55111190Y-70795095D01*
X53573095Y-70876047D02*
X53573095Y-69742714D01*
X53573095Y-69176047D02*
X53654047Y-69257000D01*
X53573095Y-69337952D01*
X53492142Y-69257000D01*
X53573095Y-69176047D01*
X53573095Y-69337952D01*
X52520714Y-70876047D02*
X52682619Y-70795095D01*
X52763571Y-70714142D01*
X52844523Y-70552238D01*
X52844523Y-70066523D01*
X52763571Y-69904619D01*
X52682619Y-69823666D01*
X52520714Y-69742714D01*
X52277857Y-69742714D01*
X52115952Y-69823666D01*
X52034999Y-69904619D01*
X51954047Y-70066523D01*
X51954047Y-70552238D01*
X52034999Y-70714142D01*
X52115952Y-70795095D01*
X52277857Y-70876047D01*
X52520714Y-70876047D01*
X50334999Y-70876047D02*
X51306428Y-70876047D01*
X50820714Y-70876047D02*
X50820714Y-69176047D01*
X50982619Y-69418904D01*
X51144523Y-69580809D01*
X51306428Y-69661761D01*
X49525476Y-70876047D02*
X49201666Y-70876047D01*
X49039761Y-70795095D01*
X48958809Y-70714142D01*
X48796904Y-70471285D01*
X48715952Y-70147476D01*
X48715952Y-69499857D01*
X48796904Y-69337952D01*
X48877857Y-69257000D01*
X49039761Y-69176047D01*
X49363571Y-69176047D01*
X49525476Y-69257000D01*
X49606428Y-69337952D01*
X49687380Y-69499857D01*
X49687380Y-69904619D01*
X49606428Y-70066523D01*
X49525476Y-70147476D01*
X49363571Y-70228428D01*
X49039761Y-70228428D01*
X48877857Y-70147476D01*
X48796904Y-70066523D01*
X48715952Y-69904619D01*
X44992142Y-71442714D02*
X44992142Y-69014142D01*
X75430238Y-72965428D02*
X74135000Y-72965428D01*
X73325476Y-72965428D02*
X72030238Y-72965428D01*
X71220714Y-72965428D02*
X69925476Y-72965428D01*
X69115952Y-72965428D02*
X67820714Y-72965428D01*
X67011190Y-72965428D02*
X65715952Y-72965428D01*
X64906428Y-72965428D02*
X63611190Y-72965428D01*
X62801666Y-72965428D02*
X61506428Y-72965428D01*
X60696904Y-72965428D02*
X59401666Y-72965428D01*
X58592142Y-72965428D02*
X57296904Y-72965428D01*
X56487380Y-72965428D02*
X55192142Y-72965428D01*
X54382619Y-72965428D02*
X53087380Y-72965428D01*
X52277857Y-72965428D02*
X50982619Y-72965428D01*
X50173095Y-72965428D02*
X48877857Y-72965428D01*
X48068333Y-72965428D02*
X46773095Y-72965428D01*
X45963571Y-72965428D02*
X44668333Y-72965428D01*
X75025476Y-76916714D02*
X75025476Y-74488142D01*
X72192142Y-75540523D02*
X72192142Y-76350047D01*
X72758809Y-74650047D02*
X72192142Y-75540523D01*
X71625476Y-74650047D01*
X71058809Y-75702428D02*
X69763571Y-75702428D01*
X70411190Y-76350047D02*
X70411190Y-75054809D01*
X68063571Y-76350047D02*
X69035000Y-76350047D01*
X68549285Y-76350047D02*
X68549285Y-74650047D01*
X68711190Y-74892904D01*
X68873095Y-75054809D01*
X69035000Y-75135761D01*
X67011190Y-74650047D02*
X66849285Y-74650047D01*
X66687380Y-74731000D01*
X66606428Y-74811952D01*
X66525476Y-74973857D01*
X66444523Y-75297666D01*
X66444523Y-75702428D01*
X66525476Y-76026238D01*
X66606428Y-76188142D01*
X66687380Y-76269095D01*
X66849285Y-76350047D01*
X67011190Y-76350047D01*
X67173095Y-76269095D01*
X67254047Y-76188142D01*
X67335000Y-76026238D01*
X67415952Y-75702428D01*
X67415952Y-75297666D01*
X67335000Y-74973857D01*
X67254047Y-74811952D01*
X67173095Y-74731000D01*
X67011190Y-74650047D01*
X58834999Y-76916714D02*
X58834999Y-74488142D01*
X55596904Y-75216714D02*
X55596904Y-76592904D01*
X55677857Y-76754809D01*
X55758809Y-76835761D01*
X55920714Y-76916714D01*
X56163571Y-76916714D01*
X56325476Y-76835761D01*
X55596904Y-76269095D02*
X55758809Y-76350047D01*
X56082619Y-76350047D01*
X56244523Y-76269095D01*
X56325476Y-76188142D01*
X56406428Y-76026238D01*
X56406428Y-75540523D01*
X56325476Y-75378619D01*
X56244523Y-75297666D01*
X56082619Y-75216714D01*
X55758809Y-75216714D01*
X55596904Y-75297666D01*
X54787380Y-75216714D02*
X54787380Y-76916714D01*
X54787380Y-75297666D02*
X54625476Y-75216714D01*
X54301666Y-75216714D01*
X54139761Y-75297666D01*
X54058809Y-75378619D01*
X53977857Y-75540523D01*
X53977857Y-76026238D01*
X54058809Y-76188142D01*
X54139761Y-76269095D01*
X54301666Y-76350047D01*
X54625476Y-76350047D01*
X54787380Y-76269095D01*
X53249285Y-76350047D02*
X53249285Y-75216714D01*
X53249285Y-74650047D02*
X53330238Y-74731000D01*
X53249285Y-74811952D01*
X53168333Y-74731000D01*
X53249285Y-74650047D01*
X53249285Y-74811952D01*
X52196904Y-76350047D02*
X52358809Y-76269095D01*
X52439761Y-76188142D01*
X52520714Y-76026238D01*
X52520714Y-75540523D01*
X52439761Y-75378619D01*
X52358809Y-75297666D01*
X52196904Y-75216714D01*
X51954047Y-75216714D01*
X51792142Y-75297666D01*
X51711190Y-75378619D01*
X51630238Y-75540523D01*
X51630238Y-76026238D01*
X51711190Y-76188142D01*
X51792142Y-76269095D01*
X51954047Y-76350047D01*
X52196904Y-76350047D01*
X50982619Y-74811952D02*
X50901666Y-74731000D01*
X50739761Y-74650047D01*
X50334999Y-74650047D01*
X50173095Y-74731000D01*
X50092142Y-74811952D01*
X50011190Y-74973857D01*
X50011190Y-75135761D01*
X50092142Y-75378619D01*
X51063571Y-76350047D01*
X50011190Y-76350047D01*
X48958809Y-74650047D02*
X48796904Y-74650047D01*
X48634999Y-74731000D01*
X48554047Y-74811952D01*
X48473095Y-74973857D01*
X48392142Y-75297666D01*
X48392142Y-75702428D01*
X48473095Y-76026238D01*
X48554047Y-76188142D01*
X48634999Y-76269095D01*
X48796904Y-76350047D01*
X48958809Y-76350047D01*
X49120714Y-76269095D01*
X49201666Y-76188142D01*
X49282619Y-76026238D01*
X49363571Y-75702428D01*
X49363571Y-75297666D01*
X49282619Y-74973857D01*
X49201666Y-74811952D01*
X49120714Y-74731000D01*
X48958809Y-74650047D01*
X44668333Y-76916714D02*
X44668333Y-74488142D01*
X75430238Y-78439428D02*
X74135000Y-78439428D01*
X73325476Y-78439428D02*
X72030238Y-78439428D01*
X71220714Y-78439428D02*
X69925476Y-78439428D01*
X69115952Y-78439428D02*
X67820714Y-78439428D01*
X67011190Y-78439428D02*
X65715952Y-78439428D01*
X64906428Y-78439428D02*
X63611190Y-78439428D01*
X62801666Y-78439428D02*
X61506428Y-78439428D01*
X60696904Y-78439428D02*
X59401666Y-78439428D01*
X58592142Y-78439428D02*
X57296904Y-78439428D01*
X56487380Y-78439428D02*
X55192142Y-78439428D01*
X54382619Y-78439428D02*
X53087380Y-78439428D01*
X52277857Y-78439428D02*
X50982619Y-78439428D01*
X50173095Y-78439428D02*
X48877857Y-78439428D01*
X48068333Y-78439428D02*
X46773095Y-78439428D01*
X45963571Y-78439428D02*
X44668333Y-78439428D01*
X75025476Y-82390714D02*
X75025476Y-79962142D01*
X72192142Y-81014523D02*
X72192142Y-81824047D01*
X72758809Y-80124047D02*
X72192142Y-81014523D01*
X71625476Y-80124047D01*
X71058809Y-81176428D02*
X69763571Y-81176428D01*
X70411190Y-81824047D02*
X70411190Y-80528809D01*
X68063571Y-81824047D02*
X69035000Y-81824047D01*
X68549285Y-81824047D02*
X68549285Y-80124047D01*
X68711190Y-80366904D01*
X68873095Y-80528809D01*
X69035000Y-80609761D01*
X67011190Y-80124047D02*
X66849285Y-80124047D01*
X66687380Y-80205000D01*
X66606428Y-80285952D01*
X66525476Y-80447857D01*
X66444523Y-80771666D01*
X66444523Y-81176428D01*
X66525476Y-81500238D01*
X66606428Y-81662142D01*
X66687380Y-81743095D01*
X66849285Y-81824047D01*
X67011190Y-81824047D01*
X67173095Y-81743095D01*
X67254047Y-81662142D01*
X67335000Y-81500238D01*
X67415952Y-81176428D01*
X67415952Y-80771666D01*
X67335000Y-80447857D01*
X67254047Y-80285952D01*
X67173095Y-80205000D01*
X67011190Y-80124047D01*
X65392142Y-80124047D02*
X65230238Y-80124047D01*
X65068333Y-80205000D01*
X64987380Y-80285952D01*
X64906428Y-80447857D01*
X64825476Y-80771666D01*
X64825476Y-81176428D01*
X64906428Y-81500238D01*
X64987380Y-81662142D01*
X65068333Y-81743095D01*
X65230238Y-81824047D01*
X65392142Y-81824047D01*
X65554047Y-81743095D01*
X65635000Y-81662142D01*
X65715952Y-81500238D01*
X65796904Y-81176428D01*
X65796904Y-80771666D01*
X65715952Y-80447857D01*
X65635000Y-80285952D01*
X65554047Y-80205000D01*
X65392142Y-80124047D01*
X58511190Y-82390714D02*
X58511190Y-79962142D01*
X55273095Y-80690714D02*
X55273095Y-82066904D01*
X55354047Y-82228809D01*
X55434999Y-82309761D01*
X55596904Y-82390714D01*
X55839761Y-82390714D01*
X56001666Y-82309761D01*
X55273095Y-81743095D02*
X55434999Y-81824047D01*
X55758809Y-81824047D01*
X55920714Y-81743095D01*
X56001666Y-81662142D01*
X56082619Y-81500238D01*
X56082619Y-81014523D01*
X56001666Y-80852619D01*
X55920714Y-80771666D01*
X55758809Y-80690714D01*
X55434999Y-80690714D01*
X55273095Y-80771666D01*
X54463571Y-80690714D02*
X54463571Y-82390714D01*
X54463571Y-80771666D02*
X54301666Y-80690714D01*
X53977857Y-80690714D01*
X53815952Y-80771666D01*
X53734999Y-80852619D01*
X53654047Y-81014523D01*
X53654047Y-81500238D01*
X53734999Y-81662142D01*
X53815952Y-81743095D01*
X53977857Y-81824047D01*
X54301666Y-81824047D01*
X54463571Y-81743095D01*
X52925476Y-81824047D02*
X52925476Y-80690714D01*
X52925476Y-80124047D02*
X53006428Y-80205000D01*
X52925476Y-80285952D01*
X52844523Y-80205000D01*
X52925476Y-80124047D01*
X52925476Y-80285952D01*
X51873095Y-81824047D02*
X52034999Y-81743095D01*
X52115952Y-81662142D01*
X52196904Y-81500238D01*
X52196904Y-81014523D01*
X52115952Y-80852619D01*
X52034999Y-80771666D01*
X51873095Y-80690714D01*
X51630238Y-80690714D01*
X51468333Y-80771666D01*
X51387380Y-80852619D01*
X51306428Y-81014523D01*
X51306428Y-81500238D01*
X51387380Y-81662142D01*
X51468333Y-81743095D01*
X51630238Y-81824047D01*
X51873095Y-81824047D01*
X50658809Y-80285952D02*
X50577857Y-80205000D01*
X50415952Y-80124047D01*
X50011190Y-80124047D01*
X49849285Y-80205000D01*
X49768333Y-80285952D01*
X49687380Y-80447857D01*
X49687380Y-80609761D01*
X49768333Y-80852619D01*
X50739761Y-81824047D01*
X49687380Y-81824047D01*
X48068333Y-81824047D02*
X49039761Y-81824047D01*
X48554047Y-81824047D02*
X48554047Y-80124047D01*
X48715952Y-80366904D01*
X48877857Y-80528809D01*
X49039761Y-80609761D01*
X44344523Y-82390714D02*
X44344523Y-79962142D01*
X75430238Y-83913428D02*
X74135000Y-83913428D01*
X73325476Y-83913428D02*
X72030238Y-83913428D01*
X71220714Y-83913428D02*
X69925476Y-83913428D01*
X69115952Y-83913428D02*
X67820714Y-83913428D01*
X67011190Y-83913428D02*
X65715952Y-83913428D01*
X64906428Y-83913428D02*
X63611190Y-83913428D01*
X62801666Y-83913428D02*
X61506428Y-83913428D01*
X60696904Y-83913428D02*
X59401666Y-83913428D01*
X58592142Y-83913428D02*
X57296904Y-83913428D01*
X56487380Y-83913428D02*
X55192142Y-83913428D01*
X54382619Y-83913428D02*
X53087380Y-83913428D01*
X52277857Y-83913428D02*
X50982619Y-83913428D01*
X50173095Y-83913428D02*
X48877857Y-83913428D01*
X48068333Y-83913428D02*
X46773095Y-83913428D01*
X45963571Y-83913428D02*
X44668333Y-83913428D01*
X75025476Y-87864714D02*
X75025476Y-85436142D01*
X72192142Y-86488523D02*
X72192142Y-87298047D01*
X72758809Y-85598047D02*
X72192142Y-86488523D01*
X71625476Y-85598047D01*
X71058809Y-86650428D02*
X69763571Y-86650428D01*
X68063571Y-87298047D02*
X69035000Y-87298047D01*
X68549285Y-87298047D02*
X68549285Y-85598047D01*
X68711190Y-85840904D01*
X68873095Y-86002809D01*
X69035000Y-86083761D01*
X59158809Y-87864714D02*
X59158809Y-85436142D01*
X55920714Y-86164714D02*
X55920714Y-87540904D01*
X56001666Y-87702809D01*
X56082619Y-87783761D01*
X56244523Y-87864714D01*
X56487380Y-87864714D01*
X56649285Y-87783761D01*
X55920714Y-87217095D02*
X56082619Y-87298047D01*
X56406428Y-87298047D01*
X56568333Y-87217095D01*
X56649285Y-87136142D01*
X56730238Y-86974238D01*
X56730238Y-86488523D01*
X56649285Y-86326619D01*
X56568333Y-86245666D01*
X56406428Y-86164714D01*
X56082619Y-86164714D01*
X55920714Y-86245666D01*
X55111190Y-86164714D02*
X55111190Y-87864714D01*
X55111190Y-86245666D02*
X54949285Y-86164714D01*
X54625476Y-86164714D01*
X54463571Y-86245666D01*
X54382619Y-86326619D01*
X54301666Y-86488523D01*
X54301666Y-86974238D01*
X54382619Y-87136142D01*
X54463571Y-87217095D01*
X54625476Y-87298047D01*
X54949285Y-87298047D01*
X55111190Y-87217095D01*
X53573095Y-87298047D02*
X53573095Y-86164714D01*
X53573095Y-85598047D02*
X53654047Y-85679000D01*
X53573095Y-85759952D01*
X53492142Y-85679000D01*
X53573095Y-85598047D01*
X53573095Y-85759952D01*
X52520714Y-87298047D02*
X52682619Y-87217095D01*
X52763571Y-87136142D01*
X52844523Y-86974238D01*
X52844523Y-86488523D01*
X52763571Y-86326619D01*
X52682619Y-86245666D01*
X52520714Y-86164714D01*
X52277857Y-86164714D01*
X52115952Y-86245666D01*
X52034999Y-86326619D01*
X51954047Y-86488523D01*
X51954047Y-86974238D01*
X52034999Y-87136142D01*
X52115952Y-87217095D01*
X52277857Y-87298047D01*
X52520714Y-87298047D01*
X50334999Y-87298047D02*
X51306428Y-87298047D01*
X50820714Y-87298047D02*
X50820714Y-85598047D01*
X50982619Y-85840904D01*
X51144523Y-86002809D01*
X51306428Y-86083761D01*
X49687380Y-85759952D02*
X49606428Y-85679000D01*
X49444523Y-85598047D01*
X49039761Y-85598047D01*
X48877857Y-85679000D01*
X48796904Y-85759952D01*
X48715952Y-85921857D01*
X48715952Y-86083761D01*
X48796904Y-86326619D01*
X49768333Y-87298047D01*
X48715952Y-87298047D01*
X44992142Y-87864714D02*
X44992142Y-85436142D01*
X75430238Y-89387428D02*
X74135000Y-89387428D01*
X73325476Y-89387428D02*
X72030238Y-89387428D01*
X71220714Y-89387428D02*
X69925476Y-89387428D01*
X69115952Y-89387428D02*
X67820714Y-89387428D01*
X67011190Y-89387428D02*
X65715952Y-89387428D01*
X64906428Y-89387428D02*
X63611190Y-89387428D01*
X62801666Y-89387428D02*
X61506428Y-89387428D01*
X60696904Y-89387428D02*
X59401666Y-89387428D01*
X58592142Y-89387428D02*
X57296904Y-89387428D01*
X56487380Y-89387428D02*
X55192142Y-89387428D01*
X54382619Y-89387428D02*
X53087380Y-89387428D01*
X52277857Y-89387428D02*
X50982619Y-89387428D01*
X50173095Y-89387428D02*
X48877857Y-89387428D01*
X48068333Y-89387428D02*
X46773095Y-89387428D01*
X45963571Y-89387428D02*
X44668333Y-89387428D01*
X75025476Y-93338714D02*
X75025476Y-90910142D01*
X72192142Y-91962523D02*
X72192142Y-92772047D01*
X72758809Y-91072047D02*
X72192142Y-91962523D01*
X71625476Y-91072047D01*
X71058809Y-92124428D02*
X69763571Y-92124428D01*
X68063571Y-92772047D02*
X69035000Y-92772047D01*
X68549285Y-92772047D02*
X68549285Y-91072047D01*
X68711190Y-91314904D01*
X68873095Y-91476809D01*
X69035000Y-91557761D01*
X67011190Y-91072047D02*
X66849285Y-91072047D01*
X66687380Y-91153000D01*
X66606428Y-91233952D01*
X66525476Y-91395857D01*
X66444523Y-91719666D01*
X66444523Y-92124428D01*
X66525476Y-92448238D01*
X66606428Y-92610142D01*
X66687380Y-92691095D01*
X66849285Y-92772047D01*
X67011190Y-92772047D01*
X67173095Y-92691095D01*
X67254047Y-92610142D01*
X67335000Y-92448238D01*
X67415952Y-92124428D01*
X67415952Y-91719666D01*
X67335000Y-91395857D01*
X67254047Y-91233952D01*
X67173095Y-91153000D01*
X67011190Y-91072047D01*
X58834999Y-93338714D02*
X58834999Y-90910142D01*
X55596904Y-91638714D02*
X55596904Y-93014904D01*
X55677857Y-93176809D01*
X55758809Y-93257761D01*
X55920714Y-93338714D01*
X56163571Y-93338714D01*
X56325476Y-93257761D01*
X55596904Y-92691095D02*
X55758809Y-92772047D01*
X56082619Y-92772047D01*
X56244523Y-92691095D01*
X56325476Y-92610142D01*
X56406428Y-92448238D01*
X56406428Y-91962523D01*
X56325476Y-91800619D01*
X56244523Y-91719666D01*
X56082619Y-91638714D01*
X55758809Y-91638714D01*
X55596904Y-91719666D01*
X54787380Y-91638714D02*
X54787380Y-93338714D01*
X54787380Y-91719666D02*
X54625476Y-91638714D01*
X54301666Y-91638714D01*
X54139761Y-91719666D01*
X54058809Y-91800619D01*
X53977857Y-91962523D01*
X53977857Y-92448238D01*
X54058809Y-92610142D01*
X54139761Y-92691095D01*
X54301666Y-92772047D01*
X54625476Y-92772047D01*
X54787380Y-92691095D01*
X53249285Y-92772047D02*
X53249285Y-91638714D01*
X53249285Y-91072047D02*
X53330238Y-91153000D01*
X53249285Y-91233952D01*
X53168333Y-91153000D01*
X53249285Y-91072047D01*
X53249285Y-91233952D01*
X52196904Y-92772047D02*
X52358809Y-92691095D01*
X52439761Y-92610142D01*
X52520714Y-92448238D01*
X52520714Y-91962523D01*
X52439761Y-91800619D01*
X52358809Y-91719666D01*
X52196904Y-91638714D01*
X51954047Y-91638714D01*
X51792142Y-91719666D01*
X51711190Y-91800619D01*
X51630238Y-91962523D01*
X51630238Y-92448238D01*
X51711190Y-92610142D01*
X51792142Y-92691095D01*
X51954047Y-92772047D01*
X52196904Y-92772047D01*
X50011190Y-92772047D02*
X50982619Y-92772047D01*
X50496904Y-92772047D02*
X50496904Y-91072047D01*
X50658809Y-91314904D01*
X50820714Y-91476809D01*
X50982619Y-91557761D01*
X48392142Y-92772047D02*
X49363571Y-92772047D01*
X48877857Y-92772047D02*
X48877857Y-91072047D01*
X49039761Y-91314904D01*
X49201666Y-91476809D01*
X49363571Y-91557761D01*
X44668333Y-93338714D02*
X44668333Y-90910142D01*
X75430238Y-94861428D02*
X74135000Y-94861428D01*
X73325476Y-94861428D02*
X72030238Y-94861428D01*
X71220714Y-94861428D02*
X69925476Y-94861428D01*
X69115952Y-94861428D02*
X67820714Y-94861428D01*
X67011190Y-94861428D02*
X65715952Y-94861428D01*
X64906428Y-94861428D02*
X63611190Y-94861428D01*
X62801666Y-94861428D02*
X61506428Y-94861428D01*
X60696904Y-94861428D02*
X59401666Y-94861428D01*
X58592142Y-94861428D02*
X57296904Y-94861428D01*
X56487380Y-94861428D02*
X55192142Y-94861428D01*
X54382619Y-94861428D02*
X53087380Y-94861428D01*
X52277857Y-94861428D02*
X50982619Y-94861428D01*
X50173095Y-94861428D02*
X48877857Y-94861428D01*
X48068333Y-94861428D02*
X46773095Y-94861428D01*
X45963571Y-94861428D02*
X44668333Y-94861428D01*
X75025476Y-98812714D02*
X75025476Y-96384142D01*
X72192142Y-97436523D02*
X72192142Y-98246047D01*
X72758809Y-96546047D02*
X72192142Y-97436523D01*
X71625476Y-96546047D01*
X71058809Y-97598428D02*
X69763571Y-97598428D01*
X68063571Y-98246047D02*
X69035000Y-98246047D01*
X68549285Y-98246047D02*
X68549285Y-96546047D01*
X68711190Y-96788904D01*
X68873095Y-96950809D01*
X69035000Y-97031761D01*
X67011190Y-96546047D02*
X66849285Y-96546047D01*
X66687380Y-96627000D01*
X66606428Y-96707952D01*
X66525476Y-96869857D01*
X66444523Y-97193666D01*
X66444523Y-97598428D01*
X66525476Y-97922238D01*
X66606428Y-98084142D01*
X66687380Y-98165095D01*
X66849285Y-98246047D01*
X67011190Y-98246047D01*
X67173095Y-98165095D01*
X67254047Y-98084142D01*
X67335000Y-97922238D01*
X67415952Y-97598428D01*
X67415952Y-97193666D01*
X67335000Y-96869857D01*
X67254047Y-96707952D01*
X67173095Y-96627000D01*
X67011190Y-96546047D01*
X65392142Y-96546047D02*
X65230238Y-96546047D01*
X65068333Y-96627000D01*
X64987380Y-96707952D01*
X64906428Y-96869857D01*
X64825476Y-97193666D01*
X64825476Y-97598428D01*
X64906428Y-97922238D01*
X64987380Y-98084142D01*
X65068333Y-98165095D01*
X65230238Y-98246047D01*
X65392142Y-98246047D01*
X65554047Y-98165095D01*
X65635000Y-98084142D01*
X65715952Y-97922238D01*
X65796904Y-97598428D01*
X65796904Y-97193666D01*
X65715952Y-96869857D01*
X65635000Y-96707952D01*
X65554047Y-96627000D01*
X65392142Y-96546047D01*
X58511190Y-98812714D02*
X58511190Y-96384142D01*
X55273095Y-97112714D02*
X55273095Y-98488904D01*
X55354047Y-98650809D01*
X55434999Y-98731761D01*
X55596904Y-98812714D01*
X55839761Y-98812714D01*
X56001666Y-98731761D01*
X55273095Y-98165095D02*
X55434999Y-98246047D01*
X55758809Y-98246047D01*
X55920714Y-98165095D01*
X56001666Y-98084142D01*
X56082619Y-97922238D01*
X56082619Y-97436523D01*
X56001666Y-97274619D01*
X55920714Y-97193666D01*
X55758809Y-97112714D01*
X55434999Y-97112714D01*
X55273095Y-97193666D01*
X54463571Y-97112714D02*
X54463571Y-98812714D01*
X54463571Y-97193666D02*
X54301666Y-97112714D01*
X53977857Y-97112714D01*
X53815952Y-97193666D01*
X53734999Y-97274619D01*
X53654047Y-97436523D01*
X53654047Y-97922238D01*
X53734999Y-98084142D01*
X53815952Y-98165095D01*
X53977857Y-98246047D01*
X54301666Y-98246047D01*
X54463571Y-98165095D01*
X52925476Y-98246047D02*
X52925476Y-97112714D01*
X52925476Y-96546047D02*
X53006428Y-96627000D01*
X52925476Y-96707952D01*
X52844523Y-96627000D01*
X52925476Y-96546047D01*
X52925476Y-96707952D01*
X51873095Y-98246047D02*
X52034999Y-98165095D01*
X52115952Y-98084142D01*
X52196904Y-97922238D01*
X52196904Y-97436523D01*
X52115952Y-97274619D01*
X52034999Y-97193666D01*
X51873095Y-97112714D01*
X51630238Y-97112714D01*
X51468333Y-97193666D01*
X51387380Y-97274619D01*
X51306428Y-97436523D01*
X51306428Y-97922238D01*
X51387380Y-98084142D01*
X51468333Y-98165095D01*
X51630238Y-98246047D01*
X51873095Y-98246047D01*
X50496904Y-98246047D02*
X50173095Y-98246047D01*
X50011190Y-98165095D01*
X49930238Y-98084142D01*
X49768333Y-97841285D01*
X49687380Y-97517476D01*
X49687380Y-96869857D01*
X49768333Y-96707952D01*
X49849285Y-96627000D01*
X50011190Y-96546047D01*
X50334999Y-96546047D01*
X50496904Y-96627000D01*
X50577857Y-96707952D01*
X50658809Y-96869857D01*
X50658809Y-97274619D01*
X50577857Y-97436523D01*
X50496904Y-97517476D01*
X50334999Y-97598428D01*
X50011190Y-97598428D01*
X49849285Y-97517476D01*
X49768333Y-97436523D01*
X49687380Y-97274619D01*
X44668333Y-98812714D02*
X44668333Y-96384142D01*
X75430238Y-100335428D02*
X74135000Y-100335428D01*
X73325476Y-100335428D02*
X72030238Y-100335428D01*
X71220714Y-100335428D02*
X69925476Y-100335428D01*
X69115952Y-100335428D02*
X67820714Y-100335428D01*
X67011190Y-100335428D02*
X65715952Y-100335428D01*
X64906428Y-100335428D02*
X63611190Y-100335428D01*
X62801666Y-100335428D02*
X61506428Y-100335428D01*
X60696904Y-100335428D02*
X59401666Y-100335428D01*
X58592142Y-100335428D02*
X57296904Y-100335428D01*
X56487380Y-100335428D02*
X55192142Y-100335428D01*
X54382619Y-100335428D02*
X53087380Y-100335428D01*
X52277857Y-100335428D02*
X50982619Y-100335428D01*
X50173095Y-100335428D02*
X48877857Y-100335428D01*
X48068333Y-100335428D02*
X46773095Y-100335428D01*
X45963571Y-100335428D02*
X44668333Y-100335428D01*
X75025476Y-104286714D02*
X75025476Y-101858142D01*
X72677857Y-102020047D02*
X71544523Y-102020047D01*
X72677857Y-103720047D01*
X71544523Y-103720047D01*
X70896904Y-103072428D02*
X69601666Y-103072428D01*
X70249285Y-103720047D02*
X70249285Y-102424809D01*
X68468333Y-102020047D02*
X68306428Y-102020047D01*
X68144523Y-102101000D01*
X68063571Y-102181952D01*
X67982619Y-102343857D01*
X67901666Y-102667666D01*
X67901666Y-103072428D01*
X67982619Y-103396238D01*
X68063571Y-103558142D01*
X68144523Y-103639095D01*
X68306428Y-103720047D01*
X68468333Y-103720047D01*
X68630238Y-103639095D01*
X68711190Y-103558142D01*
X68792142Y-103396238D01*
X68873095Y-103072428D01*
X68873095Y-102667666D01*
X68792142Y-102343857D01*
X68711190Y-102181952D01*
X68630238Y-102101000D01*
X68468333Y-102020047D01*
X67173095Y-103558142D02*
X67092142Y-103639095D01*
X67173095Y-103720047D01*
X67254047Y-103639095D01*
X67173095Y-103558142D01*
X67173095Y-103720047D01*
X65473095Y-103720047D02*
X66444523Y-103720047D01*
X65958809Y-103720047D02*
X65958809Y-102020047D01*
X66120714Y-102262904D01*
X66282619Y-102424809D01*
X66444523Y-102505761D01*
X59158809Y-104286714D02*
X59158809Y-101858142D01*
X55920714Y-102586714D02*
X55920714Y-103962904D01*
X56001666Y-104124809D01*
X56082619Y-104205761D01*
X56244523Y-104286714D01*
X56487380Y-104286714D01*
X56649285Y-104205761D01*
X55920714Y-103639095D02*
X56082619Y-103720047D01*
X56406428Y-103720047D01*
X56568333Y-103639095D01*
X56649285Y-103558142D01*
X56730238Y-103396238D01*
X56730238Y-102910523D01*
X56649285Y-102748619D01*
X56568333Y-102667666D01*
X56406428Y-102586714D01*
X56082619Y-102586714D01*
X55920714Y-102667666D01*
X55111190Y-102586714D02*
X55111190Y-104286714D01*
X55111190Y-102667666D02*
X54949285Y-102586714D01*
X54625476Y-102586714D01*
X54463571Y-102667666D01*
X54382619Y-102748619D01*
X54301666Y-102910523D01*
X54301666Y-103396238D01*
X54382619Y-103558142D01*
X54463571Y-103639095D01*
X54625476Y-103720047D01*
X54949285Y-103720047D01*
X55111190Y-103639095D01*
X53573095Y-103720047D02*
X53573095Y-102586714D01*
X53573095Y-102020047D02*
X53654047Y-102101000D01*
X53573095Y-102181952D01*
X53492142Y-102101000D01*
X53573095Y-102020047D01*
X53573095Y-102181952D01*
X52520714Y-103720047D02*
X52682619Y-103639095D01*
X52763571Y-103558142D01*
X52844523Y-103396238D01*
X52844523Y-102910523D01*
X52763571Y-102748619D01*
X52682619Y-102667666D01*
X52520714Y-102586714D01*
X52277857Y-102586714D01*
X52115952Y-102667666D01*
X52035000Y-102748619D01*
X51954047Y-102910523D01*
X51954047Y-103396238D01*
X52035000Y-103558142D01*
X52115952Y-103639095D01*
X52277857Y-103720047D01*
X52520714Y-103720047D01*
X51387380Y-102020047D02*
X50335000Y-102020047D01*
X50901666Y-102667666D01*
X50658809Y-102667666D01*
X50496904Y-102748619D01*
X50415952Y-102829571D01*
X50335000Y-102991476D01*
X50335000Y-103396238D01*
X50415952Y-103558142D01*
X50496904Y-103639095D01*
X50658809Y-103720047D01*
X51144523Y-103720047D01*
X51306428Y-103639095D01*
X51387380Y-103558142D01*
X45315952Y-104286714D02*
X45315952Y-101858142D01*
X75430238Y-105809428D02*
X74135000Y-105809428D01*
X73325476Y-105809428D02*
X72030238Y-105809428D01*
X71220714Y-105809428D02*
X69925476Y-105809428D01*
X69115952Y-105809428D02*
X67820714Y-105809428D01*
X67011190Y-105809428D02*
X65715952Y-105809428D01*
X64906428Y-105809428D02*
X63611190Y-105809428D01*
X62801666Y-105809428D02*
X61506428Y-105809428D01*
X60696904Y-105809428D02*
X59401666Y-105809428D01*
X58592142Y-105809428D02*
X57296904Y-105809428D01*
X56487380Y-105809428D02*
X55192142Y-105809428D01*
X54382619Y-105809428D02*
X53087380Y-105809428D01*
X52277857Y-105809428D02*
X50982619Y-105809428D01*
X50173095Y-105809428D02*
X48877857Y-105809428D01*
X48068333Y-105809428D02*
X46773095Y-105809428D01*
X45963571Y-105809428D02*
X44668333Y-105809428D01*
X75025476Y-109760714D02*
X75025476Y-107332142D01*
X72677857Y-107494047D02*
X71544523Y-107494047D01*
X72677857Y-109194047D01*
X71544523Y-109194047D01*
X70896904Y-108546428D02*
X69601666Y-108546428D01*
X70249285Y-109194047D02*
X70249285Y-107898809D01*
X67901666Y-109194047D02*
X68873095Y-109194047D01*
X68387380Y-109194047D02*
X68387380Y-107494047D01*
X68549285Y-107736904D01*
X68711190Y-107898809D01*
X68873095Y-107979761D01*
X58996904Y-109760714D02*
X58996904Y-107332142D01*
X55758809Y-108060714D02*
X55758809Y-109436904D01*
X55839761Y-109598809D01*
X55920714Y-109679761D01*
X56082619Y-109760714D01*
X56325476Y-109760714D01*
X56487380Y-109679761D01*
X55758809Y-109113095D02*
X55920714Y-109194047D01*
X56244523Y-109194047D01*
X56406428Y-109113095D01*
X56487380Y-109032142D01*
X56568333Y-108870238D01*
X56568333Y-108384523D01*
X56487380Y-108222619D01*
X56406428Y-108141666D01*
X56244523Y-108060714D01*
X55920714Y-108060714D01*
X55758809Y-108141666D01*
X54949285Y-108060714D02*
X54949285Y-109760714D01*
X54949285Y-108141666D02*
X54787380Y-108060714D01*
X54463571Y-108060714D01*
X54301666Y-108141666D01*
X54220714Y-108222619D01*
X54139761Y-108384523D01*
X54139761Y-108870238D01*
X54220714Y-109032142D01*
X54301666Y-109113095D01*
X54463571Y-109194047D01*
X54787380Y-109194047D01*
X54949285Y-109113095D01*
X53411190Y-109194047D02*
X53411190Y-108060714D01*
X53411190Y-107494047D02*
X53492142Y-107575000D01*
X53411190Y-107655952D01*
X53330238Y-107575000D01*
X53411190Y-107494047D01*
X53411190Y-107655952D01*
X52358809Y-109194047D02*
X52520714Y-109113095D01*
X52601666Y-109032142D01*
X52682619Y-108870238D01*
X52682619Y-108384523D01*
X52601666Y-108222619D01*
X52520714Y-108141666D01*
X52358809Y-108060714D01*
X52115952Y-108060714D01*
X51954047Y-108141666D01*
X51873095Y-108222619D01*
X51792142Y-108384523D01*
X51792142Y-108870238D01*
X51873095Y-109032142D01*
X51954047Y-109113095D01*
X52115952Y-109194047D01*
X52358809Y-109194047D01*
X51144523Y-107655952D02*
X51063571Y-107575000D01*
X50901666Y-107494047D01*
X50496904Y-107494047D01*
X50334999Y-107575000D01*
X50254047Y-107655952D01*
X50173095Y-107817857D01*
X50173095Y-107979761D01*
X50254047Y-108222619D01*
X51225476Y-109194047D01*
X50173095Y-109194047D01*
X45154047Y-109760714D02*
X45154047Y-107332142D01*
X75430238Y-111283428D02*
X74135000Y-111283428D01*
X73325476Y-111283428D02*
X72030238Y-111283428D01*
X71220714Y-111283428D02*
X69925476Y-111283428D01*
X69115952Y-111283428D02*
X67820714Y-111283428D01*
X67011190Y-111283428D02*
X65715952Y-111283428D01*
X64906428Y-111283428D02*
X63611190Y-111283428D01*
X62801666Y-111283428D02*
X61506428Y-111283428D01*
X60696904Y-111283428D02*
X59401666Y-111283428D01*
X58592142Y-111283428D02*
X57296904Y-111283428D01*
X56487380Y-111283428D02*
X55192142Y-111283428D01*
X54382619Y-111283428D02*
X53087380Y-111283428D01*
X52277857Y-111283428D02*
X50982619Y-111283428D01*
X50173095Y-111283428D02*
X48877857Y-111283428D01*
X48068333Y-111283428D02*
X46773095Y-111283428D01*
X45963571Y-111283428D02*
X44668333Y-111283428D01*
X75025476Y-115234714D02*
X75025476Y-112806142D01*
X72677857Y-112968047D02*
X71544523Y-112968047D01*
X72677857Y-114668047D01*
X71544523Y-114668047D01*
X70896904Y-114020428D02*
X69601666Y-114020428D01*
X70249285Y-114668047D02*
X70249285Y-113372809D01*
X67901666Y-114668047D02*
X68873095Y-114668047D01*
X68387380Y-114668047D02*
X68387380Y-112968047D01*
X68549285Y-113210904D01*
X68711190Y-113372809D01*
X68873095Y-113453761D01*
X66849285Y-112968047D02*
X66687380Y-112968047D01*
X66525476Y-113049000D01*
X66444523Y-113129952D01*
X66363571Y-113291857D01*
X66282619Y-113615666D01*
X66282619Y-114020428D01*
X66363571Y-114344238D01*
X66444523Y-114506142D01*
X66525476Y-114587095D01*
X66687380Y-114668047D01*
X66849285Y-114668047D01*
X67011190Y-114587095D01*
X67092142Y-114506142D01*
X67173095Y-114344238D01*
X67254047Y-114020428D01*
X67254047Y-113615666D01*
X67173095Y-113291857D01*
X67092142Y-113129952D01*
X67011190Y-113049000D01*
X66849285Y-112968047D01*
X58673095Y-115234714D02*
X58673095Y-112806142D01*
X55434999Y-113534714D02*
X55434999Y-114910904D01*
X55515952Y-115072809D01*
X55596904Y-115153761D01*
X55758809Y-115234714D01*
X56001666Y-115234714D01*
X56163571Y-115153761D01*
X55434999Y-114587095D02*
X55596904Y-114668047D01*
X55920714Y-114668047D01*
X56082619Y-114587095D01*
X56163571Y-114506142D01*
X56244523Y-114344238D01*
X56244523Y-113858523D01*
X56163571Y-113696619D01*
X56082619Y-113615666D01*
X55920714Y-113534714D01*
X55596904Y-113534714D01*
X55434999Y-113615666D01*
X54625476Y-113534714D02*
X54625476Y-115234714D01*
X54625476Y-113615666D02*
X54463571Y-113534714D01*
X54139761Y-113534714D01*
X53977857Y-113615666D01*
X53896904Y-113696619D01*
X53815952Y-113858523D01*
X53815952Y-114344238D01*
X53896904Y-114506142D01*
X53977857Y-114587095D01*
X54139761Y-114668047D01*
X54463571Y-114668047D01*
X54625476Y-114587095D01*
X53087380Y-114668047D02*
X53087380Y-113534714D01*
X53087380Y-112968047D02*
X53168333Y-113049000D01*
X53087380Y-113129952D01*
X53006428Y-113049000D01*
X53087380Y-112968047D01*
X53087380Y-113129952D01*
X52034999Y-114668047D02*
X52196904Y-114587095D01*
X52277857Y-114506142D01*
X52358809Y-114344238D01*
X52358809Y-113858523D01*
X52277857Y-113696619D01*
X52196904Y-113615666D01*
X52034999Y-113534714D01*
X51792142Y-113534714D01*
X51630238Y-113615666D01*
X51549285Y-113696619D01*
X51468333Y-113858523D01*
X51468333Y-114344238D01*
X51549285Y-114506142D01*
X51630238Y-114587095D01*
X51792142Y-114668047D01*
X52034999Y-114668047D01*
X50415952Y-112968047D02*
X50254047Y-112968047D01*
X50092142Y-113049000D01*
X50011190Y-113129952D01*
X49930238Y-113291857D01*
X49849285Y-113615666D01*
X49849285Y-114020428D01*
X49930238Y-114344238D01*
X50011190Y-114506142D01*
X50092142Y-114587095D01*
X50254047Y-114668047D01*
X50415952Y-114668047D01*
X50577857Y-114587095D01*
X50658809Y-114506142D01*
X50739761Y-114344238D01*
X50820714Y-114020428D01*
X50820714Y-113615666D01*
X50739761Y-113291857D01*
X50658809Y-113129952D01*
X50577857Y-113049000D01*
X50415952Y-112968047D01*
X44830238Y-115234714D02*
X44830238Y-112806142D01*
X75430238Y-116757428D02*
X74135000Y-116757428D01*
X73325476Y-116757428D02*
X72030238Y-116757428D01*
X71220714Y-116757428D02*
X69925476Y-116757428D01*
X69115952Y-116757428D02*
X67820714Y-116757428D01*
X67011190Y-116757428D02*
X65715952Y-116757428D01*
X64906428Y-116757428D02*
X63611190Y-116757428D01*
X62801666Y-116757428D02*
X61506428Y-116757428D01*
X60696904Y-116757428D02*
X59401666Y-116757428D01*
X58592142Y-116757428D02*
X57296904Y-116757428D01*
X56487380Y-116757428D02*
X55192142Y-116757428D01*
X54382619Y-116757428D02*
X53087380Y-116757428D01*
X52277857Y-116757428D02*
X50982619Y-116757428D01*
X50173095Y-116757428D02*
X48877857Y-116757428D01*
X48068333Y-116757428D02*
X46773095Y-116757428D01*
X45963571Y-116757428D02*
X44668333Y-116757428D01*
X75025476Y-120708714D02*
X75025476Y-118280142D01*
X72677857Y-118442047D02*
X71544523Y-118442047D01*
X72677857Y-120142047D01*
X71544523Y-120142047D01*
X70896904Y-119494428D02*
X69601666Y-119494428D01*
X68468333Y-118442047D02*
X68306428Y-118442047D01*
X68144523Y-118523000D01*
X68063571Y-118603952D01*
X67982619Y-118765857D01*
X67901666Y-119089666D01*
X67901666Y-119494428D01*
X67982619Y-119818238D01*
X68063571Y-119980142D01*
X68144523Y-120061095D01*
X68306428Y-120142047D01*
X68468333Y-120142047D01*
X68630238Y-120061095D01*
X68711190Y-119980142D01*
X68792142Y-119818238D01*
X68873095Y-119494428D01*
X68873095Y-119089666D01*
X68792142Y-118765857D01*
X68711190Y-118603952D01*
X68630238Y-118523000D01*
X68468333Y-118442047D01*
X67173095Y-119980142D02*
X67092142Y-120061095D01*
X67173095Y-120142047D01*
X67254047Y-120061095D01*
X67173095Y-119980142D01*
X67173095Y-120142047D01*
X65473095Y-120142047D02*
X66444523Y-120142047D01*
X65958809Y-120142047D02*
X65958809Y-118442047D01*
X66120714Y-118684904D01*
X66282619Y-118846809D01*
X66444523Y-118927761D01*
X59158809Y-120708714D02*
X59158809Y-118280142D01*
X55920714Y-119008714D02*
X55920714Y-120384904D01*
X56001666Y-120546809D01*
X56082619Y-120627761D01*
X56244523Y-120708714D01*
X56487380Y-120708714D01*
X56649285Y-120627761D01*
X55920714Y-120061095D02*
X56082619Y-120142047D01*
X56406428Y-120142047D01*
X56568333Y-120061095D01*
X56649285Y-119980142D01*
X56730238Y-119818238D01*
X56730238Y-119332523D01*
X56649285Y-119170619D01*
X56568333Y-119089666D01*
X56406428Y-119008714D01*
X56082619Y-119008714D01*
X55920714Y-119089666D01*
X55111190Y-119008714D02*
X55111190Y-120708714D01*
X55111190Y-119089666D02*
X54949285Y-119008714D01*
X54625476Y-119008714D01*
X54463571Y-119089666D01*
X54382619Y-119170619D01*
X54301666Y-119332523D01*
X54301666Y-119818238D01*
X54382619Y-119980142D01*
X54463571Y-120061095D01*
X54625476Y-120142047D01*
X54949285Y-120142047D01*
X55111190Y-120061095D01*
X53573095Y-120142047D02*
X53573095Y-119008714D01*
X53573095Y-118442047D02*
X53654047Y-118523000D01*
X53573095Y-118603952D01*
X53492142Y-118523000D01*
X53573095Y-118442047D01*
X53573095Y-118603952D01*
X52520714Y-120142047D02*
X52682619Y-120061095D01*
X52763571Y-119980142D01*
X52844523Y-119818238D01*
X52844523Y-119332523D01*
X52763571Y-119170619D01*
X52682619Y-119089666D01*
X52520714Y-119008714D01*
X52277857Y-119008714D01*
X52115952Y-119089666D01*
X52035000Y-119170619D01*
X51954047Y-119332523D01*
X51954047Y-119818238D01*
X52035000Y-119980142D01*
X52115952Y-120061095D01*
X52277857Y-120142047D01*
X52520714Y-120142047D01*
X50496904Y-119008714D02*
X50496904Y-120142047D01*
X50901666Y-118361095D02*
X51306428Y-119575380D01*
X50254047Y-119575380D01*
X45315952Y-120708714D02*
X45315952Y-118280142D01*
X75430238Y-122231428D02*
X74135000Y-122231428D01*
X73325476Y-122231428D02*
X72030238Y-122231428D01*
X71220714Y-122231428D02*
X69925476Y-122231428D01*
X69115952Y-122231428D02*
X67820714Y-122231428D01*
X67011190Y-122231428D02*
X65715952Y-122231428D01*
X64906428Y-122231428D02*
X63611190Y-122231428D01*
X62801666Y-122231428D02*
X61506428Y-122231428D01*
X60696904Y-122231428D02*
X59401666Y-122231428D01*
X58592142Y-122231428D02*
X57296904Y-122231428D01*
X56487380Y-122231428D02*
X55192142Y-122231428D01*
X54382619Y-122231428D02*
X53087380Y-122231428D01*
X52277857Y-122231428D02*
X50982619Y-122231428D01*
X50173095Y-122231428D02*
X48877857Y-122231428D01*
X48068333Y-122231428D02*
X46773095Y-122231428D01*
X45963571Y-122231428D02*
X44668333Y-122231428D01*
X75025476Y-126182714D02*
X75025476Y-123754142D01*
X72677857Y-123916047D02*
X71544523Y-123916047D01*
X72677857Y-125616047D01*
X71544523Y-125616047D01*
X70896904Y-124968428D02*
X69601666Y-124968428D01*
X67901666Y-125616047D02*
X68873095Y-125616047D01*
X68387380Y-125616047D02*
X68387380Y-123916047D01*
X68549285Y-124158904D01*
X68711190Y-124320809D01*
X68873095Y-124401761D01*
X58996904Y-126182714D02*
X58996904Y-123754142D01*
X55758809Y-124482714D02*
X55758809Y-125858904D01*
X55839761Y-126020809D01*
X55920714Y-126101761D01*
X56082619Y-126182714D01*
X56325476Y-126182714D01*
X56487380Y-126101761D01*
X55758809Y-125535095D02*
X55920714Y-125616047D01*
X56244523Y-125616047D01*
X56406428Y-125535095D01*
X56487380Y-125454142D01*
X56568333Y-125292238D01*
X56568333Y-124806523D01*
X56487380Y-124644619D01*
X56406428Y-124563666D01*
X56244523Y-124482714D01*
X55920714Y-124482714D01*
X55758809Y-124563666D01*
X54949285Y-124482714D02*
X54949285Y-126182714D01*
X54949285Y-124563666D02*
X54787380Y-124482714D01*
X54463571Y-124482714D01*
X54301666Y-124563666D01*
X54220714Y-124644619D01*
X54139761Y-124806523D01*
X54139761Y-125292238D01*
X54220714Y-125454142D01*
X54301666Y-125535095D01*
X54463571Y-125616047D01*
X54787380Y-125616047D01*
X54949285Y-125535095D01*
X53411190Y-125616047D02*
X53411190Y-124482714D01*
X53411190Y-123916047D02*
X53492142Y-123997000D01*
X53411190Y-124077952D01*
X53330238Y-123997000D01*
X53411190Y-123916047D01*
X53411190Y-124077952D01*
X52358809Y-125616047D02*
X52520714Y-125535095D01*
X52601666Y-125454142D01*
X52682619Y-125292238D01*
X52682619Y-124806523D01*
X52601666Y-124644619D01*
X52520714Y-124563666D01*
X52358809Y-124482714D01*
X52115952Y-124482714D01*
X51954047Y-124563666D01*
X51873095Y-124644619D01*
X51792142Y-124806523D01*
X51792142Y-125292238D01*
X51873095Y-125454142D01*
X51954047Y-125535095D01*
X52115952Y-125616047D01*
X52358809Y-125616047D01*
X50254047Y-123916047D02*
X51063571Y-123916047D01*
X51144523Y-124725571D01*
X51063571Y-124644619D01*
X50901666Y-124563666D01*
X50496904Y-124563666D01*
X50334999Y-124644619D01*
X50254047Y-124725571D01*
X50173095Y-124887476D01*
X50173095Y-125292238D01*
X50254047Y-125454142D01*
X50334999Y-125535095D01*
X50496904Y-125616047D01*
X50901666Y-125616047D01*
X51063571Y-125535095D01*
X51144523Y-125454142D01*
X45154047Y-126182714D02*
X45154047Y-123754142D01*
X75430238Y-127705428D02*
X74135000Y-127705428D01*
X73325476Y-127705428D02*
X72030238Y-127705428D01*
X71220714Y-127705428D02*
X69925476Y-127705428D01*
X69115952Y-127705428D02*
X67820714Y-127705428D01*
X67011190Y-127705428D02*
X65715952Y-127705428D01*
X64906428Y-127705428D02*
X63611190Y-127705428D01*
X62801666Y-127705428D02*
X61506428Y-127705428D01*
X60696904Y-127705428D02*
X59401666Y-127705428D01*
X58592142Y-127705428D02*
X57296904Y-127705428D01*
X56487380Y-127705428D02*
X55192142Y-127705428D01*
X54382619Y-127705428D02*
X53087380Y-127705428D01*
X52277857Y-127705428D02*
X50982619Y-127705428D01*
X50173095Y-127705428D02*
X48877857Y-127705428D01*
X48068333Y-127705428D02*
X46773095Y-127705428D01*
X45963571Y-127705428D02*
X44668333Y-127705428D01*
X75025476Y-131656714D02*
X75025476Y-129228142D01*
X72677857Y-129390047D02*
X71544523Y-129390047D01*
X72677857Y-131090047D01*
X71544523Y-131090047D01*
X70896904Y-130442428D02*
X69601666Y-130442428D01*
X67901666Y-131090047D02*
X68873095Y-131090047D01*
X68387380Y-131090047D02*
X68387380Y-129390047D01*
X68549285Y-129632904D01*
X68711190Y-129794809D01*
X68873095Y-129875761D01*
X66849285Y-129390047D02*
X66687380Y-129390047D01*
X66525476Y-129471000D01*
X66444523Y-129551952D01*
X66363571Y-129713857D01*
X66282619Y-130037666D01*
X66282619Y-130442428D01*
X66363571Y-130766238D01*
X66444523Y-130928142D01*
X66525476Y-131009095D01*
X66687380Y-131090047D01*
X66849285Y-131090047D01*
X67011190Y-131009095D01*
X67092142Y-130928142D01*
X67173095Y-130766238D01*
X67254047Y-130442428D01*
X67254047Y-130037666D01*
X67173095Y-129713857D01*
X67092142Y-129551952D01*
X67011190Y-129471000D01*
X66849285Y-129390047D01*
X58673095Y-131656714D02*
X58673095Y-129228142D01*
X55434999Y-129956714D02*
X55434999Y-131332904D01*
X55515952Y-131494809D01*
X55596904Y-131575761D01*
X55758809Y-131656714D01*
X56001666Y-131656714D01*
X56163571Y-131575761D01*
X55434999Y-131009095D02*
X55596904Y-131090047D01*
X55920714Y-131090047D01*
X56082619Y-131009095D01*
X56163571Y-130928142D01*
X56244523Y-130766238D01*
X56244523Y-130280523D01*
X56163571Y-130118619D01*
X56082619Y-130037666D01*
X55920714Y-129956714D01*
X55596904Y-129956714D01*
X55434999Y-130037666D01*
X54625476Y-129956714D02*
X54625476Y-131656714D01*
X54625476Y-130037666D02*
X54463571Y-129956714D01*
X54139761Y-129956714D01*
X53977857Y-130037666D01*
X53896904Y-130118619D01*
X53815952Y-130280523D01*
X53815952Y-130766238D01*
X53896904Y-130928142D01*
X53977857Y-131009095D01*
X54139761Y-131090047D01*
X54463571Y-131090047D01*
X54625476Y-131009095D01*
X53087380Y-131090047D02*
X53087380Y-129956714D01*
X53087380Y-129390047D02*
X53168333Y-129471000D01*
X53087380Y-129551952D01*
X53006428Y-129471000D01*
X53087380Y-129390047D01*
X53087380Y-129551952D01*
X52034999Y-131090047D02*
X52196904Y-131009095D01*
X52277857Y-130928142D01*
X52358809Y-130766238D01*
X52358809Y-130280523D01*
X52277857Y-130118619D01*
X52196904Y-130037666D01*
X52034999Y-129956714D01*
X51792142Y-129956714D01*
X51630238Y-130037666D01*
X51549285Y-130118619D01*
X51468333Y-130280523D01*
X51468333Y-130766238D01*
X51549285Y-130928142D01*
X51630238Y-131009095D01*
X51792142Y-131090047D01*
X52034999Y-131090047D01*
X50011190Y-129390047D02*
X50334999Y-129390047D01*
X50496904Y-129471000D01*
X50577857Y-129551952D01*
X50739761Y-129794809D01*
X50820714Y-130118619D01*
X50820714Y-130766238D01*
X50739761Y-130928142D01*
X50658809Y-131009095D01*
X50496904Y-131090047D01*
X50173095Y-131090047D01*
X50011190Y-131009095D01*
X49930238Y-130928142D01*
X49849285Y-130766238D01*
X49849285Y-130361476D01*
X49930238Y-130199571D01*
X50011190Y-130118619D01*
X50173095Y-130037666D01*
X50496904Y-130037666D01*
X50658809Y-130118619D01*
X50739761Y-130199571D01*
X50820714Y-130361476D01*
X44830238Y-131656714D02*
X44830238Y-129228142D01*
X75430238Y-133179428D02*
X74135000Y-133179428D01*
X73325476Y-133179428D02*
X72030238Y-133179428D01*
X71220714Y-133179428D02*
X69925476Y-133179428D01*
X69115952Y-133179428D02*
X67820714Y-133179428D01*
X67011190Y-133179428D02*
X65715952Y-133179428D01*
X64906428Y-133179428D02*
X63611190Y-133179428D01*
X62801666Y-133179428D02*
X61506428Y-133179428D01*
X60696904Y-133179428D02*
X59401666Y-133179428D01*
X58592142Y-133179428D02*
X57296904Y-133179428D01*
X56487380Y-133179428D02*
X55192142Y-133179428D01*
X54382619Y-133179428D02*
X53087380Y-133179428D01*
X52277857Y-133179428D02*
X50982619Y-133179428D01*
X50173095Y-133179428D02*
X48877857Y-133179428D01*
X48068333Y-133179428D02*
X46773095Y-133179428D01*
X45963571Y-133179428D02*
X44668333Y-133179428D01*
X75025476Y-137130714D02*
X75025476Y-134702142D01*
X72515952Y-136564047D02*
X72515952Y-134864047D01*
X72515952Y-135673571D02*
X71544523Y-135673571D01*
X71544523Y-136564047D02*
X71544523Y-134864047D01*
X70411190Y-134864047D02*
X70087380Y-134864047D01*
X69925476Y-134945000D01*
X69763571Y-135106904D01*
X69682619Y-135430714D01*
X69682619Y-135997380D01*
X69763571Y-136321190D01*
X69925476Y-136483095D01*
X70087380Y-136564047D01*
X70411190Y-136564047D01*
X70573095Y-136483095D01*
X70735000Y-136321190D01*
X70815952Y-135997380D01*
X70815952Y-135430714D01*
X70735000Y-135106904D01*
X70573095Y-134945000D01*
X70411190Y-134864047D01*
X68954047Y-136564047D02*
X68954047Y-134864047D01*
X68387380Y-136078333D01*
X67820714Y-134864047D01*
X67820714Y-136564047D01*
X67011190Y-135673571D02*
X66444523Y-135673571D01*
X66201666Y-136564047D02*
X67011190Y-136564047D01*
X67011190Y-134864047D01*
X66201666Y-134864047D01*
X58592142Y-137130714D02*
X58592142Y-134702142D01*
X55354047Y-135430714D02*
X55354047Y-136806904D01*
X55434999Y-136968809D01*
X55515952Y-137049761D01*
X55677857Y-137130714D01*
X55920714Y-137130714D01*
X56082619Y-137049761D01*
X55354047Y-136483095D02*
X55515952Y-136564047D01*
X55839761Y-136564047D01*
X56001666Y-136483095D01*
X56082619Y-136402142D01*
X56163571Y-136240238D01*
X56163571Y-135754523D01*
X56082619Y-135592619D01*
X56001666Y-135511666D01*
X55839761Y-135430714D01*
X55515952Y-135430714D01*
X55354047Y-135511666D01*
X54544523Y-135430714D02*
X54544523Y-137130714D01*
X54544523Y-135511666D02*
X54382619Y-135430714D01*
X54058809Y-135430714D01*
X53896904Y-135511666D01*
X53815952Y-135592619D01*
X53734999Y-135754523D01*
X53734999Y-136240238D01*
X53815952Y-136402142D01*
X53896904Y-136483095D01*
X54058809Y-136564047D01*
X54382619Y-136564047D01*
X54544523Y-136483095D01*
X53006428Y-136564047D02*
X53006428Y-135430714D01*
X53006428Y-134864047D02*
X53087380Y-134945000D01*
X53006428Y-135025952D01*
X52925476Y-134945000D01*
X53006428Y-134864047D01*
X53006428Y-135025952D01*
X51954047Y-136564047D02*
X52115952Y-136483095D01*
X52196904Y-136402142D01*
X52277857Y-136240238D01*
X52277857Y-135754523D01*
X52196904Y-135592619D01*
X52115952Y-135511666D01*
X51954047Y-135430714D01*
X51711190Y-135430714D01*
X51549285Y-135511666D01*
X51468333Y-135592619D01*
X51387380Y-135754523D01*
X51387380Y-136240238D01*
X51468333Y-136402142D01*
X51549285Y-136483095D01*
X51711190Y-136564047D01*
X51954047Y-136564047D01*
X49768333Y-136564047D02*
X50739761Y-136564047D01*
X50254047Y-136564047D02*
X50254047Y-134864047D01*
X50415952Y-135106904D01*
X50577857Y-135268809D01*
X50739761Y-135349761D01*
X48715952Y-134864047D02*
X48554047Y-134864047D01*
X48392142Y-134945000D01*
X48311190Y-135025952D01*
X48230238Y-135187857D01*
X48149285Y-135511666D01*
X48149285Y-135916428D01*
X48230238Y-136240238D01*
X48311190Y-136402142D01*
X48392142Y-136483095D01*
X48554047Y-136564047D01*
X48715952Y-136564047D01*
X48877857Y-136483095D01*
X48958809Y-136402142D01*
X49039761Y-136240238D01*
X49120714Y-135916428D01*
X49120714Y-135511666D01*
X49039761Y-135187857D01*
X48958809Y-135025952D01*
X48877857Y-134945000D01*
X48715952Y-134864047D01*
X44425476Y-137130714D02*
X44425476Y-134702142D01*
X75430238Y-138653428D02*
X74135000Y-138653428D01*
X73325476Y-138653428D02*
X72030238Y-138653428D01*
X71220714Y-138653428D02*
X69925476Y-138653428D01*
X69115952Y-138653428D02*
X67820714Y-138653428D01*
X67011190Y-138653428D02*
X65715952Y-138653428D01*
X64906428Y-138653428D02*
X63611190Y-138653428D01*
X62801666Y-138653428D02*
X61506428Y-138653428D01*
X60696904Y-138653428D02*
X59401666Y-138653428D01*
X58592142Y-138653428D02*
X57296904Y-138653428D01*
X56487380Y-138653428D02*
X55192142Y-138653428D01*
X54382619Y-138653428D02*
X53087380Y-138653428D01*
X52277857Y-138653428D02*
X50982619Y-138653428D01*
X50173095Y-138653428D02*
X48877857Y-138653428D01*
X48068333Y-138653428D02*
X46773095Y-138653428D01*
X45963571Y-138653428D02*
X44668333Y-138653428D01*
X75025476Y-142604714D02*
X75025476Y-140176142D01*
X72515952Y-142038047D02*
X72515952Y-140338047D01*
X72515952Y-141147571D02*
X71544523Y-141147571D01*
X71544523Y-142038047D02*
X71544523Y-140338047D01*
X70411190Y-140338047D02*
X70087380Y-140338047D01*
X69925476Y-140419000D01*
X69763571Y-140580904D01*
X69682619Y-140904714D01*
X69682619Y-141471380D01*
X69763571Y-141795190D01*
X69925476Y-141957095D01*
X70087380Y-142038047D01*
X70411190Y-142038047D01*
X70573095Y-141957095D01*
X70735000Y-141795190D01*
X70815952Y-141471380D01*
X70815952Y-140904714D01*
X70735000Y-140580904D01*
X70573095Y-140419000D01*
X70411190Y-140338047D01*
X68954047Y-142038047D02*
X68954047Y-140338047D01*
X68387380Y-141552333D01*
X67820714Y-140338047D01*
X67820714Y-142038047D01*
X67011190Y-141147571D02*
X66444523Y-141147571D01*
X66201666Y-142038047D02*
X67011190Y-142038047D01*
X67011190Y-140338047D01*
X66201666Y-140338047D01*
X64339761Y-140338047D02*
X63206428Y-142038047D01*
X63206428Y-140338047D02*
X64339761Y-142038047D01*
X58268333Y-142604714D02*
X58268333Y-140176142D01*
X55030238Y-140904714D02*
X55030238Y-142280904D01*
X55111190Y-142442809D01*
X55192142Y-142523761D01*
X55354047Y-142604714D01*
X55596904Y-142604714D01*
X55758809Y-142523761D01*
X55030238Y-141957095D02*
X55192142Y-142038047D01*
X55515952Y-142038047D01*
X55677857Y-141957095D01*
X55758809Y-141876142D01*
X55839761Y-141714238D01*
X55839761Y-141228523D01*
X55758809Y-141066619D01*
X55677857Y-140985666D01*
X55515952Y-140904714D01*
X55192142Y-140904714D01*
X55030238Y-140985666D01*
X54220714Y-140904714D02*
X54220714Y-142604714D01*
X54220714Y-140985666D02*
X54058809Y-140904714D01*
X53734999Y-140904714D01*
X53573095Y-140985666D01*
X53492142Y-141066619D01*
X53411190Y-141228523D01*
X53411190Y-141714238D01*
X53492142Y-141876142D01*
X53573095Y-141957095D01*
X53734999Y-142038047D01*
X54058809Y-142038047D01*
X54220714Y-141957095D01*
X52682619Y-142038047D02*
X52682619Y-140904714D01*
X52682619Y-140338047D02*
X52763571Y-140419000D01*
X52682619Y-140499952D01*
X52601666Y-140419000D01*
X52682619Y-140338047D01*
X52682619Y-140499952D01*
X51630238Y-142038047D02*
X51792142Y-141957095D01*
X51873095Y-141876142D01*
X51954047Y-141714238D01*
X51954047Y-141228523D01*
X51873095Y-141066619D01*
X51792142Y-140985666D01*
X51630238Y-140904714D01*
X51387380Y-140904714D01*
X51225476Y-140985666D01*
X51144523Y-141066619D01*
X51063571Y-141228523D01*
X51063571Y-141714238D01*
X51144523Y-141876142D01*
X51225476Y-141957095D01*
X51387380Y-142038047D01*
X51630238Y-142038047D01*
X50415952Y-140499952D02*
X50334999Y-140419000D01*
X50173095Y-140338047D01*
X49768333Y-140338047D01*
X49606428Y-140419000D01*
X49525476Y-140499952D01*
X49444523Y-140661857D01*
X49444523Y-140823761D01*
X49525476Y-141066619D01*
X50496904Y-142038047D01*
X49444523Y-142038047D01*
X48796904Y-140499952D02*
X48715952Y-140419000D01*
X48554047Y-140338047D01*
X48149285Y-140338047D01*
X47987380Y-140419000D01*
X47906428Y-140499952D01*
X47825476Y-140661857D01*
X47825476Y-140823761D01*
X47906428Y-141066619D01*
X48877857Y-142038047D01*
X47825476Y-142038047D01*
X44101666Y-142604714D02*
X44101666Y-140176142D01*
X75430238Y-144127428D02*
X74135000Y-144127428D01*
X73325476Y-144127428D02*
X72030238Y-144127428D01*
X71220714Y-144127428D02*
X69925476Y-144127428D01*
X69115952Y-144127428D02*
X67820714Y-144127428D01*
X67011190Y-144127428D02*
X65715952Y-144127428D01*
X64906428Y-144127428D02*
X63611190Y-144127428D01*
X62801666Y-144127428D02*
X61506428Y-144127428D01*
X60696904Y-144127428D02*
X59401666Y-144127428D01*
X58592142Y-144127428D02*
X57296904Y-144127428D01*
X56487380Y-144127428D02*
X55192142Y-144127428D01*
X54382619Y-144127428D02*
X53087380Y-144127428D01*
X52277857Y-144127428D02*
X50982619Y-144127428D01*
X50173095Y-144127428D02*
X48877857Y-144127428D01*
X48068333Y-144127428D02*
X46773095Y-144127428D01*
X45963571Y-144127428D02*
X44668333Y-144127428D01*
X75025476Y-148078714D02*
X75025476Y-145650142D01*
X72515952Y-147512047D02*
X72515952Y-145812047D01*
X72515952Y-146621571D02*
X71544523Y-146621571D01*
X71544523Y-147512047D02*
X71544523Y-145812047D01*
X70411190Y-145812047D02*
X70087380Y-145812047D01*
X69925476Y-145893000D01*
X69763571Y-146054904D01*
X69682619Y-146378714D01*
X69682619Y-146945380D01*
X69763571Y-147269190D01*
X69925476Y-147431095D01*
X70087380Y-147512047D01*
X70411190Y-147512047D01*
X70573095Y-147431095D01*
X70735000Y-147269190D01*
X70815952Y-146945380D01*
X70815952Y-146378714D01*
X70735000Y-146054904D01*
X70573095Y-145893000D01*
X70411190Y-145812047D01*
X68954047Y-147512047D02*
X68954047Y-145812047D01*
X68387380Y-147026333D01*
X67820714Y-145812047D01*
X67820714Y-147512047D01*
X67011190Y-146621571D02*
X66444523Y-146621571D01*
X66201666Y-147512047D02*
X67011190Y-147512047D01*
X67011190Y-145812047D01*
X66201666Y-145812047D01*
X63854047Y-146702523D02*
X63854047Y-147512047D01*
X64420714Y-145812047D02*
X63854047Y-146702523D01*
X63287380Y-145812047D01*
X58430238Y-148078714D02*
X58430238Y-145650142D01*
X55192142Y-146378714D02*
X55192142Y-147754904D01*
X55273095Y-147916809D01*
X55354047Y-147997761D01*
X55515952Y-148078714D01*
X55758809Y-148078714D01*
X55920714Y-147997761D01*
X55192142Y-147431095D02*
X55354047Y-147512047D01*
X55677857Y-147512047D01*
X55839761Y-147431095D01*
X55920714Y-147350142D01*
X56001666Y-147188238D01*
X56001666Y-146702523D01*
X55920714Y-146540619D01*
X55839761Y-146459666D01*
X55677857Y-146378714D01*
X55354047Y-146378714D01*
X55192142Y-146459666D01*
X54382619Y-146378714D02*
X54382619Y-148078714D01*
X54382619Y-146459666D02*
X54220714Y-146378714D01*
X53896904Y-146378714D01*
X53735000Y-146459666D01*
X53654047Y-146540619D01*
X53573095Y-146702523D01*
X53573095Y-147188238D01*
X53654047Y-147350142D01*
X53735000Y-147431095D01*
X53896904Y-147512047D01*
X54220714Y-147512047D01*
X54382619Y-147431095D01*
X52844523Y-147512047D02*
X52844523Y-146378714D01*
X52844523Y-145812047D02*
X52925476Y-145893000D01*
X52844523Y-145973952D01*
X52763571Y-145893000D01*
X52844523Y-145812047D01*
X52844523Y-145973952D01*
X51792142Y-147512047D02*
X51954047Y-147431095D01*
X52034999Y-147350142D01*
X52115952Y-147188238D01*
X52115952Y-146702523D01*
X52034999Y-146540619D01*
X51954047Y-146459666D01*
X51792142Y-146378714D01*
X51549285Y-146378714D01*
X51387380Y-146459666D01*
X51306428Y-146540619D01*
X51225476Y-146702523D01*
X51225476Y-147188238D01*
X51306428Y-147350142D01*
X51387380Y-147431095D01*
X51549285Y-147512047D01*
X51792142Y-147512047D01*
X50658809Y-145812047D02*
X49525476Y-145812047D01*
X50254047Y-147512047D01*
X44587380Y-148078714D02*
X44587380Y-145650142D01*
X75430238Y-149601428D02*
X74135000Y-149601428D01*
X73325476Y-149601428D02*
X72030238Y-149601428D01*
X71220714Y-149601428D02*
X69925476Y-149601428D01*
X69115952Y-149601428D02*
X67820714Y-149601428D01*
X67011190Y-149601428D02*
X65715952Y-149601428D01*
X64906428Y-149601428D02*
X63611190Y-149601428D01*
X62801666Y-149601428D02*
X61506428Y-149601428D01*
X60696904Y-149601428D02*
X59401666Y-149601428D01*
X58592142Y-149601428D02*
X57296904Y-149601428D01*
X56487380Y-149601428D02*
X55192142Y-149601428D01*
X54382619Y-149601428D02*
X53087380Y-149601428D01*
X52277857Y-149601428D02*
X50982619Y-149601428D01*
X50173095Y-149601428D02*
X48877857Y-149601428D01*
X48068333Y-149601428D02*
X46773095Y-149601428D01*
X45963571Y-149601428D02*
X44668333Y-149601428D01*
X75025476Y-153552714D02*
X75025476Y-151124142D01*
X72515952Y-152986047D02*
X72515952Y-151286047D01*
X72515952Y-152095571D02*
X71544523Y-152095571D01*
X71544523Y-152986047D02*
X71544523Y-151286047D01*
X70411190Y-151286047D02*
X70087380Y-151286047D01*
X69925476Y-151367000D01*
X69763571Y-151528904D01*
X69682619Y-151852714D01*
X69682619Y-152419380D01*
X69763571Y-152743190D01*
X69925476Y-152905095D01*
X70087380Y-152986047D01*
X70411190Y-152986047D01*
X70573095Y-152905095D01*
X70735000Y-152743190D01*
X70815952Y-152419380D01*
X70815952Y-151852714D01*
X70735000Y-151528904D01*
X70573095Y-151367000D01*
X70411190Y-151286047D01*
X68954047Y-152986047D02*
X68954047Y-151286047D01*
X68387380Y-152500333D01*
X67820714Y-151286047D01*
X67820714Y-152986047D01*
X67011190Y-152095571D02*
X66444523Y-152095571D01*
X66201666Y-152986047D02*
X67011190Y-152986047D01*
X67011190Y-151286047D01*
X66201666Y-151286047D01*
X64339761Y-151286047D02*
X63206428Y-152986047D01*
X63206428Y-151286047D02*
X64339761Y-152986047D01*
X62235000Y-152176523D02*
X62235000Y-152986047D01*
X62801666Y-151286047D02*
X62235000Y-152176523D01*
X61668333Y-151286047D01*
X58106428Y-153552714D02*
X58106428Y-151124142D01*
X54868333Y-151852714D02*
X54868333Y-153228904D01*
X54949285Y-153390809D01*
X55030238Y-153471761D01*
X55192142Y-153552714D01*
X55434999Y-153552714D01*
X55596904Y-153471761D01*
X54868333Y-152905095D02*
X55030238Y-152986047D01*
X55354047Y-152986047D01*
X55515952Y-152905095D01*
X55596904Y-152824142D01*
X55677857Y-152662238D01*
X55677857Y-152176523D01*
X55596904Y-152014619D01*
X55515952Y-151933666D01*
X55354047Y-151852714D01*
X55030238Y-151852714D01*
X54868333Y-151933666D01*
X54058809Y-151852714D02*
X54058809Y-153552714D01*
X54058809Y-151933666D02*
X53896904Y-151852714D01*
X53573095Y-151852714D01*
X53411190Y-151933666D01*
X53330238Y-152014619D01*
X53249285Y-152176523D01*
X53249285Y-152662238D01*
X53330238Y-152824142D01*
X53411190Y-152905095D01*
X53573095Y-152986047D01*
X53896904Y-152986047D01*
X54058809Y-152905095D01*
X52520714Y-152986047D02*
X52520714Y-151852714D01*
X52520714Y-151286047D02*
X52601666Y-151367000D01*
X52520714Y-151447952D01*
X52439761Y-151367000D01*
X52520714Y-151286047D01*
X52520714Y-151447952D01*
X51468333Y-152986047D02*
X51630238Y-152905095D01*
X51711190Y-152824142D01*
X51792142Y-152662238D01*
X51792142Y-152176523D01*
X51711190Y-152014619D01*
X51630238Y-151933666D01*
X51468333Y-151852714D01*
X51225476Y-151852714D01*
X51063571Y-151933666D01*
X50982619Y-152014619D01*
X50901666Y-152176523D01*
X50901666Y-152662238D01*
X50982619Y-152824142D01*
X51063571Y-152905095D01*
X51225476Y-152986047D01*
X51468333Y-152986047D01*
X49282619Y-152986047D02*
X50254047Y-152986047D01*
X49768333Y-152986047D02*
X49768333Y-151286047D01*
X49930238Y-151528904D01*
X50092142Y-151690809D01*
X50254047Y-151771761D01*
X47744523Y-151286047D02*
X48554047Y-151286047D01*
X48634999Y-152095571D01*
X48554047Y-152014619D01*
X48392142Y-151933666D01*
X47987380Y-151933666D01*
X47825476Y-152014619D01*
X47744523Y-152095571D01*
X47663571Y-152257476D01*
X47663571Y-152662238D01*
X47744523Y-152824142D01*
X47825476Y-152905095D01*
X47987380Y-152986047D01*
X48392142Y-152986047D01*
X48554047Y-152905095D01*
X48634999Y-152824142D01*
X43939761Y-153552714D02*
X43939761Y-151124142D01*
X75430238Y-155075428D02*
X74135000Y-155075428D01*
X73325476Y-155075428D02*
X72030238Y-155075428D01*
X71220714Y-155075428D02*
X69925476Y-155075428D01*
X69115952Y-155075428D02*
X67820714Y-155075428D01*
X67011190Y-155075428D02*
X65715952Y-155075428D01*
X64906428Y-155075428D02*
X63611190Y-155075428D01*
X62801666Y-155075428D02*
X61506428Y-155075428D01*
X60696904Y-155075428D02*
X59401666Y-155075428D01*
X58592142Y-155075428D02*
X57296904Y-155075428D01*
X56487380Y-155075428D02*
X55192142Y-155075428D01*
X54382619Y-155075428D02*
X53087380Y-155075428D01*
X52277857Y-155075428D02*
X50982619Y-155075428D01*
X50173095Y-155075428D02*
X48877857Y-155075428D01*
X48068333Y-155075428D02*
X46773095Y-155075428D01*
X45963571Y-155075428D02*
X44668333Y-155075428D01*
X75025476Y-159026714D02*
X75025476Y-156598142D01*
X72515952Y-158460047D02*
X72515952Y-156760047D01*
X72515952Y-157569571D02*
X71544523Y-157569571D01*
X71544523Y-158460047D02*
X71544523Y-156760047D01*
X70411190Y-156760047D02*
X70087380Y-156760047D01*
X69925476Y-156841000D01*
X69763571Y-157002904D01*
X69682619Y-157326714D01*
X69682619Y-157893380D01*
X69763571Y-158217190D01*
X69925476Y-158379095D01*
X70087380Y-158460047D01*
X70411190Y-158460047D01*
X70573095Y-158379095D01*
X70735000Y-158217190D01*
X70815952Y-157893380D01*
X70815952Y-157326714D01*
X70735000Y-157002904D01*
X70573095Y-156841000D01*
X70411190Y-156760047D01*
X68954047Y-158460047D02*
X68954047Y-156760047D01*
X68387380Y-157974333D01*
X67820714Y-156760047D01*
X67820714Y-158460047D01*
X67011190Y-157569571D02*
X66444523Y-157569571D01*
X66201666Y-158460047D02*
X67011190Y-158460047D01*
X67011190Y-156760047D01*
X66201666Y-156760047D01*
X64339761Y-156760047D02*
X63206428Y-156760047D01*
X64339761Y-158460047D01*
X63206428Y-158460047D01*
X58268333Y-159026714D02*
X58268333Y-156598142D01*
X55030238Y-157326714D02*
X55030238Y-158702904D01*
X55111190Y-158864809D01*
X55192142Y-158945761D01*
X55354047Y-159026714D01*
X55596904Y-159026714D01*
X55758809Y-158945761D01*
X55030238Y-158379095D02*
X55192142Y-158460047D01*
X55515952Y-158460047D01*
X55677857Y-158379095D01*
X55758809Y-158298142D01*
X55839761Y-158136238D01*
X55839761Y-157650523D01*
X55758809Y-157488619D01*
X55677857Y-157407666D01*
X55515952Y-157326714D01*
X55192142Y-157326714D01*
X55030238Y-157407666D01*
X54220714Y-157326714D02*
X54220714Y-159026714D01*
X54220714Y-157407666D02*
X54058809Y-157326714D01*
X53735000Y-157326714D01*
X53573095Y-157407666D01*
X53492142Y-157488619D01*
X53411190Y-157650523D01*
X53411190Y-158136238D01*
X53492142Y-158298142D01*
X53573095Y-158379095D01*
X53735000Y-158460047D01*
X54058809Y-158460047D01*
X54220714Y-158379095D01*
X52682619Y-158460047D02*
X52682619Y-157326714D01*
X52682619Y-156760047D02*
X52763571Y-156841000D01*
X52682619Y-156921952D01*
X52601666Y-156841000D01*
X52682619Y-156760047D01*
X52682619Y-156921952D01*
X51630238Y-158460047D02*
X51792142Y-158379095D01*
X51873095Y-158298142D01*
X51954047Y-158136238D01*
X51954047Y-157650523D01*
X51873095Y-157488619D01*
X51792142Y-157407666D01*
X51630238Y-157326714D01*
X51387380Y-157326714D01*
X51225476Y-157407666D01*
X51144523Y-157488619D01*
X51063571Y-157650523D01*
X51063571Y-158136238D01*
X51144523Y-158298142D01*
X51225476Y-158379095D01*
X51387380Y-158460047D01*
X51630238Y-158460047D01*
X49444523Y-158460047D02*
X50415952Y-158460047D01*
X49930238Y-158460047D02*
X49930238Y-156760047D01*
X50092142Y-157002904D01*
X50254047Y-157164809D01*
X50415952Y-157245761D01*
X44425476Y-159026714D02*
X44425476Y-156598142D01*
X75430238Y-160549428D02*
X74135000Y-160549428D01*
X73325476Y-160549428D02*
X72030238Y-160549428D01*
X71220714Y-160549428D02*
X69925476Y-160549428D01*
X69115952Y-160549428D02*
X67820714Y-160549428D01*
X67011190Y-160549428D02*
X65715952Y-160549428D01*
X64906428Y-160549428D02*
X63611190Y-160549428D01*
X62801666Y-160549428D02*
X61506428Y-160549428D01*
X60696904Y-160549428D02*
X59401666Y-160549428D01*
X58592142Y-160549428D02*
X57296904Y-160549428D01*
X56487380Y-160549428D02*
X55192142Y-160549428D01*
X54382619Y-160549428D02*
X53087380Y-160549428D01*
X52277857Y-160549428D02*
X50982619Y-160549428D01*
X50173095Y-160549428D02*
X48877857Y-160549428D01*
X48068333Y-160549428D02*
X46773095Y-160549428D01*
X45963571Y-160549428D02*
X44668333Y-160549428D01*
D11*
%TO.C,U1*%
X117021904Y-53082380D02*
X117021904Y-53891904D01*
X116974285Y-53987142D01*
X116926666Y-54034761D01*
X116831428Y-54082380D01*
X116640952Y-54082380D01*
X116545714Y-54034761D01*
X116498095Y-53987142D01*
X116450476Y-53891904D01*
X116450476Y-53082380D01*
X115450476Y-54082380D02*
X116021904Y-54082380D01*
X115736190Y-54082380D02*
X115736190Y-53082380D01*
X115831428Y-53225238D01*
X115926666Y-53320476D01*
X116021904Y-53368095D01*
X128503722Y-67209407D02*
X128422910Y-67182470D01*
X128342097Y-67101658D01*
X128288223Y-66993908D01*
X128288223Y-66886158D01*
X128315160Y-66805346D01*
X128395972Y-66670659D01*
X128476784Y-66589847D01*
X128611471Y-66509035D01*
X128692284Y-66482097D01*
X128800033Y-66482097D01*
X128907783Y-66535972D01*
X128961658Y-66589847D01*
X129015532Y-66697597D01*
X129015532Y-66751471D01*
X128826971Y-66940033D01*
X128719221Y-66832284D01*
X129311844Y-66940033D02*
X128746158Y-67505719D01*
X128961658Y-67721218D01*
X129042470Y-67748155D01*
X129096345Y-67748155D01*
X129177157Y-67721218D01*
X129257969Y-67640406D01*
X129284906Y-67559593D01*
X129284906Y-67505719D01*
X129257969Y-67424906D01*
X129042470Y-67209407D01*
X130173841Y-67802030D02*
X129850592Y-67478781D01*
X130012216Y-67640406D02*
X129446531Y-68206091D01*
X129473468Y-68071404D01*
X129473468Y-67963654D01*
X129446531Y-67882842D01*
X129877529Y-68529340D02*
X129877529Y-68583215D01*
X129904467Y-68664027D01*
X130039154Y-68798714D01*
X130119966Y-68825651D01*
X130173841Y-68825651D01*
X130254653Y-68798714D01*
X130308528Y-68744839D01*
X130362402Y-68637089D01*
X130362402Y-67990592D01*
X130712589Y-68340778D01*
X102249722Y-64669407D02*
X102168910Y-64642470D01*
X102088097Y-64561658D01*
X102034223Y-64453908D01*
X102034223Y-64346158D01*
X102061160Y-64265346D01*
X102141972Y-64130659D01*
X102222784Y-64049847D01*
X102357471Y-63969035D01*
X102438284Y-63942097D01*
X102546033Y-63942097D01*
X102653783Y-63995972D01*
X102707658Y-64049847D01*
X102761532Y-64157597D01*
X102761532Y-64211471D01*
X102572971Y-64400033D01*
X102465221Y-64292284D01*
X103057844Y-64400033D02*
X102492158Y-64965719D01*
X102707658Y-65181218D01*
X102788470Y-65208155D01*
X102842345Y-65208155D01*
X102923157Y-65181218D01*
X103003969Y-65100406D01*
X103030906Y-65019593D01*
X103030906Y-64965719D01*
X103003969Y-64884906D01*
X102788470Y-64669407D01*
X103084781Y-65450592D02*
X103084781Y-65504467D01*
X103111719Y-65585279D01*
X103246406Y-65719966D01*
X103327218Y-65746903D01*
X103381093Y-65746903D01*
X103461905Y-65719966D01*
X103515780Y-65666091D01*
X103569654Y-65558341D01*
X103569654Y-64911844D01*
X103919841Y-65262030D01*
X103704341Y-66177902D02*
X103758216Y-66231776D01*
X103839028Y-66258714D01*
X103892903Y-66258714D01*
X103973715Y-66231776D01*
X104108402Y-66150964D01*
X104243089Y-66016277D01*
X104323902Y-65881590D01*
X104350839Y-65800778D01*
X104350839Y-65746903D01*
X104323902Y-65666091D01*
X104270027Y-65612216D01*
X104189215Y-65585279D01*
X104135340Y-65585279D01*
X104054528Y-65612216D01*
X103919841Y-65693028D01*
X103785154Y-65827715D01*
X103704341Y-65962402D01*
X103677404Y-66043215D01*
X103677404Y-66097089D01*
X103704341Y-66177902D01*
X101613129Y-28702690D02*
X102367377Y-28325566D01*
X101990253Y-29079813D01*
X102636751Y-29187563D02*
X102744500Y-29241438D01*
X102798375Y-29241438D01*
X102879187Y-29214500D01*
X102960000Y-29133688D01*
X102986937Y-29052876D01*
X102986937Y-28999001D01*
X102960000Y-28918189D01*
X102744500Y-28702690D01*
X102178815Y-29268375D01*
X102367377Y-29456937D01*
X102448189Y-29483874D01*
X102502064Y-29483874D01*
X102582876Y-29456937D01*
X102636751Y-29403062D01*
X102663688Y-29322250D01*
X102663688Y-29268375D01*
X102636751Y-29187563D01*
X102448189Y-28999001D01*
X102744500Y-29834061D02*
X103202436Y-29376125D01*
X103283248Y-29349187D01*
X103337123Y-29349187D01*
X103417935Y-29376125D01*
X103525685Y-29483874D01*
X103552622Y-29564687D01*
X103552622Y-29618561D01*
X103525685Y-29699374D01*
X103067749Y-30157309D01*
X103848934Y-29860998D02*
X103956683Y-29914873D01*
X104091370Y-30049560D01*
X104118308Y-30130372D01*
X104118308Y-30184247D01*
X104091370Y-30265059D01*
X104037496Y-30318934D01*
X103956683Y-30345871D01*
X103902809Y-30345871D01*
X103821996Y-30318934D01*
X103687309Y-30238122D01*
X103606497Y-30211184D01*
X103552622Y-30211184D01*
X103471810Y-30238122D01*
X103417935Y-30291996D01*
X103390998Y-30372809D01*
X103390998Y-30426683D01*
X103417935Y-30507496D01*
X103552622Y-30642183D01*
X103660372Y-30696057D01*
X112355238Y-80153809D02*
X112240952Y-80191904D01*
X112050476Y-80191904D01*
X111974285Y-80153809D01*
X111936190Y-80115714D01*
X111898095Y-80039523D01*
X111898095Y-79963333D01*
X111936190Y-79887142D01*
X111974285Y-79849047D01*
X112050476Y-79810952D01*
X112202857Y-79772857D01*
X112279047Y-79734761D01*
X112317142Y-79696666D01*
X112355238Y-79620476D01*
X112355238Y-79544285D01*
X112317142Y-79468095D01*
X112279047Y-79430000D01*
X112202857Y-79391904D01*
X112012380Y-79391904D01*
X111898095Y-79430000D01*
X111631428Y-79391904D02*
X111440952Y-80191904D01*
X111288571Y-79620476D01*
X111136190Y-80191904D01*
X110945714Y-79391904D01*
X110640952Y-80191904D02*
X110640952Y-79391904D01*
X110450476Y-79391904D01*
X110336190Y-79430000D01*
X110260000Y-79506190D01*
X110221904Y-79582380D01*
X110183809Y-79734761D01*
X110183809Y-79849047D01*
X110221904Y-80001428D01*
X110260000Y-80077619D01*
X110336190Y-80153809D01*
X110450476Y-80191904D01*
X110640952Y-80191904D01*
X109840952Y-80191904D02*
X109840952Y-79391904D01*
X109307619Y-79391904D02*
X109155238Y-79391904D01*
X109079047Y-79430000D01*
X109002857Y-79506190D01*
X108964761Y-79658571D01*
X108964761Y-79925238D01*
X109002857Y-80077619D01*
X109079047Y-80153809D01*
X109155238Y-80191904D01*
X109307619Y-80191904D01*
X109383809Y-80153809D01*
X109460000Y-80077619D01*
X109498095Y-79925238D01*
X109498095Y-79658571D01*
X109460000Y-79506190D01*
X109383809Y-79430000D01*
X109307619Y-79391904D01*
X128373096Y-42078781D02*
X128292284Y-42051844D01*
X128211471Y-41971032D01*
X128157597Y-41863282D01*
X128157597Y-41755532D01*
X128184534Y-41674720D01*
X128265346Y-41540033D01*
X128346158Y-41459221D01*
X128480845Y-41378409D01*
X128561658Y-41351471D01*
X128669407Y-41351471D01*
X128777157Y-41405346D01*
X128831032Y-41459221D01*
X128884906Y-41566971D01*
X128884906Y-41620845D01*
X128696345Y-41809407D01*
X128588595Y-41701658D01*
X129181218Y-41809407D02*
X128615532Y-42375093D01*
X128831032Y-42590592D01*
X128911844Y-42617529D01*
X128965719Y-42617529D01*
X129046531Y-42590592D01*
X129127343Y-42509780D01*
X129154280Y-42428967D01*
X129154280Y-42375093D01*
X129127343Y-42294280D01*
X128911844Y-42078781D01*
X129612216Y-42994653D02*
X129989340Y-42617529D01*
X129262030Y-43075465D02*
X129531404Y-42536717D01*
X129881590Y-42886903D01*
X102249722Y-44095407D02*
X102168910Y-44068470D01*
X102088097Y-43987658D01*
X102034223Y-43879908D01*
X102034223Y-43772158D01*
X102061160Y-43691346D01*
X102141972Y-43556659D01*
X102222784Y-43475847D01*
X102357471Y-43395035D01*
X102438284Y-43368097D01*
X102546033Y-43368097D01*
X102653783Y-43421972D01*
X102707658Y-43475847D01*
X102761532Y-43583597D01*
X102761532Y-43637471D01*
X102572971Y-43826033D01*
X102465221Y-43718284D01*
X103057844Y-43826033D02*
X102492158Y-44391719D01*
X102707658Y-44607218D01*
X102788470Y-44634155D01*
X102842345Y-44634155D01*
X102923157Y-44607218D01*
X103003969Y-44526406D01*
X103030906Y-44445593D01*
X103030906Y-44391719D01*
X103003969Y-44310906D01*
X102788470Y-44095407D01*
X103084781Y-44876592D02*
X103084781Y-44930467D01*
X103111719Y-45011279D01*
X103246406Y-45145966D01*
X103327218Y-45172903D01*
X103381093Y-45172903D01*
X103461905Y-45145966D01*
X103515780Y-45092091D01*
X103569654Y-44984341D01*
X103569654Y-44337844D01*
X103919841Y-44688030D01*
X103919841Y-45334528D02*
X103839028Y-45307590D01*
X103785154Y-45307590D01*
X103704341Y-45334528D01*
X103677404Y-45361465D01*
X103650467Y-45442277D01*
X103650467Y-45496152D01*
X103677404Y-45576964D01*
X103785154Y-45684714D01*
X103865966Y-45711651D01*
X103919841Y-45711651D01*
X104000653Y-45684714D01*
X104027590Y-45657776D01*
X104054528Y-45576964D01*
X104054528Y-45523089D01*
X104027590Y-45442277D01*
X103919841Y-45334528D01*
X103892903Y-45253715D01*
X103892903Y-45199841D01*
X103919841Y-45119028D01*
X104027590Y-45011279D01*
X104108402Y-44984341D01*
X104162277Y-44984341D01*
X104243089Y-45011279D01*
X104350839Y-45119028D01*
X104377776Y-45199841D01*
X104377776Y-45253715D01*
X104350839Y-45334528D01*
X104243089Y-45442277D01*
X104162277Y-45469215D01*
X104108402Y-45469215D01*
X104027590Y-45442277D01*
X128357722Y-62129407D02*
X128276910Y-62102470D01*
X128196097Y-62021658D01*
X128142223Y-61913908D01*
X128142223Y-61806158D01*
X128169160Y-61725346D01*
X128249972Y-61590659D01*
X128330784Y-61509847D01*
X128465471Y-61429035D01*
X128546284Y-61402097D01*
X128654033Y-61402097D01*
X128761783Y-61455972D01*
X128815658Y-61509847D01*
X128869532Y-61617597D01*
X128869532Y-61671471D01*
X128680971Y-61860033D01*
X128573221Y-61752284D01*
X129165844Y-61860033D02*
X128600158Y-62425719D01*
X128815658Y-62641218D01*
X128896470Y-62668155D01*
X128950345Y-62668155D01*
X129031157Y-62641218D01*
X129111969Y-62560406D01*
X129138906Y-62479593D01*
X129138906Y-62425719D01*
X129111969Y-62344906D01*
X128896470Y-62129407D01*
X130027841Y-62722030D02*
X129704592Y-62398781D01*
X129866216Y-62560406D02*
X129300531Y-63126091D01*
X129327468Y-62991404D01*
X129327468Y-62883654D01*
X129300531Y-62802842D01*
X129812341Y-63637902D02*
X129866216Y-63691776D01*
X129947028Y-63718714D01*
X130000903Y-63718714D01*
X130081715Y-63691776D01*
X130216402Y-63610964D01*
X130351089Y-63476277D01*
X130431902Y-63341590D01*
X130458839Y-63260778D01*
X130458839Y-63206903D01*
X130431902Y-63126091D01*
X130378027Y-63072216D01*
X130297215Y-63045279D01*
X130243340Y-63045279D01*
X130162528Y-63072216D01*
X130027841Y-63153028D01*
X129893154Y-63287715D01*
X129812341Y-63422402D01*
X129785404Y-63503215D01*
X129785404Y-63557089D01*
X129812341Y-63637902D01*
X101780473Y-31380033D02*
X102534720Y-31002910D01*
X102157597Y-31757157D01*
X102857969Y-31380033D02*
X102965719Y-31433908D01*
X103100406Y-31568595D01*
X103127343Y-31649407D01*
X103127343Y-31703282D01*
X103100406Y-31784094D01*
X103046531Y-31837969D01*
X102965719Y-31864906D01*
X102911844Y-31864906D01*
X102831032Y-31837969D01*
X102696345Y-31757157D01*
X102615532Y-31730219D01*
X102561658Y-31730219D01*
X102480845Y-31757157D01*
X102426971Y-31811032D01*
X102400033Y-31891844D01*
X102400033Y-31945719D01*
X102426971Y-32026531D01*
X102561658Y-32161218D01*
X102669407Y-32215093D01*
X103288967Y-32295905D02*
X103558341Y-32026531D01*
X102804094Y-32403654D02*
X103288967Y-32295905D01*
X103181218Y-32780778D01*
X103881590Y-32403654D02*
X103989340Y-32457529D01*
X104124027Y-32592216D01*
X104150964Y-32673028D01*
X104150964Y-32726903D01*
X104124027Y-32807715D01*
X104070152Y-32861590D01*
X103989340Y-32888528D01*
X103935465Y-32888528D01*
X103854653Y-32861590D01*
X103719966Y-32780778D01*
X103639154Y-32753841D01*
X103585279Y-32753841D01*
X103504467Y-32780778D01*
X103450592Y-32834653D01*
X103423654Y-32915465D01*
X103423654Y-32969340D01*
X103450592Y-33050152D01*
X103585279Y-33184839D01*
X103693028Y-33238714D01*
X128346158Y-34431844D02*
X128265346Y-34404906D01*
X128184534Y-34324094D01*
X128130659Y-34216345D01*
X128130659Y-34108595D01*
X128157597Y-34027783D01*
X128238409Y-33893096D01*
X128319221Y-33812284D01*
X128453908Y-33731471D01*
X128534720Y-33704534D01*
X128642470Y-33704534D01*
X128750219Y-33758409D01*
X128804094Y-33812284D01*
X128857969Y-33920033D01*
X128857969Y-33973908D01*
X128669407Y-34162470D01*
X128561658Y-34054720D01*
X129154280Y-34162470D02*
X128588595Y-34728155D01*
X129477529Y-34485719D01*
X128911844Y-35051404D01*
X129746903Y-34755093D02*
X129181218Y-35320778D01*
X129315905Y-35455465D01*
X129423654Y-35509340D01*
X129531404Y-35509340D01*
X129612216Y-35482402D01*
X129746903Y-35401590D01*
X129827715Y-35320778D01*
X129908528Y-35186091D01*
X129935465Y-35105279D01*
X129935465Y-34997529D01*
X129881590Y-34889780D01*
X129746903Y-34755093D01*
X128373096Y-39538781D02*
X128292284Y-39511844D01*
X128211471Y-39431032D01*
X128157597Y-39323282D01*
X128157597Y-39215532D01*
X128184534Y-39134720D01*
X128265346Y-39000033D01*
X128346158Y-38919221D01*
X128480845Y-38838409D01*
X128561658Y-38811471D01*
X128669407Y-38811471D01*
X128777157Y-38865346D01*
X128831032Y-38919221D01*
X128884906Y-39026971D01*
X128884906Y-39080845D01*
X128696345Y-39269407D01*
X128588595Y-39161658D01*
X129181218Y-39269407D02*
X128615532Y-39835093D01*
X128831032Y-40050592D01*
X128911844Y-40077529D01*
X128965719Y-40077529D01*
X129046531Y-40050592D01*
X129127343Y-39969780D01*
X129154280Y-39888967D01*
X129154280Y-39835093D01*
X129127343Y-39754280D01*
X128911844Y-39538781D01*
X129127343Y-40346903D02*
X129477529Y-40697089D01*
X129504467Y-40293028D01*
X129585279Y-40373841D01*
X129666091Y-40400778D01*
X129719966Y-40400778D01*
X129800778Y-40373841D01*
X129935465Y-40239154D01*
X129962402Y-40158341D01*
X129962402Y-40104467D01*
X129935465Y-40023654D01*
X129773841Y-39862030D01*
X129693028Y-39835093D01*
X129639154Y-39835093D01*
X102249722Y-62139407D02*
X102168910Y-62112470D01*
X102088097Y-62031658D01*
X102034223Y-61923908D01*
X102034223Y-61816158D01*
X102061160Y-61735346D01*
X102141972Y-61600659D01*
X102222784Y-61519847D01*
X102357471Y-61439035D01*
X102438284Y-61412097D01*
X102546033Y-61412097D01*
X102653783Y-61465972D01*
X102707658Y-61519847D01*
X102761532Y-61627597D01*
X102761532Y-61681471D01*
X102572971Y-61870033D01*
X102465221Y-61762284D01*
X103057844Y-61870033D02*
X102492158Y-62435719D01*
X102707658Y-62651218D01*
X102788470Y-62678155D01*
X102842345Y-62678155D01*
X102923157Y-62651218D01*
X103003969Y-62570406D01*
X103030906Y-62489593D01*
X103030906Y-62435719D01*
X103003969Y-62354906D01*
X102788470Y-62139407D01*
X103084781Y-62920592D02*
X103084781Y-62974467D01*
X103111719Y-63055279D01*
X103246406Y-63189966D01*
X103327218Y-63216903D01*
X103381093Y-63216903D01*
X103461905Y-63189966D01*
X103515780Y-63136091D01*
X103569654Y-63028341D01*
X103569654Y-62381844D01*
X103919841Y-62732030D01*
X104458589Y-63270778D02*
X104135340Y-62947529D01*
X104296964Y-63109154D02*
X103731279Y-63674839D01*
X103758216Y-63540152D01*
X103758216Y-63432402D01*
X103731279Y-63351590D01*
X128346158Y-72531844D02*
X128265346Y-72504906D01*
X128184534Y-72424094D01*
X128130659Y-72316345D01*
X128130659Y-72208595D01*
X128157597Y-72127783D01*
X128238409Y-71993096D01*
X128319221Y-71912284D01*
X128453908Y-71831471D01*
X128534720Y-71804534D01*
X128642470Y-71804534D01*
X128750219Y-71858409D01*
X128804094Y-71912284D01*
X128857969Y-72020033D01*
X128857969Y-72073908D01*
X128669407Y-72262470D01*
X128561658Y-72154720D01*
X129154280Y-72262470D02*
X128588595Y-72828155D01*
X129477529Y-72585719D01*
X128911844Y-73151404D01*
X129746903Y-72855093D02*
X129181218Y-73420778D01*
X129315905Y-73555465D01*
X129423654Y-73609340D01*
X129531404Y-73609340D01*
X129612216Y-73582402D01*
X129746903Y-73501590D01*
X129827715Y-73420778D01*
X129908528Y-73286091D01*
X129935465Y-73205279D01*
X129935465Y-73097529D01*
X129881590Y-72989780D01*
X129746903Y-72855093D01*
X102249722Y-67209407D02*
X102168910Y-67182470D01*
X102088097Y-67101658D01*
X102034223Y-66993908D01*
X102034223Y-66886158D01*
X102061160Y-66805346D01*
X102141972Y-66670659D01*
X102222784Y-66589847D01*
X102357471Y-66509035D01*
X102438284Y-66482097D01*
X102546033Y-66482097D01*
X102653783Y-66535972D01*
X102707658Y-66589847D01*
X102761532Y-66697597D01*
X102761532Y-66751471D01*
X102572971Y-66940033D01*
X102465221Y-66832284D01*
X103057844Y-66940033D02*
X102492158Y-67505719D01*
X102707658Y-67721218D01*
X102788470Y-67748155D01*
X102842345Y-67748155D01*
X102923157Y-67721218D01*
X103003969Y-67640406D01*
X103030906Y-67559593D01*
X103030906Y-67505719D01*
X103003969Y-67424906D01*
X102788470Y-67209407D01*
X103919841Y-67802030D02*
X103596592Y-67478781D01*
X103758216Y-67640406D02*
X103192531Y-68206091D01*
X103219468Y-68071404D01*
X103219468Y-67963654D01*
X103192531Y-67882842D01*
X104189215Y-68071404D02*
X104296964Y-68179154D01*
X104323902Y-68259966D01*
X104323902Y-68313841D01*
X104296964Y-68448528D01*
X104216152Y-68583215D01*
X104000653Y-68798714D01*
X103919841Y-68825651D01*
X103865966Y-68825651D01*
X103785154Y-68798714D01*
X103677404Y-68690964D01*
X103650467Y-68610152D01*
X103650467Y-68556277D01*
X103677404Y-68475465D01*
X103812091Y-68340778D01*
X103892903Y-68313841D01*
X103946778Y-68313841D01*
X104027590Y-68340778D01*
X104135340Y-68448528D01*
X104162277Y-68529340D01*
X104162277Y-68583215D01*
X104135340Y-68664027D01*
X102249722Y-77369407D02*
X102168910Y-77342470D01*
X102088097Y-77261658D01*
X102034223Y-77153908D01*
X102034223Y-77046158D01*
X102061160Y-76965346D01*
X102141972Y-76830659D01*
X102222784Y-76749847D01*
X102357471Y-76669035D01*
X102438284Y-76642097D01*
X102546033Y-76642097D01*
X102653783Y-76695972D01*
X102707658Y-76749847D01*
X102761532Y-76857597D01*
X102761532Y-76911471D01*
X102572971Y-77100033D01*
X102465221Y-76992284D01*
X103057844Y-77100033D02*
X102492158Y-77665719D01*
X102707658Y-77881218D01*
X102788470Y-77908155D01*
X102842345Y-77908155D01*
X102923157Y-77881218D01*
X103003969Y-77800406D01*
X103030906Y-77719593D01*
X103030906Y-77665719D01*
X103003969Y-77584906D01*
X102788470Y-77369407D01*
X103919841Y-77962030D02*
X103596592Y-77638781D01*
X103758216Y-77800406D02*
X103192531Y-78366091D01*
X103219468Y-78231404D01*
X103219468Y-78123654D01*
X103192531Y-78042842D01*
X103839028Y-79012589D02*
X103731279Y-78904839D01*
X103704341Y-78824027D01*
X103704341Y-78770152D01*
X103731279Y-78635465D01*
X103812091Y-78500778D01*
X104027590Y-78285279D01*
X104108402Y-78258341D01*
X104162277Y-78258341D01*
X104243089Y-78285279D01*
X104350839Y-78393028D01*
X104377776Y-78473841D01*
X104377776Y-78527715D01*
X104350839Y-78608528D01*
X104216152Y-78743215D01*
X104135340Y-78770152D01*
X104081465Y-78770152D01*
X104000653Y-78743215D01*
X103892903Y-78635465D01*
X103865966Y-78554653D01*
X103865966Y-78500778D01*
X103892903Y-78419966D01*
X128403722Y-74829407D02*
X128322910Y-74802470D01*
X128242097Y-74721658D01*
X128188223Y-74613908D01*
X128188223Y-74506158D01*
X128215160Y-74425346D01*
X128295972Y-74290659D01*
X128376784Y-74209847D01*
X128511471Y-74129035D01*
X128592284Y-74102097D01*
X128700033Y-74102097D01*
X128807783Y-74155972D01*
X128861658Y-74209847D01*
X128915532Y-74317597D01*
X128915532Y-74371471D01*
X128726971Y-74560033D01*
X128619221Y-74452284D01*
X129211844Y-74560033D02*
X128646158Y-75125719D01*
X128861658Y-75341218D01*
X128942470Y-75368155D01*
X128996345Y-75368155D01*
X129077157Y-75341218D01*
X129157969Y-75260406D01*
X129184906Y-75179593D01*
X129184906Y-75125719D01*
X129157969Y-75044906D01*
X128942470Y-74829407D01*
X130073841Y-75422030D02*
X129750592Y-75098781D01*
X129912216Y-75260406D02*
X129346531Y-75826091D01*
X129373468Y-75691404D01*
X129373468Y-75583654D01*
X129346531Y-75502842D01*
X130181590Y-76284027D02*
X130558714Y-75906903D01*
X129831404Y-76364839D02*
X130100778Y-75826091D01*
X130450964Y-76176277D01*
X100782131Y-35271691D02*
X101132317Y-35621877D01*
X101159255Y-35217816D01*
X101240067Y-35298629D01*
X101320879Y-35325566D01*
X101374754Y-35325566D01*
X101455566Y-35298629D01*
X101590253Y-35163942D01*
X101617190Y-35083129D01*
X101617190Y-35029255D01*
X101590253Y-34948442D01*
X101428629Y-34786818D01*
X101347816Y-34759881D01*
X101293942Y-34759881D01*
X101293942Y-35783502D02*
X102048189Y-35406378D01*
X101671065Y-36160625D01*
X101805752Y-36295312D02*
X102155938Y-36645499D01*
X102182876Y-36241438D01*
X102263688Y-36322250D01*
X102344500Y-36349187D01*
X102398375Y-36349187D01*
X102479187Y-36322250D01*
X102613874Y-36187563D01*
X102640812Y-36106751D01*
X102640812Y-36052876D01*
X102613874Y-35972064D01*
X102452250Y-35810439D01*
X102371438Y-35783502D01*
X102317563Y-35783502D01*
X102883248Y-36133688D02*
X103314247Y-36564687D01*
X103098748Y-37049560D02*
X103287309Y-37238122D01*
X103664433Y-37022622D02*
X103395059Y-36753248D01*
X102829374Y-37318934D01*
X103098748Y-37588308D01*
X103906870Y-37265059D02*
X103341184Y-37830744D01*
X104230118Y-37588308D01*
X103664433Y-38153993D01*
X128373096Y-54778781D02*
X128292284Y-54751844D01*
X128211471Y-54671032D01*
X128157597Y-54563282D01*
X128157597Y-54455532D01*
X128184534Y-54374720D01*
X128265346Y-54240033D01*
X128346158Y-54159221D01*
X128480845Y-54078409D01*
X128561658Y-54051471D01*
X128669407Y-54051471D01*
X128777157Y-54105346D01*
X128831032Y-54159221D01*
X128884906Y-54266971D01*
X128884906Y-54320845D01*
X128696345Y-54509407D01*
X128588595Y-54401658D01*
X129181218Y-54509407D02*
X128615532Y-55075093D01*
X128831032Y-55290592D01*
X128911844Y-55317529D01*
X128965719Y-55317529D01*
X129046531Y-55290592D01*
X129127343Y-55209780D01*
X129154280Y-55128967D01*
X129154280Y-55075093D01*
X129127343Y-54994280D01*
X128911844Y-54778781D01*
X129504467Y-55479154D02*
X129423654Y-55452216D01*
X129369780Y-55452216D01*
X129288967Y-55479154D01*
X129262030Y-55506091D01*
X129235093Y-55586903D01*
X129235093Y-55640778D01*
X129262030Y-55721590D01*
X129369780Y-55829340D01*
X129450592Y-55856277D01*
X129504467Y-55856277D01*
X129585279Y-55829340D01*
X129612216Y-55802402D01*
X129639154Y-55721590D01*
X129639154Y-55667715D01*
X129612216Y-55586903D01*
X129504467Y-55479154D01*
X129477529Y-55398341D01*
X129477529Y-55344467D01*
X129504467Y-55263654D01*
X129612216Y-55155905D01*
X129693028Y-55128967D01*
X129746903Y-55128967D01*
X129827715Y-55155905D01*
X129935465Y-55263654D01*
X129962402Y-55344467D01*
X129962402Y-55398341D01*
X129935465Y-55479154D01*
X129827715Y-55586903D01*
X129746903Y-55613841D01*
X129693028Y-55613841D01*
X129612216Y-55586903D01*
X128373096Y-57318781D02*
X128292284Y-57291844D01*
X128211471Y-57211032D01*
X128157597Y-57103282D01*
X128157597Y-56995532D01*
X128184534Y-56914720D01*
X128265346Y-56780033D01*
X128346158Y-56699221D01*
X128480845Y-56618409D01*
X128561658Y-56591471D01*
X128669407Y-56591471D01*
X128777157Y-56645346D01*
X128831032Y-56699221D01*
X128884906Y-56806971D01*
X128884906Y-56860845D01*
X128696345Y-57049407D01*
X128588595Y-56941658D01*
X129181218Y-57049407D02*
X128615532Y-57615093D01*
X128831032Y-57830592D01*
X128911844Y-57857529D01*
X128965719Y-57857529D01*
X129046531Y-57830592D01*
X129127343Y-57749780D01*
X129154280Y-57668967D01*
X129154280Y-57615093D01*
X129127343Y-57534280D01*
X128911844Y-57318781D01*
X129773841Y-57642030D02*
X129881590Y-57749780D01*
X129908528Y-57830592D01*
X129908528Y-57884467D01*
X129881590Y-58019154D01*
X129800778Y-58153841D01*
X129585279Y-58369340D01*
X129504467Y-58396277D01*
X129450592Y-58396277D01*
X129369780Y-58369340D01*
X129262030Y-58261590D01*
X129235093Y-58180778D01*
X129235093Y-58126903D01*
X129262030Y-58046091D01*
X129396717Y-57911404D01*
X129477529Y-57884467D01*
X129531404Y-57884467D01*
X129612216Y-57911404D01*
X129719966Y-58019154D01*
X129746903Y-58099966D01*
X129746903Y-58153841D01*
X129719966Y-58234653D01*
X128273096Y-52208781D02*
X128192284Y-52181844D01*
X128111471Y-52101032D01*
X128057597Y-51993282D01*
X128057597Y-51885532D01*
X128084534Y-51804720D01*
X128165346Y-51670033D01*
X128246158Y-51589221D01*
X128380845Y-51508409D01*
X128461658Y-51481471D01*
X128569407Y-51481471D01*
X128677157Y-51535346D01*
X128731032Y-51589221D01*
X128784906Y-51696971D01*
X128784906Y-51750845D01*
X128596345Y-51939407D01*
X128488595Y-51831658D01*
X129081218Y-51939407D02*
X128515532Y-52505093D01*
X128731032Y-52720592D01*
X128811844Y-52747529D01*
X128865719Y-52747529D01*
X128946531Y-52720592D01*
X129027343Y-52639780D01*
X129054280Y-52558967D01*
X129054280Y-52505093D01*
X129027343Y-52424280D01*
X128811844Y-52208781D01*
X129027343Y-53016903D02*
X129404467Y-53394027D01*
X129727715Y-52585905D01*
X102746158Y-59831844D02*
X102665346Y-59804906D01*
X102584534Y-59724094D01*
X102530659Y-59616345D01*
X102530659Y-59508595D01*
X102557597Y-59427783D01*
X102638409Y-59293096D01*
X102719221Y-59212284D01*
X102853908Y-59131471D01*
X102934720Y-59104534D01*
X103042470Y-59104534D01*
X103150219Y-59158409D01*
X103204094Y-59212284D01*
X103257969Y-59320033D01*
X103257969Y-59373908D01*
X103069407Y-59562470D01*
X102961658Y-59454720D01*
X103554280Y-59562470D02*
X102988595Y-60128155D01*
X103877529Y-59885719D01*
X103311844Y-60451404D01*
X104146903Y-60155093D02*
X103581218Y-60720778D01*
X103715905Y-60855465D01*
X103823654Y-60909340D01*
X103931404Y-60909340D01*
X104012216Y-60882402D01*
X104146903Y-60801590D01*
X104227715Y-60720778D01*
X104308528Y-60586091D01*
X104335465Y-60505279D01*
X104335465Y-60397529D01*
X104281590Y-60289780D01*
X104146903Y-60155093D01*
X100414788Y-39096226D02*
X100684162Y-39365600D01*
X100522537Y-38880727D02*
X100145414Y-39634974D01*
X100899661Y-39257850D01*
X101088223Y-39446412D02*
X100522537Y-40012097D01*
X100657224Y-40146784D01*
X100764974Y-40200659D01*
X100872723Y-40200659D01*
X100953536Y-40173722D01*
X101088223Y-40092910D01*
X101169035Y-40012097D01*
X101249847Y-39877410D01*
X101276784Y-39796598D01*
X101276784Y-39688849D01*
X101222910Y-39581099D01*
X101088223Y-39446412D01*
X101923282Y-40389221D02*
X101923282Y-40335346D01*
X101869407Y-40227597D01*
X101815532Y-40173722D01*
X101707783Y-40119847D01*
X101600033Y-40119847D01*
X101519221Y-40146784D01*
X101384534Y-40227597D01*
X101303722Y-40308409D01*
X101222910Y-40443096D01*
X101195972Y-40523908D01*
X101195972Y-40631658D01*
X101249847Y-40739407D01*
X101303722Y-40793282D01*
X101411471Y-40847157D01*
X101465346Y-40847157D01*
X102138781Y-40389221D02*
X102569780Y-40820219D01*
X102004094Y-41493654D02*
X102758341Y-41116531D01*
X102381218Y-41870778D01*
X103458714Y-41816903D02*
X103000778Y-41897715D01*
X103135465Y-41493654D02*
X102569780Y-42059340D01*
X102785279Y-42274839D01*
X102866091Y-42301776D01*
X102919966Y-42301776D01*
X103000778Y-42274839D01*
X103081590Y-42194027D01*
X103108528Y-42113215D01*
X103108528Y-42059340D01*
X103081590Y-41978528D01*
X102866091Y-41763028D01*
X103404839Y-42355651D02*
X103593401Y-42544213D01*
X103970524Y-42328714D02*
X103701150Y-42059340D01*
X103135465Y-42625025D01*
X103404839Y-42894399D01*
X104105211Y-43056024D02*
X103916650Y-42867462D01*
X104212961Y-42571150D02*
X103647276Y-43136836D01*
X103916650Y-43406210D01*
X102249722Y-74829407D02*
X102168910Y-74802470D01*
X102088097Y-74721658D01*
X102034223Y-74613908D01*
X102034223Y-74506158D01*
X102061160Y-74425346D01*
X102141972Y-74290659D01*
X102222784Y-74209847D01*
X102357471Y-74129035D01*
X102438284Y-74102097D01*
X102546033Y-74102097D01*
X102653783Y-74155972D01*
X102707658Y-74209847D01*
X102761532Y-74317597D01*
X102761532Y-74371471D01*
X102572971Y-74560033D01*
X102465221Y-74452284D01*
X103057844Y-74560033D02*
X102492158Y-75125719D01*
X102707658Y-75341218D01*
X102788470Y-75368155D01*
X102842345Y-75368155D01*
X102923157Y-75341218D01*
X103003969Y-75260406D01*
X103030906Y-75179593D01*
X103030906Y-75125719D01*
X103003969Y-75044906D01*
X102788470Y-74829407D01*
X103919841Y-75422030D02*
X103596592Y-75098781D01*
X103758216Y-75260406D02*
X103192531Y-75826091D01*
X103219468Y-75691404D01*
X103219468Y-75583654D01*
X103192531Y-75502842D01*
X103542717Y-76176277D02*
X103919841Y-76553401D01*
X104243089Y-75745279D01*
X102249722Y-57049407D02*
X102168910Y-57022470D01*
X102088097Y-56941658D01*
X102034223Y-56833908D01*
X102034223Y-56726158D01*
X102061160Y-56645346D01*
X102141972Y-56510659D01*
X102222784Y-56429847D01*
X102357471Y-56349035D01*
X102438284Y-56322097D01*
X102546033Y-56322097D01*
X102653783Y-56375972D01*
X102707658Y-56429847D01*
X102761532Y-56537597D01*
X102761532Y-56591471D01*
X102572971Y-56780033D01*
X102465221Y-56672284D01*
X103057844Y-56780033D02*
X102492158Y-57345719D01*
X102707658Y-57561218D01*
X102788470Y-57588155D01*
X102842345Y-57588155D01*
X102923157Y-57561218D01*
X103003969Y-57480406D01*
X103030906Y-57399593D01*
X103030906Y-57345719D01*
X103003969Y-57264906D01*
X102788470Y-57049407D01*
X103084781Y-57830592D02*
X103084781Y-57884467D01*
X103111719Y-57965279D01*
X103246406Y-58099966D01*
X103327218Y-58126903D01*
X103381093Y-58126903D01*
X103461905Y-58099966D01*
X103515780Y-58046091D01*
X103569654Y-57938341D01*
X103569654Y-57291844D01*
X103919841Y-57642030D01*
X103623529Y-58369340D02*
X103623529Y-58423215D01*
X103650467Y-58504027D01*
X103785154Y-58638714D01*
X103865966Y-58665651D01*
X103919841Y-58665651D01*
X104000653Y-58638714D01*
X104054528Y-58584839D01*
X104108402Y-58477089D01*
X104108402Y-57830592D01*
X104458589Y-58180778D01*
X128373096Y-49698781D02*
X128292284Y-49671844D01*
X128211471Y-49591032D01*
X128157597Y-49483282D01*
X128157597Y-49375532D01*
X128184534Y-49294720D01*
X128265346Y-49160033D01*
X128346158Y-49079221D01*
X128480845Y-48998409D01*
X128561658Y-48971471D01*
X128669407Y-48971471D01*
X128777157Y-49025346D01*
X128831032Y-49079221D01*
X128884906Y-49186971D01*
X128884906Y-49240845D01*
X128696345Y-49429407D01*
X128588595Y-49321658D01*
X129181218Y-49429407D02*
X128615532Y-49995093D01*
X128831032Y-50210592D01*
X128911844Y-50237529D01*
X128965719Y-50237529D01*
X129046531Y-50210592D01*
X129127343Y-50129780D01*
X129154280Y-50048967D01*
X129154280Y-49995093D01*
X129127343Y-49914280D01*
X128911844Y-49698781D01*
X129423654Y-50803215D02*
X129315905Y-50695465D01*
X129288967Y-50614653D01*
X129288967Y-50560778D01*
X129315905Y-50426091D01*
X129396717Y-50291404D01*
X129612216Y-50075905D01*
X129693028Y-50048967D01*
X129746903Y-50048967D01*
X129827715Y-50075905D01*
X129935465Y-50183654D01*
X129962402Y-50264467D01*
X129962402Y-50318341D01*
X129935465Y-50399154D01*
X129800778Y-50533841D01*
X129719966Y-50560778D01*
X129666091Y-50560778D01*
X129585279Y-50533841D01*
X129477529Y-50426091D01*
X129450592Y-50345279D01*
X129450592Y-50291404D01*
X129477529Y-50210592D01*
X128357722Y-69749407D02*
X128276910Y-69722470D01*
X128196097Y-69641658D01*
X128142223Y-69533908D01*
X128142223Y-69426158D01*
X128169160Y-69345346D01*
X128249972Y-69210659D01*
X128330784Y-69129847D01*
X128465471Y-69049035D01*
X128546284Y-69022097D01*
X128654033Y-69022097D01*
X128761783Y-69075972D01*
X128815658Y-69129847D01*
X128869532Y-69237597D01*
X128869532Y-69291471D01*
X128680971Y-69480033D01*
X128573221Y-69372284D01*
X129165844Y-69480033D02*
X128600158Y-70045719D01*
X128815658Y-70261218D01*
X128896470Y-70288155D01*
X128950345Y-70288155D01*
X129031157Y-70261218D01*
X129111969Y-70180406D01*
X129138906Y-70099593D01*
X129138906Y-70045719D01*
X129111969Y-69964906D01*
X128896470Y-69749407D01*
X130027841Y-70342030D02*
X129704592Y-70018781D01*
X129866216Y-70180406D02*
X129300531Y-70746091D01*
X129327468Y-70611404D01*
X129327468Y-70503654D01*
X129300531Y-70422842D01*
X129650717Y-71096277D02*
X130000903Y-71446463D01*
X130027841Y-71042402D01*
X130108653Y-71123215D01*
X130189465Y-71150152D01*
X130243340Y-71150152D01*
X130324152Y-71123215D01*
X130458839Y-70988528D01*
X130485776Y-70907715D01*
X130485776Y-70853841D01*
X130458839Y-70773028D01*
X130297215Y-70611404D01*
X130216402Y-70584467D01*
X130162528Y-70584467D01*
X123769523Y-80153809D02*
X123655238Y-80191904D01*
X123464761Y-80191904D01*
X123388571Y-80153809D01*
X123350476Y-80115714D01*
X123312380Y-80039523D01*
X123312380Y-79963333D01*
X123350476Y-79887142D01*
X123388571Y-79849047D01*
X123464761Y-79810952D01*
X123617142Y-79772857D01*
X123693333Y-79734761D01*
X123731428Y-79696666D01*
X123769523Y-79620476D01*
X123769523Y-79544285D01*
X123731428Y-79468095D01*
X123693333Y-79430000D01*
X123617142Y-79391904D01*
X123426666Y-79391904D01*
X123312380Y-79430000D01*
X123045714Y-79391904D02*
X122855238Y-80191904D01*
X122702857Y-79620476D01*
X122550476Y-80191904D01*
X122360000Y-79391904D01*
X121598095Y-80115714D02*
X121636190Y-80153809D01*
X121750476Y-80191904D01*
X121826666Y-80191904D01*
X121940952Y-80153809D01*
X122017142Y-80077619D01*
X122055238Y-80001428D01*
X122093333Y-79849047D01*
X122093333Y-79734761D01*
X122055238Y-79582380D01*
X122017142Y-79506190D01*
X121940952Y-79430000D01*
X121826666Y-79391904D01*
X121750476Y-79391904D01*
X121636190Y-79430000D01*
X121598095Y-79468095D01*
X120874285Y-80191904D02*
X121255238Y-80191904D01*
X121255238Y-79391904D01*
X120607619Y-80191904D02*
X120607619Y-79391904D01*
X120150476Y-80191904D02*
X120493333Y-79734761D01*
X120150476Y-79391904D02*
X120607619Y-79849047D01*
X128357722Y-77369407D02*
X128276910Y-77342470D01*
X128196097Y-77261658D01*
X128142223Y-77153908D01*
X128142223Y-77046158D01*
X128169160Y-76965346D01*
X128249972Y-76830659D01*
X128330784Y-76749847D01*
X128465471Y-76669035D01*
X128546284Y-76642097D01*
X128654033Y-76642097D01*
X128761783Y-76695972D01*
X128815658Y-76749847D01*
X128869532Y-76857597D01*
X128869532Y-76911471D01*
X128680971Y-77100033D01*
X128573221Y-76992284D01*
X129165844Y-77100033D02*
X128600158Y-77665719D01*
X128815658Y-77881218D01*
X128896470Y-77908155D01*
X128950345Y-77908155D01*
X129031157Y-77881218D01*
X129111969Y-77800406D01*
X129138906Y-77719593D01*
X129138906Y-77665719D01*
X129111969Y-77584906D01*
X128896470Y-77369407D01*
X130027841Y-77962030D02*
X129704592Y-77638781D01*
X129866216Y-77800406D02*
X129300531Y-78366091D01*
X129327468Y-78231404D01*
X129327468Y-78123654D01*
X129300531Y-78042842D01*
X129973966Y-79039526D02*
X129704592Y-78770152D01*
X129947028Y-78473841D01*
X129947028Y-78527715D01*
X129973966Y-78608528D01*
X130108653Y-78743215D01*
X130189465Y-78770152D01*
X130243340Y-78770152D01*
X130324152Y-78743215D01*
X130458839Y-78608528D01*
X130485776Y-78527715D01*
X130485776Y-78473841D01*
X130458839Y-78393028D01*
X130324152Y-78258341D01*
X130243340Y-78231404D01*
X130189465Y-78231404D01*
X128473096Y-36998781D02*
X128392284Y-36971844D01*
X128311471Y-36891032D01*
X128257597Y-36783282D01*
X128257597Y-36675532D01*
X128284534Y-36594720D01*
X128365346Y-36460033D01*
X128446158Y-36379221D01*
X128580845Y-36298409D01*
X128661658Y-36271471D01*
X128769407Y-36271471D01*
X128877157Y-36325346D01*
X128931032Y-36379221D01*
X128984906Y-36486971D01*
X128984906Y-36540845D01*
X128796345Y-36729407D01*
X128688595Y-36621658D01*
X129281218Y-36729407D02*
X128715532Y-37295093D01*
X128931032Y-37510592D01*
X129011844Y-37537529D01*
X129065719Y-37537529D01*
X129146531Y-37510592D01*
X129227343Y-37429780D01*
X129254280Y-37348967D01*
X129254280Y-37295093D01*
X129227343Y-37214280D01*
X129011844Y-36998781D01*
X129308155Y-37779966D02*
X129308155Y-37833841D01*
X129335093Y-37914653D01*
X129469780Y-38049340D01*
X129550592Y-38076277D01*
X129604467Y-38076277D01*
X129685279Y-38049340D01*
X129739154Y-37995465D01*
X129793028Y-37887715D01*
X129793028Y-37241218D01*
X130143215Y-37591404D01*
X102303597Y-46189035D02*
X102572971Y-46458409D01*
X102411346Y-45973536D02*
X102034223Y-46727783D01*
X102788470Y-46350659D01*
X102734595Y-47374280D02*
X102653783Y-47347343D01*
X102572971Y-47266531D01*
X102519096Y-47158781D01*
X102519096Y-47051032D01*
X102546033Y-46970219D01*
X102626845Y-46835532D01*
X102707658Y-46754720D01*
X102842345Y-46673908D01*
X102923157Y-46646971D01*
X103030906Y-46646971D01*
X103138656Y-46700845D01*
X103192531Y-46754720D01*
X103246406Y-46862470D01*
X103246406Y-46916345D01*
X103057844Y-47104906D01*
X102950094Y-46997157D01*
X103542717Y-47104906D02*
X102977032Y-47670592D01*
X103865966Y-47428155D01*
X103300280Y-47993841D01*
X104135340Y-47697529D02*
X103569654Y-48263215D01*
X103704341Y-48397902D01*
X103812091Y-48451776D01*
X103919841Y-48451776D01*
X104000653Y-48424839D01*
X104135340Y-48344027D01*
X104216152Y-48263215D01*
X104296964Y-48128528D01*
X104323902Y-48047715D01*
X104323902Y-47939966D01*
X104270027Y-47832216D01*
X104135340Y-47697529D01*
X102249722Y-49439407D02*
X102168910Y-49412470D01*
X102088097Y-49331658D01*
X102034223Y-49223908D01*
X102034223Y-49116158D01*
X102061160Y-49035346D01*
X102141972Y-48900659D01*
X102222784Y-48819847D01*
X102357471Y-48739035D01*
X102438284Y-48712097D01*
X102546033Y-48712097D01*
X102653783Y-48765972D01*
X102707658Y-48819847D01*
X102761532Y-48927597D01*
X102761532Y-48981471D01*
X102572971Y-49170033D01*
X102465221Y-49062284D01*
X103057844Y-49170033D02*
X102492158Y-49735719D01*
X102707658Y-49951218D01*
X102788470Y-49978155D01*
X102842345Y-49978155D01*
X102923157Y-49951218D01*
X103003969Y-49870406D01*
X103030906Y-49789593D01*
X103030906Y-49735719D01*
X103003969Y-49654906D01*
X102788470Y-49439407D01*
X103084781Y-50220592D02*
X103084781Y-50274467D01*
X103111719Y-50355279D01*
X103246406Y-50489966D01*
X103327218Y-50516903D01*
X103381093Y-50516903D01*
X103461905Y-50489966D01*
X103515780Y-50436091D01*
X103569654Y-50328341D01*
X103569654Y-49681844D01*
X103919841Y-50032030D01*
X103542717Y-50786277D02*
X103919841Y-51163401D01*
X104243089Y-50355279D01*
X128373096Y-44618781D02*
X128292284Y-44591844D01*
X128211471Y-44511032D01*
X128157597Y-44403282D01*
X128157597Y-44295532D01*
X128184534Y-44214720D01*
X128265346Y-44080033D01*
X128346158Y-43999221D01*
X128480845Y-43918409D01*
X128561658Y-43891471D01*
X128669407Y-43891471D01*
X128777157Y-43945346D01*
X128831032Y-43999221D01*
X128884906Y-44106971D01*
X128884906Y-44160845D01*
X128696345Y-44349407D01*
X128588595Y-44241658D01*
X129181218Y-44349407D02*
X128615532Y-44915093D01*
X128831032Y-45130592D01*
X128911844Y-45157529D01*
X128965719Y-45157529D01*
X129046531Y-45130592D01*
X129127343Y-45049780D01*
X129154280Y-44968967D01*
X129154280Y-44915093D01*
X129127343Y-44834280D01*
X128911844Y-44618781D01*
X129450592Y-45750152D02*
X129181218Y-45480778D01*
X129423654Y-45184467D01*
X129423654Y-45238341D01*
X129450592Y-45319154D01*
X129585279Y-45453841D01*
X129666091Y-45480778D01*
X129719966Y-45480778D01*
X129800778Y-45453841D01*
X129935465Y-45319154D01*
X129962402Y-45238341D01*
X129962402Y-45184467D01*
X129935465Y-45103654D01*
X129800778Y-44968967D01*
X129719966Y-44942030D01*
X129666091Y-44942030D01*
X128473096Y-31908781D02*
X128392284Y-31881844D01*
X128311471Y-31801032D01*
X128257597Y-31693282D01*
X128257597Y-31585532D01*
X128284534Y-31504720D01*
X128365346Y-31370033D01*
X128446158Y-31289221D01*
X128580845Y-31208409D01*
X128661658Y-31181471D01*
X128769407Y-31181471D01*
X128877157Y-31235346D01*
X128931032Y-31289221D01*
X128984906Y-31396971D01*
X128984906Y-31450845D01*
X128796345Y-31639407D01*
X128688595Y-31531658D01*
X129281218Y-31639407D02*
X128715532Y-32205093D01*
X128931032Y-32420592D01*
X129011844Y-32447529D01*
X129065719Y-32447529D01*
X129146531Y-32420592D01*
X129227343Y-32339780D01*
X129254280Y-32258967D01*
X129254280Y-32205093D01*
X129227343Y-32124280D01*
X129011844Y-31908781D01*
X130143215Y-32501404D02*
X129819966Y-32178155D01*
X129981590Y-32339780D02*
X129415905Y-32905465D01*
X129442842Y-32770778D01*
X129442842Y-32663028D01*
X129415905Y-32582216D01*
X128346158Y-59831844D02*
X128265346Y-59804906D01*
X128184534Y-59724094D01*
X128130659Y-59616345D01*
X128130659Y-59508595D01*
X128157597Y-59427783D01*
X128238409Y-59293096D01*
X128319221Y-59212284D01*
X128453908Y-59131471D01*
X128534720Y-59104534D01*
X128642470Y-59104534D01*
X128750219Y-59158409D01*
X128804094Y-59212284D01*
X128857969Y-59320033D01*
X128857969Y-59373908D01*
X128669407Y-59562470D01*
X128561658Y-59454720D01*
X129154280Y-59562470D02*
X128588595Y-60128155D01*
X129477529Y-59885719D01*
X128911844Y-60451404D01*
X129746903Y-60155093D02*
X129181218Y-60720778D01*
X129315905Y-60855465D01*
X129423654Y-60909340D01*
X129531404Y-60909340D01*
X129612216Y-60882402D01*
X129746903Y-60801590D01*
X129827715Y-60720778D01*
X129908528Y-60586091D01*
X129935465Y-60505279D01*
X129935465Y-60397529D01*
X129881590Y-60289780D01*
X129746903Y-60155093D01*
X102249722Y-69749407D02*
X102168910Y-69722470D01*
X102088097Y-69641658D01*
X102034223Y-69533908D01*
X102034223Y-69426158D01*
X102061160Y-69345346D01*
X102141972Y-69210659D01*
X102222784Y-69129847D01*
X102357471Y-69049035D01*
X102438284Y-69022097D01*
X102546033Y-69022097D01*
X102653783Y-69075972D01*
X102707658Y-69129847D01*
X102761532Y-69237597D01*
X102761532Y-69291471D01*
X102572971Y-69480033D01*
X102465221Y-69372284D01*
X103057844Y-69480033D02*
X102492158Y-70045719D01*
X102707658Y-70261218D01*
X102788470Y-70288155D01*
X102842345Y-70288155D01*
X102923157Y-70261218D01*
X103003969Y-70180406D01*
X103030906Y-70099593D01*
X103030906Y-70045719D01*
X103003969Y-69964906D01*
X102788470Y-69749407D01*
X103919841Y-70342030D02*
X103596592Y-70018781D01*
X103758216Y-70180406D02*
X103192531Y-70746091D01*
X103219468Y-70611404D01*
X103219468Y-70503654D01*
X103192531Y-70422842D01*
X103919841Y-70988528D02*
X103839028Y-70961590D01*
X103785154Y-70961590D01*
X103704341Y-70988528D01*
X103677404Y-71015465D01*
X103650467Y-71096277D01*
X103650467Y-71150152D01*
X103677404Y-71230964D01*
X103785154Y-71338714D01*
X103865966Y-71365651D01*
X103919841Y-71365651D01*
X104000653Y-71338714D01*
X104027590Y-71311776D01*
X104054528Y-71230964D01*
X104054528Y-71177089D01*
X104027590Y-71096277D01*
X103919841Y-70988528D01*
X103892903Y-70907715D01*
X103892903Y-70853841D01*
X103919841Y-70773028D01*
X104027590Y-70665279D01*
X104108402Y-70638341D01*
X104162277Y-70638341D01*
X104243089Y-70665279D01*
X104350839Y-70773028D01*
X104377776Y-70853841D01*
X104377776Y-70907715D01*
X104350839Y-70988528D01*
X104243089Y-71096277D01*
X104162277Y-71123215D01*
X104108402Y-71123215D01*
X104027590Y-71096277D01*
X102746158Y-72531844D02*
X102665346Y-72504906D01*
X102584534Y-72424094D01*
X102530659Y-72316345D01*
X102530659Y-72208595D01*
X102557597Y-72127783D01*
X102638409Y-71993096D01*
X102719221Y-71912284D01*
X102853908Y-71831471D01*
X102934720Y-71804534D01*
X103042470Y-71804534D01*
X103150219Y-71858409D01*
X103204094Y-71912284D01*
X103257969Y-72020033D01*
X103257969Y-72073908D01*
X103069407Y-72262470D01*
X102961658Y-72154720D01*
X103554280Y-72262470D02*
X102988595Y-72828155D01*
X103877529Y-72585719D01*
X103311844Y-73151404D01*
X104146903Y-72855093D02*
X103581218Y-73420778D01*
X103715905Y-73555465D01*
X103823654Y-73609340D01*
X103931404Y-73609340D01*
X104012216Y-73582402D01*
X104146903Y-73501590D01*
X104227715Y-73420778D01*
X104308528Y-73286091D01*
X104335465Y-73205279D01*
X104335465Y-73097529D01*
X104281590Y-72989780D01*
X104146903Y-72855093D01*
X102249722Y-51969407D02*
X102168910Y-51942470D01*
X102088097Y-51861658D01*
X102034223Y-51753908D01*
X102034223Y-51646158D01*
X102061160Y-51565346D01*
X102141972Y-51430659D01*
X102222784Y-51349847D01*
X102357471Y-51269035D01*
X102438284Y-51242097D01*
X102546033Y-51242097D01*
X102653783Y-51295972D01*
X102707658Y-51349847D01*
X102761532Y-51457597D01*
X102761532Y-51511471D01*
X102572971Y-51700033D01*
X102465221Y-51592284D01*
X103057844Y-51700033D02*
X102492158Y-52265719D01*
X102707658Y-52481218D01*
X102788470Y-52508155D01*
X102842345Y-52508155D01*
X102923157Y-52481218D01*
X103003969Y-52400406D01*
X103030906Y-52319593D01*
X103030906Y-52265719D01*
X103003969Y-52184906D01*
X102788470Y-51969407D01*
X103084781Y-52750592D02*
X103084781Y-52804467D01*
X103111719Y-52885279D01*
X103246406Y-53019966D01*
X103327218Y-53046903D01*
X103381093Y-53046903D01*
X103461905Y-53019966D01*
X103515780Y-52966091D01*
X103569654Y-52858341D01*
X103569654Y-52211844D01*
X103919841Y-52562030D01*
X103839028Y-53612589D02*
X103731279Y-53504839D01*
X103704341Y-53424027D01*
X103704341Y-53370152D01*
X103731279Y-53235465D01*
X103812091Y-53100778D01*
X104027590Y-52885279D01*
X104108402Y-52858341D01*
X104162277Y-52858341D01*
X104243089Y-52885279D01*
X104350839Y-52993028D01*
X104377776Y-53073841D01*
X104377776Y-53127715D01*
X104350839Y-53208528D01*
X104216152Y-53343215D01*
X104135340Y-53370152D01*
X104081465Y-53370152D01*
X104000653Y-53343215D01*
X103892903Y-53235465D01*
X103865966Y-53154653D01*
X103865966Y-53100778D01*
X103892903Y-53019966D01*
X102349847Y-39339407D02*
X102700033Y-39689593D01*
X102726971Y-39285532D01*
X102807783Y-39366345D01*
X102888595Y-39393282D01*
X102942470Y-39393282D01*
X103023282Y-39366345D01*
X103157969Y-39231658D01*
X103184906Y-39150845D01*
X103184906Y-39096971D01*
X103157969Y-39016158D01*
X102996345Y-38854534D01*
X102915532Y-38827597D01*
X102861658Y-38827597D01*
X102861658Y-39851218D02*
X103615905Y-39474094D01*
X103238781Y-40228341D01*
X103373468Y-40363028D02*
X103723654Y-40713215D01*
X103750592Y-40309154D01*
X103831404Y-40389966D01*
X103912216Y-40416903D01*
X103966091Y-40416903D01*
X104046903Y-40389966D01*
X104181590Y-40255279D01*
X104208528Y-40174467D01*
X104208528Y-40120592D01*
X104181590Y-40039780D01*
X104019966Y-39878155D01*
X103939154Y-39851218D01*
X103885279Y-39851218D01*
X128373096Y-29378781D02*
X128292284Y-29351844D01*
X128211471Y-29271032D01*
X128157597Y-29163282D01*
X128157597Y-29055532D01*
X128184534Y-28974720D01*
X128265346Y-28840033D01*
X128346158Y-28759221D01*
X128480845Y-28678409D01*
X128561658Y-28651471D01*
X128669407Y-28651471D01*
X128777157Y-28705346D01*
X128831032Y-28759221D01*
X128884906Y-28866971D01*
X128884906Y-28920845D01*
X128696345Y-29109407D01*
X128588595Y-29001658D01*
X129181218Y-29109407D02*
X128615532Y-29675093D01*
X128831032Y-29890592D01*
X128911844Y-29917529D01*
X128965719Y-29917529D01*
X129046531Y-29890592D01*
X129127343Y-29809780D01*
X129154280Y-29728967D01*
X129154280Y-29675093D01*
X129127343Y-29594280D01*
X128911844Y-29378781D01*
X129288967Y-30348528D02*
X129342842Y-30402402D01*
X129423654Y-30429340D01*
X129477529Y-30429340D01*
X129558341Y-30402402D01*
X129693028Y-30321590D01*
X129827715Y-30186903D01*
X129908528Y-30052216D01*
X129935465Y-29971404D01*
X129935465Y-29917529D01*
X129908528Y-29836717D01*
X129854653Y-29782842D01*
X129773841Y-29755905D01*
X129719966Y-29755905D01*
X129639154Y-29782842D01*
X129504467Y-29863654D01*
X129369780Y-29998341D01*
X129288967Y-30133028D01*
X129262030Y-30213841D01*
X129262030Y-30267715D01*
X129288967Y-30348528D01*
X102746158Y-34431844D02*
X102665346Y-34404906D01*
X102584534Y-34324094D01*
X102530659Y-34216345D01*
X102530659Y-34108595D01*
X102557597Y-34027783D01*
X102638409Y-33893096D01*
X102719221Y-33812284D01*
X102853908Y-33731471D01*
X102934720Y-33704534D01*
X103042470Y-33704534D01*
X103150219Y-33758409D01*
X103204094Y-33812284D01*
X103257969Y-33920033D01*
X103257969Y-33973908D01*
X103069407Y-34162470D01*
X102961658Y-34054720D01*
X103554280Y-34162470D02*
X102988595Y-34728155D01*
X103877529Y-34485719D01*
X103311844Y-35051404D01*
X104146903Y-34755093D02*
X103581218Y-35320778D01*
X103715905Y-35455465D01*
X103823654Y-35509340D01*
X103931404Y-35509340D01*
X104012216Y-35482402D01*
X104146903Y-35401590D01*
X104227715Y-35320778D01*
X104308528Y-35186091D01*
X104335465Y-35105279D01*
X104335465Y-34997529D01*
X104281590Y-34889780D01*
X104146903Y-34755093D01*
X128503722Y-64669407D02*
X128422910Y-64642470D01*
X128342097Y-64561658D01*
X128288223Y-64453908D01*
X128288223Y-64346158D01*
X128315160Y-64265346D01*
X128395972Y-64130659D01*
X128476784Y-64049847D01*
X128611471Y-63969035D01*
X128692284Y-63942097D01*
X128800033Y-63942097D01*
X128907783Y-63995972D01*
X128961658Y-64049847D01*
X129015532Y-64157597D01*
X129015532Y-64211471D01*
X128826971Y-64400033D01*
X128719221Y-64292284D01*
X129311844Y-64400033D02*
X128746158Y-64965719D01*
X128961658Y-65181218D01*
X129042470Y-65208155D01*
X129096345Y-65208155D01*
X129177157Y-65181218D01*
X129257969Y-65100406D01*
X129284906Y-65019593D01*
X129284906Y-64965719D01*
X129257969Y-64884906D01*
X129042470Y-64669407D01*
X130173841Y-65262030D02*
X129850592Y-64938781D01*
X130012216Y-65100406D02*
X129446531Y-65666091D01*
X129473468Y-65531404D01*
X129473468Y-65423654D01*
X129446531Y-65342842D01*
X130712589Y-65800778D02*
X130389340Y-65477529D01*
X130550964Y-65639154D02*
X129985279Y-66204839D01*
X130012216Y-66070152D01*
X130012216Y-65962402D01*
X129985279Y-65881590D01*
X103098375Y-54226564D02*
X102640439Y-54307377D01*
X102775126Y-53903316D02*
X102209441Y-54469001D01*
X102424940Y-54684500D01*
X102505752Y-54711438D01*
X102559627Y-54711438D01*
X102640439Y-54684500D01*
X102721251Y-54603688D01*
X102748189Y-54522876D01*
X102748189Y-54469001D01*
X102721251Y-54388189D01*
X102505752Y-54172690D01*
X102775126Y-55034687D02*
X103233062Y-54576751D01*
X103313874Y-54549813D01*
X103367749Y-54549813D01*
X103448561Y-54576751D01*
X103556311Y-54684500D01*
X103583248Y-54765312D01*
X103583248Y-54819187D01*
X103556311Y-54900000D01*
X103098375Y-55357935D01*
X103933435Y-55061624D02*
X103367749Y-55627309D01*
X104256683Y-55384873D01*
X103690998Y-55950558D01*
X128346158Y-47131844D02*
X128265346Y-47104906D01*
X128184534Y-47024094D01*
X128130659Y-46916345D01*
X128130659Y-46808595D01*
X128157597Y-46727783D01*
X128238409Y-46593096D01*
X128319221Y-46512284D01*
X128453908Y-46431471D01*
X128534720Y-46404534D01*
X128642470Y-46404534D01*
X128750219Y-46458409D01*
X128804094Y-46512284D01*
X128857969Y-46620033D01*
X128857969Y-46673908D01*
X128669407Y-46862470D01*
X128561658Y-46754720D01*
X129154280Y-46862470D02*
X128588595Y-47428155D01*
X129477529Y-47185719D01*
X128911844Y-47751404D01*
X129746903Y-47455093D02*
X129181218Y-48020778D01*
X129315905Y-48155465D01*
X129423654Y-48209340D01*
X129531404Y-48209340D01*
X129612216Y-48182402D01*
X129746903Y-48101590D01*
X129827715Y-48020778D01*
X129908528Y-47886091D01*
X129935465Y-47805279D01*
X129935465Y-47697529D01*
X129881590Y-47589780D01*
X129746903Y-47455093D01*
D12*
X126760000Y-61030000D02*
X126760000Y-61430000D01*
X105760000Y-66130000D02*
X105760000Y-66530000D01*
X126760000Y-63630000D02*
X126760000Y-64030000D01*
X105760000Y-71230000D02*
X105760000Y-71630000D01*
X126760000Y-53430000D02*
X126760000Y-53830000D01*
X126760000Y-30797000D02*
X123753000Y-30797000D01*
X115160000Y-79130000D02*
X114760000Y-79130000D01*
X105760000Y-61030000D02*
X105760000Y-61430000D01*
X123753000Y-30797000D02*
X123753000Y-28130000D01*
X126760000Y-73730000D02*
X126760000Y-74130000D01*
X117760000Y-79130000D02*
X117360000Y-79130000D01*
X105760000Y-43230000D02*
X105760000Y-43630000D01*
X105760000Y-35630000D02*
X105760000Y-36030000D01*
X105760000Y-28130000D02*
X105760000Y-28430000D01*
X126760000Y-35630000D02*
X126760000Y-36030000D01*
X126760000Y-28130000D02*
X105760000Y-28130000D01*
X105760000Y-55930000D02*
X105760000Y-56330000D01*
X126760000Y-33130000D02*
X126760000Y-33530000D01*
X126760000Y-50930000D02*
X126760000Y-51330000D01*
X105760000Y-58530000D02*
X105760000Y-58930000D01*
X126760000Y-48330000D02*
X126760000Y-48730000D01*
X105760000Y-63630000D02*
X105760000Y-64030000D01*
X105760000Y-40730000D02*
X105760000Y-41130000D01*
X126760000Y-66130000D02*
X126760000Y-66530000D01*
X119960000Y-79130000D02*
X126760000Y-79130000D01*
X105760000Y-38230000D02*
X105760000Y-38630000D01*
X105760000Y-79130000D02*
X112560000Y-79130000D01*
X105760000Y-33130000D02*
X105760000Y-33530000D01*
X126760000Y-43230000D02*
X126760000Y-43630000D01*
X126760000Y-55930000D02*
X126760000Y-56330000D01*
X105760000Y-45830000D02*
X105760000Y-46230000D01*
X126760000Y-71230000D02*
X126760000Y-71630000D01*
X126760000Y-58530000D02*
X126760000Y-58930000D01*
X105760000Y-68730000D02*
X105760000Y-69130000D01*
X105760000Y-30530000D02*
X105760000Y-30930000D01*
X105760000Y-48330000D02*
X105760000Y-48730000D01*
X105760000Y-50930000D02*
X105760000Y-51330000D01*
X126760000Y-68730000D02*
X126760000Y-69130000D01*
X126760000Y-76330000D02*
X126760000Y-76730000D01*
X126760000Y-40730000D02*
X126760000Y-41130000D01*
X126760000Y-38230000D02*
X126760000Y-38630000D01*
X126760000Y-45830000D02*
X126760000Y-46230000D01*
X126760000Y-30530000D02*
X126760000Y-30930000D01*
X105760000Y-53430000D02*
X105760000Y-53830000D01*
X105760000Y-76330000D02*
X105760000Y-76730000D01*
X126760000Y-28130000D02*
X126760000Y-28430000D01*
X105760000Y-73730000D02*
X105760000Y-74130000D01*
%TD*%
M02*
