%TF.GenerationSoftware,KiCad,Pcbnew,(6.0.4)*%
%TF.CreationDate,2022-05-22T21:37:36-03:00*%
%TF.ProjectId,G-Code_Keeb,472d436f-6465-45f4-9b65-65622e6b6963,1*%
%TF.SameCoordinates,Original*%
%TF.FileFunction,Soldermask,Bot*%
%TF.FilePolarity,Negative*%
%FSLAX46Y46*%
G04 Gerber Fmt 4.6, Leading zero omitted, Abs format (unit mm)*
G04 Created by KiCad (PCBNEW (6.0.4)) date 2022-05-22 21:37:36*
%MOMM*%
%LPD*%
G01*
G04 APERTURE LIST*
%ADD10C,4.000000*%
%ADD11C,1.750000*%
%ADD12C,2.500000*%
%ADD13C,3.200000*%
%ADD14O,1.800000X1.800000*%
%ADD15O,1.500000X1.500000*%
%ADD16O,1.700000X1.700000*%
%ADD17R,3.500000X1.700000*%
%ADD18R,1.700000X1.700000*%
%ADD19R,1.700000X3.500000*%
G04 APERTURE END LIST*
D10*
%TO.C,SW11*%
X85750000Y-132900000D03*
D11*
X90830000Y-132900000D03*
X80670000Y-132900000D03*
D12*
X81940000Y-130360000D03*
X88290000Y-127820000D03*
%TD*%
D13*
%TO.C,H2*%
X157050000Y-48800000D03*
%TD*%
D11*
%TO.C,SW21*%
X137820000Y-151950000D03*
X147980000Y-151950000D03*
D10*
X142900000Y-151950000D03*
D12*
X139090000Y-149410000D03*
X145440000Y-146870000D03*
%TD*%
D11*
%TO.C,SW17*%
X173280000Y-126500000D03*
X163120000Y-126500000D03*
D10*
X168200000Y-126500000D03*
D12*
X164390000Y-123960000D03*
X170740000Y-121420000D03*
%TD*%
D11*
%TO.C,SW4*%
X71780000Y-94800000D03*
X61620000Y-94800000D03*
D10*
X66700000Y-94800000D03*
D12*
X62890000Y-92260000D03*
X69240000Y-89720000D03*
%TD*%
D11*
%TO.C,SW14*%
X173280000Y-63050000D03*
D10*
X168200000Y-63050000D03*
D11*
X163120000Y-63050000D03*
D12*
X164390000Y-60510000D03*
X170740000Y-57970000D03*
%TD*%
D13*
%TO.C,H4*%
X39700000Y-48800000D03*
%TD*%
D11*
%TO.C,SW4*%
X33680000Y-94800000D03*
D10*
X28600000Y-94800000D03*
D11*
X23520000Y-94800000D03*
D12*
X24790000Y-92260000D03*
X31140000Y-89720000D03*
%TD*%
D13*
%TO.C,H1*%
X157050000Y-140800000D03*
%TD*%
D10*
%TO.C,SW18*%
X168200000Y-145550000D03*
D11*
X163120000Y-145550000D03*
X173280000Y-145550000D03*
D12*
X164390000Y-143010000D03*
X170740000Y-140470000D03*
%TD*%
D11*
%TO.C,SW19*%
X23520000Y-151950000D03*
D10*
X28600000Y-151950000D03*
D11*
X33680000Y-151950000D03*
D12*
X24790000Y-149410000D03*
X31140000Y-146870000D03*
%TD*%
D11*
%TO.C,SW16*%
X163120000Y-107450000D03*
X173280000Y-107450000D03*
D10*
X168200000Y-107450000D03*
D12*
X164390000Y-104910000D03*
X170740000Y-102370000D03*
%TD*%
D11*
%TO.C,SW15*%
X163120000Y-82100000D03*
D10*
X168200000Y-82100000D03*
D11*
X173280000Y-82100000D03*
D12*
X164390000Y-79560000D03*
X170740000Y-77020000D03*
%TD*%
D11*
%TO.C,SW9*%
X90830000Y-75750000D03*
X80670000Y-75750000D03*
D10*
X85750000Y-75750000D03*
D12*
X81940000Y-73210000D03*
X88290000Y-70670000D03*
%TD*%
D11*
%TO.C,SW13*%
X163120000Y-44000000D03*
D10*
X168200000Y-44000000D03*
D11*
X173280000Y-44000000D03*
D12*
X164390000Y-41460000D03*
X170740000Y-38920000D03*
%TD*%
D11*
%TO.C,SW2*%
X128930000Y-94800000D03*
D10*
X123850000Y-94800000D03*
D11*
X118770000Y-94800000D03*
D12*
X120040000Y-92260000D03*
X126390000Y-89720000D03*
%TD*%
D11*
%TO.C,SW8*%
X90830000Y-56700000D03*
D10*
X85750000Y-56700000D03*
D11*
X80670000Y-56700000D03*
D12*
X81940000Y-54160000D03*
X88290000Y-51620000D03*
%TD*%
D10*
%TO.C,SW5*%
X47650000Y-94800000D03*
D11*
X52730000Y-94800000D03*
X42570000Y-94800000D03*
D12*
X43840000Y-92260000D03*
X50190000Y-89720000D03*
%TD*%
D11*
%TO.C,SW1*%
X147980000Y-94800000D03*
X137820000Y-94800000D03*
D10*
X142900000Y-94800000D03*
D12*
X139090000Y-92260000D03*
X145440000Y-89720000D03*
%TD*%
D10*
%TO.C,SW7*%
X85750000Y-37650000D03*
D11*
X90830000Y-37650000D03*
X80670000Y-37650000D03*
D12*
X81940000Y-35110000D03*
X88290000Y-32570000D03*
%TD*%
D11*
%TO.C,SW12*%
X90830000Y-151950000D03*
D10*
X85750000Y-151950000D03*
D11*
X80670000Y-151950000D03*
D12*
X81940000Y-149410000D03*
X88290000Y-146870000D03*
%TD*%
D11*
%TO.C,SW23*%
X147980000Y-37650000D03*
X137820000Y-37650000D03*
D10*
X142900000Y-37650000D03*
D12*
X139090000Y-35110000D03*
X145440000Y-32570000D03*
%TD*%
D11*
%TO.C,SW20*%
X33680000Y-37650000D03*
X23520000Y-37650000D03*
D10*
X28600000Y-37650000D03*
D12*
X24790000Y-35110000D03*
X31140000Y-32570000D03*
%TD*%
D11*
%TO.C,SW3*%
X109880000Y-94800000D03*
X99720000Y-94800000D03*
D10*
X104800000Y-94800000D03*
D12*
X100990000Y-92260000D03*
X107340000Y-89720000D03*
%TD*%
D11*
%TO.C,SW10*%
X90830000Y-113850000D03*
X80670000Y-113850000D03*
D10*
X85750000Y-113850000D03*
D12*
X81940000Y-111310000D03*
X88290000Y-108770000D03*
%TD*%
D13*
%TO.C,H3*%
X39700000Y-140800000D03*
%TD*%
D11*
%TO.C,SW22*%
X80670000Y-94800000D03*
X90830000Y-94800000D03*
D10*
X85750000Y-94800000D03*
D12*
X81940000Y-92260000D03*
X88290000Y-89720000D03*
%TD*%
D14*
%TO.C,U1*%
X118985000Y-29630000D03*
D15*
X118685000Y-32660000D03*
D14*
X113535000Y-29630000D03*
D15*
X113835000Y-32660000D03*
D16*
X125150000Y-29500000D03*
D17*
X126050000Y-29500000D03*
X126050000Y-32040000D03*
D16*
X125150000Y-32040000D03*
D17*
X126050000Y-34580000D03*
D18*
X125150000Y-34580000D03*
D17*
X126050000Y-37120000D03*
D16*
X125150000Y-37120000D03*
D17*
X126050000Y-39660000D03*
D16*
X125150000Y-39660000D03*
D17*
X126050000Y-42200000D03*
D16*
X125150000Y-42200000D03*
D17*
X126050000Y-44740000D03*
D16*
X125150000Y-44740000D03*
D17*
X126050000Y-47280000D03*
D18*
X125150000Y-47280000D03*
D17*
X126050000Y-49820000D03*
D16*
X125150000Y-49820000D03*
D17*
X126050000Y-52360000D03*
D16*
X125150000Y-52360000D03*
X125150000Y-54900000D03*
D17*
X126050000Y-54900000D03*
X126050000Y-57440000D03*
D16*
X125150000Y-57440000D03*
D18*
X125150000Y-59980000D03*
D17*
X126050000Y-59980000D03*
X126050000Y-62520000D03*
D16*
X125150000Y-62520000D03*
X125150000Y-65060000D03*
D17*
X126050000Y-65060000D03*
X126050000Y-67600000D03*
D16*
X125150000Y-67600000D03*
D17*
X126050000Y-70140000D03*
D16*
X125150000Y-70140000D03*
D18*
X125150000Y-72680000D03*
D17*
X126050000Y-72680000D03*
D16*
X125150000Y-75220000D03*
D17*
X126050000Y-75220000D03*
X126050000Y-77760000D03*
D16*
X125150000Y-77760000D03*
X107370000Y-77760000D03*
D17*
X106470000Y-77760000D03*
X106470000Y-75220000D03*
D16*
X107370000Y-75220000D03*
D17*
X106470000Y-72680000D03*
D18*
X107370000Y-72680000D03*
D17*
X106470000Y-70140000D03*
D16*
X107370000Y-70140000D03*
D17*
X106470000Y-67600000D03*
D16*
X107370000Y-67600000D03*
D17*
X106470000Y-65060000D03*
D16*
X107370000Y-65060000D03*
X107370000Y-62520000D03*
D17*
X106470000Y-62520000D03*
X106470000Y-59980000D03*
D18*
X107370000Y-59980000D03*
D17*
X106470000Y-57440000D03*
D16*
X107370000Y-57440000D03*
D17*
X106470000Y-54900000D03*
D16*
X107370000Y-54900000D03*
X107370000Y-52360000D03*
D17*
X106470000Y-52360000D03*
X106470000Y-49820000D03*
D16*
X107370000Y-49820000D03*
D17*
X106470000Y-47280000D03*
D18*
X107370000Y-47280000D03*
D16*
X107370000Y-44740000D03*
D17*
X106470000Y-44740000D03*
D16*
X107370000Y-42200000D03*
D17*
X106470000Y-42200000D03*
D16*
X107370000Y-39660000D03*
D17*
X106470000Y-39660000D03*
D16*
X107370000Y-37120000D03*
D17*
X106470000Y-37120000D03*
D18*
X107370000Y-34580000D03*
D17*
X106470000Y-34580000D03*
D16*
X107370000Y-32040000D03*
D17*
X106470000Y-32040000D03*
X106470000Y-29500000D03*
D16*
X107370000Y-29500000D03*
D19*
X118800000Y-78430000D03*
D16*
X118800000Y-77530000D03*
D19*
X116260000Y-78430000D03*
D18*
X116260000Y-77530000D03*
D19*
X113720000Y-78430000D03*
D16*
X113720000Y-77530000D03*
%TD*%
M02*
