M48
; DRILL file {KiCad (6.0.4)} date Sun May 22 16:26:11 2022
; FORMAT={-:-/ absolute / inch / decimal}
; #@! TF.CreationDate,2022-05-22T16:26:11-03:00
; #@! TF.GenerationSoftware,Kicad,Pcbnew,(6.0.4)
; #@! TF.FileFunction,Plated,1,2,PTH
FMAT,2
INCH
; #@! TA.AperFunction,Plated,PTH,ViaDrill
T1C0.0157
; #@! TA.AperFunction,Plated,PTH,ComponentDrill
T2C0.0402
; #@! TA.AperFunction,Plated,PTH,ComponentDrill
T3C0.0591
%
G90
G05
T1
X6.3528Y-2.435
X6.3906Y-4.1303
X6.4217Y-2.6618
X6.4217Y-2.8587
X6.4217Y-3.0555
T2
X4.2272Y-1.1614
X4.2272Y-1.2614
X4.2272Y-1.3614
X4.2272Y-1.4614
X4.2272Y-1.5614
X4.2272Y-1.6614
X4.2272Y-1.7614
X4.2272Y-1.8614
X4.2272Y-1.9614
X4.2272Y-2.0614
X4.2272Y-2.1614
X4.2272Y-2.2614
X4.2272Y-2.3614
X4.2272Y-2.4614
X4.2272Y-2.5614
X4.2272Y-2.6614
X4.2272Y-2.7614
X4.2272Y-2.8614
X4.2272Y-2.9614
X4.2272Y-3.0614
X4.4772Y-3.0524
X4.5772Y-3.0524
X4.6772Y-3.0524
X4.9272Y-1.1614
X4.9272Y-1.2614
X4.9272Y-1.3614
X4.9272Y-1.4614
X4.9272Y-1.5614
X4.9272Y-1.6614
X4.9272Y-1.7614
X4.9272Y-1.8614
X4.9272Y-1.9614
X4.9272Y-2.0614
X4.9272Y-2.1614
X4.9272Y-2.2614
X4.9272Y-2.3614
X4.9272Y-2.4614
X4.9272Y-2.5614
X4.9272Y-2.6614
X4.9272Y-2.7614
X4.9272Y-2.8614
X4.9272Y-2.9614
X4.9272Y-3.0614
T3
X0.976Y-1.3823
X0.976Y-3.6323
X0.976Y-5.8823
X1.226Y-1.2823
X1.226Y-3.5323
X1.226Y-5.7823
X1.726Y-3.6323
X1.976Y-3.5323
X2.476Y-3.6323
X2.726Y-3.5323
X3.226Y-1.3823
X3.226Y-2.1323
X3.226Y-2.8823
X3.226Y-3.6323
X3.226Y-4.3823
X3.226Y-5.1323
X3.226Y-5.8823
X3.476Y-1.2823
X3.476Y-2.0323
X3.476Y-2.7823
X3.476Y-3.5323
X3.476Y-4.2823
X3.476Y-5.0323
X3.476Y-5.7823
X3.976Y-3.6323
X4.226Y-3.5323
X4.726Y-3.6323
X4.976Y-3.5323
X5.476Y-1.3823
X5.476Y-3.6323
X5.476Y-5.8823
X5.726Y-1.2823
X5.726Y-3.5323
X5.726Y-5.7823
X6.472Y-1.6323
X6.472Y-2.3823
X6.472Y-3.1323
X6.472Y-4.1303
X6.472Y-4.8803
X6.472Y-5.6303
X6.722Y-1.5323
X6.722Y-2.2823
X6.722Y-3.0323
X6.722Y-4.0303
X6.722Y-4.7803
X6.722Y-5.5303
T0
M30
