%TF.GenerationSoftware,KiCad,Pcbnew,(6.0.4)*%
%TF.CreationDate,2022-05-19T11:32:38-03:00*%
%TF.ProjectId,G-Code_Keeb,472d436f-6465-45f4-9b65-65622e6b6963,1*%
%TF.SameCoordinates,Original*%
%TF.FileFunction,Soldermask,Bot*%
%TF.FilePolarity,Negative*%
%FSLAX46Y46*%
G04 Gerber Fmt 4.6, Leading zero omitted, Abs format (unit mm)*
G04 Created by KiCad (PCBNEW (6.0.4)) date 2022-05-19 11:32:38*
%MOMM*%
%LPD*%
G01*
G04 APERTURE LIST*
%ADD10C,4.000000*%
%ADD11C,1.750000*%
%ADD12C,2.500000*%
%ADD13C,3.200000*%
%ADD14C,1.600000*%
%ADD15R,1.700000X1.700000*%
%ADD16O,1.700000X1.700000*%
%ADD17C,2.100000*%
%ADD18C,2.000000*%
%ADD19C,1.400000*%
%ADD20O,1.400000X1.400000*%
%ADD21C,1.500000*%
%ADD22R,1.500000X0.550000*%
%ADD23R,0.550000X1.500000*%
G04 APERTURE END LIST*
D10*
%TO.C,SW11*%
X85750000Y-142900000D03*
D11*
X90830000Y-142900000D03*
X80670000Y-142900000D03*
D12*
X81940000Y-140360000D03*
X88290000Y-137820000D03*
%TD*%
D13*
%TO.C,H2*%
X157050000Y-58800000D03*
%TD*%
D11*
%TO.C,SW21*%
X137820000Y-161950000D03*
X147980000Y-161950000D03*
D10*
X142900000Y-161950000D03*
D12*
X139090000Y-159410000D03*
X145440000Y-156870000D03*
%TD*%
D11*
%TO.C,SW17*%
X173280000Y-136500000D03*
X163120000Y-136500000D03*
D10*
X168200000Y-136500000D03*
D12*
X164390000Y-133960000D03*
X170740000Y-131420000D03*
%TD*%
D11*
%TO.C,SW4*%
X109880000Y-104800000D03*
X99720000Y-104800000D03*
D10*
X104800000Y-104800000D03*
D12*
X100990000Y-102260000D03*
X107340000Y-99720000D03*
%TD*%
D11*
%TO.C,SW14*%
X173280000Y-73050000D03*
D10*
X168200000Y-73050000D03*
D11*
X163120000Y-73050000D03*
D12*
X164390000Y-70510000D03*
X170740000Y-67970000D03*
%TD*%
D13*
%TO.C,H4*%
X39700000Y-58800000D03*
%TD*%
D11*
%TO.C,SW6*%
X147980000Y-104800000D03*
D10*
X142900000Y-104800000D03*
D11*
X137820000Y-104800000D03*
D12*
X139090000Y-102260000D03*
X145440000Y-99720000D03*
%TD*%
D13*
%TO.C,H1*%
X157050000Y-150800000D03*
%TD*%
D10*
%TO.C,SW18*%
X168200000Y-155550000D03*
D11*
X163120000Y-155550000D03*
X173280000Y-155550000D03*
D12*
X164390000Y-153010000D03*
X170740000Y-150470000D03*
%TD*%
D11*
%TO.C,SW19*%
X23520000Y-161950000D03*
D10*
X28600000Y-161950000D03*
D11*
X33680000Y-161950000D03*
D12*
X24790000Y-159410000D03*
X31140000Y-156870000D03*
%TD*%
D11*
%TO.C,SW16*%
X163120000Y-117450000D03*
X173280000Y-117450000D03*
D10*
X168200000Y-117450000D03*
D12*
X164390000Y-114910000D03*
X170740000Y-112370000D03*
%TD*%
D11*
%TO.C,SW15*%
X163120000Y-92100000D03*
D10*
X168200000Y-92100000D03*
D11*
X173280000Y-92100000D03*
D12*
X164390000Y-89560000D03*
X170740000Y-87020000D03*
%TD*%
D11*
%TO.C,SW9*%
X90830000Y-85750000D03*
X80670000Y-85750000D03*
D10*
X85750000Y-85750000D03*
D12*
X81940000Y-83210000D03*
X88290000Y-80670000D03*
%TD*%
D11*
%TO.C,SW13*%
X163120000Y-54000000D03*
D10*
X168200000Y-54000000D03*
D11*
X173280000Y-54000000D03*
D12*
X164390000Y-51460000D03*
X170740000Y-48920000D03*
%TD*%
D11*
%TO.C,SW2*%
X52730000Y-104800000D03*
D10*
X47650000Y-104800000D03*
D11*
X42570000Y-104800000D03*
D12*
X43840000Y-102260000D03*
X50190000Y-99720000D03*
%TD*%
D11*
%TO.C,SW8*%
X90830000Y-66700000D03*
D10*
X85750000Y-66700000D03*
D11*
X80670000Y-66700000D03*
D12*
X81940000Y-64160000D03*
X88290000Y-61620000D03*
%TD*%
D10*
%TO.C,SW5*%
X123850000Y-104800000D03*
D11*
X128930000Y-104800000D03*
X118770000Y-104800000D03*
D12*
X120040000Y-102260000D03*
X126390000Y-99720000D03*
%TD*%
D11*
%TO.C,SW1*%
X33680000Y-104800000D03*
X23520000Y-104800000D03*
D10*
X28600000Y-104800000D03*
D12*
X24790000Y-102260000D03*
X31140000Y-99720000D03*
%TD*%
D10*
%TO.C,SW7*%
X85750000Y-47650000D03*
D11*
X90830000Y-47650000D03*
X80670000Y-47650000D03*
D12*
X81940000Y-45110000D03*
X88290000Y-42570000D03*
%TD*%
D11*
%TO.C,SW12*%
X90830000Y-161950000D03*
D10*
X85750000Y-161950000D03*
D11*
X80670000Y-161950000D03*
D12*
X81940000Y-159410000D03*
X88290000Y-156870000D03*
%TD*%
D11*
%TO.C,SW23*%
X147980000Y-47650000D03*
X137820000Y-47650000D03*
D10*
X142900000Y-47650000D03*
D12*
X139090000Y-45110000D03*
X145440000Y-42570000D03*
%TD*%
D11*
%TO.C,SW20*%
X33680000Y-47650000D03*
X23520000Y-47650000D03*
D10*
X28600000Y-47650000D03*
D12*
X24790000Y-45110000D03*
X31140000Y-42570000D03*
%TD*%
D11*
%TO.C,SW3*%
X71780000Y-104800000D03*
X61620000Y-104800000D03*
D10*
X66700000Y-104800000D03*
D12*
X62890000Y-102260000D03*
X69240000Y-99720000D03*
%TD*%
D11*
%TO.C,SW10*%
X90830000Y-123850000D03*
X80670000Y-123850000D03*
D10*
X85750000Y-123850000D03*
D12*
X81940000Y-121310000D03*
X88290000Y-118770000D03*
%TD*%
D13*
%TO.C,H3*%
X39700000Y-150800000D03*
%TD*%
D11*
%TO.C,SW22*%
X80670000Y-104800000D03*
X90830000Y-104800000D03*
D10*
X85750000Y-104800000D03*
D12*
X81940000Y-102260000D03*
X88290000Y-99720000D03*
%TD*%
D14*
%TO.C,C1*%
X132439524Y-87900000D03*
X129939524Y-87900000D03*
%TD*%
D15*
%TO.C,J1*%
X146489524Y-67300000D03*
D16*
X146489524Y-69840000D03*
X146489524Y-72380000D03*
X146489524Y-74920000D03*
%TD*%
D14*
%TO.C,C7*%
X112339524Y-76300000D03*
X114839524Y-76300000D03*
%TD*%
D17*
%TO.C,SW24*%
X119600000Y-44052500D03*
X112590000Y-44052500D03*
D11*
X118350000Y-41562500D03*
X113850000Y-41562500D03*
%TD*%
D18*
%TO.C,SW25*%
X103300000Y-39950000D03*
X109800000Y-39950000D03*
X103300000Y-44450000D03*
X109800000Y-44450000D03*
%TD*%
D19*
%TO.C,R3*%
X112939524Y-60000000D03*
D20*
X112939524Y-52380000D03*
%TD*%
D14*
%TO.C,C9*%
X128500000Y-61500000D03*
X128500000Y-64000000D03*
%TD*%
D21*
%TO.C,Y1*%
X126239524Y-87900000D03*
X122439524Y-87900000D03*
%TD*%
D19*
%TO.C,R2*%
X134669524Y-69700000D03*
D20*
X142289524Y-69700000D03*
%TD*%
D14*
%TO.C,C8*%
X119939524Y-61500000D03*
X119939524Y-64000000D03*
%TD*%
%TO.C,C6*%
X126339524Y-84700000D03*
X126339524Y-82200000D03*
%TD*%
D22*
%TO.C,U1*%
X129639524Y-69100000D03*
X129639524Y-69900000D03*
X129639524Y-70700000D03*
X129639524Y-71500000D03*
X129639524Y-72300000D03*
X129639524Y-73100000D03*
X129639524Y-73900000D03*
X129639524Y-74700000D03*
X129639524Y-75500000D03*
X129639524Y-76300000D03*
X129639524Y-77100000D03*
D23*
X127939524Y-78800000D03*
X127139524Y-78800000D03*
X126339524Y-78800000D03*
X125539524Y-78800000D03*
X124739524Y-78800000D03*
X123939524Y-78800000D03*
X123139524Y-78800000D03*
X122339524Y-78800000D03*
X121539524Y-78800000D03*
X120739524Y-78800000D03*
X119939524Y-78800000D03*
D22*
X118239524Y-77100000D03*
X118239524Y-76300000D03*
X118239524Y-75500000D03*
X118239524Y-74700000D03*
X118239524Y-73900000D03*
X118239524Y-73100000D03*
X118239524Y-72300000D03*
X118239524Y-71500000D03*
X118239524Y-70700000D03*
X118239524Y-69900000D03*
X118239524Y-69100000D03*
D23*
X119939524Y-67400000D03*
X120739524Y-67400000D03*
X121539524Y-67400000D03*
X122339524Y-67400000D03*
X123139524Y-67400000D03*
X123939524Y-67400000D03*
X124739524Y-67400000D03*
X125539524Y-67400000D03*
X126339524Y-67400000D03*
X127139524Y-67400000D03*
X127939524Y-67400000D03*
%TD*%
D14*
%TO.C,C5*%
X137339524Y-76900000D03*
X134839524Y-76900000D03*
%TD*%
%TO.C,C4*%
X135620646Y-64800000D03*
X135620646Y-67300000D03*
%TD*%
D19*
%TO.C,R1*%
X142289524Y-72500000D03*
D20*
X134669524Y-72500000D03*
%TD*%
D19*
%TO.C,R4*%
X113700000Y-69100000D03*
D20*
X106080000Y-69100000D03*
%TD*%
D14*
%TO.C,C2*%
X118739524Y-87900000D03*
X116239524Y-87900000D03*
%TD*%
%TO.C,C3*%
X137319524Y-74750000D03*
X134819524Y-74750000D03*
%TD*%
M02*
