M48
; DRILL file {KiCad (6.0.4)} date Thu May 19 11:32:38 2022
; FORMAT={-:-/ absolute / inch / decimal}
; #@! TF.CreationDate,2022-05-19T11:32:38-03:00
; #@! TF.GenerationSoftware,Kicad,Pcbnew,(6.0.4)
; #@! TF.FileFunction,Plated,1,2,PTH
FMAT,2
INCH
; #@! TA.AperFunction,Plated,PTH,ViaDrill
T1C0.0157
; #@! TA.AperFunction,Plated,PTH,ComponentDrill
T2C0.0276
; #@! TA.AperFunction,Plated,PTH,ComponentDrill
T3C0.0315
; #@! TA.AperFunction,Plated,PTH,ComponentDrill
T4C0.0390
; #@! TA.AperFunction,Plated,PTH,ComponentDrill
T5C0.0394
; #@! TA.AperFunction,Plated,PTH,ComponentDrill
T6C0.0433
; #@! TA.AperFunction,Plated,PTH,ComponentDrill
T7C0.0512
; #@! TA.AperFunction,Plated,PTH,ComponentDrill
T8C0.0591
%
G90
G05
T1
X2.251Y-4.126
X3.001Y-4.126
X3.8022Y-4.1339
X3.8752Y-3.3331
X4.501Y-4.126
X5.0055Y-3.1772
X5.1417Y-3.1417
X5.2008Y-2.7205
X5.2126Y-2.9094
X5.3543Y-2.7992
X5.423Y-3.887
X5.4961Y-2.7008
X6.1305Y-4.2638
X6.3677Y-2.0685
X6.4213Y-2.5016
T2
X4.1764Y-2.7205
X4.4464Y-2.0622
X4.4464Y-2.3622
X4.4764Y-2.7205
X5.3019Y-2.7441
X5.3019Y-2.8543
X5.6019Y-2.7441
X5.6019Y-2.8543
T3
X4.4228Y-3.0039
X4.5212Y-3.0039
X4.5764Y-3.4606
X4.6748Y-3.4606
X4.722Y-2.4213
X4.722Y-2.5197
X4.8205Y-3.4606
X4.9701Y-3.4606
X4.974Y-3.2362
X4.974Y-3.3346
X5.0591Y-2.4213
X5.0591Y-2.5197
X5.1157Y-3.4606
X5.2142Y-3.4606
X5.3079Y-2.9429
X5.3086Y-3.0276
X5.3394Y-2.5512
X5.3394Y-2.6496
X5.4063Y-2.9429
X5.4071Y-3.0276
T4
X4.4823Y-1.6363
X4.6594Y-1.6363
T5
X5.7673Y-2.6496
X5.7673Y-2.7496
X5.7673Y-2.8496
X5.7673Y-2.9496
T6
X4.0669Y-1.5728
X4.0669Y-1.75
X4.3228Y-1.5728
X4.3228Y-1.75
T7
X4.4327Y-1.7344
X4.7087Y-1.7344
T8
X0.976Y-1.776
X0.976Y-4.026
X0.976Y-6.276
X1.226Y-1.676
X1.226Y-3.926
X1.226Y-6.176
X1.726Y-4.026
X1.976Y-3.926
X2.476Y-4.026
X2.726Y-3.926
X3.226Y-1.776
X3.226Y-2.526
X3.226Y-3.276
X3.226Y-4.026
X3.226Y-4.776
X3.226Y-5.526
X3.226Y-6.276
X3.476Y-1.676
X3.476Y-2.426
X3.476Y-3.176
X3.476Y-3.926
X3.476Y-4.676
X3.476Y-5.426
X3.476Y-6.176
X3.976Y-4.026
X4.226Y-3.926
X4.726Y-4.026
X4.976Y-3.926
X5.476Y-1.776
X5.476Y-4.026
X5.476Y-6.276
X5.726Y-1.676
X5.726Y-3.926
X5.726Y-6.176
X6.472Y-2.026
X6.472Y-2.776
X6.472Y-3.526
X6.472Y-4.524
X6.472Y-5.274
X6.472Y-6.024
X6.722Y-1.926
X6.722Y-2.676
X6.722Y-3.426
X6.722Y-4.424
X6.722Y-5.174
X6.722Y-5.924
T0
M30
