M48
; DRILL file {KiCad (6.0.4)} date Thu May 19 11:32:38 2022
; FORMAT={-:-/ absolute / inch / decimal}
; #@! TF.CreationDate,2022-05-19T11:32:38-03:00
; #@! TF.GenerationSoftware,Kicad,Pcbnew,(6.0.4)
; #@! TF.FileFunction,NonPlated,1,2,NPTH
FMAT,2
INCH
; #@! TA.AperFunction,NonPlated,NPTH,ComponentDrill
T1C0.0689
; #@! TA.AperFunction,NonPlated,NPTH,ComponentDrill
T2C0.1260
; #@! TA.AperFunction,NonPlated,NPTH,ComponentDrill
T3C0.1575
%
G90
G05
T1
X0.926Y-1.876
X0.926Y-4.126
X0.926Y-6.376
X1.326Y-1.876
X1.326Y-4.126
X1.326Y-6.376
X1.676Y-4.126
X2.076Y-4.126
X2.426Y-4.126
X2.826Y-4.126
X3.176Y-1.876
X3.176Y-2.626
X3.176Y-3.376
X3.176Y-4.126
X3.176Y-4.876
X3.176Y-5.626
X3.176Y-6.376
X3.576Y-1.876
X3.576Y-2.626
X3.576Y-3.376
X3.576Y-4.126
X3.576Y-4.876
X3.576Y-5.626
X3.576Y-6.376
X3.926Y-4.126
X4.326Y-4.126
X4.676Y-4.126
X5.076Y-4.126
X5.426Y-1.876
X5.426Y-4.126
X5.426Y-6.376
X5.826Y-1.876
X5.826Y-4.126
X5.826Y-6.376
X6.422Y-2.126
X6.422Y-2.876
X6.422Y-3.626
X6.422Y-4.624
X6.422Y-5.374
X6.422Y-6.124
X6.822Y-2.126
X6.822Y-2.876
X6.822Y-3.626
X6.822Y-4.624
X6.822Y-5.374
X6.822Y-6.124
T2
X1.563Y-2.315
X1.563Y-5.937
X6.1831Y-2.315
X6.1831Y-5.937
T3
X1.126Y-1.876
X1.126Y-4.126
X1.126Y-6.376
X1.876Y-4.126
X2.626Y-4.126
X3.376Y-1.876
X3.376Y-2.626
X3.376Y-3.376
X3.376Y-4.126
X3.376Y-4.876
X3.376Y-5.626
X3.376Y-6.376
X4.126Y-4.126
X4.876Y-4.126
X5.626Y-1.876
X5.626Y-4.126
X5.626Y-6.376
X6.622Y-2.126
X6.622Y-2.876
X6.622Y-3.626
X6.622Y-4.624
X6.622Y-5.374
X6.622Y-6.124
T0
M30
