%TF.GenerationSoftware,KiCad,Pcbnew,(6.0.4)*%
%TF.CreationDate,2022-05-19T11:32:38-03:00*%
%TF.ProjectId,G-Code_Keeb,472d436f-6465-45f4-9b65-65622e6b6963,1*%
%TF.SameCoordinates,Original*%
%TF.FileFunction,Soldermask,Top*%
%TF.FilePolarity,Negative*%
%FSLAX46Y46*%
G04 Gerber Fmt 4.6, Leading zero omitted, Abs format (unit mm)*
G04 Created by KiCad (PCBNEW (6.0.4)) date 2022-05-19 11:32:38*
%MOMM*%
%LPD*%
G01*
G04 APERTURE LIST*
%ADD10C,4.000000*%
%ADD11C,1.750000*%
%ADD12C,3.200000*%
%ADD13C,1.600000*%
%ADD14R,1.700000X1.700000*%
%ADD15O,1.700000X1.700000*%
%ADD16C,2.100000*%
%ADD17C,2.000000*%
%ADD18C,1.400000*%
%ADD19O,1.400000X1.400000*%
%ADD20C,1.500000*%
G04 APERTURE END LIST*
D10*
%TO.C,SW11*%
X85750000Y-142900000D03*
D11*
X90830000Y-142900000D03*
X80670000Y-142900000D03*
%TD*%
D12*
%TO.C,H2*%
X157050000Y-58800000D03*
%TD*%
D11*
%TO.C,SW21*%
X137820000Y-161950000D03*
X147980000Y-161950000D03*
D10*
X142900000Y-161950000D03*
%TD*%
D11*
%TO.C,SW17*%
X173280000Y-136500000D03*
X163120000Y-136500000D03*
D10*
X168200000Y-136500000D03*
%TD*%
D11*
%TO.C,SW4*%
X109880000Y-104800000D03*
X99720000Y-104800000D03*
D10*
X104800000Y-104800000D03*
%TD*%
D11*
%TO.C,SW14*%
X173280000Y-73050000D03*
D10*
X168200000Y-73050000D03*
D11*
X163120000Y-73050000D03*
%TD*%
D12*
%TO.C,H4*%
X39700000Y-58800000D03*
%TD*%
D11*
%TO.C,SW6*%
X147980000Y-104800000D03*
D10*
X142900000Y-104800000D03*
D11*
X137820000Y-104800000D03*
%TD*%
D12*
%TO.C,H1*%
X157050000Y-150800000D03*
%TD*%
D10*
%TO.C,SW18*%
X168200000Y-155550000D03*
D11*
X163120000Y-155550000D03*
X173280000Y-155550000D03*
%TD*%
%TO.C,SW19*%
X23520000Y-161950000D03*
D10*
X28600000Y-161950000D03*
D11*
X33680000Y-161950000D03*
%TD*%
%TO.C,SW16*%
X163120000Y-117450000D03*
X173280000Y-117450000D03*
D10*
X168200000Y-117450000D03*
%TD*%
D11*
%TO.C,SW15*%
X163120000Y-92100000D03*
D10*
X168200000Y-92100000D03*
D11*
X173280000Y-92100000D03*
%TD*%
%TO.C,SW9*%
X90830000Y-85750000D03*
X80670000Y-85750000D03*
D10*
X85750000Y-85750000D03*
%TD*%
D11*
%TO.C,SW13*%
X163120000Y-54000000D03*
D10*
X168200000Y-54000000D03*
D11*
X173280000Y-54000000D03*
%TD*%
%TO.C,SW2*%
X52730000Y-104800000D03*
D10*
X47650000Y-104800000D03*
D11*
X42570000Y-104800000D03*
%TD*%
%TO.C,SW8*%
X90830000Y-66700000D03*
D10*
X85750000Y-66700000D03*
D11*
X80670000Y-66700000D03*
%TD*%
D10*
%TO.C,SW5*%
X123850000Y-104800000D03*
D11*
X128930000Y-104800000D03*
X118770000Y-104800000D03*
%TD*%
%TO.C,SW1*%
X33680000Y-104800000D03*
X23520000Y-104800000D03*
D10*
X28600000Y-104800000D03*
%TD*%
%TO.C,SW7*%
X85750000Y-47650000D03*
D11*
X90830000Y-47650000D03*
X80670000Y-47650000D03*
%TD*%
%TO.C,SW12*%
X90830000Y-161950000D03*
D10*
X85750000Y-161950000D03*
D11*
X80670000Y-161950000D03*
%TD*%
%TO.C,SW23*%
X147980000Y-47650000D03*
X137820000Y-47650000D03*
D10*
X142900000Y-47650000D03*
%TD*%
D11*
%TO.C,SW20*%
X33680000Y-47650000D03*
X23520000Y-47650000D03*
D10*
X28600000Y-47650000D03*
%TD*%
D11*
%TO.C,SW3*%
X71780000Y-104800000D03*
X61620000Y-104800000D03*
D10*
X66700000Y-104800000D03*
%TD*%
D11*
%TO.C,SW10*%
X90830000Y-123850000D03*
X80670000Y-123850000D03*
D10*
X85750000Y-123850000D03*
%TD*%
D12*
%TO.C,H3*%
X39700000Y-150800000D03*
%TD*%
D11*
%TO.C,SW22*%
X80670000Y-104800000D03*
X90830000Y-104800000D03*
D10*
X85750000Y-104800000D03*
%TD*%
D13*
%TO.C,C1*%
X132439524Y-87900000D03*
X129939524Y-87900000D03*
%TD*%
D14*
%TO.C,J1*%
X146489524Y-67300000D03*
D15*
X146489524Y-69840000D03*
X146489524Y-72380000D03*
X146489524Y-74920000D03*
%TD*%
D13*
%TO.C,C7*%
X112339524Y-76300000D03*
X114839524Y-76300000D03*
%TD*%
D16*
%TO.C,SW24*%
X119600000Y-44052500D03*
X112590000Y-44052500D03*
D11*
X118350000Y-41562500D03*
X113850000Y-41562500D03*
%TD*%
D17*
%TO.C,SW25*%
X103300000Y-39950000D03*
X109800000Y-39950000D03*
X103300000Y-44450000D03*
X109800000Y-44450000D03*
%TD*%
D18*
%TO.C,R3*%
X112939524Y-60000000D03*
D19*
X112939524Y-52380000D03*
%TD*%
D13*
%TO.C,C9*%
X128500000Y-61500000D03*
X128500000Y-64000000D03*
%TD*%
D20*
%TO.C,Y1*%
X126239524Y-87900000D03*
X122439524Y-87900000D03*
%TD*%
D18*
%TO.C,R2*%
X134669524Y-69700000D03*
D19*
X142289524Y-69700000D03*
%TD*%
D13*
%TO.C,C8*%
X119939524Y-61500000D03*
X119939524Y-64000000D03*
%TD*%
%TO.C,C6*%
X126339524Y-84700000D03*
X126339524Y-82200000D03*
%TD*%
%TO.C,C5*%
X137339524Y-76900000D03*
X134839524Y-76900000D03*
%TD*%
%TO.C,C4*%
X135620646Y-64800000D03*
X135620646Y-67300000D03*
%TD*%
D18*
%TO.C,R1*%
X142289524Y-72500000D03*
D19*
X134669524Y-72500000D03*
%TD*%
D18*
%TO.C,R4*%
X113700000Y-69100000D03*
D19*
X106080000Y-69100000D03*
%TD*%
D13*
%TO.C,C2*%
X118739524Y-87900000D03*
X116239524Y-87900000D03*
%TD*%
%TO.C,C3*%
X137319524Y-74750000D03*
X134819524Y-74750000D03*
%TD*%
M02*
