M48
; DRILL file {KiCad (6.0.4)} date Sun May 22 21:51:39 2022
; FORMAT={-:-/ absolute / inch / decimal}
; #@! TF.CreationDate,2022-05-22T21:51:39-03:00
; #@! TF.GenerationSoftware,Kicad,Pcbnew,(6.0.4)
; #@! TF.FileFunction,Plated,1,2,PTH
FMAT,2
INCH
; #@! TA.AperFunction,Plated,PTH,ViaDrill
T1C0.0157
; #@! TA.AperFunction,Plated,PTH,ComponentDrill
T2C0.0402
; #@! TA.AperFunction,Plated,PTH,ComponentDrill
T3C0.0433
%
G90
G05
T1
X5.0787Y-2.5161
X5.226Y-4.0287
X5.2756Y-2.5161
X5.4724Y-2.5161
X5.6311Y-4.5935
X5.6311Y-4.6457
X5.6547Y-4.0287
X5.6693Y-2.5161
X6.0799Y-4.0287
X6.1815Y-4.0953
X6.2049Y-4.0482
X6.2161Y-3.8953
X6.2543Y-2.4925
X6.4654Y-2.4925
X6.665Y-2.4925
T2
X6.8711Y-2.4953
X6.8711Y-2.5953
X6.8711Y-2.6953
X6.8711Y-2.7953
X6.8711Y-2.8953
X6.8711Y-2.9953
X6.8711Y-3.0953
X6.8711Y-3.1953
X6.8711Y-3.2953
X6.8711Y-3.3953
X6.8711Y-3.4953
X6.8711Y-3.5953
X6.8711Y-3.6953
X6.8711Y-3.7953
X6.8711Y-3.8953
X6.8711Y-3.9953
X6.8711Y-4.0953
X6.8711Y-4.1953
X6.8711Y-4.2953
X6.8711Y-4.3953
X7.1211Y-4.3862
X7.2211Y-4.3862
X7.3211Y-4.3862
X7.5711Y-2.4953
X7.5711Y-2.5953
X7.5711Y-2.6953
X7.5711Y-2.7953
X7.5711Y-2.8953
X7.5711Y-2.9953
X7.5711Y-3.0953
X7.5711Y-3.1953
X7.5711Y-3.2953
X7.5711Y-3.3953
X7.5711Y-3.4953
X7.5711Y-3.5953
X7.5711Y-3.6953
X7.5711Y-3.7953
X7.5711Y-3.8953
X7.5711Y-3.9953
X7.5711Y-4.0953
X7.5711Y-4.1953
X7.5711Y-4.2953
X7.5711Y-4.3953
T3
X3.6024Y-2.5197
X3.6024Y-2.6969
X3.6024Y-3.5827
X3.6024Y-3.7598
X3.6024Y-4.6457
X3.6024Y-4.8228
X3.8583Y-2.5197
X3.8583Y-2.6969
X3.8583Y-3.5827
X3.8583Y-3.7598
X3.8583Y-4.6457
X3.8583Y-4.8228
X3.9764Y-3.5827
X3.9764Y-3.7598
X4.2323Y-3.5827
X4.2323Y-3.7598
X4.3504Y-3.5827
X4.3504Y-3.7598
X4.6063Y-3.5827
X4.6063Y-3.7598
X4.7244Y-2.5197
X4.7244Y-2.6969
X4.7244Y-2.874
X4.7244Y-3.0512
X4.7244Y-3.2283
X4.7244Y-3.4055
X4.7244Y-3.5827
X4.7244Y-3.7598
X4.7244Y-3.937
X4.7244Y-4.1142
X4.7244Y-4.2913
X4.7244Y-4.4685
X4.7244Y-4.6457
X4.7244Y-4.8228
X4.9803Y-2.5197
X4.9803Y-2.6969
X4.9803Y-2.874
X4.9803Y-3.0512
X4.9803Y-3.2283
X4.9803Y-3.4055
X4.9803Y-3.5827
X4.9803Y-3.7598
X4.9803Y-3.937
X4.9803Y-4.1142
X4.9803Y-4.2913
X4.9803Y-4.4685
X4.9803Y-4.6457
X4.9803Y-4.8228
X5.0984Y-3.5827
X5.0984Y-3.7598
X5.3543Y-3.5827
X5.3543Y-3.7598
X5.4724Y-3.5827
X5.4724Y-3.7598
X5.7283Y-3.5827
X5.7283Y-3.7598
X5.8465Y-2.5197
X5.8465Y-2.6969
X5.8465Y-3.5827
X5.8465Y-3.7598
X5.8465Y-4.6457
X5.8465Y-4.8228
X6.1024Y-2.5197
X6.1024Y-2.6969
X6.1024Y-3.5827
X6.1024Y-3.7598
X6.1024Y-4.6457
X6.1024Y-4.8228
X6.3823Y-2.6378
X6.3823Y-2.815
X6.3823Y-2.9921
X6.3823Y-3.1693
X6.3823Y-3.3465
X6.3823Y-3.5236
X6.3823Y-3.8189
X6.3823Y-3.9961
X6.3823Y-4.1732
X6.3823Y-4.3504
X6.3823Y-4.5276
X6.3823Y-4.7047
X6.6382Y-2.6378
X6.6382Y-2.815
X6.6382Y-2.9921
X6.6382Y-3.1693
X6.6382Y-3.3465
X6.6382Y-3.5236
X6.6382Y-3.8189
X6.6382Y-3.9961
X6.6382Y-4.1732
X6.6382Y-4.3504
X6.6382Y-4.5276
X6.6382Y-4.7047
T0
M30
