%TF.GenerationSoftware,KiCad,Pcbnew,(6.0.4)*%
%TF.CreationDate,2022-05-22T21:51:38-03:00*%
%TF.ProjectId,G-Code_Keeb_tact,472d436f-6465-45f4-9b65-65625f746163,1*%
%TF.SameCoordinates,Original*%
%TF.FileFunction,Soldermask,Top*%
%TF.FilePolarity,Negative*%
%FSLAX46Y46*%
G04 Gerber Fmt 4.6, Leading zero omitted, Abs format (unit mm)*
G04 Created by KiCad (PCBNEW (6.0.4)) date 2022-05-22 21:51:38*
%MOMM*%
%LPD*%
G01*
G04 APERTURE LIST*
%ADD10C,2.000000*%
%ADD11C,3.200000*%
%ADD12O,1.800000X1.800000*%
%ADD13O,1.500000X1.500000*%
%ADD14O,1.700000X1.700000*%
%ADD15R,1.700000X1.700000*%
G04 APERTURE END LIST*
D10*
%TO.C,SW21*%
X155000000Y-118000000D03*
X148500000Y-118000000D03*
X155000000Y-122500000D03*
X148500000Y-122500000D03*
%TD*%
%TO.C,SW20*%
X98000000Y-64000000D03*
X91500000Y-64000000D03*
X91500000Y-68500000D03*
X98000000Y-68500000D03*
%TD*%
%TO.C,SW22*%
X126500000Y-91000000D03*
X120000000Y-91000000D03*
X120000000Y-95500000D03*
X126500000Y-95500000D03*
%TD*%
D11*
%TO.C,H2*%
X201150000Y-75250000D03*
%TD*%
D10*
%TO.C,SW4*%
X117000000Y-91000000D03*
X110500000Y-91000000D03*
X110500000Y-95500000D03*
X117000000Y-95500000D03*
%TD*%
%TO.C,SW12*%
X126500000Y-118000000D03*
X120000000Y-118000000D03*
X126500000Y-122500000D03*
X120000000Y-122500000D03*
%TD*%
%TO.C,SW16*%
X168610000Y-97000000D03*
X162110000Y-97000000D03*
X168610000Y-101500000D03*
X162110000Y-101500000D03*
%TD*%
%TO.C,SW19*%
X98000000Y-118000000D03*
X91500000Y-118000000D03*
X98000000Y-122500000D03*
X91500000Y-122500000D03*
%TD*%
%TO.C,SW1*%
X148500000Y-91000000D03*
X155000000Y-91000000D03*
X155000000Y-95500000D03*
X148500000Y-95500000D03*
%TD*%
%TO.C,SW23*%
X155000000Y-68500000D03*
X148500000Y-68500000D03*
X148500000Y-64000000D03*
X155000000Y-64000000D03*
%TD*%
%TO.C,SW10*%
X120000000Y-100000000D03*
X126500000Y-100000000D03*
X126500000Y-104500000D03*
X120000000Y-104500000D03*
%TD*%
%TO.C,SW7*%
X120000000Y-64000000D03*
X126500000Y-64000000D03*
X120000000Y-68500000D03*
X126500000Y-68500000D03*
%TD*%
D11*
%TO.C,H4*%
X94750000Y-75250000D03*
%TD*%
D10*
%TO.C,SW8*%
X120000000Y-73000000D03*
X126500000Y-73000000D03*
X120000000Y-77500000D03*
X126500000Y-77500000D03*
%TD*%
D11*
%TO.C,H1*%
X201150000Y-111250000D03*
%TD*%
D10*
%TO.C,SW2*%
X139000000Y-91000000D03*
X145500000Y-91000000D03*
X145500000Y-95500000D03*
X139000000Y-95500000D03*
%TD*%
%TO.C,SW3*%
X136000000Y-91000000D03*
X129500000Y-91000000D03*
X129500000Y-95500000D03*
X136000000Y-95500000D03*
%TD*%
%TO.C,SW18*%
X168610000Y-115000000D03*
X162110000Y-115000000D03*
X162110000Y-119500000D03*
X168610000Y-119500000D03*
%TD*%
%TO.C,SW9*%
X126500000Y-82000000D03*
X120000000Y-82000000D03*
X126500000Y-86500000D03*
X120000000Y-86500000D03*
%TD*%
%TO.C,SW5*%
X107500000Y-91000000D03*
X101000000Y-91000000D03*
X101000000Y-95500000D03*
X107500000Y-95500000D03*
%TD*%
%TO.C,SW11*%
X126500000Y-109000000D03*
X120000000Y-109000000D03*
X120000000Y-113500000D03*
X126500000Y-113500000D03*
%TD*%
%TO.C,SW13*%
X168610000Y-67000000D03*
X162110000Y-67000000D03*
X162110000Y-71500000D03*
X168610000Y-71500000D03*
%TD*%
%TO.C,SW6*%
X91500000Y-91000000D03*
X98000000Y-91000000D03*
X91500000Y-95500000D03*
X98000000Y-95500000D03*
%TD*%
D11*
%TO.C,H3*%
X94750000Y-111250000D03*
%TD*%
D10*
%TO.C,SW17*%
X162110000Y-106000000D03*
X168610000Y-106000000D03*
X162110000Y-110500000D03*
X168610000Y-110500000D03*
%TD*%
%TO.C,SW15*%
X162110000Y-85000000D03*
X168610000Y-85000000D03*
X162110000Y-89500000D03*
X168610000Y-89500000D03*
%TD*%
%TO.C,SW14*%
X168610000Y-76000000D03*
X162110000Y-76000000D03*
X162110000Y-80500000D03*
X168610000Y-80500000D03*
%TD*%
D12*
%TO.C,U1*%
X186140000Y-63510000D03*
X180690000Y-63510000D03*
D13*
X185840000Y-66540000D03*
X180990000Y-66540000D03*
D14*
X192305000Y-63380000D03*
X192305000Y-65920000D03*
D15*
X192305000Y-68460000D03*
D14*
X192305000Y-71000000D03*
X192305000Y-73540000D03*
X192305000Y-76080000D03*
X192305000Y-78620000D03*
D15*
X192305000Y-81160000D03*
D14*
X192305000Y-83700000D03*
X192305000Y-86240000D03*
X192305000Y-88780000D03*
X192305000Y-91320000D03*
D15*
X192305000Y-93860000D03*
D14*
X192305000Y-96400000D03*
X192305000Y-98940000D03*
X192305000Y-101480000D03*
X192305000Y-104020000D03*
D15*
X192305000Y-106560000D03*
D14*
X192305000Y-109100000D03*
X192305000Y-111640000D03*
X174525000Y-111640000D03*
X174525000Y-109100000D03*
D15*
X174525000Y-106560000D03*
D14*
X174525000Y-104020000D03*
X174525000Y-101480000D03*
X174525000Y-98940000D03*
X174525000Y-96400000D03*
D15*
X174525000Y-93860000D03*
D14*
X174525000Y-91320000D03*
X174525000Y-88780000D03*
X174525000Y-86240000D03*
X174525000Y-83700000D03*
D15*
X174525000Y-81160000D03*
D14*
X174525000Y-78620000D03*
X174525000Y-76080000D03*
X174525000Y-73540000D03*
X174525000Y-71000000D03*
D15*
X174525000Y-68460000D03*
D14*
X174525000Y-65920000D03*
X174525000Y-63380000D03*
X185955000Y-111410000D03*
D15*
X183415000Y-111410000D03*
D14*
X180875000Y-111410000D03*
%TD*%
M02*
