%TF.GenerationSoftware,KiCad,Pcbnew,(6.0.4)*%
%TF.CreationDate,2022-05-21T19:00:59-03:00*%
%TF.ProjectId,G-Code_Keeb_tact,472d436f-6465-45f4-9b65-65625f746163,1*%
%TF.SameCoordinates,Original*%
%TF.FileFunction,Legend,Bot*%
%TF.FilePolarity,Positive*%
%FSLAX46Y46*%
G04 Gerber Fmt 4.6, Leading zero omitted, Abs format (unit mm)*
G04 Created by KiCad (PCBNEW (6.0.4)) date 2022-05-21 19:00:59*
%MOMM*%
%LPD*%
G01*
G04 APERTURE LIST*
%ADD10C,0.150000*%
%ADD11C,0.120000*%
G04 APERTURE END LIST*
D10*
%TO.C,U1*%
X184176904Y-86962380D02*
X184176904Y-87771904D01*
X184129285Y-87867142D01*
X184081666Y-87914761D01*
X183986428Y-87962380D01*
X183795952Y-87962380D01*
X183700714Y-87914761D01*
X183653095Y-87867142D01*
X183605476Y-87771904D01*
X183605476Y-86962380D01*
X182605476Y-87962380D02*
X183176904Y-87962380D01*
X182891190Y-87962380D02*
X182891190Y-86962380D01*
X182986428Y-87105238D01*
X183081666Y-87200476D01*
X183176904Y-87248095D01*
X195658722Y-98549407D02*
X195577910Y-98522470D01*
X195497097Y-98441658D01*
X195443223Y-98333908D01*
X195443223Y-98226158D01*
X195470160Y-98145346D01*
X195550972Y-98010659D01*
X195631784Y-97929847D01*
X195766471Y-97849035D01*
X195847284Y-97822097D01*
X195955033Y-97822097D01*
X196062783Y-97875972D01*
X196116658Y-97929847D01*
X196170532Y-98037597D01*
X196170532Y-98091471D01*
X195981971Y-98280033D01*
X195874221Y-98172284D01*
X196466844Y-98280033D02*
X195901158Y-98845719D01*
X196116658Y-99061218D01*
X196197470Y-99088155D01*
X196251345Y-99088155D01*
X196332157Y-99061218D01*
X196412969Y-98980406D01*
X196439906Y-98899593D01*
X196439906Y-98845719D01*
X196412969Y-98764906D01*
X196197470Y-98549407D01*
X197328841Y-99142030D02*
X197005592Y-98818781D01*
X197167216Y-98980406D02*
X196601531Y-99546091D01*
X196628468Y-99411404D01*
X196628468Y-99303654D01*
X196601531Y-99222842D01*
X197867589Y-99680778D02*
X197544340Y-99357529D01*
X197705964Y-99519154D02*
X197140279Y-100084839D01*
X197167216Y-99950152D01*
X197167216Y-99842402D01*
X197140279Y-99761590D01*
X169458597Y-80069035D02*
X169727971Y-80338409D01*
X169566346Y-79853536D02*
X169189223Y-80607783D01*
X169943470Y-80230659D01*
X169889595Y-81254280D02*
X169808783Y-81227343D01*
X169727971Y-81146531D01*
X169674096Y-81038781D01*
X169674096Y-80931032D01*
X169701033Y-80850219D01*
X169781845Y-80715532D01*
X169862658Y-80634720D01*
X169997345Y-80553908D01*
X170078157Y-80526971D01*
X170185906Y-80526971D01*
X170293656Y-80580845D01*
X170347531Y-80634720D01*
X170401406Y-80742470D01*
X170401406Y-80796345D01*
X170212844Y-80984906D01*
X170105094Y-80877157D01*
X170697717Y-80984906D02*
X170132032Y-81550592D01*
X171020966Y-81308155D01*
X170455280Y-81873841D01*
X171290340Y-81577529D02*
X170724654Y-82143215D01*
X170859341Y-82277902D01*
X170967091Y-82331776D01*
X171074841Y-82331776D01*
X171155653Y-82304839D01*
X171290340Y-82224027D01*
X171371152Y-82143215D01*
X171451964Y-82008528D01*
X171478902Y-81927715D01*
X171478902Y-81819966D01*
X171425027Y-81712216D01*
X171290340Y-81577529D01*
X169901158Y-106411844D02*
X169820346Y-106384906D01*
X169739534Y-106304094D01*
X169685659Y-106196345D01*
X169685659Y-106088595D01*
X169712597Y-106007783D01*
X169793409Y-105873096D01*
X169874221Y-105792284D01*
X170008908Y-105711471D01*
X170089720Y-105684534D01*
X170197470Y-105684534D01*
X170305219Y-105738409D01*
X170359094Y-105792284D01*
X170412969Y-105900033D01*
X170412969Y-105953908D01*
X170224407Y-106142470D01*
X170116658Y-106034720D01*
X170709280Y-106142470D02*
X170143595Y-106708155D01*
X171032529Y-106465719D01*
X170466844Y-107031404D01*
X171301903Y-106735093D02*
X170736218Y-107300778D01*
X170870905Y-107435465D01*
X170978654Y-107489340D01*
X171086404Y-107489340D01*
X171167216Y-107462402D01*
X171301903Y-107381590D01*
X171382715Y-107300778D01*
X171463528Y-107166091D01*
X171490465Y-107085279D01*
X171490465Y-106977529D01*
X171436590Y-106869780D01*
X171301903Y-106735093D01*
X168768129Y-62582690D02*
X169522377Y-62205566D01*
X169145253Y-62959813D01*
X169791751Y-63067563D02*
X169899500Y-63121438D01*
X169953375Y-63121438D01*
X170034187Y-63094500D01*
X170115000Y-63013688D01*
X170141937Y-62932876D01*
X170141937Y-62879001D01*
X170115000Y-62798189D01*
X169899500Y-62582690D01*
X169333815Y-63148375D01*
X169522377Y-63336937D01*
X169603189Y-63363874D01*
X169657064Y-63363874D01*
X169737876Y-63336937D01*
X169791751Y-63283062D01*
X169818688Y-63202250D01*
X169818688Y-63148375D01*
X169791751Y-63067563D01*
X169603189Y-62879001D01*
X169899500Y-63714061D02*
X170357436Y-63256125D01*
X170438248Y-63229187D01*
X170492123Y-63229187D01*
X170572935Y-63256125D01*
X170680685Y-63363874D01*
X170707622Y-63444687D01*
X170707622Y-63498561D01*
X170680685Y-63579374D01*
X170222749Y-64037309D01*
X171003934Y-63740998D02*
X171111683Y-63794873D01*
X171246370Y-63929560D01*
X171273308Y-64010372D01*
X171273308Y-64064247D01*
X171246370Y-64145059D01*
X171192496Y-64198934D01*
X171111683Y-64225871D01*
X171057809Y-64225871D01*
X170976996Y-64198934D01*
X170842309Y-64118122D01*
X170761497Y-64091184D01*
X170707622Y-64091184D01*
X170626810Y-64118122D01*
X170572935Y-64171996D01*
X170545998Y-64252809D01*
X170545998Y-64306683D01*
X170572935Y-64387496D01*
X170707622Y-64522183D01*
X170815372Y-64576057D01*
X169901158Y-68311844D02*
X169820346Y-68284906D01*
X169739534Y-68204094D01*
X169685659Y-68096345D01*
X169685659Y-67988595D01*
X169712597Y-67907783D01*
X169793409Y-67773096D01*
X169874221Y-67692284D01*
X170008908Y-67611471D01*
X170089720Y-67584534D01*
X170197470Y-67584534D01*
X170305219Y-67638409D01*
X170359094Y-67692284D01*
X170412969Y-67800033D01*
X170412969Y-67853908D01*
X170224407Y-68042470D01*
X170116658Y-67934720D01*
X170709280Y-68042470D02*
X170143595Y-68608155D01*
X171032529Y-68365719D01*
X170466844Y-68931404D01*
X171301903Y-68635093D02*
X170736218Y-69200778D01*
X170870905Y-69335465D01*
X170978654Y-69389340D01*
X171086404Y-69389340D01*
X171167216Y-69362402D01*
X171301903Y-69281590D01*
X171382715Y-69200778D01*
X171463528Y-69066091D01*
X171490465Y-68985279D01*
X171490465Y-68877529D01*
X171436590Y-68769780D01*
X171301903Y-68635093D01*
X195512722Y-103629407D02*
X195431910Y-103602470D01*
X195351097Y-103521658D01*
X195297223Y-103413908D01*
X195297223Y-103306158D01*
X195324160Y-103225346D01*
X195404972Y-103090659D01*
X195485784Y-103009847D01*
X195620471Y-102929035D01*
X195701284Y-102902097D01*
X195809033Y-102902097D01*
X195916783Y-102955972D01*
X195970658Y-103009847D01*
X196024532Y-103117597D01*
X196024532Y-103171471D01*
X195835971Y-103360033D01*
X195728221Y-103252284D01*
X196320844Y-103360033D02*
X195755158Y-103925719D01*
X195970658Y-104141218D01*
X196051470Y-104168155D01*
X196105345Y-104168155D01*
X196186157Y-104141218D01*
X196266969Y-104060406D01*
X196293906Y-103979593D01*
X196293906Y-103925719D01*
X196266969Y-103844906D01*
X196051470Y-103629407D01*
X197182841Y-104222030D02*
X196859592Y-103898781D01*
X197021216Y-104060406D02*
X196455531Y-104626091D01*
X196482468Y-104491404D01*
X196482468Y-104383654D01*
X196455531Y-104302842D01*
X196805717Y-104976277D02*
X197155903Y-105326463D01*
X197182841Y-104922402D01*
X197263653Y-105003215D01*
X197344465Y-105030152D01*
X197398340Y-105030152D01*
X197479152Y-105003215D01*
X197613839Y-104868528D01*
X197640776Y-104787715D01*
X197640776Y-104733841D01*
X197613839Y-104653028D01*
X197452215Y-104491404D01*
X197371402Y-104464467D01*
X197317528Y-104464467D01*
X167569788Y-72976226D02*
X167839162Y-73245600D01*
X167677537Y-72760727D02*
X167300414Y-73514974D01*
X168054661Y-73137850D01*
X168243223Y-73326412D02*
X167677537Y-73892097D01*
X167812224Y-74026784D01*
X167919974Y-74080659D01*
X168027723Y-74080659D01*
X168108536Y-74053722D01*
X168243223Y-73972910D01*
X168324035Y-73892097D01*
X168404847Y-73757410D01*
X168431784Y-73676598D01*
X168431784Y-73568849D01*
X168377910Y-73461099D01*
X168243223Y-73326412D01*
X169078282Y-74269221D02*
X169078282Y-74215346D01*
X169024407Y-74107597D01*
X168970532Y-74053722D01*
X168862783Y-73999847D01*
X168755033Y-73999847D01*
X168674221Y-74026784D01*
X168539534Y-74107597D01*
X168458722Y-74188409D01*
X168377910Y-74323096D01*
X168350972Y-74403908D01*
X168350972Y-74511658D01*
X168404847Y-74619407D01*
X168458722Y-74673282D01*
X168566471Y-74727157D01*
X168620346Y-74727157D01*
X169293781Y-74269221D02*
X169724780Y-74700219D01*
X169159094Y-75373654D02*
X169913341Y-74996531D01*
X169536218Y-75750778D01*
X170613714Y-75696903D02*
X170155778Y-75777715D01*
X170290465Y-75373654D02*
X169724780Y-75939340D01*
X169940279Y-76154839D01*
X170021091Y-76181776D01*
X170074966Y-76181776D01*
X170155778Y-76154839D01*
X170236590Y-76074027D01*
X170263528Y-75993215D01*
X170263528Y-75939340D01*
X170236590Y-75858528D01*
X170021091Y-75643028D01*
X170559839Y-76235651D02*
X170748401Y-76424213D01*
X171125524Y-76208714D02*
X170856150Y-75939340D01*
X170290465Y-76505025D01*
X170559839Y-76774399D01*
X171260211Y-76936024D02*
X171071650Y-76747462D01*
X171367961Y-76451150D02*
X170802276Y-77016836D01*
X171071650Y-77286210D01*
X195528096Y-75958781D02*
X195447284Y-75931844D01*
X195366471Y-75851032D01*
X195312597Y-75743282D01*
X195312597Y-75635532D01*
X195339534Y-75554720D01*
X195420346Y-75420033D01*
X195501158Y-75339221D01*
X195635845Y-75258409D01*
X195716658Y-75231471D01*
X195824407Y-75231471D01*
X195932157Y-75285346D01*
X195986032Y-75339221D01*
X196039906Y-75446971D01*
X196039906Y-75500845D01*
X195851345Y-75689407D01*
X195743595Y-75581658D01*
X196336218Y-75689407D02*
X195770532Y-76255093D01*
X195986032Y-76470592D01*
X196066844Y-76497529D01*
X196120719Y-76497529D01*
X196201531Y-76470592D01*
X196282343Y-76389780D01*
X196309280Y-76308967D01*
X196309280Y-76255093D01*
X196282343Y-76174280D01*
X196066844Y-75958781D01*
X196767216Y-76874653D02*
X197144340Y-76497529D01*
X196417030Y-76955465D02*
X196686404Y-76416717D01*
X197036590Y-76766903D01*
X195428096Y-86088781D02*
X195347284Y-86061844D01*
X195266471Y-85981032D01*
X195212597Y-85873282D01*
X195212597Y-85765532D01*
X195239534Y-85684720D01*
X195320346Y-85550033D01*
X195401158Y-85469221D01*
X195535845Y-85388409D01*
X195616658Y-85361471D01*
X195724407Y-85361471D01*
X195832157Y-85415346D01*
X195886032Y-85469221D01*
X195939906Y-85576971D01*
X195939906Y-85630845D01*
X195751345Y-85819407D01*
X195643595Y-85711658D01*
X196236218Y-85819407D02*
X195670532Y-86385093D01*
X195886032Y-86600592D01*
X195966844Y-86627529D01*
X196020719Y-86627529D01*
X196101531Y-86600592D01*
X196182343Y-86519780D01*
X196209280Y-86438967D01*
X196209280Y-86385093D01*
X196182343Y-86304280D01*
X195966844Y-86088781D01*
X196182343Y-86896903D02*
X196559467Y-87274027D01*
X196882715Y-86465905D01*
X195512722Y-111249407D02*
X195431910Y-111222470D01*
X195351097Y-111141658D01*
X195297223Y-111033908D01*
X195297223Y-110926158D01*
X195324160Y-110845346D01*
X195404972Y-110710659D01*
X195485784Y-110629847D01*
X195620471Y-110549035D01*
X195701284Y-110522097D01*
X195809033Y-110522097D01*
X195916783Y-110575972D01*
X195970658Y-110629847D01*
X196024532Y-110737597D01*
X196024532Y-110791471D01*
X195835971Y-110980033D01*
X195728221Y-110872284D01*
X196320844Y-110980033D02*
X195755158Y-111545719D01*
X195970658Y-111761218D01*
X196051470Y-111788155D01*
X196105345Y-111788155D01*
X196186157Y-111761218D01*
X196266969Y-111680406D01*
X196293906Y-111599593D01*
X196293906Y-111545719D01*
X196266969Y-111464906D01*
X196051470Y-111249407D01*
X197182841Y-111842030D02*
X196859592Y-111518781D01*
X197021216Y-111680406D02*
X196455531Y-112246091D01*
X196482468Y-112111404D01*
X196482468Y-112003654D01*
X196455531Y-111922842D01*
X197128966Y-112919526D02*
X196859592Y-112650152D01*
X197102028Y-112353841D01*
X197102028Y-112407715D01*
X197128966Y-112488528D01*
X197263653Y-112623215D01*
X197344465Y-112650152D01*
X197398340Y-112650152D01*
X197479152Y-112623215D01*
X197613839Y-112488528D01*
X197640776Y-112407715D01*
X197640776Y-112353841D01*
X197613839Y-112273028D01*
X197479152Y-112138341D01*
X197398340Y-112111404D01*
X197344465Y-112111404D01*
X169404722Y-108709407D02*
X169323910Y-108682470D01*
X169243097Y-108601658D01*
X169189223Y-108493908D01*
X169189223Y-108386158D01*
X169216160Y-108305346D01*
X169296972Y-108170659D01*
X169377784Y-108089847D01*
X169512471Y-108009035D01*
X169593284Y-107982097D01*
X169701033Y-107982097D01*
X169808783Y-108035972D01*
X169862658Y-108089847D01*
X169916532Y-108197597D01*
X169916532Y-108251471D01*
X169727971Y-108440033D01*
X169620221Y-108332284D01*
X170212844Y-108440033D02*
X169647158Y-109005719D01*
X169862658Y-109221218D01*
X169943470Y-109248155D01*
X169997345Y-109248155D01*
X170078157Y-109221218D01*
X170158969Y-109140406D01*
X170185906Y-109059593D01*
X170185906Y-109005719D01*
X170158969Y-108924906D01*
X169943470Y-108709407D01*
X171074841Y-109302030D02*
X170751592Y-108978781D01*
X170913216Y-109140406D02*
X170347531Y-109706091D01*
X170374468Y-109571404D01*
X170374468Y-109463654D01*
X170347531Y-109382842D01*
X170697717Y-110056277D02*
X171074841Y-110433401D01*
X171398089Y-109625279D01*
X169404722Y-85849407D02*
X169323910Y-85822470D01*
X169243097Y-85741658D01*
X169189223Y-85633908D01*
X169189223Y-85526158D01*
X169216160Y-85445346D01*
X169296972Y-85310659D01*
X169377784Y-85229847D01*
X169512471Y-85149035D01*
X169593284Y-85122097D01*
X169701033Y-85122097D01*
X169808783Y-85175972D01*
X169862658Y-85229847D01*
X169916532Y-85337597D01*
X169916532Y-85391471D01*
X169727971Y-85580033D01*
X169620221Y-85472284D01*
X170212844Y-85580033D02*
X169647158Y-86145719D01*
X169862658Y-86361218D01*
X169943470Y-86388155D01*
X169997345Y-86388155D01*
X170078157Y-86361218D01*
X170158969Y-86280406D01*
X170185906Y-86199593D01*
X170185906Y-86145719D01*
X170158969Y-86064906D01*
X169943470Y-85849407D01*
X170239781Y-86630592D02*
X170239781Y-86684467D01*
X170266719Y-86765279D01*
X170401406Y-86899966D01*
X170482218Y-86926903D01*
X170536093Y-86926903D01*
X170616905Y-86899966D01*
X170670780Y-86846091D01*
X170724654Y-86738341D01*
X170724654Y-86091844D01*
X171074841Y-86442030D01*
X170994028Y-87492589D02*
X170886279Y-87384839D01*
X170859341Y-87304027D01*
X170859341Y-87250152D01*
X170886279Y-87115465D01*
X170967091Y-86980778D01*
X171182590Y-86765279D01*
X171263402Y-86738341D01*
X171317277Y-86738341D01*
X171398089Y-86765279D01*
X171505839Y-86873028D01*
X171532776Y-86953841D01*
X171532776Y-87007715D01*
X171505839Y-87088528D01*
X171371152Y-87223215D01*
X171290340Y-87250152D01*
X171236465Y-87250152D01*
X171155653Y-87223215D01*
X171047903Y-87115465D01*
X171020966Y-87034653D01*
X171020966Y-86980778D01*
X171047903Y-86899966D01*
X190924523Y-114033809D02*
X190810238Y-114071904D01*
X190619761Y-114071904D01*
X190543571Y-114033809D01*
X190505476Y-113995714D01*
X190467380Y-113919523D01*
X190467380Y-113843333D01*
X190505476Y-113767142D01*
X190543571Y-113729047D01*
X190619761Y-113690952D01*
X190772142Y-113652857D01*
X190848333Y-113614761D01*
X190886428Y-113576666D01*
X190924523Y-113500476D01*
X190924523Y-113424285D01*
X190886428Y-113348095D01*
X190848333Y-113310000D01*
X190772142Y-113271904D01*
X190581666Y-113271904D01*
X190467380Y-113310000D01*
X190200714Y-113271904D02*
X190010238Y-114071904D01*
X189857857Y-113500476D01*
X189705476Y-114071904D01*
X189515000Y-113271904D01*
X188753095Y-113995714D02*
X188791190Y-114033809D01*
X188905476Y-114071904D01*
X188981666Y-114071904D01*
X189095952Y-114033809D01*
X189172142Y-113957619D01*
X189210238Y-113881428D01*
X189248333Y-113729047D01*
X189248333Y-113614761D01*
X189210238Y-113462380D01*
X189172142Y-113386190D01*
X189095952Y-113310000D01*
X188981666Y-113271904D01*
X188905476Y-113271904D01*
X188791190Y-113310000D01*
X188753095Y-113348095D01*
X188029285Y-114071904D02*
X188410238Y-114071904D01*
X188410238Y-113271904D01*
X187762619Y-114071904D02*
X187762619Y-113271904D01*
X187305476Y-114071904D02*
X187648333Y-113614761D01*
X187305476Y-113271904D02*
X187762619Y-113729047D01*
X167937131Y-69151691D02*
X168287317Y-69501877D01*
X168314255Y-69097816D01*
X168395067Y-69178629D01*
X168475879Y-69205566D01*
X168529754Y-69205566D01*
X168610566Y-69178629D01*
X168745253Y-69043942D01*
X168772190Y-68963129D01*
X168772190Y-68909255D01*
X168745253Y-68828442D01*
X168583629Y-68666818D01*
X168502816Y-68639881D01*
X168448942Y-68639881D01*
X168448942Y-69663502D02*
X169203189Y-69286378D01*
X168826065Y-70040625D01*
X168960752Y-70175312D02*
X169310938Y-70525499D01*
X169337876Y-70121438D01*
X169418688Y-70202250D01*
X169499500Y-70229187D01*
X169553375Y-70229187D01*
X169634187Y-70202250D01*
X169768874Y-70067563D01*
X169795812Y-69986751D01*
X169795812Y-69932876D01*
X169768874Y-69852064D01*
X169607250Y-69690439D01*
X169526438Y-69663502D01*
X169472563Y-69663502D01*
X170038248Y-70013688D02*
X170469247Y-70444687D01*
X170253748Y-70929560D02*
X170442309Y-71118122D01*
X170819433Y-70902622D02*
X170550059Y-70633248D01*
X169984374Y-71198934D01*
X170253748Y-71468308D01*
X171061870Y-71145059D02*
X170496184Y-71710744D01*
X171385118Y-71468308D01*
X170819433Y-72033993D01*
X169504847Y-73219407D02*
X169855033Y-73569593D01*
X169881971Y-73165532D01*
X169962783Y-73246345D01*
X170043595Y-73273282D01*
X170097470Y-73273282D01*
X170178282Y-73246345D01*
X170312969Y-73111658D01*
X170339906Y-73030845D01*
X170339906Y-72976971D01*
X170312969Y-72896158D01*
X170151345Y-72734534D01*
X170070532Y-72707597D01*
X170016658Y-72707597D01*
X170016658Y-73731218D02*
X170770905Y-73354094D01*
X170393781Y-74108341D01*
X170528468Y-74243028D02*
X170878654Y-74593215D01*
X170905592Y-74189154D01*
X170986404Y-74269966D01*
X171067216Y-74296903D01*
X171121091Y-74296903D01*
X171201903Y-74269966D01*
X171336590Y-74135279D01*
X171363528Y-74054467D01*
X171363528Y-74000592D01*
X171336590Y-73919780D01*
X171174966Y-73758155D01*
X171094154Y-73731218D01*
X171040279Y-73731218D01*
X195528096Y-88658781D02*
X195447284Y-88631844D01*
X195366471Y-88551032D01*
X195312597Y-88443282D01*
X195312597Y-88335532D01*
X195339534Y-88254720D01*
X195420346Y-88120033D01*
X195501158Y-88039221D01*
X195635845Y-87958409D01*
X195716658Y-87931471D01*
X195824407Y-87931471D01*
X195932157Y-87985346D01*
X195986032Y-88039221D01*
X196039906Y-88146971D01*
X196039906Y-88200845D01*
X195851345Y-88389407D01*
X195743595Y-88281658D01*
X196336218Y-88389407D02*
X195770532Y-88955093D01*
X195986032Y-89170592D01*
X196066844Y-89197529D01*
X196120719Y-89197529D01*
X196201531Y-89170592D01*
X196282343Y-89089780D01*
X196309280Y-89008967D01*
X196309280Y-88955093D01*
X196282343Y-88874280D01*
X196066844Y-88658781D01*
X196659467Y-89359154D02*
X196578654Y-89332216D01*
X196524780Y-89332216D01*
X196443967Y-89359154D01*
X196417030Y-89386091D01*
X196390093Y-89466903D01*
X196390093Y-89520778D01*
X196417030Y-89601590D01*
X196524780Y-89709340D01*
X196605592Y-89736277D01*
X196659467Y-89736277D01*
X196740279Y-89709340D01*
X196767216Y-89682402D01*
X196794154Y-89601590D01*
X196794154Y-89547715D01*
X196767216Y-89466903D01*
X196659467Y-89359154D01*
X196632529Y-89278341D01*
X196632529Y-89224467D01*
X196659467Y-89143654D01*
X196767216Y-89035905D01*
X196848028Y-89008967D01*
X196901903Y-89008967D01*
X196982715Y-89035905D01*
X197090465Y-89143654D01*
X197117402Y-89224467D01*
X197117402Y-89278341D01*
X197090465Y-89359154D01*
X196982715Y-89466903D01*
X196901903Y-89493841D01*
X196848028Y-89493841D01*
X196767216Y-89466903D01*
X169404722Y-111249407D02*
X169323910Y-111222470D01*
X169243097Y-111141658D01*
X169189223Y-111033908D01*
X169189223Y-110926158D01*
X169216160Y-110845346D01*
X169296972Y-110710659D01*
X169377784Y-110629847D01*
X169512471Y-110549035D01*
X169593284Y-110522097D01*
X169701033Y-110522097D01*
X169808783Y-110575972D01*
X169862658Y-110629847D01*
X169916532Y-110737597D01*
X169916532Y-110791471D01*
X169727971Y-110980033D01*
X169620221Y-110872284D01*
X170212844Y-110980033D02*
X169647158Y-111545719D01*
X169862658Y-111761218D01*
X169943470Y-111788155D01*
X169997345Y-111788155D01*
X170078157Y-111761218D01*
X170158969Y-111680406D01*
X170185906Y-111599593D01*
X170185906Y-111545719D01*
X170158969Y-111464906D01*
X169943470Y-111249407D01*
X171074841Y-111842030D02*
X170751592Y-111518781D01*
X170913216Y-111680406D02*
X170347531Y-112246091D01*
X170374468Y-112111404D01*
X170374468Y-112003654D01*
X170347531Y-111922842D01*
X170994028Y-112892589D02*
X170886279Y-112784839D01*
X170859341Y-112704027D01*
X170859341Y-112650152D01*
X170886279Y-112515465D01*
X170967091Y-112380778D01*
X171182590Y-112165279D01*
X171263402Y-112138341D01*
X171317277Y-112138341D01*
X171398089Y-112165279D01*
X171505839Y-112273028D01*
X171532776Y-112353841D01*
X171532776Y-112407715D01*
X171505839Y-112488528D01*
X171371152Y-112623215D01*
X171290340Y-112650152D01*
X171236465Y-112650152D01*
X171155653Y-112623215D01*
X171047903Y-112515465D01*
X171020966Y-112434653D01*
X171020966Y-112380778D01*
X171047903Y-112299966D01*
X169901158Y-93711844D02*
X169820346Y-93684906D01*
X169739534Y-93604094D01*
X169685659Y-93496345D01*
X169685659Y-93388595D01*
X169712597Y-93307783D01*
X169793409Y-93173096D01*
X169874221Y-93092284D01*
X170008908Y-93011471D01*
X170089720Y-92984534D01*
X170197470Y-92984534D01*
X170305219Y-93038409D01*
X170359094Y-93092284D01*
X170412969Y-93200033D01*
X170412969Y-93253908D01*
X170224407Y-93442470D01*
X170116658Y-93334720D01*
X170709280Y-93442470D02*
X170143595Y-94008155D01*
X171032529Y-93765719D01*
X170466844Y-94331404D01*
X171301903Y-94035093D02*
X170736218Y-94600778D01*
X170870905Y-94735465D01*
X170978654Y-94789340D01*
X171086404Y-94789340D01*
X171167216Y-94762402D01*
X171301903Y-94681590D01*
X171382715Y-94600778D01*
X171463528Y-94466091D01*
X171490465Y-94385279D01*
X171490465Y-94277529D01*
X171436590Y-94169780D01*
X171301903Y-94035093D01*
X195501158Y-81011844D02*
X195420346Y-80984906D01*
X195339534Y-80904094D01*
X195285659Y-80796345D01*
X195285659Y-80688595D01*
X195312597Y-80607783D01*
X195393409Y-80473096D01*
X195474221Y-80392284D01*
X195608908Y-80311471D01*
X195689720Y-80284534D01*
X195797470Y-80284534D01*
X195905219Y-80338409D01*
X195959094Y-80392284D01*
X196012969Y-80500033D01*
X196012969Y-80553908D01*
X195824407Y-80742470D01*
X195716658Y-80634720D01*
X196309280Y-80742470D02*
X195743595Y-81308155D01*
X196632529Y-81065719D01*
X196066844Y-81631404D01*
X196901903Y-81335093D02*
X196336218Y-81900778D01*
X196470905Y-82035465D01*
X196578654Y-82089340D01*
X196686404Y-82089340D01*
X196767216Y-82062402D01*
X196901903Y-81981590D01*
X196982715Y-81900778D01*
X197063528Y-81766091D01*
X197090465Y-81685279D01*
X197090465Y-81577529D01*
X197036590Y-81469780D01*
X196901903Y-81335093D01*
X169404722Y-77975407D02*
X169323910Y-77948470D01*
X169243097Y-77867658D01*
X169189223Y-77759908D01*
X169189223Y-77652158D01*
X169216160Y-77571346D01*
X169296972Y-77436659D01*
X169377784Y-77355847D01*
X169512471Y-77275035D01*
X169593284Y-77248097D01*
X169701033Y-77248097D01*
X169808783Y-77301972D01*
X169862658Y-77355847D01*
X169916532Y-77463597D01*
X169916532Y-77517471D01*
X169727971Y-77706033D01*
X169620221Y-77598284D01*
X170212844Y-77706033D02*
X169647158Y-78271719D01*
X169862658Y-78487218D01*
X169943470Y-78514155D01*
X169997345Y-78514155D01*
X170078157Y-78487218D01*
X170158969Y-78406406D01*
X170185906Y-78325593D01*
X170185906Y-78271719D01*
X170158969Y-78190906D01*
X169943470Y-77975407D01*
X170239781Y-78756592D02*
X170239781Y-78810467D01*
X170266719Y-78891279D01*
X170401406Y-79025966D01*
X170482218Y-79052903D01*
X170536093Y-79052903D01*
X170616905Y-79025966D01*
X170670780Y-78972091D01*
X170724654Y-78864341D01*
X170724654Y-78217844D01*
X171074841Y-78568030D01*
X171074841Y-79214528D02*
X170994028Y-79187590D01*
X170940154Y-79187590D01*
X170859341Y-79214528D01*
X170832404Y-79241465D01*
X170805467Y-79322277D01*
X170805467Y-79376152D01*
X170832404Y-79456964D01*
X170940154Y-79564714D01*
X171020966Y-79591651D01*
X171074841Y-79591651D01*
X171155653Y-79564714D01*
X171182590Y-79537776D01*
X171209528Y-79456964D01*
X171209528Y-79403089D01*
X171182590Y-79322277D01*
X171074841Y-79214528D01*
X171047903Y-79133715D01*
X171047903Y-79079841D01*
X171074841Y-78999028D01*
X171182590Y-78891279D01*
X171263402Y-78864341D01*
X171317277Y-78864341D01*
X171398089Y-78891279D01*
X171505839Y-78999028D01*
X171532776Y-79079841D01*
X171532776Y-79133715D01*
X171505839Y-79214528D01*
X171398089Y-79322277D01*
X171317277Y-79349215D01*
X171263402Y-79349215D01*
X171182590Y-79322277D01*
X195528096Y-91198781D02*
X195447284Y-91171844D01*
X195366471Y-91091032D01*
X195312597Y-90983282D01*
X195312597Y-90875532D01*
X195339534Y-90794720D01*
X195420346Y-90660033D01*
X195501158Y-90579221D01*
X195635845Y-90498409D01*
X195716658Y-90471471D01*
X195824407Y-90471471D01*
X195932157Y-90525346D01*
X195986032Y-90579221D01*
X196039906Y-90686971D01*
X196039906Y-90740845D01*
X195851345Y-90929407D01*
X195743595Y-90821658D01*
X196336218Y-90929407D02*
X195770532Y-91495093D01*
X195986032Y-91710592D01*
X196066844Y-91737529D01*
X196120719Y-91737529D01*
X196201531Y-91710592D01*
X196282343Y-91629780D01*
X196309280Y-91548967D01*
X196309280Y-91495093D01*
X196282343Y-91414280D01*
X196066844Y-91198781D01*
X196928841Y-91522030D02*
X197036590Y-91629780D01*
X197063528Y-91710592D01*
X197063528Y-91764467D01*
X197036590Y-91899154D01*
X196955778Y-92033841D01*
X196740279Y-92249340D01*
X196659467Y-92276277D01*
X196605592Y-92276277D01*
X196524780Y-92249340D01*
X196417030Y-92141590D01*
X196390093Y-92060778D01*
X196390093Y-92006903D01*
X196417030Y-91926091D01*
X196551717Y-91791404D01*
X196632529Y-91764467D01*
X196686404Y-91764467D01*
X196767216Y-91791404D01*
X196874966Y-91899154D01*
X196901903Y-91979966D01*
X196901903Y-92033841D01*
X196874966Y-92114653D01*
X179510238Y-114033809D02*
X179395952Y-114071904D01*
X179205476Y-114071904D01*
X179129285Y-114033809D01*
X179091190Y-113995714D01*
X179053095Y-113919523D01*
X179053095Y-113843333D01*
X179091190Y-113767142D01*
X179129285Y-113729047D01*
X179205476Y-113690952D01*
X179357857Y-113652857D01*
X179434047Y-113614761D01*
X179472142Y-113576666D01*
X179510238Y-113500476D01*
X179510238Y-113424285D01*
X179472142Y-113348095D01*
X179434047Y-113310000D01*
X179357857Y-113271904D01*
X179167380Y-113271904D01*
X179053095Y-113310000D01*
X178786428Y-113271904D02*
X178595952Y-114071904D01*
X178443571Y-113500476D01*
X178291190Y-114071904D01*
X178100714Y-113271904D01*
X177795952Y-114071904D02*
X177795952Y-113271904D01*
X177605476Y-113271904D01*
X177491190Y-113310000D01*
X177415000Y-113386190D01*
X177376904Y-113462380D01*
X177338809Y-113614761D01*
X177338809Y-113729047D01*
X177376904Y-113881428D01*
X177415000Y-113957619D01*
X177491190Y-114033809D01*
X177605476Y-114071904D01*
X177795952Y-114071904D01*
X176995952Y-114071904D02*
X176995952Y-113271904D01*
X176462619Y-113271904D02*
X176310238Y-113271904D01*
X176234047Y-113310000D01*
X176157857Y-113386190D01*
X176119761Y-113538571D01*
X176119761Y-113805238D01*
X176157857Y-113957619D01*
X176234047Y-114033809D01*
X176310238Y-114071904D01*
X176462619Y-114071904D01*
X176538809Y-114033809D01*
X176615000Y-113957619D01*
X176653095Y-113805238D01*
X176653095Y-113538571D01*
X176615000Y-113386190D01*
X176538809Y-113310000D01*
X176462619Y-113271904D01*
X195528096Y-78498781D02*
X195447284Y-78471844D01*
X195366471Y-78391032D01*
X195312597Y-78283282D01*
X195312597Y-78175532D01*
X195339534Y-78094720D01*
X195420346Y-77960033D01*
X195501158Y-77879221D01*
X195635845Y-77798409D01*
X195716658Y-77771471D01*
X195824407Y-77771471D01*
X195932157Y-77825346D01*
X195986032Y-77879221D01*
X196039906Y-77986971D01*
X196039906Y-78040845D01*
X195851345Y-78229407D01*
X195743595Y-78121658D01*
X196336218Y-78229407D02*
X195770532Y-78795093D01*
X195986032Y-79010592D01*
X196066844Y-79037529D01*
X196120719Y-79037529D01*
X196201531Y-79010592D01*
X196282343Y-78929780D01*
X196309280Y-78848967D01*
X196309280Y-78795093D01*
X196282343Y-78714280D01*
X196066844Y-78498781D01*
X196605592Y-79630152D02*
X196336218Y-79360778D01*
X196578654Y-79064467D01*
X196578654Y-79118341D01*
X196605592Y-79199154D01*
X196740279Y-79333841D01*
X196821091Y-79360778D01*
X196874966Y-79360778D01*
X196955778Y-79333841D01*
X197090465Y-79199154D01*
X197117402Y-79118341D01*
X197117402Y-79064467D01*
X197090465Y-78983654D01*
X196955778Y-78848967D01*
X196874966Y-78822030D01*
X196821091Y-78822030D01*
X195528096Y-63258781D02*
X195447284Y-63231844D01*
X195366471Y-63151032D01*
X195312597Y-63043282D01*
X195312597Y-62935532D01*
X195339534Y-62854720D01*
X195420346Y-62720033D01*
X195501158Y-62639221D01*
X195635845Y-62558409D01*
X195716658Y-62531471D01*
X195824407Y-62531471D01*
X195932157Y-62585346D01*
X195986032Y-62639221D01*
X196039906Y-62746971D01*
X196039906Y-62800845D01*
X195851345Y-62989407D01*
X195743595Y-62881658D01*
X196336218Y-62989407D02*
X195770532Y-63555093D01*
X195986032Y-63770592D01*
X196066844Y-63797529D01*
X196120719Y-63797529D01*
X196201531Y-63770592D01*
X196282343Y-63689780D01*
X196309280Y-63608967D01*
X196309280Y-63555093D01*
X196282343Y-63474280D01*
X196066844Y-63258781D01*
X196443967Y-64228528D02*
X196497842Y-64282402D01*
X196578654Y-64309340D01*
X196632529Y-64309340D01*
X196713341Y-64282402D01*
X196848028Y-64201590D01*
X196982715Y-64066903D01*
X197063528Y-63932216D01*
X197090465Y-63851404D01*
X197090465Y-63797529D01*
X197063528Y-63716717D01*
X197009653Y-63662842D01*
X196928841Y-63635905D01*
X196874966Y-63635905D01*
X196794154Y-63662842D01*
X196659467Y-63743654D01*
X196524780Y-63878341D01*
X196443967Y-64013028D01*
X196417030Y-64093841D01*
X196417030Y-64147715D01*
X196443967Y-64228528D01*
X195528096Y-73418781D02*
X195447284Y-73391844D01*
X195366471Y-73311032D01*
X195312597Y-73203282D01*
X195312597Y-73095532D01*
X195339534Y-73014720D01*
X195420346Y-72880033D01*
X195501158Y-72799221D01*
X195635845Y-72718409D01*
X195716658Y-72691471D01*
X195824407Y-72691471D01*
X195932157Y-72745346D01*
X195986032Y-72799221D01*
X196039906Y-72906971D01*
X196039906Y-72960845D01*
X195851345Y-73149407D01*
X195743595Y-73041658D01*
X196336218Y-73149407D02*
X195770532Y-73715093D01*
X195986032Y-73930592D01*
X196066844Y-73957529D01*
X196120719Y-73957529D01*
X196201531Y-73930592D01*
X196282343Y-73849780D01*
X196309280Y-73768967D01*
X196309280Y-73715093D01*
X196282343Y-73634280D01*
X196066844Y-73418781D01*
X196282343Y-74226903D02*
X196632529Y-74577089D01*
X196659467Y-74173028D01*
X196740279Y-74253841D01*
X196821091Y-74280778D01*
X196874966Y-74280778D01*
X196955778Y-74253841D01*
X197090465Y-74119154D01*
X197117402Y-74038341D01*
X197117402Y-73984467D01*
X197090465Y-73903654D01*
X196928841Y-73742030D01*
X196848028Y-73715093D01*
X196794154Y-73715093D01*
X195501158Y-106411844D02*
X195420346Y-106384906D01*
X195339534Y-106304094D01*
X195285659Y-106196345D01*
X195285659Y-106088595D01*
X195312597Y-106007783D01*
X195393409Y-105873096D01*
X195474221Y-105792284D01*
X195608908Y-105711471D01*
X195689720Y-105684534D01*
X195797470Y-105684534D01*
X195905219Y-105738409D01*
X195959094Y-105792284D01*
X196012969Y-105900033D01*
X196012969Y-105953908D01*
X195824407Y-106142470D01*
X195716658Y-106034720D01*
X196309280Y-106142470D02*
X195743595Y-106708155D01*
X196632529Y-106465719D01*
X196066844Y-107031404D01*
X196901903Y-106735093D02*
X196336218Y-107300778D01*
X196470905Y-107435465D01*
X196578654Y-107489340D01*
X196686404Y-107489340D01*
X196767216Y-107462402D01*
X196901903Y-107381590D01*
X196982715Y-107300778D01*
X197063528Y-107166091D01*
X197090465Y-107085279D01*
X197090465Y-106977529D01*
X197036590Y-106869780D01*
X196901903Y-106735093D01*
X195501158Y-68311844D02*
X195420346Y-68284906D01*
X195339534Y-68204094D01*
X195285659Y-68096345D01*
X195285659Y-67988595D01*
X195312597Y-67907783D01*
X195393409Y-67773096D01*
X195474221Y-67692284D01*
X195608908Y-67611471D01*
X195689720Y-67584534D01*
X195797470Y-67584534D01*
X195905219Y-67638409D01*
X195959094Y-67692284D01*
X196012969Y-67800033D01*
X196012969Y-67853908D01*
X195824407Y-68042470D01*
X195716658Y-67934720D01*
X196309280Y-68042470D02*
X195743595Y-68608155D01*
X196632529Y-68365719D01*
X196066844Y-68931404D01*
X196901903Y-68635093D02*
X196336218Y-69200778D01*
X196470905Y-69335465D01*
X196578654Y-69389340D01*
X196686404Y-69389340D01*
X196767216Y-69362402D01*
X196901903Y-69281590D01*
X196982715Y-69200778D01*
X197063528Y-69066091D01*
X197090465Y-68985279D01*
X197090465Y-68877529D01*
X197036590Y-68769780D01*
X196901903Y-68635093D01*
X169404722Y-98549407D02*
X169323910Y-98522470D01*
X169243097Y-98441658D01*
X169189223Y-98333908D01*
X169189223Y-98226158D01*
X169216160Y-98145346D01*
X169296972Y-98010659D01*
X169377784Y-97929847D01*
X169512471Y-97849035D01*
X169593284Y-97822097D01*
X169701033Y-97822097D01*
X169808783Y-97875972D01*
X169862658Y-97929847D01*
X169916532Y-98037597D01*
X169916532Y-98091471D01*
X169727971Y-98280033D01*
X169620221Y-98172284D01*
X170212844Y-98280033D02*
X169647158Y-98845719D01*
X169862658Y-99061218D01*
X169943470Y-99088155D01*
X169997345Y-99088155D01*
X170078157Y-99061218D01*
X170158969Y-98980406D01*
X170185906Y-98899593D01*
X170185906Y-98845719D01*
X170158969Y-98764906D01*
X169943470Y-98549407D01*
X170239781Y-99330592D02*
X170239781Y-99384467D01*
X170266719Y-99465279D01*
X170401406Y-99599966D01*
X170482218Y-99626903D01*
X170536093Y-99626903D01*
X170616905Y-99599966D01*
X170670780Y-99546091D01*
X170724654Y-99438341D01*
X170724654Y-98791844D01*
X171074841Y-99142030D01*
X170859341Y-100057902D02*
X170913216Y-100111776D01*
X170994028Y-100138714D01*
X171047903Y-100138714D01*
X171128715Y-100111776D01*
X171263402Y-100030964D01*
X171398089Y-99896277D01*
X171478902Y-99761590D01*
X171505839Y-99680778D01*
X171505839Y-99626903D01*
X171478902Y-99546091D01*
X171425027Y-99492216D01*
X171344215Y-99465279D01*
X171290340Y-99465279D01*
X171209528Y-99492216D01*
X171074841Y-99573028D01*
X170940154Y-99707715D01*
X170859341Y-99842402D01*
X170832404Y-99923215D01*
X170832404Y-99977089D01*
X170859341Y-100057902D01*
X169404722Y-101089407D02*
X169323910Y-101062470D01*
X169243097Y-100981658D01*
X169189223Y-100873908D01*
X169189223Y-100766158D01*
X169216160Y-100685346D01*
X169296972Y-100550659D01*
X169377784Y-100469847D01*
X169512471Y-100389035D01*
X169593284Y-100362097D01*
X169701033Y-100362097D01*
X169808783Y-100415972D01*
X169862658Y-100469847D01*
X169916532Y-100577597D01*
X169916532Y-100631471D01*
X169727971Y-100820033D01*
X169620221Y-100712284D01*
X170212844Y-100820033D02*
X169647158Y-101385719D01*
X169862658Y-101601218D01*
X169943470Y-101628155D01*
X169997345Y-101628155D01*
X170078157Y-101601218D01*
X170158969Y-101520406D01*
X170185906Y-101439593D01*
X170185906Y-101385719D01*
X170158969Y-101304906D01*
X169943470Y-101089407D01*
X171074841Y-101682030D02*
X170751592Y-101358781D01*
X170913216Y-101520406D02*
X170347531Y-102086091D01*
X170374468Y-101951404D01*
X170374468Y-101843654D01*
X170347531Y-101762842D01*
X171344215Y-101951404D02*
X171451964Y-102059154D01*
X171478902Y-102139966D01*
X171478902Y-102193841D01*
X171451964Y-102328528D01*
X171371152Y-102463215D01*
X171155653Y-102678714D01*
X171074841Y-102705651D01*
X171020966Y-102705651D01*
X170940154Y-102678714D01*
X170832404Y-102570964D01*
X170805467Y-102490152D01*
X170805467Y-102436277D01*
X170832404Y-102355465D01*
X170967091Y-102220778D01*
X171047903Y-102193841D01*
X171101778Y-102193841D01*
X171182590Y-102220778D01*
X171290340Y-102328528D01*
X171317277Y-102409340D01*
X171317277Y-102463215D01*
X171290340Y-102544027D01*
X195628096Y-70878781D02*
X195547284Y-70851844D01*
X195466471Y-70771032D01*
X195412597Y-70663282D01*
X195412597Y-70555532D01*
X195439534Y-70474720D01*
X195520346Y-70340033D01*
X195601158Y-70259221D01*
X195735845Y-70178409D01*
X195816658Y-70151471D01*
X195924407Y-70151471D01*
X196032157Y-70205346D01*
X196086032Y-70259221D01*
X196139906Y-70366971D01*
X196139906Y-70420845D01*
X195951345Y-70609407D01*
X195843595Y-70501658D01*
X196436218Y-70609407D02*
X195870532Y-71175093D01*
X196086032Y-71390592D01*
X196166844Y-71417529D01*
X196220719Y-71417529D01*
X196301531Y-71390592D01*
X196382343Y-71309780D01*
X196409280Y-71228967D01*
X196409280Y-71175093D01*
X196382343Y-71094280D01*
X196166844Y-70878781D01*
X196463155Y-71659966D02*
X196463155Y-71713841D01*
X196490093Y-71794653D01*
X196624780Y-71929340D01*
X196705592Y-71956277D01*
X196759467Y-71956277D01*
X196840279Y-71929340D01*
X196894154Y-71875465D01*
X196948028Y-71767715D01*
X196948028Y-71121218D01*
X197298215Y-71471404D01*
X169404722Y-103629407D02*
X169323910Y-103602470D01*
X169243097Y-103521658D01*
X169189223Y-103413908D01*
X169189223Y-103306158D01*
X169216160Y-103225346D01*
X169296972Y-103090659D01*
X169377784Y-103009847D01*
X169512471Y-102929035D01*
X169593284Y-102902097D01*
X169701033Y-102902097D01*
X169808783Y-102955972D01*
X169862658Y-103009847D01*
X169916532Y-103117597D01*
X169916532Y-103171471D01*
X169727971Y-103360033D01*
X169620221Y-103252284D01*
X170212844Y-103360033D02*
X169647158Y-103925719D01*
X169862658Y-104141218D01*
X169943470Y-104168155D01*
X169997345Y-104168155D01*
X170078157Y-104141218D01*
X170158969Y-104060406D01*
X170185906Y-103979593D01*
X170185906Y-103925719D01*
X170158969Y-103844906D01*
X169943470Y-103629407D01*
X171074841Y-104222030D02*
X170751592Y-103898781D01*
X170913216Y-104060406D02*
X170347531Y-104626091D01*
X170374468Y-104491404D01*
X170374468Y-104383654D01*
X170347531Y-104302842D01*
X171074841Y-104868528D02*
X170994028Y-104841590D01*
X170940154Y-104841590D01*
X170859341Y-104868528D01*
X170832404Y-104895465D01*
X170805467Y-104976277D01*
X170805467Y-105030152D01*
X170832404Y-105110964D01*
X170940154Y-105218714D01*
X171020966Y-105245651D01*
X171074841Y-105245651D01*
X171155653Y-105218714D01*
X171182590Y-105191776D01*
X171209528Y-105110964D01*
X171209528Y-105057089D01*
X171182590Y-104976277D01*
X171074841Y-104868528D01*
X171047903Y-104787715D01*
X171047903Y-104733841D01*
X171074841Y-104653028D01*
X171182590Y-104545279D01*
X171263402Y-104518341D01*
X171317277Y-104518341D01*
X171398089Y-104545279D01*
X171505839Y-104653028D01*
X171532776Y-104733841D01*
X171532776Y-104787715D01*
X171505839Y-104868528D01*
X171398089Y-104976277D01*
X171317277Y-105003215D01*
X171263402Y-105003215D01*
X171182590Y-104976277D01*
X195528096Y-83578781D02*
X195447284Y-83551844D01*
X195366471Y-83471032D01*
X195312597Y-83363282D01*
X195312597Y-83255532D01*
X195339534Y-83174720D01*
X195420346Y-83040033D01*
X195501158Y-82959221D01*
X195635845Y-82878409D01*
X195716658Y-82851471D01*
X195824407Y-82851471D01*
X195932157Y-82905346D01*
X195986032Y-82959221D01*
X196039906Y-83066971D01*
X196039906Y-83120845D01*
X195851345Y-83309407D01*
X195743595Y-83201658D01*
X196336218Y-83309407D02*
X195770532Y-83875093D01*
X195986032Y-84090592D01*
X196066844Y-84117529D01*
X196120719Y-84117529D01*
X196201531Y-84090592D01*
X196282343Y-84009780D01*
X196309280Y-83928967D01*
X196309280Y-83875093D01*
X196282343Y-83794280D01*
X196066844Y-83578781D01*
X196578654Y-84683215D02*
X196470905Y-84575465D01*
X196443967Y-84494653D01*
X196443967Y-84440778D01*
X196470905Y-84306091D01*
X196551717Y-84171404D01*
X196767216Y-83955905D01*
X196848028Y-83928967D01*
X196901903Y-83928967D01*
X196982715Y-83955905D01*
X197090465Y-84063654D01*
X197117402Y-84144467D01*
X197117402Y-84198341D01*
X197090465Y-84279154D01*
X196955778Y-84413841D01*
X196874966Y-84440778D01*
X196821091Y-84440778D01*
X196740279Y-84413841D01*
X196632529Y-84306091D01*
X196605592Y-84225279D01*
X196605592Y-84171404D01*
X196632529Y-84090592D01*
X169404722Y-96019407D02*
X169323910Y-95992470D01*
X169243097Y-95911658D01*
X169189223Y-95803908D01*
X169189223Y-95696158D01*
X169216160Y-95615346D01*
X169296972Y-95480659D01*
X169377784Y-95399847D01*
X169512471Y-95319035D01*
X169593284Y-95292097D01*
X169701033Y-95292097D01*
X169808783Y-95345972D01*
X169862658Y-95399847D01*
X169916532Y-95507597D01*
X169916532Y-95561471D01*
X169727971Y-95750033D01*
X169620221Y-95642284D01*
X170212844Y-95750033D02*
X169647158Y-96315719D01*
X169862658Y-96531218D01*
X169943470Y-96558155D01*
X169997345Y-96558155D01*
X170078157Y-96531218D01*
X170158969Y-96450406D01*
X170185906Y-96369593D01*
X170185906Y-96315719D01*
X170158969Y-96234906D01*
X169943470Y-96019407D01*
X170239781Y-96800592D02*
X170239781Y-96854467D01*
X170266719Y-96935279D01*
X170401406Y-97069966D01*
X170482218Y-97096903D01*
X170536093Y-97096903D01*
X170616905Y-97069966D01*
X170670780Y-97016091D01*
X170724654Y-96908341D01*
X170724654Y-96261844D01*
X171074841Y-96612030D01*
X171613589Y-97150778D02*
X171290340Y-96827529D01*
X171451964Y-96989154D02*
X170886279Y-97554839D01*
X170913216Y-97420152D01*
X170913216Y-97312402D01*
X170886279Y-97231590D01*
X169404722Y-90929407D02*
X169323910Y-90902470D01*
X169243097Y-90821658D01*
X169189223Y-90713908D01*
X169189223Y-90606158D01*
X169216160Y-90525346D01*
X169296972Y-90390659D01*
X169377784Y-90309847D01*
X169512471Y-90229035D01*
X169593284Y-90202097D01*
X169701033Y-90202097D01*
X169808783Y-90255972D01*
X169862658Y-90309847D01*
X169916532Y-90417597D01*
X169916532Y-90471471D01*
X169727971Y-90660033D01*
X169620221Y-90552284D01*
X170212844Y-90660033D02*
X169647158Y-91225719D01*
X169862658Y-91441218D01*
X169943470Y-91468155D01*
X169997345Y-91468155D01*
X170078157Y-91441218D01*
X170158969Y-91360406D01*
X170185906Y-91279593D01*
X170185906Y-91225719D01*
X170158969Y-91144906D01*
X169943470Y-90929407D01*
X170239781Y-91710592D02*
X170239781Y-91764467D01*
X170266719Y-91845279D01*
X170401406Y-91979966D01*
X170482218Y-92006903D01*
X170536093Y-92006903D01*
X170616905Y-91979966D01*
X170670780Y-91926091D01*
X170724654Y-91818341D01*
X170724654Y-91171844D01*
X171074841Y-91522030D01*
X170778529Y-92249340D02*
X170778529Y-92303215D01*
X170805467Y-92384027D01*
X170940154Y-92518714D01*
X171020966Y-92545651D01*
X171074841Y-92545651D01*
X171155653Y-92518714D01*
X171209528Y-92464839D01*
X171263402Y-92357089D01*
X171263402Y-91710592D01*
X171613589Y-92060778D01*
X195501158Y-93711844D02*
X195420346Y-93684906D01*
X195339534Y-93604094D01*
X195285659Y-93496345D01*
X195285659Y-93388595D01*
X195312597Y-93307783D01*
X195393409Y-93173096D01*
X195474221Y-93092284D01*
X195608908Y-93011471D01*
X195689720Y-92984534D01*
X195797470Y-92984534D01*
X195905219Y-93038409D01*
X195959094Y-93092284D01*
X196012969Y-93200033D01*
X196012969Y-93253908D01*
X195824407Y-93442470D01*
X195716658Y-93334720D01*
X196309280Y-93442470D02*
X195743595Y-94008155D01*
X196632529Y-93765719D01*
X196066844Y-94331404D01*
X196901903Y-94035093D02*
X196336218Y-94600778D01*
X196470905Y-94735465D01*
X196578654Y-94789340D01*
X196686404Y-94789340D01*
X196767216Y-94762402D01*
X196901903Y-94681590D01*
X196982715Y-94600778D01*
X197063528Y-94466091D01*
X197090465Y-94385279D01*
X197090465Y-94277529D01*
X197036590Y-94169780D01*
X196901903Y-94035093D01*
X195558722Y-108709407D02*
X195477910Y-108682470D01*
X195397097Y-108601658D01*
X195343223Y-108493908D01*
X195343223Y-108386158D01*
X195370160Y-108305346D01*
X195450972Y-108170659D01*
X195531784Y-108089847D01*
X195666471Y-108009035D01*
X195747284Y-107982097D01*
X195855033Y-107982097D01*
X195962783Y-108035972D01*
X196016658Y-108089847D01*
X196070532Y-108197597D01*
X196070532Y-108251471D01*
X195881971Y-108440033D01*
X195774221Y-108332284D01*
X196366844Y-108440033D02*
X195801158Y-109005719D01*
X196016658Y-109221218D01*
X196097470Y-109248155D01*
X196151345Y-109248155D01*
X196232157Y-109221218D01*
X196312969Y-109140406D01*
X196339906Y-109059593D01*
X196339906Y-109005719D01*
X196312969Y-108924906D01*
X196097470Y-108709407D01*
X197228841Y-109302030D02*
X196905592Y-108978781D01*
X197067216Y-109140406D02*
X196501531Y-109706091D01*
X196528468Y-109571404D01*
X196528468Y-109463654D01*
X196501531Y-109382842D01*
X197336590Y-110164027D02*
X197713714Y-109786903D01*
X196986404Y-110244839D02*
X197255778Y-109706091D01*
X197605964Y-110056277D01*
X168935473Y-65260033D02*
X169689720Y-64882910D01*
X169312597Y-65637157D01*
X170012969Y-65260033D02*
X170120719Y-65313908D01*
X170255406Y-65448595D01*
X170282343Y-65529407D01*
X170282343Y-65583282D01*
X170255406Y-65664094D01*
X170201531Y-65717969D01*
X170120719Y-65744906D01*
X170066844Y-65744906D01*
X169986032Y-65717969D01*
X169851345Y-65637157D01*
X169770532Y-65610219D01*
X169716658Y-65610219D01*
X169635845Y-65637157D01*
X169581971Y-65691032D01*
X169555033Y-65771844D01*
X169555033Y-65825719D01*
X169581971Y-65906531D01*
X169716658Y-66041218D01*
X169824407Y-66095093D01*
X170443967Y-66175905D02*
X170713341Y-65906531D01*
X169959094Y-66283654D02*
X170443967Y-66175905D01*
X170336218Y-66660778D01*
X171036590Y-66283654D02*
X171144340Y-66337529D01*
X171279027Y-66472216D01*
X171305964Y-66553028D01*
X171305964Y-66606903D01*
X171279027Y-66687715D01*
X171225152Y-66741590D01*
X171144340Y-66768528D01*
X171090465Y-66768528D01*
X171009653Y-66741590D01*
X170874966Y-66660778D01*
X170794154Y-66633841D01*
X170740279Y-66633841D01*
X170659467Y-66660778D01*
X170605592Y-66714653D01*
X170578654Y-66795465D01*
X170578654Y-66849340D01*
X170605592Y-66930152D01*
X170740279Y-67064839D01*
X170848028Y-67118714D01*
X195658722Y-101089407D02*
X195577910Y-101062470D01*
X195497097Y-100981658D01*
X195443223Y-100873908D01*
X195443223Y-100766158D01*
X195470160Y-100685346D01*
X195550972Y-100550659D01*
X195631784Y-100469847D01*
X195766471Y-100389035D01*
X195847284Y-100362097D01*
X195955033Y-100362097D01*
X196062783Y-100415972D01*
X196116658Y-100469847D01*
X196170532Y-100577597D01*
X196170532Y-100631471D01*
X195981971Y-100820033D01*
X195874221Y-100712284D01*
X196466844Y-100820033D02*
X195901158Y-101385719D01*
X196116658Y-101601218D01*
X196197470Y-101628155D01*
X196251345Y-101628155D01*
X196332157Y-101601218D01*
X196412969Y-101520406D01*
X196439906Y-101439593D01*
X196439906Y-101385719D01*
X196412969Y-101304906D01*
X196197470Y-101089407D01*
X197328841Y-101682030D02*
X197005592Y-101358781D01*
X197167216Y-101520406D02*
X196601531Y-102086091D01*
X196628468Y-101951404D01*
X196628468Y-101843654D01*
X196601531Y-101762842D01*
X197032529Y-102409340D02*
X197032529Y-102463215D01*
X197059467Y-102544027D01*
X197194154Y-102678714D01*
X197274966Y-102705651D01*
X197328841Y-102705651D01*
X197409653Y-102678714D01*
X197463528Y-102624839D01*
X197517402Y-102517089D01*
X197517402Y-101870592D01*
X197867589Y-102220778D01*
X195628096Y-65788781D02*
X195547284Y-65761844D01*
X195466471Y-65681032D01*
X195412597Y-65573282D01*
X195412597Y-65465532D01*
X195439534Y-65384720D01*
X195520346Y-65250033D01*
X195601158Y-65169221D01*
X195735845Y-65088409D01*
X195816658Y-65061471D01*
X195924407Y-65061471D01*
X196032157Y-65115346D01*
X196086032Y-65169221D01*
X196139906Y-65276971D01*
X196139906Y-65330845D01*
X195951345Y-65519407D01*
X195843595Y-65411658D01*
X196436218Y-65519407D02*
X195870532Y-66085093D01*
X196086032Y-66300592D01*
X196166844Y-66327529D01*
X196220719Y-66327529D01*
X196301531Y-66300592D01*
X196382343Y-66219780D01*
X196409280Y-66138967D01*
X196409280Y-66085093D01*
X196382343Y-66004280D01*
X196166844Y-65788781D01*
X197298215Y-66381404D02*
X196974966Y-66058155D01*
X197136590Y-66219780D02*
X196570905Y-66785465D01*
X196597842Y-66650778D01*
X196597842Y-66543028D01*
X196570905Y-66462216D01*
X195512722Y-96009407D02*
X195431910Y-95982470D01*
X195351097Y-95901658D01*
X195297223Y-95793908D01*
X195297223Y-95686158D01*
X195324160Y-95605346D01*
X195404972Y-95470659D01*
X195485784Y-95389847D01*
X195620471Y-95309035D01*
X195701284Y-95282097D01*
X195809033Y-95282097D01*
X195916783Y-95335972D01*
X195970658Y-95389847D01*
X196024532Y-95497597D01*
X196024532Y-95551471D01*
X195835971Y-95740033D01*
X195728221Y-95632284D01*
X196320844Y-95740033D02*
X195755158Y-96305719D01*
X195970658Y-96521218D01*
X196051470Y-96548155D01*
X196105345Y-96548155D01*
X196186157Y-96521218D01*
X196266969Y-96440406D01*
X196293906Y-96359593D01*
X196293906Y-96305719D01*
X196266969Y-96224906D01*
X196051470Y-96009407D01*
X197182841Y-96602030D02*
X196859592Y-96278781D01*
X197021216Y-96440406D02*
X196455531Y-97006091D01*
X196482468Y-96871404D01*
X196482468Y-96763654D01*
X196455531Y-96682842D01*
X196967341Y-97517902D02*
X197021216Y-97571776D01*
X197102028Y-97598714D01*
X197155903Y-97598714D01*
X197236715Y-97571776D01*
X197371402Y-97490964D01*
X197506089Y-97356277D01*
X197586902Y-97221590D01*
X197613839Y-97140778D01*
X197613839Y-97086903D01*
X197586902Y-97006091D01*
X197533027Y-96952216D01*
X197452215Y-96925279D01*
X197398340Y-96925279D01*
X197317528Y-96952216D01*
X197182841Y-97033028D01*
X197048154Y-97167715D01*
X196967341Y-97302402D01*
X196940404Y-97383215D01*
X196940404Y-97437089D01*
X196967341Y-97517902D01*
X170253375Y-88106564D02*
X169795439Y-88187377D01*
X169930126Y-87783316D02*
X169364441Y-88349001D01*
X169579940Y-88564500D01*
X169660752Y-88591438D01*
X169714627Y-88591438D01*
X169795439Y-88564500D01*
X169876251Y-88483688D01*
X169903189Y-88402876D01*
X169903189Y-88349001D01*
X169876251Y-88268189D01*
X169660752Y-88052690D01*
X169930126Y-88914687D02*
X170388062Y-88456751D01*
X170468874Y-88429813D01*
X170522749Y-88429813D01*
X170603561Y-88456751D01*
X170711311Y-88564500D01*
X170738248Y-88645312D01*
X170738248Y-88699187D01*
X170711311Y-88779999D01*
X170253375Y-89237935D01*
X171088435Y-88941624D02*
X170522749Y-89507309D01*
X171411683Y-89264873D01*
X170845998Y-89830558D01*
X169404722Y-83319407D02*
X169323910Y-83292470D01*
X169243097Y-83211658D01*
X169189223Y-83103908D01*
X169189223Y-82996158D01*
X169216160Y-82915346D01*
X169296972Y-82780659D01*
X169377784Y-82699847D01*
X169512471Y-82619035D01*
X169593284Y-82592097D01*
X169701033Y-82592097D01*
X169808783Y-82645972D01*
X169862658Y-82699847D01*
X169916532Y-82807597D01*
X169916532Y-82861471D01*
X169727971Y-83050033D01*
X169620221Y-82942284D01*
X170212844Y-83050033D02*
X169647158Y-83615719D01*
X169862658Y-83831218D01*
X169943470Y-83858155D01*
X169997345Y-83858155D01*
X170078157Y-83831218D01*
X170158969Y-83750406D01*
X170185906Y-83669593D01*
X170185906Y-83615719D01*
X170158969Y-83534906D01*
X169943470Y-83319407D01*
X170239781Y-84100592D02*
X170239781Y-84154467D01*
X170266719Y-84235279D01*
X170401406Y-84369966D01*
X170482218Y-84396903D01*
X170536093Y-84396903D01*
X170616905Y-84369966D01*
X170670780Y-84316091D01*
X170724654Y-84208341D01*
X170724654Y-83561844D01*
X171074841Y-83912030D01*
X170697717Y-84666277D02*
X171074841Y-85043401D01*
X171398089Y-84235279D01*
D11*
X172915000Y-92410000D02*
X172915000Y-92810000D01*
X193915000Y-64410000D02*
X193915000Y-64810000D01*
X193915000Y-67010000D02*
X193915000Y-67410000D01*
X172915000Y-97510000D02*
X172915000Y-97910000D01*
X187115000Y-113010000D02*
X193915000Y-113010000D01*
X172915000Y-87310000D02*
X172915000Y-87710000D01*
X172915000Y-110210000D02*
X172915000Y-110610000D01*
X172915000Y-64410000D02*
X172915000Y-64810000D01*
X190908000Y-64677000D02*
X190908000Y-62010000D01*
X172915000Y-82210000D02*
X172915000Y-82610000D01*
X193915000Y-62010000D02*
X172915000Y-62010000D01*
X193915000Y-107610000D02*
X193915000Y-108010000D01*
X193915000Y-84810000D02*
X193915000Y-85210000D01*
X193915000Y-110210000D02*
X193915000Y-110610000D01*
X193915000Y-72110000D02*
X193915000Y-72510000D01*
X193915000Y-82210000D02*
X193915000Y-82610000D01*
X172915000Y-84810000D02*
X172915000Y-85210000D01*
X172915000Y-113010000D02*
X179715000Y-113010000D01*
X172915000Y-72110000D02*
X172915000Y-72510000D01*
X193915000Y-94910000D02*
X193915000Y-95310000D01*
X193915000Y-64677000D02*
X190908000Y-64677000D01*
X193915000Y-79710000D02*
X193915000Y-80110000D01*
X193915000Y-92410000D02*
X193915000Y-92810000D01*
X184915000Y-113010000D02*
X184515000Y-113010000D01*
X193915000Y-74610000D02*
X193915000Y-75010000D01*
X172915000Y-67010000D02*
X172915000Y-67410000D01*
X193915000Y-102610000D02*
X193915000Y-103010000D01*
X182315000Y-113010000D02*
X181915000Y-113010000D01*
X172915000Y-74610000D02*
X172915000Y-75010000D01*
X193915000Y-97510000D02*
X193915000Y-97910000D01*
X172915000Y-89810000D02*
X172915000Y-90210000D01*
X193915000Y-77110000D02*
X193915000Y-77510000D01*
X193915000Y-87310000D02*
X193915000Y-87710000D01*
X193915000Y-105110000D02*
X193915000Y-105510000D01*
X193915000Y-100010000D02*
X193915000Y-100410000D01*
X172915000Y-94910000D02*
X172915000Y-95310000D01*
X172915000Y-77110000D02*
X172915000Y-77510000D01*
X172915000Y-105110000D02*
X172915000Y-105510000D01*
X172915000Y-79710000D02*
X172915000Y-80110000D01*
X193915000Y-62010000D02*
X193915000Y-62310000D01*
X172915000Y-107610000D02*
X172915000Y-108010000D01*
X172915000Y-100010000D02*
X172915000Y-100410000D01*
X172915000Y-69510000D02*
X172915000Y-69910000D01*
X193915000Y-89810000D02*
X193915000Y-90210000D01*
X172915000Y-62010000D02*
X172915000Y-62310000D01*
X193915000Y-69510000D02*
X193915000Y-69910000D01*
X172915000Y-102610000D02*
X172915000Y-103010000D01*
%TD*%
M02*
