%TF.GenerationSoftware,KiCad,Pcbnew,(6.0.4)*%
%TF.CreationDate,2022-05-22T21:51:38-03:00*%
%TF.ProjectId,G-Code_Keeb_tact,472d436f-6465-45f4-9b65-65625f746163,1*%
%TF.SameCoordinates,Original*%
%TF.FileFunction,Legend,Top*%
%TF.FilePolarity,Positive*%
%FSLAX46Y46*%
G04 Gerber Fmt 4.6, Leading zero omitted, Abs format (unit mm)*
G04 Created by KiCad (PCBNEW (6.0.4)) date 2022-05-22 21:51:38*
%MOMM*%
%LPD*%
G01*
G04 APERTURE LIST*
%ADD10C,0.150000*%
%ADD11C,0.300000*%
%ADD12C,0.120000*%
G04 APERTURE END LIST*
D10*
X128673690Y-111889904D02*
X128292738Y-111889904D01*
X128392738Y-111089904D01*
X128940357Y-111889904D02*
X129007023Y-111356571D01*
X129040357Y-111089904D02*
X128997500Y-111128000D01*
X129030833Y-111166095D01*
X129073690Y-111128000D01*
X129040357Y-111089904D01*
X129030833Y-111166095D01*
X129668928Y-111851809D02*
X129587976Y-111889904D01*
X129435595Y-111889904D01*
X129364166Y-111851809D01*
X129330833Y-111813714D01*
X129302261Y-111737523D01*
X129330833Y-111508952D01*
X129378452Y-111432761D01*
X129421309Y-111394666D01*
X129502261Y-111356571D01*
X129654642Y-111356571D01*
X129726071Y-111394666D01*
X130316547Y-111851809D02*
X130235595Y-111889904D01*
X130083214Y-111889904D01*
X130011785Y-111851809D01*
X129983214Y-111775619D01*
X130021309Y-111470857D01*
X130068928Y-111394666D01*
X130149880Y-111356571D01*
X130302261Y-111356571D01*
X130373690Y-111394666D01*
X130402261Y-111470857D01*
X130392738Y-111547047D01*
X130002261Y-111623238D01*
X130759404Y-111356571D02*
X130692738Y-111889904D01*
X130749880Y-111432761D02*
X130792738Y-111394666D01*
X130873690Y-111356571D01*
X130987976Y-111356571D01*
X131059404Y-111394666D01*
X131087976Y-111470857D01*
X131035595Y-111889904D01*
X131383214Y-111851809D02*
X131454642Y-111889904D01*
X131607023Y-111889904D01*
X131687976Y-111851809D01*
X131735595Y-111775619D01*
X131740357Y-111737523D01*
X131711785Y-111661333D01*
X131640357Y-111623238D01*
X131526071Y-111623238D01*
X131454642Y-111585142D01*
X131426071Y-111508952D01*
X131430833Y-111470857D01*
X131478452Y-111394666D01*
X131559404Y-111356571D01*
X131673690Y-111356571D01*
X131745119Y-111394666D01*
X132373690Y-111851809D02*
X132292738Y-111889904D01*
X132140357Y-111889904D01*
X132068928Y-111851809D01*
X132040357Y-111775619D01*
X132078452Y-111470857D01*
X132126071Y-111394666D01*
X132207023Y-111356571D01*
X132359404Y-111356571D01*
X132430833Y-111394666D01*
X132459404Y-111470857D01*
X132449880Y-111547047D01*
X132059404Y-111623238D01*
X133092738Y-111889904D02*
X133192738Y-111089904D01*
X133097500Y-111851809D02*
X133016547Y-111889904D01*
X132864166Y-111889904D01*
X132792738Y-111851809D01*
X132759404Y-111813714D01*
X132730833Y-111737523D01*
X132759404Y-111508952D01*
X132807023Y-111432761D01*
X132849880Y-111394666D01*
X132930833Y-111356571D01*
X133083214Y-111356571D01*
X133154642Y-111394666D01*
X134492738Y-111356571D02*
X134426071Y-111889904D01*
X134149880Y-111356571D02*
X134097500Y-111775619D01*
X134126071Y-111851809D01*
X134197500Y-111889904D01*
X134311785Y-111889904D01*
X134392738Y-111851809D01*
X134435595Y-111813714D01*
X134873690Y-111356571D02*
X134807023Y-111889904D01*
X134864166Y-111432761D02*
X134907023Y-111394666D01*
X134987976Y-111356571D01*
X135102261Y-111356571D01*
X135173690Y-111394666D01*
X135202261Y-111470857D01*
X135149880Y-111889904D01*
X135873690Y-111889904D02*
X135973690Y-111089904D01*
X135878452Y-111851809D02*
X135797500Y-111889904D01*
X135645119Y-111889904D01*
X135573690Y-111851809D01*
X135540357Y-111813714D01*
X135511785Y-111737523D01*
X135540357Y-111508952D01*
X135587976Y-111432761D01*
X135630833Y-111394666D01*
X135711785Y-111356571D01*
X135864166Y-111356571D01*
X135935595Y-111394666D01*
X136564166Y-111851809D02*
X136483214Y-111889904D01*
X136330833Y-111889904D01*
X136259404Y-111851809D01*
X136230833Y-111775619D01*
X136268928Y-111470857D01*
X136316547Y-111394666D01*
X136397500Y-111356571D01*
X136549880Y-111356571D01*
X136621309Y-111394666D01*
X136649880Y-111470857D01*
X136640357Y-111547047D01*
X136249880Y-111623238D01*
X136940357Y-111889904D02*
X137007023Y-111356571D01*
X136987976Y-111508952D02*
X137035595Y-111432761D01*
X137078452Y-111394666D01*
X137159404Y-111356571D01*
X137235595Y-111356571D01*
X138511785Y-111813714D02*
X138468928Y-111851809D01*
X138349880Y-111889904D01*
X138273690Y-111889904D01*
X138164166Y-111851809D01*
X138097500Y-111775619D01*
X138068928Y-111699428D01*
X138049880Y-111547047D01*
X138064166Y-111432761D01*
X138121309Y-111280380D01*
X138168928Y-111204190D01*
X138254642Y-111128000D01*
X138373690Y-111089904D01*
X138449880Y-111089904D01*
X138559404Y-111128000D01*
X138592738Y-111166095D01*
X138897500Y-111470857D02*
X139164166Y-111470857D01*
X139226071Y-111889904D02*
X138845119Y-111889904D01*
X138945119Y-111089904D01*
X139326071Y-111089904D01*
X140026071Y-111889904D02*
X139807023Y-111508952D01*
X139568928Y-111889904D02*
X139668928Y-111089904D01*
X139973690Y-111089904D01*
X140045119Y-111128000D01*
X140078452Y-111166095D01*
X140107023Y-111242285D01*
X140092738Y-111356571D01*
X140045119Y-111432761D01*
X140002261Y-111470857D01*
X139921309Y-111508952D01*
X139616547Y-111508952D01*
X140368928Y-111889904D02*
X140468928Y-111089904D01*
X140826071Y-111889904D01*
X140926071Y-111089904D01*
X141245119Y-111585142D02*
X141854642Y-111585142D01*
X142449880Y-111089904D02*
X142602261Y-111089904D01*
X142673690Y-111128000D01*
X142740357Y-111204190D01*
X142759404Y-111356571D01*
X142726071Y-111623238D01*
X142668928Y-111775619D01*
X142583214Y-111851809D01*
X142502261Y-111889904D01*
X142349880Y-111889904D01*
X142278452Y-111851809D01*
X142211785Y-111775619D01*
X142192738Y-111623238D01*
X142226071Y-111356571D01*
X142283214Y-111204190D01*
X142368928Y-111128000D01*
X142449880Y-111089904D01*
X143035595Y-111889904D02*
X143135595Y-111089904D01*
X143087976Y-111470857D02*
X143545119Y-111470857D01*
X143492738Y-111889904D02*
X143592738Y-111089904D01*
X144254642Y-111889904D02*
X143873690Y-111889904D01*
X143973690Y-111089904D01*
X144559404Y-111585142D02*
X145168928Y-111585142D01*
X145478452Y-111851809D02*
X145587976Y-111889904D01*
X145778452Y-111889904D01*
X145859404Y-111851809D01*
X145902261Y-111813714D01*
X145949880Y-111737523D01*
X145959404Y-111661333D01*
X145930833Y-111585142D01*
X145897500Y-111547047D01*
X145826071Y-111508952D01*
X145678452Y-111470857D01*
X145607023Y-111432761D01*
X145573690Y-111394666D01*
X145545119Y-111318476D01*
X145554642Y-111242285D01*
X145602261Y-111166095D01*
X145645119Y-111128000D01*
X145726071Y-111089904D01*
X145916547Y-111089904D01*
X146026071Y-111128000D01*
X146873690Y-111356571D02*
X146997500Y-111889904D01*
X147254642Y-111356571D01*
X147545119Y-111166095D02*
X147587976Y-111128000D01*
X147668928Y-111089904D01*
X147859404Y-111089904D01*
X147930833Y-111128000D01*
X147964166Y-111166095D01*
X147992738Y-111242285D01*
X147983214Y-111318476D01*
X147930833Y-111432761D01*
X147416547Y-111889904D01*
X147911785Y-111889904D01*
X128292738Y-113177904D02*
X128392738Y-112377904D01*
X128635595Y-113177904D02*
X128687976Y-112758857D01*
X128659404Y-112682666D01*
X128587976Y-112644571D01*
X128473690Y-112644571D01*
X128392738Y-112682666D01*
X128349880Y-112720761D01*
X128968928Y-112644571D02*
X129273690Y-112644571D01*
X129116547Y-112377904D02*
X129030833Y-113063619D01*
X129059404Y-113139809D01*
X129130833Y-113177904D01*
X129207023Y-113177904D01*
X129426071Y-112644571D02*
X129730833Y-112644571D01*
X129573690Y-112377904D02*
X129487976Y-113063619D01*
X129516547Y-113139809D01*
X129587976Y-113177904D01*
X129664166Y-113177904D01*
X129997500Y-112644571D02*
X129897500Y-113444571D01*
X129992738Y-112682666D02*
X130073690Y-112644571D01*
X130226071Y-112644571D01*
X130297500Y-112682666D01*
X130330833Y-112720761D01*
X130359404Y-112796952D01*
X130330833Y-113025523D01*
X130283214Y-113101714D01*
X130240357Y-113139809D01*
X130159404Y-113177904D01*
X130007023Y-113177904D01*
X129935595Y-113139809D01*
X130621309Y-113139809D02*
X130692738Y-113177904D01*
X130845119Y-113177904D01*
X130926071Y-113139809D01*
X130973690Y-113063619D01*
X130978452Y-113025523D01*
X130949880Y-112949333D01*
X130878452Y-112911238D01*
X130764166Y-112911238D01*
X130692738Y-112873142D01*
X130664166Y-112796952D01*
X130668928Y-112758857D01*
X130716547Y-112682666D01*
X130797500Y-112644571D01*
X130911785Y-112644571D01*
X130983214Y-112682666D01*
X131311785Y-113101714D02*
X131345119Y-113139809D01*
X131302261Y-113177904D01*
X131268928Y-113139809D01*
X131311785Y-113101714D01*
X131302261Y-113177904D01*
X131364166Y-112682666D02*
X131397500Y-112720761D01*
X131354642Y-112758857D01*
X131321309Y-112720761D01*
X131364166Y-112682666D01*
X131354642Y-112758857D01*
X132359404Y-112339809D02*
X131545119Y-113368380D01*
X133197500Y-112339809D02*
X132383214Y-113368380D01*
X133768928Y-112644571D02*
X133687976Y-113292190D01*
X133640357Y-113368380D01*
X133597500Y-113406476D01*
X133516547Y-113444571D01*
X133402261Y-113444571D01*
X133330833Y-113406476D01*
X133707023Y-113139809D02*
X133626071Y-113177904D01*
X133473690Y-113177904D01*
X133402261Y-113139809D01*
X133368928Y-113101714D01*
X133340357Y-113025523D01*
X133368928Y-112796952D01*
X133416547Y-112720761D01*
X133459404Y-112682666D01*
X133540357Y-112644571D01*
X133692738Y-112644571D01*
X133764166Y-112682666D01*
X134083214Y-113177904D02*
X134149880Y-112644571D01*
X134183214Y-112377904D02*
X134140357Y-112416000D01*
X134173690Y-112454095D01*
X134216547Y-112416000D01*
X134183214Y-112377904D01*
X134173690Y-112454095D01*
X134416547Y-112644571D02*
X134721309Y-112644571D01*
X134564166Y-112377904D02*
X134478452Y-113063619D01*
X134507023Y-113139809D01*
X134578452Y-113177904D01*
X134654642Y-113177904D01*
X134921309Y-113177904D02*
X135021309Y-112377904D01*
X135264166Y-113177904D02*
X135316547Y-112758857D01*
X135287976Y-112682666D01*
X135216547Y-112644571D01*
X135102261Y-112644571D01*
X135021309Y-112682666D01*
X134978452Y-112720761D01*
X136054642Y-112644571D02*
X135987976Y-113177904D01*
X135711785Y-112644571D02*
X135659404Y-113063619D01*
X135687976Y-113139809D01*
X135759404Y-113177904D01*
X135873690Y-113177904D01*
X135954642Y-113139809D01*
X135997500Y-113101714D01*
X136368928Y-113177904D02*
X136468928Y-112377904D01*
X136430833Y-112682666D02*
X136511785Y-112644571D01*
X136664166Y-112644571D01*
X136735595Y-112682666D01*
X136768928Y-112720761D01*
X136797500Y-112796952D01*
X136768928Y-113025523D01*
X136721309Y-113101714D01*
X136678452Y-113139809D01*
X136597500Y-113177904D01*
X136445119Y-113177904D01*
X136373690Y-113139809D01*
X137102261Y-113101714D02*
X137135595Y-113139809D01*
X137092738Y-113177904D01*
X137059404Y-113139809D01*
X137102261Y-113101714D01*
X137092738Y-113177904D01*
X137821309Y-113139809D02*
X137740357Y-113177904D01*
X137587976Y-113177904D01*
X137516547Y-113139809D01*
X137483214Y-113101714D01*
X137454642Y-113025523D01*
X137483214Y-112796952D01*
X137530833Y-112720761D01*
X137573690Y-112682666D01*
X137654642Y-112644571D01*
X137807023Y-112644571D01*
X137878452Y-112682666D01*
X138273690Y-113177904D02*
X138202261Y-113139809D01*
X138168928Y-113101714D01*
X138140357Y-113025523D01*
X138168928Y-112796952D01*
X138216547Y-112720761D01*
X138259404Y-112682666D01*
X138340357Y-112644571D01*
X138454642Y-112644571D01*
X138526071Y-112682666D01*
X138559404Y-112720761D01*
X138587976Y-112796952D01*
X138559404Y-113025523D01*
X138511785Y-113101714D01*
X138468928Y-113139809D01*
X138387976Y-113177904D01*
X138273690Y-113177904D01*
X138883214Y-113177904D02*
X138949880Y-112644571D01*
X138940357Y-112720761D02*
X138983214Y-112682666D01*
X139064166Y-112644571D01*
X139178452Y-112644571D01*
X139249880Y-112682666D01*
X139278452Y-112758857D01*
X139226071Y-113177904D01*
X139278452Y-112758857D02*
X139326071Y-112682666D01*
X139407023Y-112644571D01*
X139521309Y-112644571D01*
X139592738Y-112682666D01*
X139621309Y-112758857D01*
X139568928Y-113177904D01*
X140626071Y-112339809D02*
X139811785Y-113368380D01*
X140773690Y-112377904D02*
X140940357Y-113177904D01*
X141307023Y-112377904D01*
X141473690Y-113177904D02*
X141540357Y-112644571D01*
X141573690Y-112377904D02*
X141530833Y-112416000D01*
X141564166Y-112454095D01*
X141607023Y-112416000D01*
X141573690Y-112377904D01*
X141564166Y-112454095D01*
X141921309Y-112644571D02*
X141854642Y-113177904D01*
X141911785Y-112720761D02*
X141954642Y-112682666D01*
X142035595Y-112644571D01*
X142149880Y-112644571D01*
X142221309Y-112682666D01*
X142249880Y-112758857D01*
X142197500Y-113177904D01*
X142645119Y-112644571D02*
X142578452Y-113177904D01*
X142635595Y-112720761D02*
X142678452Y-112682666D01*
X142759404Y-112644571D01*
X142873690Y-112644571D01*
X142945119Y-112682666D01*
X142973690Y-112758857D01*
X142921309Y-113177904D01*
X143292738Y-112644571D02*
X143416547Y-113177904D01*
X143673690Y-112644571D02*
X143416547Y-113177904D01*
X143316547Y-113368380D01*
X143273690Y-113406476D01*
X143192738Y-113444571D01*
X144378452Y-113101714D02*
X144335595Y-113139809D01*
X144216547Y-113177904D01*
X144140357Y-113177904D01*
X144030833Y-113139809D01*
X143964166Y-113063619D01*
X143935595Y-112987428D01*
X143916547Y-112835047D01*
X143930833Y-112720761D01*
X143987976Y-112568380D01*
X144035595Y-112492190D01*
X144121309Y-112416000D01*
X144240357Y-112377904D01*
X144316547Y-112377904D01*
X144426071Y-112416000D01*
X144459404Y-112454095D01*
X144826071Y-113177904D02*
X144754642Y-113139809D01*
X144721309Y-113101714D01*
X144692738Y-113025523D01*
X144721309Y-112796952D01*
X144768928Y-112720761D01*
X144811785Y-112682666D01*
X144892738Y-112644571D01*
X145007023Y-112644571D01*
X145078452Y-112682666D01*
X145111785Y-112720761D01*
X145140357Y-112796952D01*
X145111785Y-113025523D01*
X145064166Y-113101714D01*
X145021309Y-113139809D01*
X144940357Y-113177904D01*
X144826071Y-113177904D01*
X145435595Y-113177904D02*
X145502261Y-112644571D01*
X145483214Y-112796952D02*
X145530833Y-112720761D01*
X145573690Y-112682666D01*
X145654642Y-112644571D01*
X145730833Y-112644571D01*
X146273690Y-113177904D02*
X146373690Y-112377904D01*
X146278452Y-113139809D02*
X146197500Y-113177904D01*
X146045119Y-113177904D01*
X145973690Y-113139809D01*
X145940357Y-113101714D01*
X145911785Y-113025523D01*
X145940357Y-112796952D01*
X145987976Y-112720761D01*
X146030833Y-112682666D01*
X146111785Y-112644571D01*
X146264166Y-112644571D01*
X146335595Y-112682666D01*
X146964166Y-113139809D02*
X146883214Y-113177904D01*
X146730833Y-113177904D01*
X146659404Y-113139809D01*
X146630833Y-113063619D01*
X146668928Y-112758857D01*
X146716547Y-112682666D01*
X146797500Y-112644571D01*
X146949880Y-112644571D01*
X147021309Y-112682666D01*
X147049880Y-112758857D01*
X147040357Y-112835047D01*
X146649880Y-112911238D01*
X147340357Y-113177904D02*
X147407023Y-112644571D01*
X147440357Y-112377904D02*
X147397500Y-112416000D01*
X147430833Y-112454095D01*
X147473690Y-112416000D01*
X147440357Y-112377904D01*
X147430833Y-112454095D01*
X147721309Y-113177904D02*
X147787976Y-112644571D01*
X147768928Y-112796952D02*
X147816547Y-112720761D01*
X147859404Y-112682666D01*
X147940357Y-112644571D01*
X148016547Y-112644571D01*
X148330833Y-113177904D02*
X148259404Y-113139809D01*
X148226071Y-113101714D01*
X148197500Y-113025523D01*
X148226071Y-112796952D01*
X148273690Y-112720761D01*
X148316547Y-112682666D01*
X148397500Y-112644571D01*
X148511785Y-112644571D01*
X148583214Y-112682666D01*
X148616547Y-112720761D01*
X148645119Y-112796952D01*
X148616547Y-113025523D01*
X148568928Y-113101714D01*
X148526071Y-113139809D01*
X148445119Y-113177904D01*
X148330833Y-113177904D01*
X149616547Y-112339809D02*
X148802261Y-113368380D01*
X150187976Y-112644571D02*
X150107023Y-113292190D01*
X150059404Y-113368380D01*
X150016547Y-113406476D01*
X149935595Y-113444571D01*
X149821309Y-113444571D01*
X149749880Y-113406476D01*
X150126071Y-113139809D02*
X150045119Y-113177904D01*
X149892738Y-113177904D01*
X149821309Y-113139809D01*
X149787976Y-113101714D01*
X149759404Y-113025523D01*
X149787976Y-112796952D01*
X149835595Y-112720761D01*
X149878452Y-112682666D01*
X149959404Y-112644571D01*
X150111785Y-112644571D01*
X150183214Y-112682666D01*
X150540357Y-112873142D02*
X151149880Y-112873142D01*
X151840357Y-113139809D02*
X151759404Y-113177904D01*
X151607023Y-113177904D01*
X151535595Y-113139809D01*
X151502261Y-113101714D01*
X151473690Y-113025523D01*
X151502261Y-112796952D01*
X151549880Y-112720761D01*
X151592738Y-112682666D01*
X151673690Y-112644571D01*
X151826071Y-112644571D01*
X151897500Y-112682666D01*
X152292738Y-113177904D02*
X152221309Y-113139809D01*
X152187976Y-113101714D01*
X152159404Y-113025523D01*
X152187976Y-112796952D01*
X152235595Y-112720761D01*
X152278452Y-112682666D01*
X152359404Y-112644571D01*
X152473690Y-112644571D01*
X152545119Y-112682666D01*
X152578452Y-112720761D01*
X152607023Y-112796952D01*
X152578452Y-113025523D01*
X152530833Y-113101714D01*
X152487976Y-113139809D01*
X152407023Y-113177904D01*
X152292738Y-113177904D01*
X153245119Y-113177904D02*
X153345119Y-112377904D01*
X153249880Y-113139809D02*
X153168928Y-113177904D01*
X153016547Y-113177904D01*
X152945119Y-113139809D01*
X152911785Y-113101714D01*
X152883214Y-113025523D01*
X152911785Y-112796952D01*
X152959404Y-112720761D01*
X153002261Y-112682666D01*
X153083214Y-112644571D01*
X153235595Y-112644571D01*
X153307023Y-112682666D01*
X153935595Y-113139809D02*
X153854642Y-113177904D01*
X153702261Y-113177904D01*
X153630833Y-113139809D01*
X153602261Y-113063619D01*
X153640357Y-112758857D01*
X153687976Y-112682666D01*
X153768928Y-112644571D01*
X153921309Y-112644571D01*
X153992738Y-112682666D01*
X154021309Y-112758857D01*
X154011785Y-112835047D01*
X153621309Y-112911238D01*
X154111785Y-113254095D02*
X154721309Y-113254095D01*
X154921309Y-113177904D02*
X155021309Y-112377904D01*
X155035595Y-112873142D02*
X155226071Y-113177904D01*
X155292738Y-112644571D02*
X154949880Y-112949333D01*
X155878452Y-113139809D02*
X155797500Y-113177904D01*
X155645119Y-113177904D01*
X155573690Y-113139809D01*
X155545119Y-113063619D01*
X155583214Y-112758857D01*
X155630833Y-112682666D01*
X155711785Y-112644571D01*
X155864166Y-112644571D01*
X155935595Y-112682666D01*
X155964166Y-112758857D01*
X155954642Y-112835047D01*
X155564166Y-112911238D01*
X156564166Y-113139809D02*
X156483214Y-113177904D01*
X156330833Y-113177904D01*
X156259404Y-113139809D01*
X156230833Y-113063619D01*
X156268928Y-112758857D01*
X156316547Y-112682666D01*
X156397500Y-112644571D01*
X156549880Y-112644571D01*
X156621309Y-112682666D01*
X156649880Y-112758857D01*
X156640357Y-112835047D01*
X156249880Y-112911238D01*
X156940357Y-113177904D02*
X157040357Y-112377904D01*
X157002261Y-112682666D02*
X157083214Y-112644571D01*
X157235595Y-112644571D01*
X157307023Y-112682666D01*
X157340357Y-112720761D01*
X157368928Y-112796952D01*
X157340357Y-113025523D01*
X157292738Y-113101714D01*
X157249880Y-113139809D01*
X157168928Y-113177904D01*
X157016547Y-113177904D01*
X156945119Y-113139809D01*
X158340357Y-112339809D02*
X157526071Y-113368380D01*
X129016547Y-115144380D02*
X128945119Y-115106285D01*
X128792738Y-115106285D01*
X128711785Y-115144380D01*
X128626071Y-115220571D01*
X128578452Y-115296761D01*
X128559404Y-115449142D01*
X128587976Y-115525333D01*
X128654642Y-115601523D01*
X128726071Y-115639619D01*
X128878452Y-115639619D01*
X128959404Y-115601523D01*
X128902261Y-114839619D02*
X128707023Y-114877714D01*
X128502261Y-114992000D01*
X128364166Y-115182476D01*
X128302261Y-115372952D01*
X128316547Y-115563428D01*
X128407023Y-115753904D01*
X128583214Y-115868190D01*
X128768928Y-115906285D01*
X128964166Y-115868190D01*
X129168928Y-115753904D01*
X129307023Y-115563428D01*
X129368928Y-115372952D01*
X129354642Y-115182476D01*
X129264166Y-114992000D01*
X129087976Y-114877714D01*
X128902261Y-114839619D01*
X130259404Y-114953904D02*
X130426071Y-115753904D01*
X130792738Y-114953904D01*
X130959404Y-115753904D02*
X131026071Y-115220571D01*
X131059404Y-114953904D02*
X131016547Y-114992000D01*
X131049880Y-115030095D01*
X131092738Y-114992000D01*
X131059404Y-114953904D01*
X131049880Y-115030095D01*
X131407023Y-115220571D02*
X131340357Y-115753904D01*
X131397500Y-115296761D02*
X131440357Y-115258666D01*
X131521309Y-115220571D01*
X131635595Y-115220571D01*
X131707023Y-115258666D01*
X131735595Y-115334857D01*
X131683214Y-115753904D01*
X132064166Y-115753904D02*
X132130833Y-115220571D01*
X132245119Y-114915809D02*
X132116547Y-115030095D01*
X132792738Y-115715809D02*
X132711785Y-115753904D01*
X132559404Y-115753904D01*
X132487976Y-115715809D01*
X132454642Y-115677714D01*
X132426071Y-115601523D01*
X132454642Y-115372952D01*
X132502261Y-115296761D01*
X132545119Y-115258666D01*
X132626071Y-115220571D01*
X132778452Y-115220571D01*
X132849880Y-115258666D01*
X133130833Y-115753904D02*
X133197500Y-115220571D01*
X133230833Y-114953904D02*
X133187976Y-114992000D01*
X133221309Y-115030095D01*
X133264166Y-114992000D01*
X133230833Y-114953904D01*
X133221309Y-115030095D01*
X133921309Y-115220571D02*
X133854642Y-115753904D01*
X133578452Y-115220571D02*
X133526071Y-115639619D01*
X133554642Y-115715809D01*
X133626071Y-115753904D01*
X133740357Y-115753904D01*
X133821309Y-115715809D01*
X133864166Y-115677714D01*
X134202261Y-115715809D02*
X134273690Y-115753904D01*
X134426071Y-115753904D01*
X134507023Y-115715809D01*
X134554642Y-115639619D01*
X134559404Y-115601523D01*
X134530833Y-115525333D01*
X134459404Y-115487238D01*
X134345119Y-115487238D01*
X134273690Y-115449142D01*
X134245119Y-115372952D01*
X134249880Y-115334857D01*
X134297500Y-115258666D01*
X134378452Y-115220571D01*
X134492738Y-115220571D01*
X134564166Y-115258666D01*
X135959404Y-115677714D02*
X135916547Y-115715809D01*
X135797500Y-115753904D01*
X135721309Y-115753904D01*
X135611785Y-115715809D01*
X135545119Y-115639619D01*
X135516547Y-115563428D01*
X135497500Y-115411047D01*
X135511785Y-115296761D01*
X135568928Y-115144380D01*
X135616547Y-115068190D01*
X135702261Y-114992000D01*
X135821309Y-114953904D01*
X135897500Y-114953904D01*
X136007023Y-114992000D01*
X136040357Y-115030095D01*
X136407023Y-115753904D02*
X136335595Y-115715809D01*
X136302261Y-115677714D01*
X136273690Y-115601523D01*
X136302261Y-115372952D01*
X136349880Y-115296761D01*
X136392738Y-115258666D01*
X136473690Y-115220571D01*
X136587976Y-115220571D01*
X136659404Y-115258666D01*
X136692738Y-115296761D01*
X136721309Y-115372952D01*
X136692738Y-115601523D01*
X136645119Y-115677714D01*
X136602261Y-115715809D01*
X136521309Y-115753904D01*
X136407023Y-115753904D01*
X137016547Y-115753904D02*
X137083214Y-115220571D01*
X137064166Y-115372952D02*
X137111785Y-115296761D01*
X137154642Y-115258666D01*
X137235595Y-115220571D01*
X137311785Y-115220571D01*
X137854642Y-115753904D02*
X137954642Y-114953904D01*
X137859404Y-115715809D02*
X137778452Y-115753904D01*
X137626071Y-115753904D01*
X137554642Y-115715809D01*
X137521309Y-115677714D01*
X137492738Y-115601523D01*
X137521309Y-115372952D01*
X137568928Y-115296761D01*
X137611785Y-115258666D01*
X137692738Y-115220571D01*
X137845119Y-115220571D01*
X137916547Y-115258666D01*
X138545119Y-115715809D02*
X138464166Y-115753904D01*
X138311785Y-115753904D01*
X138240357Y-115715809D01*
X138211785Y-115639619D01*
X138249880Y-115334857D01*
X138297500Y-115258666D01*
X138378452Y-115220571D01*
X138530833Y-115220571D01*
X138602261Y-115258666D01*
X138630833Y-115334857D01*
X138621309Y-115411047D01*
X138230833Y-115487238D01*
X138921309Y-115753904D02*
X138987976Y-115220571D01*
X139021309Y-114953904D02*
X138978452Y-114992000D01*
X139011785Y-115030095D01*
X139054642Y-114992000D01*
X139021309Y-114953904D01*
X139011785Y-115030095D01*
X139302261Y-115753904D02*
X139368928Y-115220571D01*
X139349880Y-115372952D02*
X139397500Y-115296761D01*
X139440357Y-115258666D01*
X139521309Y-115220571D01*
X139597500Y-115220571D01*
X139911785Y-115753904D02*
X139840357Y-115715809D01*
X139807023Y-115677714D01*
X139778452Y-115601523D01*
X139807023Y-115372952D01*
X139854642Y-115296761D01*
X139897500Y-115258666D01*
X139978452Y-115220571D01*
X140092738Y-115220571D01*
X140164166Y-115258666D01*
X140197500Y-115296761D01*
X140226071Y-115372952D01*
X140197500Y-115601523D01*
X140149880Y-115677714D01*
X140107023Y-115715809D01*
X140026071Y-115753904D01*
X139911785Y-115753904D01*
X141183214Y-115030095D02*
X141226071Y-114992000D01*
X141307023Y-114953904D01*
X141497500Y-114953904D01*
X141568928Y-114992000D01*
X141602261Y-115030095D01*
X141630833Y-115106285D01*
X141621309Y-115182476D01*
X141568928Y-115296761D01*
X141054642Y-115753904D01*
X141549880Y-115753904D01*
X142145119Y-114953904D02*
X142221309Y-114953904D01*
X142292738Y-114992000D01*
X142326071Y-115030095D01*
X142354642Y-115106285D01*
X142373690Y-115258666D01*
X142349880Y-115449142D01*
X142292738Y-115601523D01*
X142245119Y-115677714D01*
X142202261Y-115715809D01*
X142121309Y-115753904D01*
X142045119Y-115753904D01*
X141973690Y-115715809D01*
X141940357Y-115677714D01*
X141911785Y-115601523D01*
X141892738Y-115449142D01*
X141916547Y-115258666D01*
X141973690Y-115106285D01*
X142021309Y-115030095D01*
X142064166Y-114992000D01*
X142145119Y-114953904D01*
X142707023Y-115030095D02*
X142749880Y-114992000D01*
X142830833Y-114953904D01*
X143021309Y-114953904D01*
X143092738Y-114992000D01*
X143126071Y-115030095D01*
X143154642Y-115106285D01*
X143145119Y-115182476D01*
X143092738Y-115296761D01*
X142578452Y-115753904D01*
X143073690Y-115753904D01*
X143468928Y-115030095D02*
X143511785Y-114992000D01*
X143592738Y-114953904D01*
X143783214Y-114953904D01*
X143854642Y-114992000D01*
X143887976Y-115030095D01*
X143916547Y-115106285D01*
X143907023Y-115182476D01*
X143854642Y-115296761D01*
X143340357Y-115753904D01*
X143835595Y-115753904D01*
X144187976Y-115677714D02*
X144221309Y-115715809D01*
X144178452Y-115753904D01*
X144145119Y-115715809D01*
X144187976Y-115677714D01*
X144178452Y-115753904D01*
D11*
X130412261Y-100162500D02*
X130189047Y-100043452D01*
X129831904Y-100043452D01*
X129459880Y-100162500D01*
X129192023Y-100400595D01*
X129043214Y-100638690D01*
X128864642Y-101114880D01*
X128820000Y-101472023D01*
X128879523Y-101948214D01*
X128968809Y-102186309D01*
X129177142Y-102424404D01*
X129519404Y-102543452D01*
X129757500Y-102543452D01*
X130129523Y-102424404D01*
X130263452Y-102305357D01*
X130367619Y-101472023D01*
X129891428Y-101472023D01*
X131424166Y-101591071D02*
X133328928Y-101591071D01*
X135486666Y-102424404D02*
X135233690Y-102543452D01*
X134757500Y-102543452D01*
X134534285Y-102424404D01*
X134430119Y-102305357D01*
X134340833Y-102067261D01*
X134430119Y-101352976D01*
X134578928Y-101114880D01*
X134712857Y-100995833D01*
X134965833Y-100876785D01*
X135442023Y-100876785D01*
X135665238Y-100995833D01*
X136900357Y-102543452D02*
X136677142Y-102424404D01*
X136572976Y-102305357D01*
X136483690Y-102067261D01*
X136572976Y-101352976D01*
X136721785Y-101114880D01*
X136855714Y-100995833D01*
X137108690Y-100876785D01*
X137465833Y-100876785D01*
X137689047Y-100995833D01*
X137793214Y-101114880D01*
X137882500Y-101352976D01*
X137793214Y-102067261D01*
X137644404Y-102305357D01*
X137510476Y-102424404D01*
X137257500Y-102543452D01*
X136900357Y-102543452D01*
X139876547Y-102543452D02*
X140189047Y-100043452D01*
X139891428Y-102424404D02*
X139638452Y-102543452D01*
X139162261Y-102543452D01*
X138939047Y-102424404D01*
X138834880Y-102305357D01*
X138745595Y-102067261D01*
X138834880Y-101352976D01*
X138983690Y-101114880D01*
X139117619Y-100995833D01*
X139370595Y-100876785D01*
X139846785Y-100876785D01*
X140070000Y-100995833D01*
X142034285Y-102424404D02*
X141781309Y-102543452D01*
X141305119Y-102543452D01*
X141081904Y-102424404D01*
X140992619Y-102186309D01*
X141111666Y-101233928D01*
X141260476Y-100995833D01*
X141513452Y-100876785D01*
X141989642Y-100876785D01*
X142212857Y-100995833D01*
X142302142Y-101233928D01*
X142272380Y-101472023D01*
X141052142Y-101710119D01*
X145114642Y-102543452D02*
X145427142Y-100043452D01*
X145471785Y-101591071D02*
X146067023Y-102543452D01*
X146275357Y-100876785D02*
X145203928Y-101829166D01*
X148105714Y-102424404D02*
X147852738Y-102543452D01*
X147376547Y-102543452D01*
X147153333Y-102424404D01*
X147064047Y-102186309D01*
X147183095Y-101233928D01*
X147331904Y-100995833D01*
X147584880Y-100876785D01*
X148061071Y-100876785D01*
X148284285Y-100995833D01*
X148373571Y-101233928D01*
X148343809Y-101472023D01*
X147123571Y-101710119D01*
X150248571Y-102424404D02*
X149995595Y-102543452D01*
X149519404Y-102543452D01*
X149296190Y-102424404D01*
X149206904Y-102186309D01*
X149325952Y-101233928D01*
X149474761Y-100995833D01*
X149727738Y-100876785D01*
X150203928Y-100876785D01*
X150427142Y-100995833D01*
X150516428Y-101233928D01*
X150486666Y-101472023D01*
X149266428Y-101710119D01*
X151424166Y-102543452D02*
X151736666Y-100043452D01*
X151617619Y-100995833D02*
X151870595Y-100876785D01*
X152346785Y-100876785D01*
X152570000Y-100995833D01*
X152674166Y-101114880D01*
X152763452Y-101352976D01*
X152674166Y-102067261D01*
X152525357Y-102305357D01*
X152391428Y-102424404D01*
X152138452Y-102543452D01*
X151662261Y-102543452D01*
X151439047Y-102424404D01*
X132465833Y-104901785D02*
X133418214Y-104901785D01*
X132927142Y-104068452D02*
X132659285Y-106211309D01*
X132748571Y-106449404D01*
X132971785Y-106568452D01*
X133209880Y-106568452D01*
X135114642Y-106568452D02*
X135278333Y-105258928D01*
X135189047Y-105020833D01*
X134965833Y-104901785D01*
X134489642Y-104901785D01*
X134236666Y-105020833D01*
X135129523Y-106449404D02*
X134876547Y-106568452D01*
X134281309Y-106568452D01*
X134058095Y-106449404D01*
X133968809Y-106211309D01*
X133998571Y-105973214D01*
X134147380Y-105735119D01*
X134400357Y-105616071D01*
X134995595Y-105616071D01*
X135248571Y-105497023D01*
X137391428Y-106449404D02*
X137138452Y-106568452D01*
X136662261Y-106568452D01*
X136439047Y-106449404D01*
X136334880Y-106330357D01*
X136245595Y-106092261D01*
X136334880Y-105377976D01*
X136483690Y-105139880D01*
X136617619Y-105020833D01*
X136870595Y-104901785D01*
X137346785Y-104901785D01*
X137570000Y-105020833D01*
X138299166Y-104901785D02*
X139251547Y-104901785D01*
X138760476Y-104068452D02*
X138492619Y-106211309D01*
X138581904Y-106449404D01*
X138805119Y-106568452D01*
X139043214Y-106568452D01*
D10*
%TO.C,SW21*%
X149607142Y-116452380D02*
X149607142Y-115452380D01*
X149607142Y-115928571D02*
X150178571Y-115928571D01*
X150178571Y-116452380D02*
X150178571Y-115452380D01*
X150845238Y-115452380D02*
X151035714Y-115452380D01*
X151130952Y-115500000D01*
X151226190Y-115595238D01*
X151273809Y-115785714D01*
X151273809Y-116119047D01*
X151226190Y-116309523D01*
X151130952Y-116404761D01*
X151035714Y-116452380D01*
X150845238Y-116452380D01*
X150750000Y-116404761D01*
X150654761Y-116309523D01*
X150607142Y-116119047D01*
X150607142Y-115785714D01*
X150654761Y-115595238D01*
X150750000Y-115500000D01*
X150845238Y-115452380D01*
X151702380Y-116452380D02*
X151702380Y-115452380D01*
X152035714Y-116166666D01*
X152369047Y-115452380D01*
X152369047Y-116452380D01*
X152845238Y-115928571D02*
X153178571Y-115928571D01*
X153321428Y-116452380D02*
X152845238Y-116452380D01*
X152845238Y-115452380D01*
X153321428Y-115452380D01*
X154702380Y-115976190D02*
X154702380Y-116452380D01*
X154369047Y-115452380D02*
X154702380Y-115976190D01*
X155035714Y-115452380D01*
%TO.C,SW20*%
X92559523Y-71152380D02*
X92559523Y-70152380D01*
X92559523Y-70628571D02*
X93130952Y-70628571D01*
X93130952Y-71152380D02*
X93130952Y-70152380D01*
X93797619Y-70152380D02*
X93988095Y-70152380D01*
X94083333Y-70200000D01*
X94178571Y-70295238D01*
X94226190Y-70485714D01*
X94226190Y-70819047D01*
X94178571Y-71009523D01*
X94083333Y-71104761D01*
X93988095Y-71152380D01*
X93797619Y-71152380D01*
X93702380Y-71104761D01*
X93607142Y-71009523D01*
X93559523Y-70819047D01*
X93559523Y-70485714D01*
X93607142Y-70295238D01*
X93702380Y-70200000D01*
X93797619Y-70152380D01*
X94654761Y-71152380D02*
X94654761Y-70152380D01*
X94988095Y-70866666D01*
X95321428Y-70152380D01*
X95321428Y-71152380D01*
X95797619Y-70628571D02*
X96130952Y-70628571D01*
X96273809Y-71152380D02*
X95797619Y-71152380D01*
X95797619Y-70152380D01*
X96273809Y-70152380D01*
X97369047Y-70152380D02*
X98035714Y-71152380D01*
X98035714Y-70152380D02*
X97369047Y-71152380D01*
%TO.C,SW22*%
X120630952Y-89452380D02*
X120630952Y-88452380D01*
X120630952Y-88928571D02*
X121202380Y-88928571D01*
X121202380Y-89452380D02*
X121202380Y-88452380D01*
X121869047Y-88452380D02*
X122059523Y-88452380D01*
X122154761Y-88500000D01*
X122250000Y-88595238D01*
X122297619Y-88785714D01*
X122297619Y-89119047D01*
X122250000Y-89309523D01*
X122154761Y-89404761D01*
X122059523Y-89452380D01*
X121869047Y-89452380D01*
X121773809Y-89404761D01*
X121678571Y-89309523D01*
X121630952Y-89119047D01*
X121630952Y-88785714D01*
X121678571Y-88595238D01*
X121773809Y-88500000D01*
X121869047Y-88452380D01*
X122726190Y-89452380D02*
X122726190Y-88452380D01*
X123059523Y-89166666D01*
X123392857Y-88452380D01*
X123392857Y-89452380D01*
X123869047Y-88928571D02*
X124202380Y-88928571D01*
X124345238Y-89452380D02*
X123869047Y-89452380D01*
X123869047Y-88452380D01*
X124345238Y-88452380D01*
X125440476Y-88452380D02*
X126107142Y-89452380D01*
X126107142Y-88452380D02*
X125440476Y-89452380D01*
X126678571Y-88976190D02*
X126678571Y-89452380D01*
X126345238Y-88452380D02*
X126678571Y-88976190D01*
X127011904Y-88452380D01*
%TO.C,SW4*%
X112821428Y-88452380D02*
X113488095Y-89452380D01*
X113488095Y-88452380D02*
X112821428Y-89452380D01*
X113869047Y-89071428D02*
X114630952Y-89071428D01*
X115630952Y-89452380D02*
X115059523Y-89452380D01*
X115345238Y-89452380D02*
X115345238Y-88452380D01*
X115250000Y-88595238D01*
X115154761Y-88690476D01*
X115059523Y-88738095D01*
%TO.C,SW12*%
X121702380Y-115976190D02*
X121702380Y-116452380D01*
X121369047Y-115452380D02*
X121702380Y-115976190D01*
X122035714Y-115452380D01*
X122369047Y-116071428D02*
X123130952Y-116071428D01*
X124130952Y-116452380D02*
X123559523Y-116452380D01*
X123845238Y-116452380D02*
X123845238Y-115452380D01*
X123750000Y-115595238D01*
X123654761Y-115690476D01*
X123559523Y-115738095D01*
X124750000Y-115452380D02*
X124845238Y-115452380D01*
X124940476Y-115500000D01*
X124988095Y-115547619D01*
X125035714Y-115642857D01*
X125083333Y-115833333D01*
X125083333Y-116071428D01*
X125035714Y-116261904D01*
X124988095Y-116357142D01*
X124940476Y-116404761D01*
X124845238Y-116452380D01*
X124750000Y-116452380D01*
X124654761Y-116404761D01*
X124607142Y-116357142D01*
X124559523Y-116261904D01*
X124511904Y-116071428D01*
X124511904Y-115833333D01*
X124559523Y-115642857D01*
X124607142Y-115547619D01*
X124654761Y-115500000D01*
X124750000Y-115452380D01*
X125702380Y-115452380D02*
X125797619Y-115452380D01*
X125892857Y-115500000D01*
X125940476Y-115547619D01*
X125988095Y-115642857D01*
X126035714Y-115833333D01*
X126035714Y-116071428D01*
X125988095Y-116261904D01*
X125940476Y-116357142D01*
X125892857Y-116404761D01*
X125797619Y-116452380D01*
X125702380Y-116452380D01*
X125607142Y-116404761D01*
X125559523Y-116357142D01*
X125511904Y-116261904D01*
X125464285Y-116071428D01*
X125464285Y-115833333D01*
X125511904Y-115642857D01*
X125559523Y-115547619D01*
X125607142Y-115500000D01*
X125702380Y-115452380D01*
%TO.C,SW16*%
X163717142Y-94452380D02*
X164383809Y-94452380D01*
X163717142Y-95452380D01*
X164383809Y-95452380D01*
X164764761Y-95071428D02*
X165526666Y-95071428D01*
X166193333Y-94452380D02*
X166288571Y-94452380D01*
X166383809Y-94500000D01*
X166431428Y-94547619D01*
X166479047Y-94642857D01*
X166526666Y-94833333D01*
X166526666Y-95071428D01*
X166479047Y-95261904D01*
X166431428Y-95357142D01*
X166383809Y-95404761D01*
X166288571Y-95452380D01*
X166193333Y-95452380D01*
X166098095Y-95404761D01*
X166050476Y-95357142D01*
X166002857Y-95261904D01*
X165955238Y-95071428D01*
X165955238Y-94833333D01*
X166002857Y-94642857D01*
X166050476Y-94547619D01*
X166098095Y-94500000D01*
X166193333Y-94452380D01*
X166955238Y-95357142D02*
X167002857Y-95404761D01*
X166955238Y-95452380D01*
X166907619Y-95404761D01*
X166955238Y-95357142D01*
X166955238Y-95452380D01*
X167955238Y-95452380D02*
X167383809Y-95452380D01*
X167669523Y-95452380D02*
X167669523Y-94452380D01*
X167574285Y-94595238D01*
X167479047Y-94690476D01*
X167383809Y-94738095D01*
%TO.C,SW19*%
X93416666Y-116452380D02*
X93416666Y-115452380D01*
X93416666Y-115928571D02*
X93988095Y-115928571D01*
X93988095Y-116452380D02*
X93988095Y-115452380D01*
X94654761Y-115452380D02*
X94845238Y-115452380D01*
X94940476Y-115500000D01*
X95035714Y-115595238D01*
X95083333Y-115785714D01*
X95083333Y-116119047D01*
X95035714Y-116309523D01*
X94940476Y-116404761D01*
X94845238Y-116452380D01*
X94654761Y-116452380D01*
X94559523Y-116404761D01*
X94464285Y-116309523D01*
X94416666Y-116119047D01*
X94416666Y-115785714D01*
X94464285Y-115595238D01*
X94559523Y-115500000D01*
X94654761Y-115452380D01*
X95511904Y-116452380D02*
X95511904Y-115452380D01*
X95845238Y-116166666D01*
X96178571Y-115452380D01*
X96178571Y-116452380D01*
X96654761Y-115928571D02*
X96988095Y-115928571D01*
X97130952Y-116452380D02*
X96654761Y-116452380D01*
X96654761Y-115452380D01*
X97130952Y-115452380D01*
%TO.C,SW1*%
X149869047Y-88452380D02*
X150535714Y-89452380D01*
X150535714Y-88452380D02*
X149869047Y-89452380D01*
X150916666Y-89071428D02*
X151678571Y-89071428D01*
X151297619Y-89452380D02*
X151297619Y-88690476D01*
X152678571Y-89452380D02*
X152107142Y-89452380D01*
X152392857Y-89452380D02*
X152392857Y-88452380D01*
X152297619Y-88595238D01*
X152202380Y-88690476D01*
X152107142Y-88738095D01*
X153297619Y-88452380D02*
X153392857Y-88452380D01*
X153488095Y-88500000D01*
X153535714Y-88547619D01*
X153583333Y-88642857D01*
X153630952Y-88833333D01*
X153630952Y-89071428D01*
X153583333Y-89261904D01*
X153535714Y-89357142D01*
X153488095Y-89404761D01*
X153392857Y-89452380D01*
X153297619Y-89452380D01*
X153202380Y-89404761D01*
X153154761Y-89357142D01*
X153107142Y-89261904D01*
X153059523Y-89071428D01*
X153059523Y-88833333D01*
X153107142Y-88642857D01*
X153154761Y-88547619D01*
X153202380Y-88500000D01*
X153297619Y-88452380D01*
X154250000Y-88452380D02*
X154345238Y-88452380D01*
X154440476Y-88500000D01*
X154488095Y-88547619D01*
X154535714Y-88642857D01*
X154583333Y-88833333D01*
X154583333Y-89071428D01*
X154535714Y-89261904D01*
X154488095Y-89357142D01*
X154440476Y-89404761D01*
X154345238Y-89452380D01*
X154250000Y-89452380D01*
X154154761Y-89404761D01*
X154107142Y-89357142D01*
X154059523Y-89261904D01*
X154011904Y-89071428D01*
X154011904Y-88833333D01*
X154059523Y-88642857D01*
X154107142Y-88547619D01*
X154154761Y-88500000D01*
X154250000Y-88452380D01*
%TO.C,SW23*%
X148559523Y-70952380D02*
X148559523Y-69952380D01*
X148559523Y-70428571D02*
X149130952Y-70428571D01*
X149130952Y-70952380D02*
X149130952Y-69952380D01*
X149797619Y-69952380D02*
X149988095Y-69952380D01*
X150083333Y-70000000D01*
X150178571Y-70095238D01*
X150226190Y-70285714D01*
X150226190Y-70619047D01*
X150178571Y-70809523D01*
X150083333Y-70904761D01*
X149988095Y-70952380D01*
X149797619Y-70952380D01*
X149702380Y-70904761D01*
X149607142Y-70809523D01*
X149559523Y-70619047D01*
X149559523Y-70285714D01*
X149607142Y-70095238D01*
X149702380Y-70000000D01*
X149797619Y-69952380D01*
X150654761Y-70952380D02*
X150654761Y-69952380D01*
X150988095Y-70666666D01*
X151321428Y-69952380D01*
X151321428Y-70952380D01*
X151797619Y-70428571D02*
X152130952Y-70428571D01*
X152273809Y-70952380D02*
X151797619Y-70952380D01*
X151797619Y-69952380D01*
X152273809Y-69952380D01*
X153369047Y-69952380D02*
X154035714Y-69952380D01*
X153369047Y-70952380D01*
X154035714Y-70952380D01*
%TO.C,SW10*%
X122654761Y-97976190D02*
X122654761Y-98452380D01*
X122321428Y-97452380D02*
X122654761Y-97976190D01*
X122988095Y-97452380D01*
X123321428Y-98071428D02*
X124083333Y-98071428D01*
X125083333Y-98452380D02*
X124511904Y-98452380D01*
X124797619Y-98452380D02*
X124797619Y-97452380D01*
X124702380Y-97595238D01*
X124607142Y-97690476D01*
X124511904Y-97738095D01*
%TO.C,SW7*%
X127812380Y-65976190D02*
X127812380Y-66452380D01*
X127479047Y-65452380D02*
X127812380Y-65976190D01*
X128145714Y-65452380D01*
X128479047Y-66071428D02*
X129240952Y-66071428D01*
X128860000Y-66452380D02*
X128860000Y-65690476D01*
X130240952Y-66452380D02*
X129669523Y-66452380D01*
X129955238Y-66452380D02*
X129955238Y-65452380D01*
X129860000Y-65595238D01*
X129764761Y-65690476D01*
X129669523Y-65738095D01*
X130860000Y-65452380D02*
X130955238Y-65452380D01*
X131050476Y-65500000D01*
X131098095Y-65547619D01*
X131145714Y-65642857D01*
X131193333Y-65833333D01*
X131193333Y-66071428D01*
X131145714Y-66261904D01*
X131098095Y-66357142D01*
X131050476Y-66404761D01*
X130955238Y-66452380D01*
X130860000Y-66452380D01*
X130764761Y-66404761D01*
X130717142Y-66357142D01*
X130669523Y-66261904D01*
X130621904Y-66071428D01*
X130621904Y-65833333D01*
X130669523Y-65642857D01*
X130717142Y-65547619D01*
X130764761Y-65500000D01*
X130860000Y-65452380D01*
X131812380Y-65452380D02*
X131907619Y-65452380D01*
X132002857Y-65500000D01*
X132050476Y-65547619D01*
X132098095Y-65642857D01*
X132145714Y-65833333D01*
X132145714Y-66071428D01*
X132098095Y-66261904D01*
X132050476Y-66357142D01*
X132002857Y-66404761D01*
X131907619Y-66452380D01*
X131812380Y-66452380D01*
X131717142Y-66404761D01*
X131669523Y-66357142D01*
X131621904Y-66261904D01*
X131574285Y-66071428D01*
X131574285Y-65833333D01*
X131621904Y-65642857D01*
X131669523Y-65547619D01*
X131717142Y-65500000D01*
X131812380Y-65452380D01*
%TO.C,SW8*%
X122178571Y-70976190D02*
X122178571Y-71452380D01*
X121845238Y-70452380D02*
X122178571Y-70976190D01*
X122511904Y-70452380D01*
X122845238Y-71071428D02*
X123607142Y-71071428D01*
X123226190Y-71452380D02*
X123226190Y-70690476D01*
X124607142Y-71452380D02*
X124035714Y-71452380D01*
X124321428Y-71452380D02*
X124321428Y-70452380D01*
X124226190Y-70595238D01*
X124130952Y-70690476D01*
X124035714Y-70738095D01*
X125226190Y-70452380D02*
X125321428Y-70452380D01*
X125416666Y-70500000D01*
X125464285Y-70547619D01*
X125511904Y-70642857D01*
X125559523Y-70833333D01*
X125559523Y-71071428D01*
X125511904Y-71261904D01*
X125464285Y-71357142D01*
X125416666Y-71404761D01*
X125321428Y-71452380D01*
X125226190Y-71452380D01*
X125130952Y-71404761D01*
X125083333Y-71357142D01*
X125035714Y-71261904D01*
X124988095Y-71071428D01*
X124988095Y-70833333D01*
X125035714Y-70642857D01*
X125083333Y-70547619D01*
X125130952Y-70500000D01*
X125226190Y-70452380D01*
%TO.C,SW2*%
X140845238Y-88452380D02*
X141511904Y-89452380D01*
X141511904Y-88452380D02*
X140845238Y-89452380D01*
X141892857Y-89071428D02*
X142654761Y-89071428D01*
X142273809Y-89452380D02*
X142273809Y-88690476D01*
X143654761Y-89452380D02*
X143083333Y-89452380D01*
X143369047Y-89452380D02*
X143369047Y-88452380D01*
X143273809Y-88595238D01*
X143178571Y-88690476D01*
X143083333Y-88738095D01*
X144273809Y-88452380D02*
X144369047Y-88452380D01*
X144464285Y-88500000D01*
X144511904Y-88547619D01*
X144559523Y-88642857D01*
X144607142Y-88833333D01*
X144607142Y-89071428D01*
X144559523Y-89261904D01*
X144511904Y-89357142D01*
X144464285Y-89404761D01*
X144369047Y-89452380D01*
X144273809Y-89452380D01*
X144178571Y-89404761D01*
X144130952Y-89357142D01*
X144083333Y-89261904D01*
X144035714Y-89071428D01*
X144035714Y-88833333D01*
X144083333Y-88642857D01*
X144130952Y-88547619D01*
X144178571Y-88500000D01*
X144273809Y-88452380D01*
%TO.C,SW3*%
X131821428Y-88452380D02*
X132488095Y-89452380D01*
X132488095Y-88452380D02*
X131821428Y-89452380D01*
X132869047Y-89071428D02*
X133630952Y-89071428D01*
X133250000Y-89452380D02*
X133250000Y-88690476D01*
X134630952Y-89452380D02*
X134059523Y-89452380D01*
X134345238Y-89452380D02*
X134345238Y-88452380D01*
X134250000Y-88595238D01*
X134154761Y-88690476D01*
X134059523Y-88738095D01*
%TO.C,SW18*%
X163955238Y-112452380D02*
X164621904Y-112452380D01*
X163955238Y-113452380D01*
X164621904Y-113452380D01*
X165002857Y-113071428D02*
X165764761Y-113071428D01*
X166764761Y-113452380D02*
X166193333Y-113452380D01*
X166479047Y-113452380D02*
X166479047Y-112452380D01*
X166383809Y-112595238D01*
X166288571Y-112690476D01*
X166193333Y-112738095D01*
X167383809Y-112452380D02*
X167479047Y-112452380D01*
X167574285Y-112500000D01*
X167621904Y-112547619D01*
X167669523Y-112642857D01*
X167717142Y-112833333D01*
X167717142Y-113071428D01*
X167669523Y-113261904D01*
X167621904Y-113357142D01*
X167574285Y-113404761D01*
X167479047Y-113452380D01*
X167383809Y-113452380D01*
X167288571Y-113404761D01*
X167240952Y-113357142D01*
X167193333Y-113261904D01*
X167145714Y-113071428D01*
X167145714Y-112833333D01*
X167193333Y-112642857D01*
X167240952Y-112547619D01*
X167288571Y-112500000D01*
X167383809Y-112452380D01*
%TO.C,SW9*%
X122654761Y-79976190D02*
X122654761Y-80452380D01*
X122321428Y-79452380D02*
X122654761Y-79976190D01*
X122988095Y-79452380D01*
X123321428Y-80071428D02*
X124083333Y-80071428D01*
X123702380Y-80452380D02*
X123702380Y-79690476D01*
X125083333Y-80452380D02*
X124511904Y-80452380D01*
X124797619Y-80452380D02*
X124797619Y-79452380D01*
X124702380Y-79595238D01*
X124607142Y-79690476D01*
X124511904Y-79738095D01*
%TO.C,SW5*%
X102845238Y-88452380D02*
X103511904Y-89452380D01*
X103511904Y-88452380D02*
X102845238Y-89452380D01*
X103892857Y-89071428D02*
X104654761Y-89071428D01*
X105654761Y-89452380D02*
X105083333Y-89452380D01*
X105369047Y-89452380D02*
X105369047Y-88452380D01*
X105273809Y-88595238D01*
X105178571Y-88690476D01*
X105083333Y-88738095D01*
X106273809Y-88452380D02*
X106369047Y-88452380D01*
X106464285Y-88500000D01*
X106511904Y-88547619D01*
X106559523Y-88642857D01*
X106607142Y-88833333D01*
X106607142Y-89071428D01*
X106559523Y-89261904D01*
X106511904Y-89357142D01*
X106464285Y-89404761D01*
X106369047Y-89452380D01*
X106273809Y-89452380D01*
X106178571Y-89404761D01*
X106130952Y-89357142D01*
X106083333Y-89261904D01*
X106035714Y-89071428D01*
X106035714Y-88833333D01*
X106083333Y-88642857D01*
X106130952Y-88547619D01*
X106178571Y-88500000D01*
X106273809Y-88452380D01*
%TO.C,SW11*%
X122178571Y-106976190D02*
X122178571Y-107452380D01*
X121845238Y-106452380D02*
X122178571Y-106976190D01*
X122511904Y-106452380D01*
X122845238Y-107071428D02*
X123607142Y-107071428D01*
X124607142Y-107452380D02*
X124035714Y-107452380D01*
X124321428Y-107452380D02*
X124321428Y-106452380D01*
X124226190Y-106595238D01*
X124130952Y-106690476D01*
X124035714Y-106738095D01*
X125226190Y-106452380D02*
X125321428Y-106452380D01*
X125416666Y-106500000D01*
X125464285Y-106547619D01*
X125511904Y-106642857D01*
X125559523Y-106833333D01*
X125559523Y-107071428D01*
X125511904Y-107261904D01*
X125464285Y-107357142D01*
X125416666Y-107404761D01*
X125321428Y-107452380D01*
X125226190Y-107452380D01*
X125130952Y-107404761D01*
X125083333Y-107357142D01*
X125035714Y-107261904D01*
X124988095Y-107071428D01*
X124988095Y-106833333D01*
X125035714Y-106642857D01*
X125083333Y-106547619D01*
X125130952Y-106500000D01*
X125226190Y-106452380D01*
%TO.C,SW13*%
X163955238Y-64452380D02*
X164621904Y-64452380D01*
X163955238Y-65452380D01*
X164621904Y-65452380D01*
X165002857Y-65071428D02*
X165764761Y-65071428D01*
X165383809Y-65452380D02*
X165383809Y-64690476D01*
X166764761Y-65452380D02*
X166193333Y-65452380D01*
X166479047Y-65452380D02*
X166479047Y-64452380D01*
X166383809Y-64595238D01*
X166288571Y-64690476D01*
X166193333Y-64738095D01*
X167383809Y-64452380D02*
X167479047Y-64452380D01*
X167574285Y-64500000D01*
X167621904Y-64547619D01*
X167669523Y-64642857D01*
X167717142Y-64833333D01*
X167717142Y-65071428D01*
X167669523Y-65261904D01*
X167621904Y-65357142D01*
X167574285Y-65404761D01*
X167479047Y-65452380D01*
X167383809Y-65452380D01*
X167288571Y-65404761D01*
X167240952Y-65357142D01*
X167193333Y-65261904D01*
X167145714Y-65071428D01*
X167145714Y-64833333D01*
X167193333Y-64642857D01*
X167240952Y-64547619D01*
X167288571Y-64500000D01*
X167383809Y-64452380D01*
%TO.C,SW6*%
X92869047Y-88452380D02*
X93535714Y-89452380D01*
X93535714Y-88452380D02*
X92869047Y-89452380D01*
X93916666Y-89071428D02*
X94678571Y-89071428D01*
X95678571Y-89452380D02*
X95107142Y-89452380D01*
X95392857Y-89452380D02*
X95392857Y-88452380D01*
X95297619Y-88595238D01*
X95202380Y-88690476D01*
X95107142Y-88738095D01*
X96297619Y-88452380D02*
X96392857Y-88452380D01*
X96488095Y-88500000D01*
X96535714Y-88547619D01*
X96583333Y-88642857D01*
X96630952Y-88833333D01*
X96630952Y-89071428D01*
X96583333Y-89261904D01*
X96535714Y-89357142D01*
X96488095Y-89404761D01*
X96392857Y-89452380D01*
X96297619Y-89452380D01*
X96202380Y-89404761D01*
X96154761Y-89357142D01*
X96107142Y-89261904D01*
X96059523Y-89071428D01*
X96059523Y-88833333D01*
X96107142Y-88642857D01*
X96154761Y-88547619D01*
X96202380Y-88500000D01*
X96297619Y-88452380D01*
X97250000Y-88452380D02*
X97345238Y-88452380D01*
X97440476Y-88500000D01*
X97488095Y-88547619D01*
X97535714Y-88642857D01*
X97583333Y-88833333D01*
X97583333Y-89071428D01*
X97535714Y-89261904D01*
X97488095Y-89357142D01*
X97440476Y-89404761D01*
X97345238Y-89452380D01*
X97250000Y-89452380D01*
X97154761Y-89404761D01*
X97107142Y-89357142D01*
X97059523Y-89261904D01*
X97011904Y-89071428D01*
X97011904Y-88833333D01*
X97059523Y-88642857D01*
X97107142Y-88547619D01*
X97154761Y-88500000D01*
X97250000Y-88452380D01*
%TO.C,SW17*%
X164431428Y-103452380D02*
X165098095Y-103452380D01*
X164431428Y-104452380D01*
X165098095Y-104452380D01*
X165479047Y-104071428D02*
X166240952Y-104071428D01*
X167240952Y-104452380D02*
X166669523Y-104452380D01*
X166955238Y-104452380D02*
X166955238Y-103452380D01*
X166860000Y-103595238D01*
X166764761Y-103690476D01*
X166669523Y-103738095D01*
%TO.C,SW15*%
X163717142Y-82452380D02*
X164383809Y-82452380D01*
X163717142Y-83452380D01*
X164383809Y-83452380D01*
X164764761Y-83071428D02*
X165526666Y-83071428D01*
X165145714Y-83452380D02*
X165145714Y-82690476D01*
X166193333Y-82452380D02*
X166288571Y-82452380D01*
X166383809Y-82500000D01*
X166431428Y-82547619D01*
X166479047Y-82642857D01*
X166526666Y-82833333D01*
X166526666Y-83071428D01*
X166479047Y-83261904D01*
X166431428Y-83357142D01*
X166383809Y-83404761D01*
X166288571Y-83452380D01*
X166193333Y-83452380D01*
X166098095Y-83404761D01*
X166050476Y-83357142D01*
X166002857Y-83261904D01*
X165955238Y-83071428D01*
X165955238Y-82833333D01*
X166002857Y-82642857D01*
X166050476Y-82547619D01*
X166098095Y-82500000D01*
X166193333Y-82452380D01*
X166955238Y-83357142D02*
X167002857Y-83404761D01*
X166955238Y-83452380D01*
X166907619Y-83404761D01*
X166955238Y-83357142D01*
X166955238Y-83452380D01*
X167955238Y-83452380D02*
X167383809Y-83452380D01*
X167669523Y-83452380D02*
X167669523Y-82452380D01*
X167574285Y-82595238D01*
X167479047Y-82690476D01*
X167383809Y-82738095D01*
%TO.C,SW14*%
X164431428Y-73452380D02*
X165098095Y-73452380D01*
X164431428Y-74452380D01*
X165098095Y-74452380D01*
X165479047Y-74071428D02*
X166240952Y-74071428D01*
X165860000Y-74452380D02*
X165860000Y-73690476D01*
X167240952Y-74452380D02*
X166669523Y-74452380D01*
X166955238Y-74452380D02*
X166955238Y-73452380D01*
X166860000Y-73595238D01*
X166764761Y-73690476D01*
X166669523Y-73738095D01*
D12*
%TO.C,SW21*%
X154000000Y-117000000D02*
X149500000Y-117000000D01*
X149500000Y-123500000D02*
X154000000Y-123500000D01*
X148250000Y-119500000D02*
X148250000Y-121000000D01*
X155250000Y-121000000D02*
X155250000Y-119500000D01*
%TO.C,SW20*%
X91250000Y-65500000D02*
X91250000Y-67000000D01*
X98250000Y-67000000D02*
X98250000Y-65500000D01*
X97000000Y-63000000D02*
X92500000Y-63000000D01*
X92500000Y-69500000D02*
X97000000Y-69500000D01*
%TO.C,SW22*%
X125500000Y-90000000D02*
X121000000Y-90000000D01*
X126750000Y-94000000D02*
X126750000Y-92500000D01*
X121000000Y-96500000D02*
X125500000Y-96500000D01*
X119750000Y-92500000D02*
X119750000Y-94000000D01*
%TO.C,SW4*%
X110250000Y-92500000D02*
X110250000Y-94000000D01*
X111500000Y-96500000D02*
X116000000Y-96500000D01*
X116000000Y-90000000D02*
X111500000Y-90000000D01*
X117250000Y-94000000D02*
X117250000Y-92500000D01*
%TO.C,SW12*%
X126750000Y-121000000D02*
X126750000Y-119500000D01*
X125500000Y-117000000D02*
X121000000Y-117000000D01*
X121000000Y-123500000D02*
X125500000Y-123500000D01*
X119750000Y-119500000D02*
X119750000Y-121000000D01*
%TO.C,SW16*%
X168860000Y-100000000D02*
X168860000Y-98500000D01*
X163110000Y-102500000D02*
X167610000Y-102500000D01*
X167610000Y-96000000D02*
X163110000Y-96000000D01*
X161860000Y-98500000D02*
X161860000Y-100000000D01*
%TO.C,SW19*%
X97000000Y-117000000D02*
X92500000Y-117000000D01*
X92500000Y-123500000D02*
X97000000Y-123500000D01*
X91250000Y-119500000D02*
X91250000Y-121000000D01*
X98250000Y-121000000D02*
X98250000Y-119500000D01*
%TO.C,SW1*%
X154000000Y-90000000D02*
X149500000Y-90000000D01*
X149500000Y-96500000D02*
X154000000Y-96500000D01*
X155250000Y-94000000D02*
X155250000Y-92500000D01*
X148250000Y-92500000D02*
X148250000Y-94000000D01*
%TO.C,SW23*%
X154000000Y-63000000D02*
X149500000Y-63000000D01*
X155250000Y-67000000D02*
X155250000Y-65500000D01*
X149500000Y-69500000D02*
X154000000Y-69500000D01*
X148250000Y-65500000D02*
X148250000Y-67000000D01*
%TO.C,SW10*%
X121000000Y-105500000D02*
X125500000Y-105500000D01*
X125500000Y-99000000D02*
X121000000Y-99000000D01*
X119750000Y-101500000D02*
X119750000Y-103000000D01*
X126750000Y-103000000D02*
X126750000Y-101500000D01*
%TO.C,SW7*%
X119750000Y-65500000D02*
X119750000Y-67000000D01*
X125500000Y-63000000D02*
X121000000Y-63000000D01*
X121000000Y-69500000D02*
X125500000Y-69500000D01*
X126750000Y-67000000D02*
X126750000Y-65500000D01*
%TO.C,SW8*%
X121000000Y-78500000D02*
X125500000Y-78500000D01*
X125500000Y-72000000D02*
X121000000Y-72000000D01*
X119750000Y-74500000D02*
X119750000Y-76000000D01*
X126750000Y-76000000D02*
X126750000Y-74500000D01*
%TO.C,SW2*%
X145750000Y-94000000D02*
X145750000Y-92500000D01*
X140000000Y-96500000D02*
X144500000Y-96500000D01*
X144500000Y-90000000D02*
X140000000Y-90000000D01*
X138750000Y-92500000D02*
X138750000Y-94000000D01*
%TO.C,SW3*%
X130500000Y-96500000D02*
X135000000Y-96500000D01*
X136250000Y-94000000D02*
X136250000Y-92500000D01*
X129250000Y-92500000D02*
X129250000Y-94000000D01*
X135000000Y-90000000D02*
X130500000Y-90000000D01*
%TO.C,SW18*%
X163110000Y-120500000D02*
X167610000Y-120500000D01*
X168860000Y-118000000D02*
X168860000Y-116500000D01*
X167610000Y-114000000D02*
X163110000Y-114000000D01*
X161860000Y-116500000D02*
X161860000Y-118000000D01*
%TO.C,SW9*%
X126750000Y-85000000D02*
X126750000Y-83500000D01*
X121000000Y-87500000D02*
X125500000Y-87500000D01*
X119750000Y-83500000D02*
X119750000Y-85000000D01*
X125500000Y-81000000D02*
X121000000Y-81000000D01*
%TO.C,SW5*%
X107750000Y-94000000D02*
X107750000Y-92500000D01*
X100750000Y-92500000D02*
X100750000Y-94000000D01*
X102000000Y-96500000D02*
X106500000Y-96500000D01*
X106500000Y-90000000D02*
X102000000Y-90000000D01*
%TO.C,SW11*%
X119750000Y-110500000D02*
X119750000Y-112000000D01*
X125500000Y-108000000D02*
X121000000Y-108000000D01*
X121000000Y-114500000D02*
X125500000Y-114500000D01*
X126750000Y-112000000D02*
X126750000Y-110500000D01*
%TO.C,SW13*%
X168860000Y-70000000D02*
X168860000Y-68500000D01*
X163110000Y-72500000D02*
X167610000Y-72500000D01*
X161860000Y-68500000D02*
X161860000Y-70000000D01*
X167610000Y-66000000D02*
X163110000Y-66000000D01*
%TO.C,SW6*%
X92500000Y-96500000D02*
X97000000Y-96500000D01*
X98250000Y-94000000D02*
X98250000Y-92500000D01*
X91250000Y-92500000D02*
X91250000Y-94000000D01*
X97000000Y-90000000D02*
X92500000Y-90000000D01*
%TO.C,SW17*%
X168860000Y-109000000D02*
X168860000Y-107500000D01*
X163110000Y-111500000D02*
X167610000Y-111500000D01*
X161860000Y-107500000D02*
X161860000Y-109000000D01*
X167610000Y-105000000D02*
X163110000Y-105000000D01*
%TO.C,SW15*%
X161860000Y-86500000D02*
X161860000Y-88000000D01*
X168860000Y-88000000D02*
X168860000Y-86500000D01*
X167610000Y-84000000D02*
X163110000Y-84000000D01*
X163110000Y-90500000D02*
X167610000Y-90500000D01*
%TO.C,SW14*%
X167610000Y-75000000D02*
X163110000Y-75000000D01*
X163110000Y-81500000D02*
X167610000Y-81500000D01*
X168860000Y-79000000D02*
X168860000Y-77500000D01*
X161860000Y-77500000D02*
X161860000Y-79000000D01*
%TD*%
M02*
