%TF.GenerationSoftware,KiCad,Pcbnew,(6.0.4)*%
%TF.CreationDate,2022-05-22T21:26:51-03:00*%
%TF.ProjectId,G-Code_Keeb,472d436f-6465-45f4-9b65-65622e6b6963,1*%
%TF.SameCoordinates,Original*%
%TF.FileFunction,Legend,Top*%
%TF.FilePolarity,Positive*%
%FSLAX46Y46*%
G04 Gerber Fmt 4.6, Leading zero omitted, Abs format (unit mm)*
G04 Created by KiCad (PCBNEW (6.0.4)) date 2022-05-22 21:26:51*
%MOMM*%
%LPD*%
G01*
G04 APERTURE LIST*
%ADD10C,0.300000*%
%ADD11C,0.150000*%
%ADD12C,0.120000*%
G04 APERTURE END LIST*
D10*
X100445357Y-125866071D02*
X99731071Y-125866071D01*
X99918571Y-124366071D01*
X100945357Y-125866071D02*
X101070357Y-124866071D01*
X101132857Y-124366071D02*
X101052500Y-124437500D01*
X101115000Y-124508928D01*
X101195357Y-124437500D01*
X101132857Y-124366071D01*
X101115000Y-124508928D01*
X102311428Y-125794642D02*
X102159642Y-125866071D01*
X101873928Y-125866071D01*
X101740000Y-125794642D01*
X101677500Y-125723214D01*
X101623928Y-125580357D01*
X101677500Y-125151785D01*
X101766785Y-125008928D01*
X101847142Y-124937500D01*
X101998928Y-124866071D01*
X102284642Y-124866071D01*
X102418571Y-124937500D01*
X103525714Y-125794642D02*
X103373928Y-125866071D01*
X103088214Y-125866071D01*
X102954285Y-125794642D01*
X102900714Y-125651785D01*
X102972142Y-125080357D01*
X103061428Y-124937500D01*
X103213214Y-124866071D01*
X103498928Y-124866071D01*
X103632857Y-124937500D01*
X103686428Y-125080357D01*
X103668571Y-125223214D01*
X102936428Y-125366071D01*
X104356071Y-124866071D02*
X104231071Y-125866071D01*
X104338214Y-125008928D02*
X104418571Y-124937500D01*
X104570357Y-124866071D01*
X104784642Y-124866071D01*
X104918571Y-124937500D01*
X104972142Y-125080357D01*
X104873928Y-125866071D01*
X105525714Y-125794642D02*
X105659642Y-125866071D01*
X105945357Y-125866071D01*
X106097142Y-125794642D01*
X106186428Y-125651785D01*
X106195357Y-125580357D01*
X106141785Y-125437500D01*
X106007857Y-125366071D01*
X105793571Y-125366071D01*
X105659642Y-125294642D01*
X105606071Y-125151785D01*
X105615000Y-125080357D01*
X105704285Y-124937500D01*
X105856071Y-124866071D01*
X106070357Y-124866071D01*
X106204285Y-124937500D01*
X107382857Y-125794642D02*
X107231071Y-125866071D01*
X106945357Y-125866071D01*
X106811428Y-125794642D01*
X106757857Y-125651785D01*
X106829285Y-125080357D01*
X106918571Y-124937500D01*
X107070357Y-124866071D01*
X107356071Y-124866071D01*
X107490000Y-124937500D01*
X107543571Y-125080357D01*
X107525714Y-125223214D01*
X106793571Y-125366071D01*
X108731071Y-125866071D02*
X108918571Y-124366071D01*
X108740000Y-125794642D02*
X108588214Y-125866071D01*
X108302500Y-125866071D01*
X108168571Y-125794642D01*
X108106071Y-125723214D01*
X108052500Y-125580357D01*
X108106071Y-125151785D01*
X108195357Y-125008928D01*
X108275714Y-124937500D01*
X108427500Y-124866071D01*
X108713214Y-124866071D01*
X108847142Y-124937500D01*
X111356071Y-124866071D02*
X111231071Y-125866071D01*
X110713214Y-124866071D02*
X110615000Y-125651785D01*
X110668571Y-125794642D01*
X110802500Y-125866071D01*
X111016785Y-125866071D01*
X111168571Y-125794642D01*
X111248928Y-125723214D01*
X112070357Y-124866071D02*
X111945357Y-125866071D01*
X112052500Y-125008928D02*
X112132857Y-124937500D01*
X112284642Y-124866071D01*
X112498928Y-124866071D01*
X112632857Y-124937500D01*
X112686428Y-125080357D01*
X112588214Y-125866071D01*
X113945357Y-125866071D02*
X114132857Y-124366071D01*
X113954285Y-125794642D02*
X113802500Y-125866071D01*
X113516785Y-125866071D01*
X113382857Y-125794642D01*
X113320357Y-125723214D01*
X113266785Y-125580357D01*
X113320357Y-125151785D01*
X113409642Y-125008928D01*
X113490000Y-124937500D01*
X113641785Y-124866071D01*
X113927500Y-124866071D01*
X114061428Y-124937500D01*
X115240000Y-125794642D02*
X115088214Y-125866071D01*
X114802500Y-125866071D01*
X114668571Y-125794642D01*
X114615000Y-125651785D01*
X114686428Y-125080357D01*
X114775714Y-124937500D01*
X114927500Y-124866071D01*
X115213214Y-124866071D01*
X115347142Y-124937500D01*
X115400714Y-125080357D01*
X115382857Y-125223214D01*
X114650714Y-125366071D01*
X115945357Y-125866071D02*
X116070357Y-124866071D01*
X116034642Y-125151785D02*
X116123928Y-125008928D01*
X116204285Y-124937500D01*
X116356071Y-124866071D01*
X116498928Y-124866071D01*
X118891785Y-125723214D02*
X118811428Y-125794642D01*
X118588214Y-125866071D01*
X118445357Y-125866071D01*
X118240000Y-125794642D01*
X118115000Y-125651785D01*
X118061428Y-125508928D01*
X118025714Y-125223214D01*
X118052500Y-125008928D01*
X118159642Y-124723214D01*
X118248928Y-124580357D01*
X118409642Y-124437500D01*
X118632857Y-124366071D01*
X118775714Y-124366071D01*
X118981071Y-124437500D01*
X119043571Y-124508928D01*
X119615000Y-125080357D02*
X120115000Y-125080357D01*
X120231071Y-125866071D02*
X119516785Y-125866071D01*
X119704285Y-124366071D01*
X120418571Y-124366071D01*
X121731071Y-125866071D02*
X121320357Y-125151785D01*
X120873928Y-125866071D02*
X121061428Y-124366071D01*
X121632857Y-124366071D01*
X121766785Y-124437500D01*
X121829285Y-124508928D01*
X121882857Y-124651785D01*
X121856071Y-124866071D01*
X121766785Y-125008928D01*
X121686428Y-125080357D01*
X121534642Y-125151785D01*
X120963214Y-125151785D01*
X122373928Y-125866071D02*
X122561428Y-124366071D01*
X123231071Y-125866071D01*
X123418571Y-124366071D01*
X124016785Y-125294642D02*
X125159642Y-125294642D01*
X126275714Y-124366071D02*
X126561428Y-124366071D01*
X126695357Y-124437500D01*
X126820357Y-124580357D01*
X126856071Y-124866071D01*
X126793571Y-125366071D01*
X126686428Y-125651785D01*
X126525714Y-125794642D01*
X126373928Y-125866071D01*
X126088214Y-125866071D01*
X125954285Y-125794642D01*
X125829285Y-125651785D01*
X125793571Y-125366071D01*
X125856071Y-124866071D01*
X125963214Y-124580357D01*
X126123928Y-124437500D01*
X126275714Y-124366071D01*
X127373928Y-125866071D02*
X127561428Y-124366071D01*
X127472142Y-125080357D02*
X128329285Y-125080357D01*
X128231071Y-125866071D02*
X128418571Y-124366071D01*
X129659642Y-125866071D02*
X128945357Y-125866071D01*
X129132857Y-124366071D01*
X130231071Y-125294642D02*
X131373928Y-125294642D01*
X131954285Y-125794642D02*
X132159642Y-125866071D01*
X132516785Y-125866071D01*
X132668571Y-125794642D01*
X132748928Y-125723214D01*
X132838214Y-125580357D01*
X132856071Y-125437500D01*
X132802500Y-125294642D01*
X132740000Y-125223214D01*
X132606071Y-125151785D01*
X132329285Y-125080357D01*
X132195357Y-125008928D01*
X132132857Y-124937500D01*
X132079285Y-124794642D01*
X132097142Y-124651785D01*
X132186428Y-124508928D01*
X132266785Y-124437500D01*
X132418571Y-124366071D01*
X132775714Y-124366071D01*
X132981071Y-124437500D01*
X134570357Y-124866071D02*
X134802500Y-125866071D01*
X135284642Y-124866071D01*
X135829285Y-124508928D02*
X135909642Y-124437500D01*
X136061428Y-124366071D01*
X136418571Y-124366071D01*
X136552500Y-124437500D01*
X136615000Y-124508928D01*
X136668571Y-124651785D01*
X136650714Y-124794642D01*
X136552500Y-125008928D01*
X135588214Y-125866071D01*
X136516785Y-125866071D01*
X99731071Y-128281071D02*
X99918571Y-126781071D01*
X100373928Y-128281071D02*
X100472142Y-127495357D01*
X100418571Y-127352500D01*
X100284642Y-127281071D01*
X100070357Y-127281071D01*
X99918571Y-127352500D01*
X99838214Y-127423928D01*
X100998928Y-127281071D02*
X101570357Y-127281071D01*
X101275714Y-126781071D02*
X101115000Y-128066785D01*
X101168571Y-128209642D01*
X101302500Y-128281071D01*
X101445357Y-128281071D01*
X101856071Y-127281071D02*
X102427500Y-127281071D01*
X102132857Y-126781071D02*
X101972142Y-128066785D01*
X102025714Y-128209642D01*
X102159642Y-128281071D01*
X102302500Y-128281071D01*
X102927500Y-127281071D02*
X102740000Y-128781071D01*
X102918571Y-127352500D02*
X103070357Y-127281071D01*
X103356071Y-127281071D01*
X103490000Y-127352500D01*
X103552500Y-127423928D01*
X103606071Y-127566785D01*
X103552500Y-127995357D01*
X103463214Y-128138214D01*
X103382857Y-128209642D01*
X103231071Y-128281071D01*
X102945357Y-128281071D01*
X102811428Y-128209642D01*
X104097142Y-128209642D02*
X104231071Y-128281071D01*
X104516785Y-128281071D01*
X104668571Y-128209642D01*
X104757857Y-128066785D01*
X104766785Y-127995357D01*
X104713214Y-127852500D01*
X104579285Y-127781071D01*
X104365000Y-127781071D01*
X104231071Y-127709642D01*
X104177500Y-127566785D01*
X104186428Y-127495357D01*
X104275714Y-127352500D01*
X104427500Y-127281071D01*
X104641785Y-127281071D01*
X104775714Y-127352500D01*
X105391785Y-128138214D02*
X105454285Y-128209642D01*
X105373928Y-128281071D01*
X105311428Y-128209642D01*
X105391785Y-128138214D01*
X105373928Y-128281071D01*
X105490000Y-127352500D02*
X105552500Y-127423928D01*
X105472142Y-127495357D01*
X105409642Y-127423928D01*
X105490000Y-127352500D01*
X105472142Y-127495357D01*
X107356071Y-126709642D02*
X105829285Y-128638214D01*
X108927500Y-126709642D02*
X107400714Y-128638214D01*
X109998928Y-127281071D02*
X109847142Y-128495357D01*
X109757857Y-128638214D01*
X109677500Y-128709642D01*
X109525714Y-128781071D01*
X109311428Y-128781071D01*
X109177500Y-128709642D01*
X109882857Y-128209642D02*
X109731071Y-128281071D01*
X109445357Y-128281071D01*
X109311428Y-128209642D01*
X109248928Y-128138214D01*
X109195357Y-127995357D01*
X109248928Y-127566785D01*
X109338214Y-127423928D01*
X109418571Y-127352500D01*
X109570357Y-127281071D01*
X109856071Y-127281071D01*
X109990000Y-127352500D01*
X110588214Y-128281071D02*
X110713214Y-127281071D01*
X110775714Y-126781071D02*
X110695357Y-126852500D01*
X110757857Y-126923928D01*
X110838214Y-126852500D01*
X110775714Y-126781071D01*
X110757857Y-126923928D01*
X111213214Y-127281071D02*
X111784642Y-127281071D01*
X111490000Y-126781071D02*
X111329285Y-128066785D01*
X111382857Y-128209642D01*
X111516785Y-128281071D01*
X111659642Y-128281071D01*
X112159642Y-128281071D02*
X112347142Y-126781071D01*
X112802500Y-128281071D02*
X112900714Y-127495357D01*
X112847142Y-127352500D01*
X112713214Y-127281071D01*
X112498928Y-127281071D01*
X112347142Y-127352500D01*
X112266785Y-127423928D01*
X114284642Y-127281071D02*
X114159642Y-128281071D01*
X113641785Y-127281071D02*
X113543571Y-128066785D01*
X113597142Y-128209642D01*
X113731071Y-128281071D01*
X113945357Y-128281071D01*
X114097142Y-128209642D01*
X114177500Y-128138214D01*
X114873928Y-128281071D02*
X115061428Y-126781071D01*
X114990000Y-127352500D02*
X115141785Y-127281071D01*
X115427500Y-127281071D01*
X115561428Y-127352500D01*
X115623928Y-127423928D01*
X115677500Y-127566785D01*
X115623928Y-127995357D01*
X115534642Y-128138214D01*
X115454285Y-128209642D01*
X115302500Y-128281071D01*
X115016785Y-128281071D01*
X114882857Y-128209642D01*
X116248928Y-128138214D02*
X116311428Y-128209642D01*
X116231071Y-128281071D01*
X116168571Y-128209642D01*
X116248928Y-128138214D01*
X116231071Y-128281071D01*
X117597142Y-128209642D02*
X117445357Y-128281071D01*
X117159642Y-128281071D01*
X117025714Y-128209642D01*
X116963214Y-128138214D01*
X116909642Y-127995357D01*
X116963214Y-127566785D01*
X117052500Y-127423928D01*
X117132857Y-127352500D01*
X117284642Y-127281071D01*
X117570357Y-127281071D01*
X117704285Y-127352500D01*
X118445357Y-128281071D02*
X118311428Y-128209642D01*
X118248928Y-128138214D01*
X118195357Y-127995357D01*
X118248928Y-127566785D01*
X118338214Y-127423928D01*
X118418571Y-127352500D01*
X118570357Y-127281071D01*
X118784642Y-127281071D01*
X118918571Y-127352500D01*
X118981071Y-127423928D01*
X119034642Y-127566785D01*
X118981071Y-127995357D01*
X118891785Y-128138214D01*
X118811428Y-128209642D01*
X118659642Y-128281071D01*
X118445357Y-128281071D01*
X119588214Y-128281071D02*
X119713214Y-127281071D01*
X119695357Y-127423928D02*
X119775714Y-127352500D01*
X119927500Y-127281071D01*
X120141785Y-127281071D01*
X120275714Y-127352500D01*
X120329285Y-127495357D01*
X120231071Y-128281071D01*
X120329285Y-127495357D02*
X120418571Y-127352500D01*
X120570357Y-127281071D01*
X120784642Y-127281071D01*
X120918571Y-127352500D01*
X120972142Y-127495357D01*
X120873928Y-128281071D01*
X122856071Y-126709642D02*
X121329285Y-128638214D01*
X123132857Y-126781071D02*
X123445357Y-128281071D01*
X124132857Y-126781071D01*
X124445357Y-128281071D02*
X124570357Y-127281071D01*
X124632857Y-126781071D02*
X124552500Y-126852500D01*
X124615000Y-126923928D01*
X124695357Y-126852500D01*
X124632857Y-126781071D01*
X124615000Y-126923928D01*
X125284642Y-127281071D02*
X125159642Y-128281071D01*
X125266785Y-127423928D02*
X125347142Y-127352500D01*
X125498928Y-127281071D01*
X125713214Y-127281071D01*
X125847142Y-127352500D01*
X125900714Y-127495357D01*
X125802500Y-128281071D01*
X126641785Y-127281071D02*
X126516785Y-128281071D01*
X126623928Y-127423928D02*
X126704285Y-127352500D01*
X126856071Y-127281071D01*
X127070357Y-127281071D01*
X127204285Y-127352500D01*
X127257857Y-127495357D01*
X127159642Y-128281071D01*
X127856071Y-127281071D02*
X128088214Y-128281071D01*
X128570357Y-127281071D02*
X128088214Y-128281071D01*
X127900714Y-128638214D01*
X127820357Y-128709642D01*
X127668571Y-128781071D01*
X129891785Y-128138214D02*
X129811428Y-128209642D01*
X129588214Y-128281071D01*
X129445357Y-128281071D01*
X129240000Y-128209642D01*
X129115000Y-128066785D01*
X129061428Y-127923928D01*
X129025714Y-127638214D01*
X129052500Y-127423928D01*
X129159642Y-127138214D01*
X129248928Y-126995357D01*
X129409642Y-126852500D01*
X129632857Y-126781071D01*
X129775714Y-126781071D01*
X129981071Y-126852500D01*
X130043571Y-126923928D01*
X130731071Y-128281071D02*
X130597142Y-128209642D01*
X130534642Y-128138214D01*
X130481071Y-127995357D01*
X130534642Y-127566785D01*
X130623928Y-127423928D01*
X130704285Y-127352500D01*
X130856071Y-127281071D01*
X131070357Y-127281071D01*
X131204285Y-127352500D01*
X131266785Y-127423928D01*
X131320357Y-127566785D01*
X131266785Y-127995357D01*
X131177500Y-128138214D01*
X131097142Y-128209642D01*
X130945357Y-128281071D01*
X130731071Y-128281071D01*
X131873928Y-128281071D02*
X131998928Y-127281071D01*
X131963214Y-127566785D02*
X132052500Y-127423928D01*
X132132857Y-127352500D01*
X132284642Y-127281071D01*
X132427500Y-127281071D01*
X133445357Y-128281071D02*
X133632857Y-126781071D01*
X133454285Y-128209642D02*
X133302500Y-128281071D01*
X133016785Y-128281071D01*
X132882857Y-128209642D01*
X132820357Y-128138214D01*
X132766785Y-127995357D01*
X132820357Y-127566785D01*
X132909642Y-127423928D01*
X132990000Y-127352500D01*
X133141785Y-127281071D01*
X133427500Y-127281071D01*
X133561428Y-127352500D01*
X134740000Y-128209642D02*
X134588214Y-128281071D01*
X134302500Y-128281071D01*
X134168571Y-128209642D01*
X134115000Y-128066785D01*
X134186428Y-127495357D01*
X134275714Y-127352500D01*
X134427500Y-127281071D01*
X134713214Y-127281071D01*
X134847142Y-127352500D01*
X134900714Y-127495357D01*
X134882857Y-127638214D01*
X134150714Y-127781071D01*
X135445357Y-128281071D02*
X135570357Y-127281071D01*
X135632857Y-126781071D02*
X135552500Y-126852500D01*
X135615000Y-126923928D01*
X135695357Y-126852500D01*
X135632857Y-126781071D01*
X135615000Y-126923928D01*
X136159642Y-128281071D02*
X136284642Y-127281071D01*
X136248928Y-127566785D02*
X136338214Y-127423928D01*
X136418571Y-127352500D01*
X136570357Y-127281071D01*
X136713214Y-127281071D01*
X137302500Y-128281071D02*
X137168571Y-128209642D01*
X137106071Y-128138214D01*
X137052500Y-127995357D01*
X137106071Y-127566785D01*
X137195357Y-127423928D01*
X137275714Y-127352500D01*
X137427500Y-127281071D01*
X137641785Y-127281071D01*
X137775714Y-127352500D01*
X137838214Y-127423928D01*
X137891785Y-127566785D01*
X137838214Y-127995357D01*
X137748928Y-128138214D01*
X137668571Y-128209642D01*
X137516785Y-128281071D01*
X137302500Y-128281071D01*
X139713214Y-126709642D02*
X138186428Y-128638214D01*
X140784642Y-127281071D02*
X140632857Y-128495357D01*
X140543571Y-128638214D01*
X140463214Y-128709642D01*
X140311428Y-128781071D01*
X140097142Y-128781071D01*
X139963214Y-128709642D01*
X140668571Y-128209642D02*
X140516785Y-128281071D01*
X140231071Y-128281071D01*
X140097142Y-128209642D01*
X140034642Y-128138214D01*
X139981071Y-127995357D01*
X140034642Y-127566785D01*
X140123928Y-127423928D01*
X140204285Y-127352500D01*
X140356071Y-127281071D01*
X140641785Y-127281071D01*
X140775714Y-127352500D01*
X141445357Y-127709642D02*
X142588214Y-127709642D01*
X143882857Y-128209642D02*
X143731071Y-128281071D01*
X143445357Y-128281071D01*
X143311428Y-128209642D01*
X143248928Y-128138214D01*
X143195357Y-127995357D01*
X143248928Y-127566785D01*
X143338214Y-127423928D01*
X143418571Y-127352500D01*
X143570357Y-127281071D01*
X143856071Y-127281071D01*
X143990000Y-127352500D01*
X144731071Y-128281071D02*
X144597142Y-128209642D01*
X144534642Y-128138214D01*
X144481071Y-127995357D01*
X144534642Y-127566785D01*
X144623928Y-127423928D01*
X144704285Y-127352500D01*
X144856071Y-127281071D01*
X145070357Y-127281071D01*
X145204285Y-127352500D01*
X145266785Y-127423928D01*
X145320357Y-127566785D01*
X145266785Y-127995357D01*
X145177500Y-128138214D01*
X145097142Y-128209642D01*
X144945357Y-128281071D01*
X144731071Y-128281071D01*
X146516785Y-128281071D02*
X146704285Y-126781071D01*
X146525714Y-128209642D02*
X146373928Y-128281071D01*
X146088214Y-128281071D01*
X145954285Y-128209642D01*
X145891785Y-128138214D01*
X145838214Y-127995357D01*
X145891785Y-127566785D01*
X145981071Y-127423928D01*
X146061428Y-127352500D01*
X146213214Y-127281071D01*
X146498928Y-127281071D01*
X146632857Y-127352500D01*
X147811428Y-128209642D02*
X147659642Y-128281071D01*
X147373928Y-128281071D01*
X147240000Y-128209642D01*
X147186428Y-128066785D01*
X147257857Y-127495357D01*
X147347142Y-127352500D01*
X147498928Y-127281071D01*
X147784642Y-127281071D01*
X147918571Y-127352500D01*
X147972142Y-127495357D01*
X147954285Y-127638214D01*
X147222142Y-127781071D01*
X148141785Y-128423928D02*
X149284642Y-128423928D01*
X149659642Y-128281071D02*
X149847142Y-126781071D01*
X149873928Y-127709642D02*
X150231071Y-128281071D01*
X150356071Y-127281071D02*
X149713214Y-127852500D01*
X151454285Y-128209642D02*
X151302500Y-128281071D01*
X151016785Y-128281071D01*
X150882857Y-128209642D01*
X150829285Y-128066785D01*
X150900714Y-127495357D01*
X150990000Y-127352500D01*
X151141785Y-127281071D01*
X151427500Y-127281071D01*
X151561428Y-127352500D01*
X151615000Y-127495357D01*
X151597142Y-127638214D01*
X150865000Y-127781071D01*
X152740000Y-128209642D02*
X152588214Y-128281071D01*
X152302500Y-128281071D01*
X152168571Y-128209642D01*
X152115000Y-128066785D01*
X152186428Y-127495357D01*
X152275714Y-127352500D01*
X152427500Y-127281071D01*
X152713214Y-127281071D01*
X152847142Y-127352500D01*
X152900714Y-127495357D01*
X152882857Y-127638214D01*
X152150714Y-127781071D01*
X153445357Y-128281071D02*
X153632857Y-126781071D01*
X153561428Y-127352500D02*
X153713214Y-127281071D01*
X153998928Y-127281071D01*
X154132857Y-127352500D01*
X154195357Y-127423928D01*
X154248928Y-127566785D01*
X154195357Y-127995357D01*
X154106071Y-128138214D01*
X154025714Y-128209642D01*
X153873928Y-128281071D01*
X153588214Y-128281071D01*
X153454285Y-128209642D01*
X156070357Y-126709642D02*
X154543571Y-128638214D01*
X101088214Y-131968214D02*
X100954285Y-131896785D01*
X100668571Y-131896785D01*
X100516785Y-131968214D01*
X100356071Y-132111071D01*
X100266785Y-132253928D01*
X100231071Y-132539642D01*
X100284642Y-132682500D01*
X100409642Y-132825357D01*
X100543571Y-132896785D01*
X100829285Y-132896785D01*
X100981071Y-132825357D01*
X100873928Y-131396785D02*
X100507857Y-131468214D01*
X100123928Y-131682500D01*
X99865000Y-132039642D01*
X99748928Y-132396785D01*
X99775714Y-132753928D01*
X99945357Y-133111071D01*
X100275714Y-133325357D01*
X100623928Y-133396785D01*
X100990000Y-133325357D01*
X101373928Y-133111071D01*
X101632857Y-132753928D01*
X101748928Y-132396785D01*
X101722142Y-132039642D01*
X101552500Y-131682500D01*
X101222142Y-131468214D01*
X100873928Y-131396785D01*
X103418571Y-131611071D02*
X103731071Y-133111071D01*
X104418571Y-131611071D01*
X104731071Y-133111071D02*
X104856071Y-132111071D01*
X104918571Y-131611071D02*
X104838214Y-131682500D01*
X104900714Y-131753928D01*
X104981071Y-131682500D01*
X104918571Y-131611071D01*
X104900714Y-131753928D01*
X105570357Y-132111071D02*
X105445357Y-133111071D01*
X105552500Y-132253928D02*
X105632857Y-132182500D01*
X105784642Y-132111071D01*
X105998928Y-132111071D01*
X106132857Y-132182500D01*
X106186428Y-132325357D01*
X106088214Y-133111071D01*
X106802500Y-133111071D02*
X106927500Y-132111071D01*
X107141785Y-131539642D02*
X106900714Y-131753928D01*
X108168571Y-133039642D02*
X108016785Y-133111071D01*
X107731071Y-133111071D01*
X107597142Y-133039642D01*
X107534642Y-132968214D01*
X107481071Y-132825357D01*
X107534642Y-132396785D01*
X107623928Y-132253928D01*
X107704285Y-132182500D01*
X107856071Y-132111071D01*
X108141785Y-132111071D01*
X108275714Y-132182500D01*
X108802500Y-133111071D02*
X108927500Y-132111071D01*
X108990000Y-131611071D02*
X108909642Y-131682500D01*
X108972142Y-131753928D01*
X109052500Y-131682500D01*
X108990000Y-131611071D01*
X108972142Y-131753928D01*
X110284642Y-132111071D02*
X110159642Y-133111071D01*
X109641785Y-132111071D02*
X109543571Y-132896785D01*
X109597142Y-133039642D01*
X109731071Y-133111071D01*
X109945357Y-133111071D01*
X110097142Y-133039642D01*
X110177500Y-132968214D01*
X110811428Y-133039642D02*
X110945357Y-133111071D01*
X111231071Y-133111071D01*
X111382857Y-133039642D01*
X111472142Y-132896785D01*
X111481071Y-132825357D01*
X111427500Y-132682500D01*
X111293571Y-132611071D01*
X111079285Y-132611071D01*
X110945357Y-132539642D01*
X110891785Y-132396785D01*
X110900714Y-132325357D01*
X110990000Y-132182500D01*
X111141785Y-132111071D01*
X111356071Y-132111071D01*
X111490000Y-132182500D01*
X114106071Y-132968214D02*
X114025714Y-133039642D01*
X113802500Y-133111071D01*
X113659642Y-133111071D01*
X113454285Y-133039642D01*
X113329285Y-132896785D01*
X113275714Y-132753928D01*
X113240000Y-132468214D01*
X113266785Y-132253928D01*
X113373928Y-131968214D01*
X113463214Y-131825357D01*
X113623928Y-131682500D01*
X113847142Y-131611071D01*
X113990000Y-131611071D01*
X114195357Y-131682500D01*
X114257857Y-131753928D01*
X114945357Y-133111071D02*
X114811428Y-133039642D01*
X114748928Y-132968214D01*
X114695357Y-132825357D01*
X114748928Y-132396785D01*
X114838214Y-132253928D01*
X114918571Y-132182500D01*
X115070357Y-132111071D01*
X115284642Y-132111071D01*
X115418571Y-132182500D01*
X115481071Y-132253928D01*
X115534642Y-132396785D01*
X115481071Y-132825357D01*
X115391785Y-132968214D01*
X115311428Y-133039642D01*
X115159642Y-133111071D01*
X114945357Y-133111071D01*
X116088214Y-133111071D02*
X116213214Y-132111071D01*
X116177500Y-132396785D02*
X116266785Y-132253928D01*
X116347142Y-132182500D01*
X116498928Y-132111071D01*
X116641785Y-132111071D01*
X117659642Y-133111071D02*
X117847142Y-131611071D01*
X117668571Y-133039642D02*
X117516785Y-133111071D01*
X117231071Y-133111071D01*
X117097142Y-133039642D01*
X117034642Y-132968214D01*
X116981071Y-132825357D01*
X117034642Y-132396785D01*
X117123928Y-132253928D01*
X117204285Y-132182500D01*
X117356071Y-132111071D01*
X117641785Y-132111071D01*
X117775714Y-132182500D01*
X118954285Y-133039642D02*
X118802500Y-133111071D01*
X118516785Y-133111071D01*
X118382857Y-133039642D01*
X118329285Y-132896785D01*
X118400714Y-132325357D01*
X118490000Y-132182500D01*
X118641785Y-132111071D01*
X118927500Y-132111071D01*
X119061428Y-132182500D01*
X119115000Y-132325357D01*
X119097142Y-132468214D01*
X118365000Y-132611071D01*
X119659642Y-133111071D02*
X119784642Y-132111071D01*
X119847142Y-131611071D02*
X119766785Y-131682500D01*
X119829285Y-131753928D01*
X119909642Y-131682500D01*
X119847142Y-131611071D01*
X119829285Y-131753928D01*
X120373928Y-133111071D02*
X120498928Y-132111071D01*
X120463214Y-132396785D02*
X120552500Y-132253928D01*
X120632857Y-132182500D01*
X120784642Y-132111071D01*
X120927500Y-132111071D01*
X121516785Y-133111071D02*
X121382857Y-133039642D01*
X121320357Y-132968214D01*
X121266785Y-132825357D01*
X121320357Y-132396785D01*
X121409642Y-132253928D01*
X121490000Y-132182500D01*
X121641785Y-132111071D01*
X121856071Y-132111071D01*
X121990000Y-132182500D01*
X122052500Y-132253928D01*
X122106071Y-132396785D01*
X122052500Y-132825357D01*
X121963214Y-132968214D01*
X121882857Y-133039642D01*
X121731071Y-133111071D01*
X121516785Y-133111071D01*
X123900714Y-131753928D02*
X123981071Y-131682500D01*
X124132857Y-131611071D01*
X124490000Y-131611071D01*
X124623928Y-131682500D01*
X124686428Y-131753928D01*
X124740000Y-131896785D01*
X124722142Y-132039642D01*
X124623928Y-132253928D01*
X123659642Y-133111071D01*
X124588214Y-133111071D01*
X125704285Y-131611071D02*
X125847142Y-131611071D01*
X125981071Y-131682500D01*
X126043571Y-131753928D01*
X126097142Y-131896785D01*
X126132857Y-132182500D01*
X126088214Y-132539642D01*
X125981071Y-132825357D01*
X125891785Y-132968214D01*
X125811428Y-133039642D01*
X125659642Y-133111071D01*
X125516785Y-133111071D01*
X125382857Y-133039642D01*
X125320357Y-132968214D01*
X125266785Y-132825357D01*
X125231071Y-132539642D01*
X125275714Y-132182500D01*
X125382857Y-131896785D01*
X125472142Y-131753928D01*
X125552500Y-131682500D01*
X125704285Y-131611071D01*
X126757857Y-131753928D02*
X126838214Y-131682500D01*
X126990000Y-131611071D01*
X127347142Y-131611071D01*
X127481071Y-131682500D01*
X127543571Y-131753928D01*
X127597142Y-131896785D01*
X127579285Y-132039642D01*
X127481071Y-132253928D01*
X126516785Y-133111071D01*
X127445357Y-133111071D01*
X128186428Y-131753928D02*
X128266785Y-131682500D01*
X128418571Y-131611071D01*
X128775714Y-131611071D01*
X128909642Y-131682500D01*
X128972142Y-131753928D01*
X129025714Y-131896785D01*
X129007857Y-132039642D01*
X128909642Y-132253928D01*
X127945357Y-133111071D01*
X128873928Y-133111071D01*
X129534642Y-132968214D02*
X129597142Y-133039642D01*
X129516785Y-133111071D01*
X129454285Y-133039642D01*
X129534642Y-132968214D01*
X129516785Y-133111071D01*
X106846071Y-112900000D02*
X106444285Y-112685714D01*
X105801428Y-112685714D01*
X105131785Y-112900000D01*
X104649642Y-113328571D01*
X104381785Y-113757142D01*
X104060357Y-114614285D01*
X103980000Y-115257142D01*
X104087142Y-116114285D01*
X104247857Y-116542857D01*
X104622857Y-116971428D01*
X105238928Y-117185714D01*
X105667500Y-117185714D01*
X106337142Y-116971428D01*
X106578214Y-116757142D01*
X106765714Y-115257142D01*
X105908571Y-115257142D01*
X108667500Y-115471428D02*
X112096071Y-115471428D01*
X115980000Y-116971428D02*
X115524642Y-117185714D01*
X114667500Y-117185714D01*
X114265714Y-116971428D01*
X114078214Y-116757142D01*
X113917500Y-116328571D01*
X114078214Y-115042857D01*
X114346071Y-114614285D01*
X114587142Y-114400000D01*
X115042500Y-114185714D01*
X115899642Y-114185714D01*
X116301428Y-114400000D01*
X118524642Y-117185714D02*
X118122857Y-116971428D01*
X117935357Y-116757142D01*
X117774642Y-116328571D01*
X117935357Y-115042857D01*
X118203214Y-114614285D01*
X118444285Y-114400000D01*
X118899642Y-114185714D01*
X119542500Y-114185714D01*
X119944285Y-114400000D01*
X120131785Y-114614285D01*
X120292500Y-115042857D01*
X120131785Y-116328571D01*
X119863928Y-116757142D01*
X119622857Y-116971428D01*
X119167500Y-117185714D01*
X118524642Y-117185714D01*
X123881785Y-117185714D02*
X124444285Y-112685714D01*
X123908571Y-116971428D02*
X123453214Y-117185714D01*
X122596071Y-117185714D01*
X122194285Y-116971428D01*
X122006785Y-116757142D01*
X121846071Y-116328571D01*
X122006785Y-115042857D01*
X122274642Y-114614285D01*
X122515714Y-114400000D01*
X122971071Y-114185714D01*
X123828214Y-114185714D01*
X124230000Y-114400000D01*
X127765714Y-116971428D02*
X127310357Y-117185714D01*
X126453214Y-117185714D01*
X126051428Y-116971428D01*
X125890714Y-116542857D01*
X126105000Y-114828571D01*
X126372857Y-114400000D01*
X126828214Y-114185714D01*
X127685357Y-114185714D01*
X128087142Y-114400000D01*
X128247857Y-114828571D01*
X128194285Y-115257142D01*
X125997857Y-115685714D01*
X133310357Y-117185714D02*
X133872857Y-112685714D01*
X133953214Y-115471428D02*
X135024642Y-117185714D01*
X135399642Y-114185714D02*
X133471071Y-115900000D01*
X138694285Y-116971428D02*
X138238928Y-117185714D01*
X137381785Y-117185714D01*
X136980000Y-116971428D01*
X136819285Y-116542857D01*
X137033571Y-114828571D01*
X137301428Y-114400000D01*
X137756785Y-114185714D01*
X138613928Y-114185714D01*
X139015714Y-114400000D01*
X139176428Y-114828571D01*
X139122857Y-115257142D01*
X136926428Y-115685714D01*
X142551428Y-116971428D02*
X142096071Y-117185714D01*
X141238928Y-117185714D01*
X140837142Y-116971428D01*
X140676428Y-116542857D01*
X140890714Y-114828571D01*
X141158571Y-114400000D01*
X141613928Y-114185714D01*
X142471071Y-114185714D01*
X142872857Y-114400000D01*
X143033571Y-114828571D01*
X142980000Y-115257142D01*
X140783571Y-115685714D01*
X144667500Y-117185714D02*
X145230000Y-112685714D01*
X145015714Y-114400000D02*
X145471071Y-114185714D01*
X146328214Y-114185714D01*
X146730000Y-114400000D01*
X146917500Y-114614285D01*
X147078214Y-115042857D01*
X146917500Y-116328571D01*
X146649642Y-116757142D01*
X146408571Y-116971428D01*
X145953214Y-117185714D01*
X145096071Y-117185714D01*
X144694285Y-116971428D01*
D11*
%TO.C,SW11*%
X84178571Y-140876190D02*
X84178571Y-141352380D01*
X83845238Y-140352380D02*
X84178571Y-140876190D01*
X84511904Y-140352380D01*
X84845238Y-140971428D02*
X85607142Y-140971428D01*
X86607142Y-141352380D02*
X86035714Y-141352380D01*
X86321428Y-141352380D02*
X86321428Y-140352380D01*
X86226190Y-140495238D01*
X86130952Y-140590476D01*
X86035714Y-140638095D01*
X87226190Y-140352380D02*
X87321428Y-140352380D01*
X87416666Y-140400000D01*
X87464285Y-140447619D01*
X87511904Y-140542857D01*
X87559523Y-140733333D01*
X87559523Y-140971428D01*
X87511904Y-141161904D01*
X87464285Y-141257142D01*
X87416666Y-141304761D01*
X87321428Y-141352380D01*
X87226190Y-141352380D01*
X87130952Y-141304761D01*
X87083333Y-141257142D01*
X87035714Y-141161904D01*
X86988095Y-140971428D01*
X86988095Y-140733333D01*
X87035714Y-140542857D01*
X87083333Y-140447619D01*
X87130952Y-140400000D01*
X87226190Y-140352380D01*
%TO.C,SW21*%
X140257142Y-160402380D02*
X140257142Y-159402380D01*
X140257142Y-159878571D02*
X140828571Y-159878571D01*
X140828571Y-160402380D02*
X140828571Y-159402380D01*
X141495238Y-159402380D02*
X141685714Y-159402380D01*
X141780952Y-159450000D01*
X141876190Y-159545238D01*
X141923809Y-159735714D01*
X141923809Y-160069047D01*
X141876190Y-160259523D01*
X141780952Y-160354761D01*
X141685714Y-160402380D01*
X141495238Y-160402380D01*
X141400000Y-160354761D01*
X141304761Y-160259523D01*
X141257142Y-160069047D01*
X141257142Y-159735714D01*
X141304761Y-159545238D01*
X141400000Y-159450000D01*
X141495238Y-159402380D01*
X142352380Y-160402380D02*
X142352380Y-159402380D01*
X142685714Y-160116666D01*
X143019047Y-159402380D01*
X143019047Y-160402380D01*
X143495238Y-159878571D02*
X143828571Y-159878571D01*
X143971428Y-160402380D02*
X143495238Y-160402380D01*
X143495238Y-159402380D01*
X143971428Y-159402380D01*
X145352380Y-159926190D02*
X145352380Y-160402380D01*
X145019047Y-159402380D02*
X145352380Y-159926190D01*
X145685714Y-159402380D01*
%TO.C,SW17*%
X166771428Y-133952380D02*
X167438095Y-133952380D01*
X166771428Y-134952380D01*
X167438095Y-134952380D01*
X167819047Y-134571428D02*
X168580952Y-134571428D01*
X169580952Y-134952380D02*
X169009523Y-134952380D01*
X169295238Y-134952380D02*
X169295238Y-133952380D01*
X169200000Y-134095238D01*
X169104761Y-134190476D01*
X169009523Y-134238095D01*
%TO.C,SW4*%
X65271428Y-102252380D02*
X65938095Y-103252380D01*
X65938095Y-102252380D02*
X65271428Y-103252380D01*
X66319047Y-102871428D02*
X67080952Y-102871428D01*
X68080952Y-103252380D02*
X67509523Y-103252380D01*
X67795238Y-103252380D02*
X67795238Y-102252380D01*
X67700000Y-102395238D01*
X67604761Y-102490476D01*
X67509523Y-102538095D01*
%TO.C,SW14*%
X166771428Y-70502380D02*
X167438095Y-70502380D01*
X166771428Y-71502380D01*
X167438095Y-71502380D01*
X167819047Y-71121428D02*
X168580952Y-71121428D01*
X168200000Y-71502380D02*
X168200000Y-70740476D01*
X169580952Y-71502380D02*
X169009523Y-71502380D01*
X169295238Y-71502380D02*
X169295238Y-70502380D01*
X169200000Y-70645238D01*
X169104761Y-70740476D01*
X169009523Y-70788095D01*
%TO.C,SW6*%
X26219047Y-102252380D02*
X26885714Y-103252380D01*
X26885714Y-102252380D02*
X26219047Y-103252380D01*
X27266666Y-102871428D02*
X28028571Y-102871428D01*
X29028571Y-103252380D02*
X28457142Y-103252380D01*
X28742857Y-103252380D02*
X28742857Y-102252380D01*
X28647619Y-102395238D01*
X28552380Y-102490476D01*
X28457142Y-102538095D01*
X29647619Y-102252380D02*
X29742857Y-102252380D01*
X29838095Y-102300000D01*
X29885714Y-102347619D01*
X29933333Y-102442857D01*
X29980952Y-102633333D01*
X29980952Y-102871428D01*
X29933333Y-103061904D01*
X29885714Y-103157142D01*
X29838095Y-103204761D01*
X29742857Y-103252380D01*
X29647619Y-103252380D01*
X29552380Y-103204761D01*
X29504761Y-103157142D01*
X29457142Y-103061904D01*
X29409523Y-102871428D01*
X29409523Y-102633333D01*
X29457142Y-102442857D01*
X29504761Y-102347619D01*
X29552380Y-102300000D01*
X29647619Y-102252380D01*
X30600000Y-102252380D02*
X30695238Y-102252380D01*
X30790476Y-102300000D01*
X30838095Y-102347619D01*
X30885714Y-102442857D01*
X30933333Y-102633333D01*
X30933333Y-102871428D01*
X30885714Y-103061904D01*
X30838095Y-103157142D01*
X30790476Y-103204761D01*
X30695238Y-103252380D01*
X30600000Y-103252380D01*
X30504761Y-103204761D01*
X30457142Y-103157142D01*
X30409523Y-103061904D01*
X30361904Y-102871428D01*
X30361904Y-102633333D01*
X30409523Y-102442857D01*
X30457142Y-102347619D01*
X30504761Y-102300000D01*
X30600000Y-102252380D01*
%TO.C,SW18*%
X166295238Y-153002380D02*
X166961904Y-153002380D01*
X166295238Y-154002380D01*
X166961904Y-154002380D01*
X167342857Y-153621428D02*
X168104761Y-153621428D01*
X169104761Y-154002380D02*
X168533333Y-154002380D01*
X168819047Y-154002380D02*
X168819047Y-153002380D01*
X168723809Y-153145238D01*
X168628571Y-153240476D01*
X168533333Y-153288095D01*
X169723809Y-153002380D02*
X169819047Y-153002380D01*
X169914285Y-153050000D01*
X169961904Y-153097619D01*
X170009523Y-153192857D01*
X170057142Y-153383333D01*
X170057142Y-153621428D01*
X170009523Y-153811904D01*
X169961904Y-153907142D01*
X169914285Y-153954761D01*
X169819047Y-154002380D01*
X169723809Y-154002380D01*
X169628571Y-153954761D01*
X169580952Y-153907142D01*
X169533333Y-153811904D01*
X169485714Y-153621428D01*
X169485714Y-153383333D01*
X169533333Y-153192857D01*
X169580952Y-153097619D01*
X169628571Y-153050000D01*
X169723809Y-153002380D01*
%TO.C,SW19*%
X26766666Y-160402380D02*
X26766666Y-159402380D01*
X26766666Y-159878571D02*
X27338095Y-159878571D01*
X27338095Y-160402380D02*
X27338095Y-159402380D01*
X28004761Y-159402380D02*
X28195238Y-159402380D01*
X28290476Y-159450000D01*
X28385714Y-159545238D01*
X28433333Y-159735714D01*
X28433333Y-160069047D01*
X28385714Y-160259523D01*
X28290476Y-160354761D01*
X28195238Y-160402380D01*
X28004761Y-160402380D01*
X27909523Y-160354761D01*
X27814285Y-160259523D01*
X27766666Y-160069047D01*
X27766666Y-159735714D01*
X27814285Y-159545238D01*
X27909523Y-159450000D01*
X28004761Y-159402380D01*
X28861904Y-160402380D02*
X28861904Y-159402380D01*
X29195238Y-160116666D01*
X29528571Y-159402380D01*
X29528571Y-160402380D01*
X30004761Y-159878571D02*
X30338095Y-159878571D01*
X30480952Y-160402380D02*
X30004761Y-160402380D01*
X30004761Y-159402380D01*
X30480952Y-159402380D01*
%TO.C,SW16*%
X166057142Y-114902380D02*
X166723809Y-114902380D01*
X166057142Y-115902380D01*
X166723809Y-115902380D01*
X167104761Y-115521428D02*
X167866666Y-115521428D01*
X168533333Y-114902380D02*
X168628571Y-114902380D01*
X168723809Y-114950000D01*
X168771428Y-114997619D01*
X168819047Y-115092857D01*
X168866666Y-115283333D01*
X168866666Y-115521428D01*
X168819047Y-115711904D01*
X168771428Y-115807142D01*
X168723809Y-115854761D01*
X168628571Y-115902380D01*
X168533333Y-115902380D01*
X168438095Y-115854761D01*
X168390476Y-115807142D01*
X168342857Y-115711904D01*
X168295238Y-115521428D01*
X168295238Y-115283333D01*
X168342857Y-115092857D01*
X168390476Y-114997619D01*
X168438095Y-114950000D01*
X168533333Y-114902380D01*
X169295238Y-115807142D02*
X169342857Y-115854761D01*
X169295238Y-115902380D01*
X169247619Y-115854761D01*
X169295238Y-115807142D01*
X169295238Y-115902380D01*
X170295238Y-115902380D02*
X169723809Y-115902380D01*
X170009523Y-115902380D02*
X170009523Y-114902380D01*
X169914285Y-115045238D01*
X169819047Y-115140476D01*
X169723809Y-115188095D01*
%TO.C,SW15*%
X166057142Y-89552380D02*
X166723809Y-89552380D01*
X166057142Y-90552380D01*
X166723809Y-90552380D01*
X167104761Y-90171428D02*
X167866666Y-90171428D01*
X167485714Y-90552380D02*
X167485714Y-89790476D01*
X168533333Y-89552380D02*
X168628571Y-89552380D01*
X168723809Y-89600000D01*
X168771428Y-89647619D01*
X168819047Y-89742857D01*
X168866666Y-89933333D01*
X168866666Y-90171428D01*
X168819047Y-90361904D01*
X168771428Y-90457142D01*
X168723809Y-90504761D01*
X168628571Y-90552380D01*
X168533333Y-90552380D01*
X168438095Y-90504761D01*
X168390476Y-90457142D01*
X168342857Y-90361904D01*
X168295238Y-90171428D01*
X168295238Y-89933333D01*
X168342857Y-89742857D01*
X168390476Y-89647619D01*
X168438095Y-89600000D01*
X168533333Y-89552380D01*
X169295238Y-90457142D02*
X169342857Y-90504761D01*
X169295238Y-90552380D01*
X169247619Y-90504761D01*
X169295238Y-90457142D01*
X169295238Y-90552380D01*
X170295238Y-90552380D02*
X169723809Y-90552380D01*
X170009523Y-90552380D02*
X170009523Y-89552380D01*
X169914285Y-89695238D01*
X169819047Y-89790476D01*
X169723809Y-89838095D01*
%TO.C,SW9*%
X84654761Y-83726190D02*
X84654761Y-84202380D01*
X84321428Y-83202380D02*
X84654761Y-83726190D01*
X84988095Y-83202380D01*
X85321428Y-83821428D02*
X86083333Y-83821428D01*
X85702380Y-84202380D02*
X85702380Y-83440476D01*
X87083333Y-84202380D02*
X86511904Y-84202380D01*
X86797619Y-84202380D02*
X86797619Y-83202380D01*
X86702380Y-83345238D01*
X86607142Y-83440476D01*
X86511904Y-83488095D01*
%TO.C,SW13*%
X166295238Y-51452380D02*
X166961904Y-51452380D01*
X166295238Y-52452380D01*
X166961904Y-52452380D01*
X167342857Y-52071428D02*
X168104761Y-52071428D01*
X167723809Y-52452380D02*
X167723809Y-51690476D01*
X169104761Y-52452380D02*
X168533333Y-52452380D01*
X168819047Y-52452380D02*
X168819047Y-51452380D01*
X168723809Y-51595238D01*
X168628571Y-51690476D01*
X168533333Y-51738095D01*
X169723809Y-51452380D02*
X169819047Y-51452380D01*
X169914285Y-51500000D01*
X169961904Y-51547619D01*
X170009523Y-51642857D01*
X170057142Y-51833333D01*
X170057142Y-52071428D01*
X170009523Y-52261904D01*
X169961904Y-52357142D01*
X169914285Y-52404761D01*
X169819047Y-52452380D01*
X169723809Y-52452380D01*
X169628571Y-52404761D01*
X169580952Y-52357142D01*
X169533333Y-52261904D01*
X169485714Y-52071428D01*
X169485714Y-51833333D01*
X169533333Y-51642857D01*
X169580952Y-51547619D01*
X169628571Y-51500000D01*
X169723809Y-51452380D01*
%TO.C,SW2*%
X121945238Y-102252380D02*
X122611904Y-103252380D01*
X122611904Y-102252380D02*
X121945238Y-103252380D01*
X122992857Y-102871428D02*
X123754761Y-102871428D01*
X123373809Y-103252380D02*
X123373809Y-102490476D01*
X124754761Y-103252380D02*
X124183333Y-103252380D01*
X124469047Y-103252380D02*
X124469047Y-102252380D01*
X124373809Y-102395238D01*
X124278571Y-102490476D01*
X124183333Y-102538095D01*
X125373809Y-102252380D02*
X125469047Y-102252380D01*
X125564285Y-102300000D01*
X125611904Y-102347619D01*
X125659523Y-102442857D01*
X125707142Y-102633333D01*
X125707142Y-102871428D01*
X125659523Y-103061904D01*
X125611904Y-103157142D01*
X125564285Y-103204761D01*
X125469047Y-103252380D01*
X125373809Y-103252380D01*
X125278571Y-103204761D01*
X125230952Y-103157142D01*
X125183333Y-103061904D01*
X125135714Y-102871428D01*
X125135714Y-102633333D01*
X125183333Y-102442857D01*
X125230952Y-102347619D01*
X125278571Y-102300000D01*
X125373809Y-102252380D01*
%TO.C,SW8*%
X84178571Y-64676190D02*
X84178571Y-65152380D01*
X83845238Y-64152380D02*
X84178571Y-64676190D01*
X84511904Y-64152380D01*
X84845238Y-64771428D02*
X85607142Y-64771428D01*
X85226190Y-65152380D02*
X85226190Y-64390476D01*
X86607142Y-65152380D02*
X86035714Y-65152380D01*
X86321428Y-65152380D02*
X86321428Y-64152380D01*
X86226190Y-64295238D01*
X86130952Y-64390476D01*
X86035714Y-64438095D01*
X87226190Y-64152380D02*
X87321428Y-64152380D01*
X87416666Y-64200000D01*
X87464285Y-64247619D01*
X87511904Y-64342857D01*
X87559523Y-64533333D01*
X87559523Y-64771428D01*
X87511904Y-64961904D01*
X87464285Y-65057142D01*
X87416666Y-65104761D01*
X87321428Y-65152380D01*
X87226190Y-65152380D01*
X87130952Y-65104761D01*
X87083333Y-65057142D01*
X87035714Y-64961904D01*
X86988095Y-64771428D01*
X86988095Y-64533333D01*
X87035714Y-64342857D01*
X87083333Y-64247619D01*
X87130952Y-64200000D01*
X87226190Y-64152380D01*
%TO.C,SW5*%
X45745238Y-102252380D02*
X46411904Y-103252380D01*
X46411904Y-102252380D02*
X45745238Y-103252380D01*
X46792857Y-102871428D02*
X47554761Y-102871428D01*
X48554761Y-103252380D02*
X47983333Y-103252380D01*
X48269047Y-103252380D02*
X48269047Y-102252380D01*
X48173809Y-102395238D01*
X48078571Y-102490476D01*
X47983333Y-102538095D01*
X49173809Y-102252380D02*
X49269047Y-102252380D01*
X49364285Y-102300000D01*
X49411904Y-102347619D01*
X49459523Y-102442857D01*
X49507142Y-102633333D01*
X49507142Y-102871428D01*
X49459523Y-103061904D01*
X49411904Y-103157142D01*
X49364285Y-103204761D01*
X49269047Y-103252380D01*
X49173809Y-103252380D01*
X49078571Y-103204761D01*
X49030952Y-103157142D01*
X48983333Y-103061904D01*
X48935714Y-102871428D01*
X48935714Y-102633333D01*
X48983333Y-102442857D01*
X49030952Y-102347619D01*
X49078571Y-102300000D01*
X49173809Y-102252380D01*
%TO.C,SW1*%
X140519047Y-102252380D02*
X141185714Y-103252380D01*
X141185714Y-102252380D02*
X140519047Y-103252380D01*
X141566666Y-102871428D02*
X142328571Y-102871428D01*
X141947619Y-103252380D02*
X141947619Y-102490476D01*
X143328571Y-103252380D02*
X142757142Y-103252380D01*
X143042857Y-103252380D02*
X143042857Y-102252380D01*
X142947619Y-102395238D01*
X142852380Y-102490476D01*
X142757142Y-102538095D01*
X143947619Y-102252380D02*
X144042857Y-102252380D01*
X144138095Y-102300000D01*
X144185714Y-102347619D01*
X144233333Y-102442857D01*
X144280952Y-102633333D01*
X144280952Y-102871428D01*
X144233333Y-103061904D01*
X144185714Y-103157142D01*
X144138095Y-103204761D01*
X144042857Y-103252380D01*
X143947619Y-103252380D01*
X143852380Y-103204761D01*
X143804761Y-103157142D01*
X143757142Y-103061904D01*
X143709523Y-102871428D01*
X143709523Y-102633333D01*
X143757142Y-102442857D01*
X143804761Y-102347619D01*
X143852380Y-102300000D01*
X143947619Y-102252380D01*
X144900000Y-102252380D02*
X144995238Y-102252380D01*
X145090476Y-102300000D01*
X145138095Y-102347619D01*
X145185714Y-102442857D01*
X145233333Y-102633333D01*
X145233333Y-102871428D01*
X145185714Y-103061904D01*
X145138095Y-103157142D01*
X145090476Y-103204761D01*
X144995238Y-103252380D01*
X144900000Y-103252380D01*
X144804761Y-103204761D01*
X144757142Y-103157142D01*
X144709523Y-103061904D01*
X144661904Y-102871428D01*
X144661904Y-102633333D01*
X144709523Y-102442857D01*
X144757142Y-102347619D01*
X144804761Y-102300000D01*
X144900000Y-102252380D01*
%TO.C,SW7*%
X83702380Y-45626190D02*
X83702380Y-46102380D01*
X83369047Y-45102380D02*
X83702380Y-45626190D01*
X84035714Y-45102380D01*
X84369047Y-45721428D02*
X85130952Y-45721428D01*
X84750000Y-46102380D02*
X84750000Y-45340476D01*
X86130952Y-46102380D02*
X85559523Y-46102380D01*
X85845238Y-46102380D02*
X85845238Y-45102380D01*
X85750000Y-45245238D01*
X85654761Y-45340476D01*
X85559523Y-45388095D01*
X86750000Y-45102380D02*
X86845238Y-45102380D01*
X86940476Y-45150000D01*
X86988095Y-45197619D01*
X87035714Y-45292857D01*
X87083333Y-45483333D01*
X87083333Y-45721428D01*
X87035714Y-45911904D01*
X86988095Y-46007142D01*
X86940476Y-46054761D01*
X86845238Y-46102380D01*
X86750000Y-46102380D01*
X86654761Y-46054761D01*
X86607142Y-46007142D01*
X86559523Y-45911904D01*
X86511904Y-45721428D01*
X86511904Y-45483333D01*
X86559523Y-45292857D01*
X86607142Y-45197619D01*
X86654761Y-45150000D01*
X86750000Y-45102380D01*
X87702380Y-45102380D02*
X87797619Y-45102380D01*
X87892857Y-45150000D01*
X87940476Y-45197619D01*
X87988095Y-45292857D01*
X88035714Y-45483333D01*
X88035714Y-45721428D01*
X87988095Y-45911904D01*
X87940476Y-46007142D01*
X87892857Y-46054761D01*
X87797619Y-46102380D01*
X87702380Y-46102380D01*
X87607142Y-46054761D01*
X87559523Y-46007142D01*
X87511904Y-45911904D01*
X87464285Y-45721428D01*
X87464285Y-45483333D01*
X87511904Y-45292857D01*
X87559523Y-45197619D01*
X87607142Y-45150000D01*
X87702380Y-45102380D01*
%TO.C,SW12*%
X83702380Y-159926190D02*
X83702380Y-160402380D01*
X83369047Y-159402380D02*
X83702380Y-159926190D01*
X84035714Y-159402380D01*
X84369047Y-160021428D02*
X85130952Y-160021428D01*
X86130952Y-160402380D02*
X85559523Y-160402380D01*
X85845238Y-160402380D02*
X85845238Y-159402380D01*
X85750000Y-159545238D01*
X85654761Y-159640476D01*
X85559523Y-159688095D01*
X86750000Y-159402380D02*
X86845238Y-159402380D01*
X86940476Y-159450000D01*
X86988095Y-159497619D01*
X87035714Y-159592857D01*
X87083333Y-159783333D01*
X87083333Y-160021428D01*
X87035714Y-160211904D01*
X86988095Y-160307142D01*
X86940476Y-160354761D01*
X86845238Y-160402380D01*
X86750000Y-160402380D01*
X86654761Y-160354761D01*
X86607142Y-160307142D01*
X86559523Y-160211904D01*
X86511904Y-160021428D01*
X86511904Y-159783333D01*
X86559523Y-159592857D01*
X86607142Y-159497619D01*
X86654761Y-159450000D01*
X86750000Y-159402380D01*
X87702380Y-159402380D02*
X87797619Y-159402380D01*
X87892857Y-159450000D01*
X87940476Y-159497619D01*
X87988095Y-159592857D01*
X88035714Y-159783333D01*
X88035714Y-160021428D01*
X87988095Y-160211904D01*
X87940476Y-160307142D01*
X87892857Y-160354761D01*
X87797619Y-160402380D01*
X87702380Y-160402380D01*
X87607142Y-160354761D01*
X87559523Y-160307142D01*
X87511904Y-160211904D01*
X87464285Y-160021428D01*
X87464285Y-159783333D01*
X87511904Y-159592857D01*
X87559523Y-159497619D01*
X87607142Y-159450000D01*
X87702380Y-159402380D01*
%TO.C,SW23*%
X140209523Y-46102380D02*
X140209523Y-45102380D01*
X140209523Y-45578571D02*
X140780952Y-45578571D01*
X140780952Y-46102380D02*
X140780952Y-45102380D01*
X141447619Y-45102380D02*
X141638095Y-45102380D01*
X141733333Y-45150000D01*
X141828571Y-45245238D01*
X141876190Y-45435714D01*
X141876190Y-45769047D01*
X141828571Y-45959523D01*
X141733333Y-46054761D01*
X141638095Y-46102380D01*
X141447619Y-46102380D01*
X141352380Y-46054761D01*
X141257142Y-45959523D01*
X141209523Y-45769047D01*
X141209523Y-45435714D01*
X141257142Y-45245238D01*
X141352380Y-45150000D01*
X141447619Y-45102380D01*
X142304761Y-46102380D02*
X142304761Y-45102380D01*
X142638095Y-45816666D01*
X142971428Y-45102380D01*
X142971428Y-46102380D01*
X143447619Y-45578571D02*
X143780952Y-45578571D01*
X143923809Y-46102380D02*
X143447619Y-46102380D01*
X143447619Y-45102380D01*
X143923809Y-45102380D01*
X145019047Y-45102380D02*
X145685714Y-45102380D01*
X145019047Y-46102380D01*
X145685714Y-46102380D01*
%TO.C,SW20*%
X25909523Y-46102380D02*
X25909523Y-45102380D01*
X25909523Y-45578571D02*
X26480952Y-45578571D01*
X26480952Y-46102380D02*
X26480952Y-45102380D01*
X27147619Y-45102380D02*
X27338095Y-45102380D01*
X27433333Y-45150000D01*
X27528571Y-45245238D01*
X27576190Y-45435714D01*
X27576190Y-45769047D01*
X27528571Y-45959523D01*
X27433333Y-46054761D01*
X27338095Y-46102380D01*
X27147619Y-46102380D01*
X27052380Y-46054761D01*
X26957142Y-45959523D01*
X26909523Y-45769047D01*
X26909523Y-45435714D01*
X26957142Y-45245238D01*
X27052380Y-45150000D01*
X27147619Y-45102380D01*
X28004761Y-46102380D02*
X28004761Y-45102380D01*
X28338095Y-45816666D01*
X28671428Y-45102380D01*
X28671428Y-46102380D01*
X29147619Y-45578571D02*
X29480952Y-45578571D01*
X29623809Y-46102380D02*
X29147619Y-46102380D01*
X29147619Y-45102380D01*
X29623809Y-45102380D01*
X30719047Y-45102380D02*
X31385714Y-46102380D01*
X31385714Y-45102380D02*
X30719047Y-46102380D01*
%TO.C,SW3*%
X103371428Y-102252380D02*
X104038095Y-103252380D01*
X104038095Y-102252380D02*
X103371428Y-103252380D01*
X104419047Y-102871428D02*
X105180952Y-102871428D01*
X104800000Y-103252380D02*
X104800000Y-102490476D01*
X106180952Y-103252380D02*
X105609523Y-103252380D01*
X105895238Y-103252380D02*
X105895238Y-102252380D01*
X105800000Y-102395238D01*
X105704761Y-102490476D01*
X105609523Y-102538095D01*
%TO.C,SW10*%
X84654761Y-121826190D02*
X84654761Y-122302380D01*
X84321428Y-121302380D02*
X84654761Y-121826190D01*
X84988095Y-121302380D01*
X85321428Y-121921428D02*
X86083333Y-121921428D01*
X87083333Y-122302380D02*
X86511904Y-122302380D01*
X86797619Y-122302380D02*
X86797619Y-121302380D01*
X86702380Y-121445238D01*
X86607142Y-121540476D01*
X86511904Y-121588095D01*
%TO.C,SW22*%
X82630952Y-103252380D02*
X82630952Y-102252380D01*
X82630952Y-102728571D02*
X83202380Y-102728571D01*
X83202380Y-103252380D02*
X83202380Y-102252380D01*
X83869047Y-102252380D02*
X84059523Y-102252380D01*
X84154761Y-102300000D01*
X84250000Y-102395238D01*
X84297619Y-102585714D01*
X84297619Y-102919047D01*
X84250000Y-103109523D01*
X84154761Y-103204761D01*
X84059523Y-103252380D01*
X83869047Y-103252380D01*
X83773809Y-103204761D01*
X83678571Y-103109523D01*
X83630952Y-102919047D01*
X83630952Y-102585714D01*
X83678571Y-102395238D01*
X83773809Y-102300000D01*
X83869047Y-102252380D01*
X84726190Y-103252380D02*
X84726190Y-102252380D01*
X85059523Y-102966666D01*
X85392857Y-102252380D01*
X85392857Y-103252380D01*
X85869047Y-102728571D02*
X86202380Y-102728571D01*
X86345238Y-103252380D02*
X85869047Y-103252380D01*
X85869047Y-102252380D01*
X86345238Y-102252380D01*
X87440476Y-102252380D02*
X88107142Y-103252380D01*
X88107142Y-102252380D02*
X87440476Y-103252380D01*
X88678571Y-102776190D02*
X88678571Y-103252380D01*
X88345238Y-102252380D02*
X88678571Y-102776190D01*
X89011904Y-102252380D01*
D12*
%TO.C,SW11*%
X78650000Y-140000000D02*
X92850000Y-140000000D01*
X78650000Y-125800000D02*
X78650000Y-140000000D01*
X92850000Y-125800000D02*
X78650000Y-125800000D01*
X92850000Y-140000000D02*
X92850000Y-125800000D01*
%TO.C,SW21*%
X135800000Y-144850000D02*
X135800000Y-159050000D01*
X135800000Y-159050000D02*
X150000000Y-159050000D01*
X150000000Y-144850000D02*
X135800000Y-144850000D01*
X150000000Y-159050000D02*
X150000000Y-144850000D01*
%TO.C,SW17*%
X161100000Y-119400000D02*
X161100000Y-133600000D01*
X175300000Y-119400000D02*
X161100000Y-119400000D01*
X161100000Y-133600000D02*
X175300000Y-133600000D01*
X175300000Y-133600000D02*
X175300000Y-119400000D01*
%TO.C,SW4*%
X73800000Y-87700000D02*
X59600000Y-87700000D01*
X59600000Y-87700000D02*
X59600000Y-101900000D01*
X73800000Y-101900000D02*
X73800000Y-87700000D01*
X59600000Y-101900000D02*
X73800000Y-101900000D01*
%TO.C,SW14*%
X175300000Y-70150000D02*
X175300000Y-55950000D01*
X175300000Y-55950000D02*
X161100000Y-55950000D01*
X161100000Y-70150000D02*
X175300000Y-70150000D01*
X161100000Y-55950000D02*
X161100000Y-70150000D01*
%TO.C,SW6*%
X21500000Y-87700000D02*
X21500000Y-101900000D01*
X21500000Y-101900000D02*
X35700000Y-101900000D01*
X35700000Y-87700000D02*
X21500000Y-87700000D01*
X35700000Y-101900000D02*
X35700000Y-87700000D01*
%TO.C,SW18*%
X175300000Y-152650000D02*
X175300000Y-138450000D01*
X161100000Y-138450000D02*
X161100000Y-152650000D01*
X175300000Y-138450000D02*
X161100000Y-138450000D01*
X161100000Y-152650000D02*
X175300000Y-152650000D01*
%TO.C,SW19*%
X21500000Y-144850000D02*
X21500000Y-159050000D01*
X21500000Y-159050000D02*
X35700000Y-159050000D01*
X35700000Y-144850000D02*
X21500000Y-144850000D01*
X35700000Y-159050000D02*
X35700000Y-144850000D01*
%TO.C,SW16*%
X161100000Y-100350000D02*
X161100000Y-114550000D01*
X175300000Y-100350000D02*
X161100000Y-100350000D01*
X175300000Y-114550000D02*
X175300000Y-100350000D01*
X161100000Y-114550000D02*
X175300000Y-114550000D01*
%TO.C,SW15*%
X175300000Y-89200000D02*
X175300000Y-75000000D01*
X161100000Y-89200000D02*
X175300000Y-89200000D01*
X175300000Y-75000000D02*
X161100000Y-75000000D01*
X161100000Y-75000000D02*
X161100000Y-89200000D01*
%TO.C,SW9*%
X78650000Y-68650000D02*
X78650000Y-82850000D01*
X92850000Y-68650000D02*
X78650000Y-68650000D01*
X78650000Y-82850000D02*
X92850000Y-82850000D01*
X92850000Y-82850000D02*
X92850000Y-68650000D01*
%TO.C,SW13*%
X161100000Y-51100000D02*
X175300000Y-51100000D01*
X161100000Y-36900000D02*
X161100000Y-51100000D01*
X175300000Y-36900000D02*
X161100000Y-36900000D01*
X175300000Y-51100000D02*
X175300000Y-36900000D01*
%TO.C,SW2*%
X130950000Y-101900000D02*
X130950000Y-87700000D01*
X116750000Y-101900000D02*
X130950000Y-101900000D01*
X116750000Y-87700000D02*
X116750000Y-101900000D01*
X130950000Y-87700000D02*
X116750000Y-87700000D01*
%TO.C,SW8*%
X78650000Y-63800000D02*
X92850000Y-63800000D01*
X78650000Y-49600000D02*
X78650000Y-63800000D01*
X92850000Y-63800000D02*
X92850000Y-49600000D01*
X92850000Y-49600000D02*
X78650000Y-49600000D01*
%TO.C,SW5*%
X54750000Y-87700000D02*
X40550000Y-87700000D01*
X54750000Y-101900000D02*
X54750000Y-87700000D01*
X40550000Y-101900000D02*
X54750000Y-101900000D01*
X40550000Y-87700000D02*
X40550000Y-101900000D01*
%TO.C,SW1*%
X150000000Y-101900000D02*
X150000000Y-87700000D01*
X135800000Y-87700000D02*
X135800000Y-101900000D01*
X135800000Y-101900000D02*
X150000000Y-101900000D01*
X150000000Y-87700000D02*
X135800000Y-87700000D01*
%TO.C,SW7*%
X92850000Y-30550000D02*
X78650000Y-30550000D01*
X78650000Y-30550000D02*
X78650000Y-44750000D01*
X92850000Y-44750000D02*
X92850000Y-30550000D01*
X78650000Y-44750000D02*
X92850000Y-44750000D01*
%TO.C,SW12*%
X78650000Y-159050000D02*
X92850000Y-159050000D01*
X78650000Y-144850000D02*
X78650000Y-159050000D01*
X92850000Y-159050000D02*
X92850000Y-144850000D01*
X92850000Y-144850000D02*
X78650000Y-144850000D01*
%TO.C,SW23*%
X150000000Y-44750000D02*
X150000000Y-30550000D01*
X135800000Y-44750000D02*
X150000000Y-44750000D01*
X150000000Y-30550000D02*
X135800000Y-30550000D01*
X135800000Y-30550000D02*
X135800000Y-44750000D01*
%TO.C,SW20*%
X21500000Y-30550000D02*
X21500000Y-44750000D01*
X21500000Y-44750000D02*
X35700000Y-44750000D01*
X35700000Y-44750000D02*
X35700000Y-30550000D01*
X35700000Y-30550000D02*
X21500000Y-30550000D01*
%TO.C,SW3*%
X111900000Y-87700000D02*
X97700000Y-87700000D01*
X97700000Y-101900000D02*
X111900000Y-101900000D01*
X97700000Y-87700000D02*
X97700000Y-101900000D01*
X111900000Y-101900000D02*
X111900000Y-87700000D01*
%TO.C,SW10*%
X78650000Y-120950000D02*
X92850000Y-120950000D01*
X78650000Y-106750000D02*
X78650000Y-120950000D01*
X92850000Y-120950000D02*
X92850000Y-106750000D01*
X92850000Y-106750000D02*
X78650000Y-106750000D01*
%TO.C,SW22*%
X78650000Y-87700000D02*
X78650000Y-101900000D01*
X92850000Y-101900000D02*
X92850000Y-87700000D01*
X78650000Y-101900000D02*
X92850000Y-101900000D01*
X92850000Y-87700000D02*
X78650000Y-87700000D01*
%TD*%
M02*
