M48
; DRILL file {KiCad (6.0.4)} date Sun May 22 15:07:10 2022
; FORMAT={-:-/ absolute / inch / decimal}
; #@! TF.CreationDate,2022-05-22T15:07:10-03:00
; #@! TF.GenerationSoftware,Kicad,Pcbnew,(6.0.4)
; #@! TF.FileFunction,Plated,1,2,PTH
FMAT,2
INCH
; #@! TA.AperFunction,Plated,PTH,ViaDrill
T1C0.0157
; #@! TA.AperFunction,Plated,PTH,ComponentDrill
T2C0.0276
; #@! TA.AperFunction,Plated,PTH,ComponentDrill
T3C0.0315
; #@! TA.AperFunction,Plated,PTH,ComponentDrill
T4C0.0390
; #@! TA.AperFunction,Plated,PTH,ComponentDrill
T5C0.0394
; #@! TA.AperFunction,Plated,PTH,ComponentDrill
T6C0.0433
; #@! TA.AperFunction,Plated,PTH,ComponentDrill
T7C0.0512
; #@! TA.AperFunction,Plated,PTH,ComponentDrill
T8C0.0591
%
G90
G05
T1
X2.251Y-3.7323
X3.001Y-3.7323
X3.8022Y-3.7402
X3.8752Y-2.9394
X4.501Y-3.7323
X5.0055Y-2.7835
X5.1417Y-2.748
X5.2008Y-2.3268
X5.2126Y-2.5157
X5.3543Y-2.4055
X5.423Y-3.4933
X5.4961Y-2.3071
X6.1305Y-3.8701
X6.3677Y-1.6748
X6.4213Y-2.1079
T2
X4.1764Y-2.3268
X4.4464Y-1.6685
X4.4464Y-1.9685
X4.4764Y-2.3268
X5.3019Y-2.3504
X5.3019Y-2.4606
X5.6019Y-2.3504
X5.6019Y-2.4606
T3
X4.4228Y-2.6102
X4.5212Y-2.6102
X4.5764Y-3.0669
X4.6748Y-3.0669
X4.722Y-2.0276
X4.722Y-2.126
X4.8205Y-3.0669
X4.9701Y-3.0669
X4.974Y-2.8425
X4.974Y-2.9409
X5.0591Y-2.0276
X5.0591Y-2.126
X5.1157Y-3.0669
X5.2142Y-3.0669
X5.3079Y-2.5492
X5.3086Y-2.6339
X5.3394Y-2.1575
X5.3394Y-2.2559
X5.4063Y-2.5492
X5.4071Y-2.6339
T4
X4.4823Y-1.2426
X4.6594Y-1.2426
T5
X5.7673Y-2.2559
X5.7673Y-2.3559
X5.7673Y-2.4559
X5.7673Y-2.5559
T6
X4.0669Y-1.1791
X4.0669Y-1.3563
X4.3228Y-1.1791
X4.3228Y-1.3563
T7
X4.4327Y-1.3406
X4.7087Y-1.3406
T8
X0.976Y-1.3823
X0.976Y-3.6323
X0.976Y-5.8823
X1.226Y-1.2823
X1.226Y-3.5323
X1.226Y-5.7823
X1.726Y-3.6323
X1.976Y-3.5323
X2.476Y-3.6323
X2.726Y-3.5323
X3.226Y-1.3823
X3.226Y-2.1323
X3.226Y-2.8823
X3.226Y-3.6323
X3.226Y-4.3823
X3.226Y-5.1323
X3.226Y-5.8823
X3.476Y-1.2823
X3.476Y-2.0323
X3.476Y-2.7823
X3.476Y-3.5323
X3.476Y-4.2823
X3.476Y-5.0323
X3.476Y-5.7823
X3.976Y-3.6323
X4.226Y-3.5323
X4.726Y-3.6323
X4.976Y-3.5323
X5.476Y-1.3823
X5.476Y-3.6323
X5.476Y-5.8823
X5.726Y-1.2823
X5.726Y-3.5323
X5.726Y-5.7823
X6.472Y-1.6323
X6.472Y-2.3823
X6.472Y-3.1323
X6.472Y-4.1303
X6.472Y-4.8803
X6.472Y-5.6303
X6.722Y-1.5323
X6.722Y-2.2823
X6.722Y-3.0323
X6.722Y-4.0303
X6.722Y-4.7803
X6.722Y-5.5303
T0
M30
