%TF.GenerationSoftware,KiCad,Pcbnew,(6.0.4)*%
%TF.CreationDate,2022-05-24T13:04:00-03:00*%
%TF.ProjectId,G-Code_Keeb,472d436f-6465-45f4-9b65-65622e6b6963,1*%
%TF.SameCoordinates,Original*%
%TF.FileFunction,Soldermask,Bot*%
%TF.FilePolarity,Negative*%
%FSLAX46Y46*%
G04 Gerber Fmt 4.6, Leading zero omitted, Abs format (unit mm)*
G04 Created by KiCad (PCBNEW (6.0.4)) date 2022-05-24 13:04:00*
%MOMM*%
%LPD*%
G01*
G04 APERTURE LIST*
%ADD10C,4.000000*%
%ADD11C,1.750000*%
%ADD12C,2.500000*%
%ADD13C,3.200000*%
%ADD14C,1.600000*%
%ADD15R,1.700000X1.700000*%
%ADD16O,1.700000X1.700000*%
%ADD17C,2.100000*%
%ADD18C,2.000000*%
%ADD19C,1.400000*%
%ADD20O,1.400000X1.400000*%
%ADD21C,1.500000*%
%ADD22R,1.500000X0.550000*%
%ADD23R,0.550000X1.500000*%
G04 APERTURE END LIST*
D10*
%TO.C,SW11*%
X85750000Y-132900000D03*
D11*
X90830000Y-132900000D03*
X80670000Y-132900000D03*
D12*
X81940000Y-130360000D03*
X88290000Y-127820000D03*
%TD*%
D13*
%TO.C,H2*%
X157050000Y-48800000D03*
%TD*%
D11*
%TO.C,SW21*%
X137820000Y-151950000D03*
X147980000Y-151950000D03*
D10*
X142900000Y-151950000D03*
D12*
X139090000Y-149410000D03*
X145440000Y-146870000D03*
%TD*%
D11*
%TO.C,SW17*%
X173280000Y-126500000D03*
X163120000Y-126500000D03*
D10*
X168200000Y-126500000D03*
D12*
X164390000Y-123960000D03*
X170740000Y-121420000D03*
%TD*%
D11*
%TO.C,SW4*%
X71780000Y-94800000D03*
X61620000Y-94800000D03*
D10*
X66700000Y-94800000D03*
D12*
X62890000Y-92260000D03*
X69240000Y-89720000D03*
%TD*%
D11*
%TO.C,SW14*%
X173280000Y-63050000D03*
D10*
X168200000Y-63050000D03*
D11*
X163120000Y-63050000D03*
D12*
X164390000Y-60510000D03*
X170740000Y-57970000D03*
%TD*%
D13*
%TO.C,H4*%
X39700000Y-48800000D03*
%TD*%
D11*
%TO.C,SW6*%
X33680000Y-94800000D03*
D10*
X28600000Y-94800000D03*
D11*
X23520000Y-94800000D03*
D12*
X24790000Y-92260000D03*
X31140000Y-89720000D03*
%TD*%
D13*
%TO.C,H1*%
X157050000Y-140800000D03*
%TD*%
D10*
%TO.C,SW18*%
X168200000Y-145550000D03*
D11*
X163120000Y-145550000D03*
X173280000Y-145550000D03*
D12*
X164390000Y-143010000D03*
X170740000Y-140470000D03*
%TD*%
D11*
%TO.C,SW19*%
X23520000Y-151950000D03*
D10*
X28600000Y-151950000D03*
D11*
X33680000Y-151950000D03*
D12*
X24790000Y-149410000D03*
X31140000Y-146870000D03*
%TD*%
D11*
%TO.C,SW16*%
X163120000Y-107450000D03*
X173280000Y-107450000D03*
D10*
X168200000Y-107450000D03*
D12*
X164390000Y-104910000D03*
X170740000Y-102370000D03*
%TD*%
D11*
%TO.C,SW15*%
X163120000Y-82100000D03*
D10*
X168200000Y-82100000D03*
D11*
X173280000Y-82100000D03*
D12*
X164390000Y-79560000D03*
X170740000Y-77020000D03*
%TD*%
D11*
%TO.C,SW9*%
X90830000Y-75750000D03*
X80670000Y-75750000D03*
D10*
X85750000Y-75750000D03*
D12*
X81940000Y-73210000D03*
X88290000Y-70670000D03*
%TD*%
D11*
%TO.C,SW13*%
X163120000Y-44000000D03*
D10*
X168200000Y-44000000D03*
D11*
X173280000Y-44000000D03*
D12*
X164390000Y-41460000D03*
X170740000Y-38920000D03*
%TD*%
D11*
%TO.C,SW2*%
X128930000Y-94800000D03*
D10*
X123850000Y-94800000D03*
D11*
X118770000Y-94800000D03*
D12*
X120040000Y-92260000D03*
X126390000Y-89720000D03*
%TD*%
D11*
%TO.C,SW8*%
X90830000Y-56700000D03*
D10*
X85750000Y-56700000D03*
D11*
X80670000Y-56700000D03*
D12*
X81940000Y-54160000D03*
X88290000Y-51620000D03*
%TD*%
D10*
%TO.C,SW5*%
X47650000Y-94800000D03*
D11*
X52730000Y-94800000D03*
X42570000Y-94800000D03*
D12*
X43840000Y-92260000D03*
X50190000Y-89720000D03*
%TD*%
D11*
%TO.C,SW1*%
X147980000Y-94800000D03*
X137820000Y-94800000D03*
D10*
X142900000Y-94800000D03*
D12*
X139090000Y-92260000D03*
X145440000Y-89720000D03*
%TD*%
D10*
%TO.C,SW7*%
X85750000Y-37650000D03*
D11*
X90830000Y-37650000D03*
X80670000Y-37650000D03*
D12*
X81940000Y-35110000D03*
X88290000Y-32570000D03*
%TD*%
D11*
%TO.C,SW12*%
X90830000Y-151950000D03*
D10*
X85750000Y-151950000D03*
D11*
X80670000Y-151950000D03*
D12*
X81940000Y-149410000D03*
X88290000Y-146870000D03*
%TD*%
D11*
%TO.C,SW23*%
X147980000Y-37650000D03*
X137820000Y-37650000D03*
D10*
X142900000Y-37650000D03*
D12*
X139090000Y-35110000D03*
X145440000Y-32570000D03*
%TD*%
D11*
%TO.C,SW20*%
X33680000Y-37650000D03*
X23520000Y-37650000D03*
D10*
X28600000Y-37650000D03*
D12*
X24790000Y-35110000D03*
X31140000Y-32570000D03*
%TD*%
D11*
%TO.C,SW3*%
X109880000Y-94800000D03*
X99720000Y-94800000D03*
D10*
X104800000Y-94800000D03*
D12*
X100990000Y-92260000D03*
X107340000Y-89720000D03*
%TD*%
D11*
%TO.C,SW10*%
X90830000Y-113850000D03*
X80670000Y-113850000D03*
D10*
X85750000Y-113850000D03*
D12*
X81940000Y-111310000D03*
X88290000Y-108770000D03*
%TD*%
D13*
%TO.C,H3*%
X39700000Y-140800000D03*
%TD*%
D11*
%TO.C,SW22*%
X80670000Y-94800000D03*
X90830000Y-94800000D03*
D10*
X85750000Y-94800000D03*
D12*
X81940000Y-92260000D03*
X88290000Y-89720000D03*
%TD*%
D14*
%TO.C,C1*%
X132439524Y-77900000D03*
X129939524Y-77900000D03*
%TD*%
D15*
%TO.C,J1*%
X146489524Y-57300000D03*
D16*
X146489524Y-59840000D03*
X146489524Y-62380000D03*
X146489524Y-64920000D03*
%TD*%
D14*
%TO.C,C7*%
X112339524Y-66300000D03*
X114839524Y-66300000D03*
%TD*%
D17*
%TO.C,SW24*%
X119600000Y-34052500D03*
X112590000Y-34052500D03*
D11*
X118350000Y-31562500D03*
X113850000Y-31562500D03*
%TD*%
D18*
%TO.C,SW25*%
X103300000Y-29950000D03*
X109800000Y-29950000D03*
X103300000Y-34450000D03*
X109800000Y-34450000D03*
%TD*%
D19*
%TO.C,R3*%
X112939524Y-50000000D03*
D20*
X112939524Y-42380000D03*
%TD*%
D14*
%TO.C,C9*%
X128500000Y-51500000D03*
X128500000Y-54000000D03*
%TD*%
D21*
%TO.C,Y1*%
X126239524Y-77900000D03*
X122439524Y-77900000D03*
%TD*%
D19*
%TO.C,R2*%
X134669524Y-59700000D03*
D20*
X142289524Y-59700000D03*
%TD*%
D14*
%TO.C,C8*%
X119939524Y-51500000D03*
X119939524Y-54000000D03*
%TD*%
%TO.C,C6*%
X126339524Y-74700000D03*
X126339524Y-72200000D03*
%TD*%
D22*
%TO.C,U1*%
X129639524Y-59100000D03*
X129639524Y-59900000D03*
X129639524Y-60700000D03*
X129639524Y-61500000D03*
X129639524Y-62300000D03*
X129639524Y-63100000D03*
X129639524Y-63900000D03*
X129639524Y-64700000D03*
X129639524Y-65500000D03*
X129639524Y-66300000D03*
X129639524Y-67100000D03*
D23*
X127939524Y-68800000D03*
X127139524Y-68800000D03*
X126339524Y-68800000D03*
X125539524Y-68800000D03*
X124739524Y-68800000D03*
X123939524Y-68800000D03*
X123139524Y-68800000D03*
X122339524Y-68800000D03*
X121539524Y-68800000D03*
X120739524Y-68800000D03*
X119939524Y-68800000D03*
D22*
X118239524Y-67100000D03*
X118239524Y-66300000D03*
X118239524Y-65500000D03*
X118239524Y-64700000D03*
X118239524Y-63900000D03*
X118239524Y-63100000D03*
X118239524Y-62300000D03*
X118239524Y-61500000D03*
X118239524Y-60700000D03*
X118239524Y-59900000D03*
X118239524Y-59100000D03*
D23*
X119939524Y-57400000D03*
X120739524Y-57400000D03*
X121539524Y-57400000D03*
X122339524Y-57400000D03*
X123139524Y-57400000D03*
X123939524Y-57400000D03*
X124739524Y-57400000D03*
X125539524Y-57400000D03*
X126339524Y-57400000D03*
X127139524Y-57400000D03*
X127939524Y-57400000D03*
%TD*%
D14*
%TO.C,C5*%
X137339524Y-66900000D03*
X134839524Y-66900000D03*
%TD*%
%TO.C,C4*%
X135620646Y-54800000D03*
X135620646Y-57300000D03*
%TD*%
D19*
%TO.C,R1*%
X142289524Y-62500000D03*
D20*
X134669524Y-62500000D03*
%TD*%
D19*
%TO.C,R4*%
X113700000Y-59100000D03*
D20*
X106080000Y-59100000D03*
%TD*%
D14*
%TO.C,C2*%
X118739524Y-77900000D03*
X116239524Y-77900000D03*
%TD*%
%TO.C,C3*%
X137319524Y-64750000D03*
X134819524Y-64750000D03*
%TD*%
M02*
