%TF.GenerationSoftware,KiCad,Pcbnew,(6.0.4)*%
%TF.CreationDate,2022-05-22T15:07:10-03:00*%
%TF.ProjectId,G-Code_Keeb,472d436f-6465-45f4-9b65-65622e6b6963,1*%
%TF.SameCoordinates,Original*%
%TF.FileFunction,Paste,Bot*%
%TF.FilePolarity,Positive*%
%FSLAX46Y46*%
G04 Gerber Fmt 4.6, Leading zero omitted, Abs format (unit mm)*
G04 Created by KiCad (PCBNEW (6.0.4)) date 2022-05-22 15:07:10*
%MOMM*%
%LPD*%
G01*
G04 APERTURE LIST*
%ADD10R,1.500000X0.550000*%
%ADD11R,0.550000X1.500000*%
G04 APERTURE END LIST*
D10*
%TO.C,U1*%
X129639524Y-59100000D03*
X129639524Y-59900000D03*
X129639524Y-60700000D03*
X129639524Y-61500000D03*
X129639524Y-62300000D03*
X129639524Y-63100000D03*
X129639524Y-63900000D03*
X129639524Y-64700000D03*
X129639524Y-65500000D03*
X129639524Y-66300000D03*
X129639524Y-67100000D03*
D11*
X127939524Y-68800000D03*
X127139524Y-68800000D03*
X126339524Y-68800000D03*
X125539524Y-68800000D03*
X124739524Y-68800000D03*
X123939524Y-68800000D03*
X123139524Y-68800000D03*
X122339524Y-68800000D03*
X121539524Y-68800000D03*
X120739524Y-68800000D03*
X119939524Y-68800000D03*
D10*
X118239524Y-67100000D03*
X118239524Y-66300000D03*
X118239524Y-65500000D03*
X118239524Y-64700000D03*
X118239524Y-63900000D03*
X118239524Y-63100000D03*
X118239524Y-62300000D03*
X118239524Y-61500000D03*
X118239524Y-60700000D03*
X118239524Y-59900000D03*
X118239524Y-59100000D03*
D11*
X119939524Y-57400000D03*
X120739524Y-57400000D03*
X121539524Y-57400000D03*
X122339524Y-57400000D03*
X123139524Y-57400000D03*
X123939524Y-57400000D03*
X124739524Y-57400000D03*
X125539524Y-57400000D03*
X126339524Y-57400000D03*
X127139524Y-57400000D03*
X127939524Y-57400000D03*
%TD*%
M02*
