%TF.GenerationSoftware,KiCad,Pcbnew,(6.0.4)*%
%TF.CreationDate,2022-05-19T11:32:38-03:00*%
%TF.ProjectId,G-Code_Keeb,472d436f-6465-45f4-9b65-65622e6b6963,1*%
%TF.SameCoordinates,Original*%
%TF.FileFunction,Legend,Top*%
%TF.FilePolarity,Positive*%
%FSLAX46Y46*%
G04 Gerber Fmt 4.6, Leading zero omitted, Abs format (unit mm)*
G04 Created by KiCad (PCBNEW (6.0.4)) date 2022-05-19 11:32:38*
%MOMM*%
%LPD*%
G01*
G04 APERTURE LIST*
%ADD10C,0.300000*%
%ADD11C,0.150000*%
%ADD12C,0.120000*%
G04 APERTURE END LIST*
D10*
X100445357Y-135866071D02*
X99731071Y-135866071D01*
X99918571Y-134366071D01*
X100945357Y-135866071D02*
X101070357Y-134866071D01*
X101132857Y-134366071D02*
X101052500Y-134437500D01*
X101115000Y-134508928D01*
X101195357Y-134437500D01*
X101132857Y-134366071D01*
X101115000Y-134508928D01*
X102311428Y-135794642D02*
X102159642Y-135866071D01*
X101873928Y-135866071D01*
X101740000Y-135794642D01*
X101677500Y-135723214D01*
X101623928Y-135580357D01*
X101677500Y-135151785D01*
X101766785Y-135008928D01*
X101847142Y-134937500D01*
X101998928Y-134866071D01*
X102284642Y-134866071D01*
X102418571Y-134937500D01*
X103525714Y-135794642D02*
X103373928Y-135866071D01*
X103088214Y-135866071D01*
X102954285Y-135794642D01*
X102900714Y-135651785D01*
X102972142Y-135080357D01*
X103061428Y-134937500D01*
X103213214Y-134866071D01*
X103498928Y-134866071D01*
X103632857Y-134937500D01*
X103686428Y-135080357D01*
X103668571Y-135223214D01*
X102936428Y-135366071D01*
X104356071Y-134866071D02*
X104231071Y-135866071D01*
X104338214Y-135008928D02*
X104418571Y-134937500D01*
X104570357Y-134866071D01*
X104784642Y-134866071D01*
X104918571Y-134937500D01*
X104972142Y-135080357D01*
X104873928Y-135866071D01*
X105525714Y-135794642D02*
X105659642Y-135866071D01*
X105945357Y-135866071D01*
X106097142Y-135794642D01*
X106186428Y-135651785D01*
X106195357Y-135580357D01*
X106141785Y-135437500D01*
X106007857Y-135366071D01*
X105793571Y-135366071D01*
X105659642Y-135294642D01*
X105606071Y-135151785D01*
X105615000Y-135080357D01*
X105704285Y-134937500D01*
X105856071Y-134866071D01*
X106070357Y-134866071D01*
X106204285Y-134937500D01*
X107382857Y-135794642D02*
X107231071Y-135866071D01*
X106945357Y-135866071D01*
X106811428Y-135794642D01*
X106757857Y-135651785D01*
X106829285Y-135080357D01*
X106918571Y-134937500D01*
X107070357Y-134866071D01*
X107356071Y-134866071D01*
X107490000Y-134937500D01*
X107543571Y-135080357D01*
X107525714Y-135223214D01*
X106793571Y-135366071D01*
X108731071Y-135866071D02*
X108918571Y-134366071D01*
X108740000Y-135794642D02*
X108588214Y-135866071D01*
X108302500Y-135866071D01*
X108168571Y-135794642D01*
X108106071Y-135723214D01*
X108052500Y-135580357D01*
X108106071Y-135151785D01*
X108195357Y-135008928D01*
X108275714Y-134937500D01*
X108427500Y-134866071D01*
X108713214Y-134866071D01*
X108847142Y-134937500D01*
X111356071Y-134866071D02*
X111231071Y-135866071D01*
X110713214Y-134866071D02*
X110615000Y-135651785D01*
X110668571Y-135794642D01*
X110802500Y-135866071D01*
X111016785Y-135866071D01*
X111168571Y-135794642D01*
X111248928Y-135723214D01*
X112070357Y-134866071D02*
X111945357Y-135866071D01*
X112052500Y-135008928D02*
X112132857Y-134937500D01*
X112284642Y-134866071D01*
X112498928Y-134866071D01*
X112632857Y-134937500D01*
X112686428Y-135080357D01*
X112588214Y-135866071D01*
X113945357Y-135866071D02*
X114132857Y-134366071D01*
X113954285Y-135794642D02*
X113802500Y-135866071D01*
X113516785Y-135866071D01*
X113382857Y-135794642D01*
X113320357Y-135723214D01*
X113266785Y-135580357D01*
X113320357Y-135151785D01*
X113409642Y-135008928D01*
X113490000Y-134937500D01*
X113641785Y-134866071D01*
X113927500Y-134866071D01*
X114061428Y-134937500D01*
X115240000Y-135794642D02*
X115088214Y-135866071D01*
X114802500Y-135866071D01*
X114668571Y-135794642D01*
X114615000Y-135651785D01*
X114686428Y-135080357D01*
X114775714Y-134937500D01*
X114927500Y-134866071D01*
X115213214Y-134866071D01*
X115347142Y-134937500D01*
X115400714Y-135080357D01*
X115382857Y-135223214D01*
X114650714Y-135366071D01*
X115945357Y-135866071D02*
X116070357Y-134866071D01*
X116034642Y-135151785D02*
X116123928Y-135008928D01*
X116204285Y-134937500D01*
X116356071Y-134866071D01*
X116498928Y-134866071D01*
X118891785Y-135723214D02*
X118811428Y-135794642D01*
X118588214Y-135866071D01*
X118445357Y-135866071D01*
X118240000Y-135794642D01*
X118115000Y-135651785D01*
X118061428Y-135508928D01*
X118025714Y-135223214D01*
X118052500Y-135008928D01*
X118159642Y-134723214D01*
X118248928Y-134580357D01*
X118409642Y-134437500D01*
X118632857Y-134366071D01*
X118775714Y-134366071D01*
X118981071Y-134437500D01*
X119043571Y-134508928D01*
X119615000Y-135080357D02*
X120115000Y-135080357D01*
X120231071Y-135866071D02*
X119516785Y-135866071D01*
X119704285Y-134366071D01*
X120418571Y-134366071D01*
X121731071Y-135866071D02*
X121320357Y-135151785D01*
X120873928Y-135866071D02*
X121061428Y-134366071D01*
X121632857Y-134366071D01*
X121766785Y-134437500D01*
X121829285Y-134508928D01*
X121882857Y-134651785D01*
X121856071Y-134866071D01*
X121766785Y-135008928D01*
X121686428Y-135080357D01*
X121534642Y-135151785D01*
X120963214Y-135151785D01*
X122373928Y-135866071D02*
X122561428Y-134366071D01*
X123231071Y-135866071D01*
X123418571Y-134366071D01*
X124016785Y-135294642D02*
X125159642Y-135294642D01*
X126275714Y-134366071D02*
X126561428Y-134366071D01*
X126695357Y-134437500D01*
X126820357Y-134580357D01*
X126856071Y-134866071D01*
X126793571Y-135366071D01*
X126686428Y-135651785D01*
X126525714Y-135794642D01*
X126373928Y-135866071D01*
X126088214Y-135866071D01*
X125954285Y-135794642D01*
X125829285Y-135651785D01*
X125793571Y-135366071D01*
X125856071Y-134866071D01*
X125963214Y-134580357D01*
X126123928Y-134437500D01*
X126275714Y-134366071D01*
X127373928Y-135866071D02*
X127561428Y-134366071D01*
X127472142Y-135080357D02*
X128329285Y-135080357D01*
X128231071Y-135866071D02*
X128418571Y-134366071D01*
X129659642Y-135866071D02*
X128945357Y-135866071D01*
X129132857Y-134366071D01*
X130231071Y-135294642D02*
X131373928Y-135294642D01*
X131954285Y-135794642D02*
X132159642Y-135866071D01*
X132516785Y-135866071D01*
X132668571Y-135794642D01*
X132748928Y-135723214D01*
X132838214Y-135580357D01*
X132856071Y-135437500D01*
X132802500Y-135294642D01*
X132740000Y-135223214D01*
X132606071Y-135151785D01*
X132329285Y-135080357D01*
X132195357Y-135008928D01*
X132132857Y-134937500D01*
X132079285Y-134794642D01*
X132097142Y-134651785D01*
X132186428Y-134508928D01*
X132266785Y-134437500D01*
X132418571Y-134366071D01*
X132775714Y-134366071D01*
X132981071Y-134437500D01*
X134570357Y-134866071D02*
X134802500Y-135866071D01*
X135284642Y-134866071D01*
X135829285Y-134508928D02*
X135909642Y-134437500D01*
X136061428Y-134366071D01*
X136418571Y-134366071D01*
X136552500Y-134437500D01*
X136615000Y-134508928D01*
X136668571Y-134651785D01*
X136650714Y-134794642D01*
X136552500Y-135008928D01*
X135588214Y-135866071D01*
X136516785Y-135866071D01*
X99731071Y-138281071D02*
X99918571Y-136781071D01*
X100373928Y-138281071D02*
X100472142Y-137495357D01*
X100418571Y-137352500D01*
X100284642Y-137281071D01*
X100070357Y-137281071D01*
X99918571Y-137352500D01*
X99838214Y-137423928D01*
X100998928Y-137281071D02*
X101570357Y-137281071D01*
X101275714Y-136781071D02*
X101115000Y-138066785D01*
X101168571Y-138209642D01*
X101302500Y-138281071D01*
X101445357Y-138281071D01*
X101856071Y-137281071D02*
X102427500Y-137281071D01*
X102132857Y-136781071D02*
X101972142Y-138066785D01*
X102025714Y-138209642D01*
X102159642Y-138281071D01*
X102302500Y-138281071D01*
X102927500Y-137281071D02*
X102740000Y-138781071D01*
X102918571Y-137352500D02*
X103070357Y-137281071D01*
X103356071Y-137281071D01*
X103490000Y-137352500D01*
X103552500Y-137423928D01*
X103606071Y-137566785D01*
X103552500Y-137995357D01*
X103463214Y-138138214D01*
X103382857Y-138209642D01*
X103231071Y-138281071D01*
X102945357Y-138281071D01*
X102811428Y-138209642D01*
X104097142Y-138209642D02*
X104231071Y-138281071D01*
X104516785Y-138281071D01*
X104668571Y-138209642D01*
X104757857Y-138066785D01*
X104766785Y-137995357D01*
X104713214Y-137852500D01*
X104579285Y-137781071D01*
X104365000Y-137781071D01*
X104231071Y-137709642D01*
X104177500Y-137566785D01*
X104186428Y-137495357D01*
X104275714Y-137352500D01*
X104427500Y-137281071D01*
X104641785Y-137281071D01*
X104775714Y-137352500D01*
X105391785Y-138138214D02*
X105454285Y-138209642D01*
X105373928Y-138281071D01*
X105311428Y-138209642D01*
X105391785Y-138138214D01*
X105373928Y-138281071D01*
X105490000Y-137352500D02*
X105552500Y-137423928D01*
X105472142Y-137495357D01*
X105409642Y-137423928D01*
X105490000Y-137352500D01*
X105472142Y-137495357D01*
X107356071Y-136709642D02*
X105829285Y-138638214D01*
X108927500Y-136709642D02*
X107400714Y-138638214D01*
X109998928Y-137281071D02*
X109847142Y-138495357D01*
X109757857Y-138638214D01*
X109677500Y-138709642D01*
X109525714Y-138781071D01*
X109311428Y-138781071D01*
X109177500Y-138709642D01*
X109882857Y-138209642D02*
X109731071Y-138281071D01*
X109445357Y-138281071D01*
X109311428Y-138209642D01*
X109248928Y-138138214D01*
X109195357Y-137995357D01*
X109248928Y-137566785D01*
X109338214Y-137423928D01*
X109418571Y-137352500D01*
X109570357Y-137281071D01*
X109856071Y-137281071D01*
X109990000Y-137352500D01*
X110588214Y-138281071D02*
X110713214Y-137281071D01*
X110775714Y-136781071D02*
X110695357Y-136852500D01*
X110757857Y-136923928D01*
X110838214Y-136852500D01*
X110775714Y-136781071D01*
X110757857Y-136923928D01*
X111213214Y-137281071D02*
X111784642Y-137281071D01*
X111490000Y-136781071D02*
X111329285Y-138066785D01*
X111382857Y-138209642D01*
X111516785Y-138281071D01*
X111659642Y-138281071D01*
X112159642Y-138281071D02*
X112347142Y-136781071D01*
X112802500Y-138281071D02*
X112900714Y-137495357D01*
X112847142Y-137352500D01*
X112713214Y-137281071D01*
X112498928Y-137281071D01*
X112347142Y-137352500D01*
X112266785Y-137423928D01*
X114284642Y-137281071D02*
X114159642Y-138281071D01*
X113641785Y-137281071D02*
X113543571Y-138066785D01*
X113597142Y-138209642D01*
X113731071Y-138281071D01*
X113945357Y-138281071D01*
X114097142Y-138209642D01*
X114177500Y-138138214D01*
X114873928Y-138281071D02*
X115061428Y-136781071D01*
X114990000Y-137352500D02*
X115141785Y-137281071D01*
X115427500Y-137281071D01*
X115561428Y-137352500D01*
X115623928Y-137423928D01*
X115677500Y-137566785D01*
X115623928Y-137995357D01*
X115534642Y-138138214D01*
X115454285Y-138209642D01*
X115302500Y-138281071D01*
X115016785Y-138281071D01*
X114882857Y-138209642D01*
X116248928Y-138138214D02*
X116311428Y-138209642D01*
X116231071Y-138281071D01*
X116168571Y-138209642D01*
X116248928Y-138138214D01*
X116231071Y-138281071D01*
X117597142Y-138209642D02*
X117445357Y-138281071D01*
X117159642Y-138281071D01*
X117025714Y-138209642D01*
X116963214Y-138138214D01*
X116909642Y-137995357D01*
X116963214Y-137566785D01*
X117052500Y-137423928D01*
X117132857Y-137352500D01*
X117284642Y-137281071D01*
X117570357Y-137281071D01*
X117704285Y-137352500D01*
X118445357Y-138281071D02*
X118311428Y-138209642D01*
X118248928Y-138138214D01*
X118195357Y-137995357D01*
X118248928Y-137566785D01*
X118338214Y-137423928D01*
X118418571Y-137352500D01*
X118570357Y-137281071D01*
X118784642Y-137281071D01*
X118918571Y-137352500D01*
X118981071Y-137423928D01*
X119034642Y-137566785D01*
X118981071Y-137995357D01*
X118891785Y-138138214D01*
X118811428Y-138209642D01*
X118659642Y-138281071D01*
X118445357Y-138281071D01*
X119588214Y-138281071D02*
X119713214Y-137281071D01*
X119695357Y-137423928D02*
X119775714Y-137352500D01*
X119927500Y-137281071D01*
X120141785Y-137281071D01*
X120275714Y-137352500D01*
X120329285Y-137495357D01*
X120231071Y-138281071D01*
X120329285Y-137495357D02*
X120418571Y-137352500D01*
X120570357Y-137281071D01*
X120784642Y-137281071D01*
X120918571Y-137352500D01*
X120972142Y-137495357D01*
X120873928Y-138281071D01*
X122856071Y-136709642D02*
X121329285Y-138638214D01*
X123132857Y-136781071D02*
X123445357Y-138281071D01*
X124132857Y-136781071D01*
X124445357Y-138281071D02*
X124570357Y-137281071D01*
X124632857Y-136781071D02*
X124552500Y-136852500D01*
X124615000Y-136923928D01*
X124695357Y-136852500D01*
X124632857Y-136781071D01*
X124615000Y-136923928D01*
X125284642Y-137281071D02*
X125159642Y-138281071D01*
X125266785Y-137423928D02*
X125347142Y-137352500D01*
X125498928Y-137281071D01*
X125713214Y-137281071D01*
X125847142Y-137352500D01*
X125900714Y-137495357D01*
X125802500Y-138281071D01*
X126641785Y-137281071D02*
X126516785Y-138281071D01*
X126623928Y-137423928D02*
X126704285Y-137352500D01*
X126856071Y-137281071D01*
X127070357Y-137281071D01*
X127204285Y-137352500D01*
X127257857Y-137495357D01*
X127159642Y-138281071D01*
X127856071Y-137281071D02*
X128088214Y-138281071D01*
X128570357Y-137281071D02*
X128088214Y-138281071D01*
X127900714Y-138638214D01*
X127820357Y-138709642D01*
X127668571Y-138781071D01*
X129891785Y-138138214D02*
X129811428Y-138209642D01*
X129588214Y-138281071D01*
X129445357Y-138281071D01*
X129240000Y-138209642D01*
X129115000Y-138066785D01*
X129061428Y-137923928D01*
X129025714Y-137638214D01*
X129052500Y-137423928D01*
X129159642Y-137138214D01*
X129248928Y-136995357D01*
X129409642Y-136852500D01*
X129632857Y-136781071D01*
X129775714Y-136781071D01*
X129981071Y-136852500D01*
X130043571Y-136923928D01*
X130731071Y-138281071D02*
X130597142Y-138209642D01*
X130534642Y-138138214D01*
X130481071Y-137995357D01*
X130534642Y-137566785D01*
X130623928Y-137423928D01*
X130704285Y-137352500D01*
X130856071Y-137281071D01*
X131070357Y-137281071D01*
X131204285Y-137352500D01*
X131266785Y-137423928D01*
X131320357Y-137566785D01*
X131266785Y-137995357D01*
X131177500Y-138138214D01*
X131097142Y-138209642D01*
X130945357Y-138281071D01*
X130731071Y-138281071D01*
X131873928Y-138281071D02*
X131998928Y-137281071D01*
X131963214Y-137566785D02*
X132052500Y-137423928D01*
X132132857Y-137352500D01*
X132284642Y-137281071D01*
X132427500Y-137281071D01*
X133445357Y-138281071D02*
X133632857Y-136781071D01*
X133454285Y-138209642D02*
X133302500Y-138281071D01*
X133016785Y-138281071D01*
X132882857Y-138209642D01*
X132820357Y-138138214D01*
X132766785Y-137995357D01*
X132820357Y-137566785D01*
X132909642Y-137423928D01*
X132990000Y-137352500D01*
X133141785Y-137281071D01*
X133427500Y-137281071D01*
X133561428Y-137352500D01*
X134740000Y-138209642D02*
X134588214Y-138281071D01*
X134302500Y-138281071D01*
X134168571Y-138209642D01*
X134115000Y-138066785D01*
X134186428Y-137495357D01*
X134275714Y-137352500D01*
X134427500Y-137281071D01*
X134713214Y-137281071D01*
X134847142Y-137352500D01*
X134900714Y-137495357D01*
X134882857Y-137638214D01*
X134150714Y-137781071D01*
X135445357Y-138281071D02*
X135570357Y-137281071D01*
X135632857Y-136781071D02*
X135552500Y-136852500D01*
X135615000Y-136923928D01*
X135695357Y-136852500D01*
X135632857Y-136781071D01*
X135615000Y-136923928D01*
X136159642Y-138281071D02*
X136284642Y-137281071D01*
X136248928Y-137566785D02*
X136338214Y-137423928D01*
X136418571Y-137352500D01*
X136570357Y-137281071D01*
X136713214Y-137281071D01*
X137302500Y-138281071D02*
X137168571Y-138209642D01*
X137106071Y-138138214D01*
X137052500Y-137995357D01*
X137106071Y-137566785D01*
X137195357Y-137423928D01*
X137275714Y-137352500D01*
X137427500Y-137281071D01*
X137641785Y-137281071D01*
X137775714Y-137352500D01*
X137838214Y-137423928D01*
X137891785Y-137566785D01*
X137838214Y-137995357D01*
X137748928Y-138138214D01*
X137668571Y-138209642D01*
X137516785Y-138281071D01*
X137302500Y-138281071D01*
X139713214Y-136709642D02*
X138186428Y-138638214D01*
X140784642Y-137281071D02*
X140632857Y-138495357D01*
X140543571Y-138638214D01*
X140463214Y-138709642D01*
X140311428Y-138781071D01*
X140097142Y-138781071D01*
X139963214Y-138709642D01*
X140668571Y-138209642D02*
X140516785Y-138281071D01*
X140231071Y-138281071D01*
X140097142Y-138209642D01*
X140034642Y-138138214D01*
X139981071Y-137995357D01*
X140034642Y-137566785D01*
X140123928Y-137423928D01*
X140204285Y-137352500D01*
X140356071Y-137281071D01*
X140641785Y-137281071D01*
X140775714Y-137352500D01*
X141445357Y-137709642D02*
X142588214Y-137709642D01*
X143882857Y-138209642D02*
X143731071Y-138281071D01*
X143445357Y-138281071D01*
X143311428Y-138209642D01*
X143248928Y-138138214D01*
X143195357Y-137995357D01*
X143248928Y-137566785D01*
X143338214Y-137423928D01*
X143418571Y-137352500D01*
X143570357Y-137281071D01*
X143856071Y-137281071D01*
X143990000Y-137352500D01*
X144731071Y-138281071D02*
X144597142Y-138209642D01*
X144534642Y-138138214D01*
X144481071Y-137995357D01*
X144534642Y-137566785D01*
X144623928Y-137423928D01*
X144704285Y-137352500D01*
X144856071Y-137281071D01*
X145070357Y-137281071D01*
X145204285Y-137352500D01*
X145266785Y-137423928D01*
X145320357Y-137566785D01*
X145266785Y-137995357D01*
X145177500Y-138138214D01*
X145097142Y-138209642D01*
X144945357Y-138281071D01*
X144731071Y-138281071D01*
X146516785Y-138281071D02*
X146704285Y-136781071D01*
X146525714Y-138209642D02*
X146373928Y-138281071D01*
X146088214Y-138281071D01*
X145954285Y-138209642D01*
X145891785Y-138138214D01*
X145838214Y-137995357D01*
X145891785Y-137566785D01*
X145981071Y-137423928D01*
X146061428Y-137352500D01*
X146213214Y-137281071D01*
X146498928Y-137281071D01*
X146632857Y-137352500D01*
X147811428Y-138209642D02*
X147659642Y-138281071D01*
X147373928Y-138281071D01*
X147240000Y-138209642D01*
X147186428Y-138066785D01*
X147257857Y-137495357D01*
X147347142Y-137352500D01*
X147498928Y-137281071D01*
X147784642Y-137281071D01*
X147918571Y-137352500D01*
X147972142Y-137495357D01*
X147954285Y-137638214D01*
X147222142Y-137781071D01*
X148141785Y-138423928D02*
X149284642Y-138423928D01*
X149659642Y-138281071D02*
X149847142Y-136781071D01*
X149873928Y-137709642D02*
X150231071Y-138281071D01*
X150356071Y-137281071D02*
X149713214Y-137852500D01*
X151454285Y-138209642D02*
X151302500Y-138281071D01*
X151016785Y-138281071D01*
X150882857Y-138209642D01*
X150829285Y-138066785D01*
X150900714Y-137495357D01*
X150990000Y-137352500D01*
X151141785Y-137281071D01*
X151427500Y-137281071D01*
X151561428Y-137352500D01*
X151615000Y-137495357D01*
X151597142Y-137638214D01*
X150865000Y-137781071D01*
X152740000Y-138209642D02*
X152588214Y-138281071D01*
X152302500Y-138281071D01*
X152168571Y-138209642D01*
X152115000Y-138066785D01*
X152186428Y-137495357D01*
X152275714Y-137352500D01*
X152427500Y-137281071D01*
X152713214Y-137281071D01*
X152847142Y-137352500D01*
X152900714Y-137495357D01*
X152882857Y-137638214D01*
X152150714Y-137781071D01*
X153445357Y-138281071D02*
X153632857Y-136781071D01*
X153561428Y-137352500D02*
X153713214Y-137281071D01*
X153998928Y-137281071D01*
X154132857Y-137352500D01*
X154195357Y-137423928D01*
X154248928Y-137566785D01*
X154195357Y-137995357D01*
X154106071Y-138138214D01*
X154025714Y-138209642D01*
X153873928Y-138281071D01*
X153588214Y-138281071D01*
X153454285Y-138209642D01*
X156070357Y-136709642D02*
X154543571Y-138638214D01*
X101088214Y-141968214D02*
X100954285Y-141896785D01*
X100668571Y-141896785D01*
X100516785Y-141968214D01*
X100356071Y-142111071D01*
X100266785Y-142253928D01*
X100231071Y-142539642D01*
X100284642Y-142682500D01*
X100409642Y-142825357D01*
X100543571Y-142896785D01*
X100829285Y-142896785D01*
X100981071Y-142825357D01*
X100873928Y-141396785D02*
X100507857Y-141468214D01*
X100123928Y-141682500D01*
X99865000Y-142039642D01*
X99748928Y-142396785D01*
X99775714Y-142753928D01*
X99945357Y-143111071D01*
X100275714Y-143325357D01*
X100623928Y-143396785D01*
X100990000Y-143325357D01*
X101373928Y-143111071D01*
X101632857Y-142753928D01*
X101748928Y-142396785D01*
X101722142Y-142039642D01*
X101552500Y-141682500D01*
X101222142Y-141468214D01*
X100873928Y-141396785D01*
X103418571Y-141611071D02*
X103731071Y-143111071D01*
X104418571Y-141611071D01*
X104731071Y-143111071D02*
X104856071Y-142111071D01*
X104918571Y-141611071D02*
X104838214Y-141682500D01*
X104900714Y-141753928D01*
X104981071Y-141682500D01*
X104918571Y-141611071D01*
X104900714Y-141753928D01*
X105570357Y-142111071D02*
X105445357Y-143111071D01*
X105552500Y-142253928D02*
X105632857Y-142182500D01*
X105784642Y-142111071D01*
X105998928Y-142111071D01*
X106132857Y-142182500D01*
X106186428Y-142325357D01*
X106088214Y-143111071D01*
X106802500Y-143111071D02*
X106927500Y-142111071D01*
X107141785Y-141539642D02*
X106900714Y-141753928D01*
X108168571Y-143039642D02*
X108016785Y-143111071D01*
X107731071Y-143111071D01*
X107597142Y-143039642D01*
X107534642Y-142968214D01*
X107481071Y-142825357D01*
X107534642Y-142396785D01*
X107623928Y-142253928D01*
X107704285Y-142182500D01*
X107856071Y-142111071D01*
X108141785Y-142111071D01*
X108275714Y-142182500D01*
X108802500Y-143111071D02*
X108927500Y-142111071D01*
X108990000Y-141611071D02*
X108909642Y-141682500D01*
X108972142Y-141753928D01*
X109052500Y-141682500D01*
X108990000Y-141611071D01*
X108972142Y-141753928D01*
X110284642Y-142111071D02*
X110159642Y-143111071D01*
X109641785Y-142111071D02*
X109543571Y-142896785D01*
X109597142Y-143039642D01*
X109731071Y-143111071D01*
X109945357Y-143111071D01*
X110097142Y-143039642D01*
X110177500Y-142968214D01*
X110811428Y-143039642D02*
X110945357Y-143111071D01*
X111231071Y-143111071D01*
X111382857Y-143039642D01*
X111472142Y-142896785D01*
X111481071Y-142825357D01*
X111427500Y-142682500D01*
X111293571Y-142611071D01*
X111079285Y-142611071D01*
X110945357Y-142539642D01*
X110891785Y-142396785D01*
X110900714Y-142325357D01*
X110990000Y-142182500D01*
X111141785Y-142111071D01*
X111356071Y-142111071D01*
X111490000Y-142182500D01*
X114106071Y-142968214D02*
X114025714Y-143039642D01*
X113802500Y-143111071D01*
X113659642Y-143111071D01*
X113454285Y-143039642D01*
X113329285Y-142896785D01*
X113275714Y-142753928D01*
X113240000Y-142468214D01*
X113266785Y-142253928D01*
X113373928Y-141968214D01*
X113463214Y-141825357D01*
X113623928Y-141682500D01*
X113847142Y-141611071D01*
X113990000Y-141611071D01*
X114195357Y-141682500D01*
X114257857Y-141753928D01*
X114945357Y-143111071D02*
X114811428Y-143039642D01*
X114748928Y-142968214D01*
X114695357Y-142825357D01*
X114748928Y-142396785D01*
X114838214Y-142253928D01*
X114918571Y-142182500D01*
X115070357Y-142111071D01*
X115284642Y-142111071D01*
X115418571Y-142182500D01*
X115481071Y-142253928D01*
X115534642Y-142396785D01*
X115481071Y-142825357D01*
X115391785Y-142968214D01*
X115311428Y-143039642D01*
X115159642Y-143111071D01*
X114945357Y-143111071D01*
X116088214Y-143111071D02*
X116213214Y-142111071D01*
X116177500Y-142396785D02*
X116266785Y-142253928D01*
X116347142Y-142182500D01*
X116498928Y-142111071D01*
X116641785Y-142111071D01*
X117659642Y-143111071D02*
X117847142Y-141611071D01*
X117668571Y-143039642D02*
X117516785Y-143111071D01*
X117231071Y-143111071D01*
X117097142Y-143039642D01*
X117034642Y-142968214D01*
X116981071Y-142825357D01*
X117034642Y-142396785D01*
X117123928Y-142253928D01*
X117204285Y-142182500D01*
X117356071Y-142111071D01*
X117641785Y-142111071D01*
X117775714Y-142182500D01*
X118954285Y-143039642D02*
X118802500Y-143111071D01*
X118516785Y-143111071D01*
X118382857Y-143039642D01*
X118329285Y-142896785D01*
X118400714Y-142325357D01*
X118490000Y-142182500D01*
X118641785Y-142111071D01*
X118927500Y-142111071D01*
X119061428Y-142182500D01*
X119115000Y-142325357D01*
X119097142Y-142468214D01*
X118365000Y-142611071D01*
X119659642Y-143111071D02*
X119784642Y-142111071D01*
X119847142Y-141611071D02*
X119766785Y-141682500D01*
X119829285Y-141753928D01*
X119909642Y-141682500D01*
X119847142Y-141611071D01*
X119829285Y-141753928D01*
X120373928Y-143111071D02*
X120498928Y-142111071D01*
X120463214Y-142396785D02*
X120552500Y-142253928D01*
X120632857Y-142182500D01*
X120784642Y-142111071D01*
X120927500Y-142111071D01*
X121516785Y-143111071D02*
X121382857Y-143039642D01*
X121320357Y-142968214D01*
X121266785Y-142825357D01*
X121320357Y-142396785D01*
X121409642Y-142253928D01*
X121490000Y-142182500D01*
X121641785Y-142111071D01*
X121856071Y-142111071D01*
X121990000Y-142182500D01*
X122052500Y-142253928D01*
X122106071Y-142396785D01*
X122052500Y-142825357D01*
X121963214Y-142968214D01*
X121882857Y-143039642D01*
X121731071Y-143111071D01*
X121516785Y-143111071D01*
X123900714Y-141753928D02*
X123981071Y-141682500D01*
X124132857Y-141611071D01*
X124490000Y-141611071D01*
X124623928Y-141682500D01*
X124686428Y-141753928D01*
X124740000Y-141896785D01*
X124722142Y-142039642D01*
X124623928Y-142253928D01*
X123659642Y-143111071D01*
X124588214Y-143111071D01*
X125704285Y-141611071D02*
X125847142Y-141611071D01*
X125981071Y-141682500D01*
X126043571Y-141753928D01*
X126097142Y-141896785D01*
X126132857Y-142182500D01*
X126088214Y-142539642D01*
X125981071Y-142825357D01*
X125891785Y-142968214D01*
X125811428Y-143039642D01*
X125659642Y-143111071D01*
X125516785Y-143111071D01*
X125382857Y-143039642D01*
X125320357Y-142968214D01*
X125266785Y-142825357D01*
X125231071Y-142539642D01*
X125275714Y-142182500D01*
X125382857Y-141896785D01*
X125472142Y-141753928D01*
X125552500Y-141682500D01*
X125704285Y-141611071D01*
X126757857Y-141753928D02*
X126838214Y-141682500D01*
X126990000Y-141611071D01*
X127347142Y-141611071D01*
X127481071Y-141682500D01*
X127543571Y-141753928D01*
X127597142Y-141896785D01*
X127579285Y-142039642D01*
X127481071Y-142253928D01*
X126516785Y-143111071D01*
X127445357Y-143111071D01*
X128186428Y-141753928D02*
X128266785Y-141682500D01*
X128418571Y-141611071D01*
X128775714Y-141611071D01*
X128909642Y-141682500D01*
X128972142Y-141753928D01*
X129025714Y-141896785D01*
X129007857Y-142039642D01*
X128909642Y-142253928D01*
X127945357Y-143111071D01*
X128873928Y-143111071D01*
X129534642Y-142968214D02*
X129597142Y-143039642D01*
X129516785Y-143111071D01*
X129454285Y-143039642D01*
X129534642Y-142968214D01*
X129516785Y-143111071D01*
X106846071Y-122900000D02*
X106444285Y-122685714D01*
X105801428Y-122685714D01*
X105131785Y-122900000D01*
X104649642Y-123328571D01*
X104381785Y-123757142D01*
X104060357Y-124614285D01*
X103980000Y-125257142D01*
X104087142Y-126114285D01*
X104247857Y-126542857D01*
X104622857Y-126971428D01*
X105238928Y-127185714D01*
X105667500Y-127185714D01*
X106337142Y-126971428D01*
X106578214Y-126757142D01*
X106765714Y-125257142D01*
X105908571Y-125257142D01*
X108667500Y-125471428D02*
X112096071Y-125471428D01*
X115980000Y-126971428D02*
X115524642Y-127185714D01*
X114667500Y-127185714D01*
X114265714Y-126971428D01*
X114078214Y-126757142D01*
X113917500Y-126328571D01*
X114078214Y-125042857D01*
X114346071Y-124614285D01*
X114587142Y-124400000D01*
X115042500Y-124185714D01*
X115899642Y-124185714D01*
X116301428Y-124400000D01*
X118524642Y-127185714D02*
X118122857Y-126971428D01*
X117935357Y-126757142D01*
X117774642Y-126328571D01*
X117935357Y-125042857D01*
X118203214Y-124614285D01*
X118444285Y-124400000D01*
X118899642Y-124185714D01*
X119542500Y-124185714D01*
X119944285Y-124400000D01*
X120131785Y-124614285D01*
X120292500Y-125042857D01*
X120131785Y-126328571D01*
X119863928Y-126757142D01*
X119622857Y-126971428D01*
X119167500Y-127185714D01*
X118524642Y-127185714D01*
X123881785Y-127185714D02*
X124444285Y-122685714D01*
X123908571Y-126971428D02*
X123453214Y-127185714D01*
X122596071Y-127185714D01*
X122194285Y-126971428D01*
X122006785Y-126757142D01*
X121846071Y-126328571D01*
X122006785Y-125042857D01*
X122274642Y-124614285D01*
X122515714Y-124400000D01*
X122971071Y-124185714D01*
X123828214Y-124185714D01*
X124230000Y-124400000D01*
X127765714Y-126971428D02*
X127310357Y-127185714D01*
X126453214Y-127185714D01*
X126051428Y-126971428D01*
X125890714Y-126542857D01*
X126105000Y-124828571D01*
X126372857Y-124400000D01*
X126828214Y-124185714D01*
X127685357Y-124185714D01*
X128087142Y-124400000D01*
X128247857Y-124828571D01*
X128194285Y-125257142D01*
X125997857Y-125685714D01*
X133310357Y-127185714D02*
X133872857Y-122685714D01*
X133953214Y-125471428D02*
X135024642Y-127185714D01*
X135399642Y-124185714D02*
X133471071Y-125900000D01*
X138694285Y-126971428D02*
X138238928Y-127185714D01*
X137381785Y-127185714D01*
X136980000Y-126971428D01*
X136819285Y-126542857D01*
X137033571Y-124828571D01*
X137301428Y-124400000D01*
X137756785Y-124185714D01*
X138613928Y-124185714D01*
X139015714Y-124400000D01*
X139176428Y-124828571D01*
X139122857Y-125257142D01*
X136926428Y-125685714D01*
X142551428Y-126971428D02*
X142096071Y-127185714D01*
X141238928Y-127185714D01*
X140837142Y-126971428D01*
X140676428Y-126542857D01*
X140890714Y-124828571D01*
X141158571Y-124400000D01*
X141613928Y-124185714D01*
X142471071Y-124185714D01*
X142872857Y-124400000D01*
X143033571Y-124828571D01*
X142980000Y-125257142D01*
X140783571Y-125685714D01*
X144667500Y-127185714D02*
X145230000Y-122685714D01*
X145015714Y-124400000D02*
X145471071Y-124185714D01*
X146328214Y-124185714D01*
X146730000Y-124400000D01*
X146917500Y-124614285D01*
X147078214Y-125042857D01*
X146917500Y-126328571D01*
X146649642Y-126757142D01*
X146408571Y-126971428D01*
X145953214Y-127185714D01*
X145096071Y-127185714D01*
X144694285Y-126971428D01*
D11*
%TO.C,SW11*%
X83940476Y-135304761D02*
X84083333Y-135352380D01*
X84321428Y-135352380D01*
X84416666Y-135304761D01*
X84464285Y-135257142D01*
X84511904Y-135161904D01*
X84511904Y-135066666D01*
X84464285Y-134971428D01*
X84416666Y-134923809D01*
X84321428Y-134876190D01*
X84130952Y-134828571D01*
X84035714Y-134780952D01*
X83988095Y-134733333D01*
X83940476Y-134638095D01*
X83940476Y-134542857D01*
X83988095Y-134447619D01*
X84035714Y-134400000D01*
X84130952Y-134352380D01*
X84369047Y-134352380D01*
X84511904Y-134400000D01*
X84845238Y-134352380D02*
X85083333Y-135352380D01*
X85273809Y-134638095D01*
X85464285Y-135352380D01*
X85702380Y-134352380D01*
X86607142Y-135352380D02*
X86035714Y-135352380D01*
X86321428Y-135352380D02*
X86321428Y-134352380D01*
X86226190Y-134495238D01*
X86130952Y-134590476D01*
X86035714Y-134638095D01*
X87559523Y-135352380D02*
X86988095Y-135352380D01*
X87273809Y-135352380D02*
X87273809Y-134352380D01*
X87178571Y-134495238D01*
X87083333Y-134590476D01*
X86988095Y-134638095D01*
X80035714Y-151304761D02*
X80178571Y-151352380D01*
X80416666Y-151352380D01*
X80511904Y-151304761D01*
X80559523Y-151257142D01*
X80607142Y-151161904D01*
X80607142Y-151066666D01*
X80559523Y-150971428D01*
X80511904Y-150923809D01*
X80416666Y-150876190D01*
X80226190Y-150828571D01*
X80130952Y-150780952D01*
X80083333Y-150733333D01*
X80035714Y-150638095D01*
X80035714Y-150542857D01*
X80083333Y-150447619D01*
X80130952Y-150400000D01*
X80226190Y-150352380D01*
X80464285Y-150352380D01*
X80607142Y-150400000D01*
X80940476Y-150352380D02*
X81178571Y-151352380D01*
X81369047Y-150638095D01*
X81559523Y-151352380D01*
X81797619Y-150352380D01*
X81940476Y-151447619D02*
X82702380Y-151447619D01*
X82940476Y-151352380D02*
X82940476Y-150352380D01*
X83321428Y-150352380D01*
X83416666Y-150400000D01*
X83464285Y-150447619D01*
X83511904Y-150542857D01*
X83511904Y-150685714D01*
X83464285Y-150780952D01*
X83416666Y-150828571D01*
X83321428Y-150876190D01*
X82940476Y-150876190D01*
X84369047Y-150685714D02*
X84369047Y-151352380D01*
X83940476Y-150685714D02*
X83940476Y-151209523D01*
X83988095Y-151304761D01*
X84083333Y-151352380D01*
X84226190Y-151352380D01*
X84321428Y-151304761D01*
X84369047Y-151257142D01*
X84797619Y-151304761D02*
X84892857Y-151352380D01*
X85083333Y-151352380D01*
X85178571Y-151304761D01*
X85226190Y-151209523D01*
X85226190Y-151161904D01*
X85178571Y-151066666D01*
X85083333Y-151019047D01*
X84940476Y-151019047D01*
X84845238Y-150971428D01*
X84797619Y-150876190D01*
X84797619Y-150828571D01*
X84845238Y-150733333D01*
X84940476Y-150685714D01*
X85083333Y-150685714D01*
X85178571Y-150733333D01*
X85654761Y-151352380D02*
X85654761Y-150352380D01*
X86083333Y-151352380D02*
X86083333Y-150828571D01*
X86035714Y-150733333D01*
X85940476Y-150685714D01*
X85797619Y-150685714D01*
X85702380Y-150733333D01*
X85654761Y-150780952D01*
X86321428Y-151447619D02*
X87083333Y-151447619D01*
X87750000Y-150685714D02*
X87750000Y-151352380D01*
X87511904Y-150304761D02*
X87273809Y-151019047D01*
X87892857Y-151019047D01*
X88750000Y-150352380D02*
X88273809Y-150352380D01*
X88226190Y-150828571D01*
X88273809Y-150780952D01*
X88369047Y-150733333D01*
X88607142Y-150733333D01*
X88702380Y-150780952D01*
X88750000Y-150828571D01*
X88797619Y-150923809D01*
X88797619Y-151161904D01*
X88750000Y-151257142D01*
X88702380Y-151304761D01*
X88607142Y-151352380D01*
X88369047Y-151352380D01*
X88273809Y-151304761D01*
X88226190Y-151257142D01*
X89654761Y-151352380D02*
X89654761Y-150352380D01*
X89654761Y-151304761D02*
X89559523Y-151352380D01*
X89369047Y-151352380D01*
X89273809Y-151304761D01*
X89226190Y-151257142D01*
X89178571Y-151161904D01*
X89178571Y-150876190D01*
X89226190Y-150780952D01*
X89273809Y-150733333D01*
X89369047Y-150685714D01*
X89559523Y-150685714D01*
X89654761Y-150733333D01*
X90511904Y-151304761D02*
X90416666Y-151352380D01*
X90226190Y-151352380D01*
X90130952Y-151304761D01*
X90083333Y-151209523D01*
X90083333Y-150828571D01*
X90130952Y-150733333D01*
X90226190Y-150685714D01*
X90416666Y-150685714D01*
X90511904Y-150733333D01*
X90559523Y-150828571D01*
X90559523Y-150923809D01*
X90083333Y-151019047D01*
X91416666Y-150685714D02*
X91416666Y-151495238D01*
X91369047Y-151590476D01*
X91321428Y-151638095D01*
X91226190Y-151685714D01*
X91083333Y-151685714D01*
X90988095Y-151638095D01*
X91416666Y-151304761D02*
X91321428Y-151352380D01*
X91130952Y-151352380D01*
X91035714Y-151304761D01*
X90988095Y-151257142D01*
X90940476Y-151161904D01*
X90940476Y-150876190D01*
X90988095Y-150780952D01*
X91035714Y-150733333D01*
X91130952Y-150685714D01*
X91321428Y-150685714D01*
X91416666Y-150733333D01*
%TO.C,SW21*%
X141090476Y-154354761D02*
X141233333Y-154402380D01*
X141471428Y-154402380D01*
X141566666Y-154354761D01*
X141614285Y-154307142D01*
X141661904Y-154211904D01*
X141661904Y-154116666D01*
X141614285Y-154021428D01*
X141566666Y-153973809D01*
X141471428Y-153926190D01*
X141280952Y-153878571D01*
X141185714Y-153830952D01*
X141138095Y-153783333D01*
X141090476Y-153688095D01*
X141090476Y-153592857D01*
X141138095Y-153497619D01*
X141185714Y-153450000D01*
X141280952Y-153402380D01*
X141519047Y-153402380D01*
X141661904Y-153450000D01*
X141995238Y-153402380D02*
X142233333Y-154402380D01*
X142423809Y-153688095D01*
X142614285Y-154402380D01*
X142852380Y-153402380D01*
X143185714Y-153497619D02*
X143233333Y-153450000D01*
X143328571Y-153402380D01*
X143566666Y-153402380D01*
X143661904Y-153450000D01*
X143709523Y-153497619D01*
X143757142Y-153592857D01*
X143757142Y-153688095D01*
X143709523Y-153830952D01*
X143138095Y-154402380D01*
X143757142Y-154402380D01*
X144709523Y-154402380D02*
X144138095Y-154402380D01*
X144423809Y-154402380D02*
X144423809Y-153402380D01*
X144328571Y-153545238D01*
X144233333Y-153640476D01*
X144138095Y-153688095D01*
X137185714Y-170354761D02*
X137328571Y-170402380D01*
X137566666Y-170402380D01*
X137661904Y-170354761D01*
X137709523Y-170307142D01*
X137757142Y-170211904D01*
X137757142Y-170116666D01*
X137709523Y-170021428D01*
X137661904Y-169973809D01*
X137566666Y-169926190D01*
X137376190Y-169878571D01*
X137280952Y-169830952D01*
X137233333Y-169783333D01*
X137185714Y-169688095D01*
X137185714Y-169592857D01*
X137233333Y-169497619D01*
X137280952Y-169450000D01*
X137376190Y-169402380D01*
X137614285Y-169402380D01*
X137757142Y-169450000D01*
X138090476Y-169402380D02*
X138328571Y-170402380D01*
X138519047Y-169688095D01*
X138709523Y-170402380D01*
X138947619Y-169402380D01*
X139090476Y-170497619D02*
X139852380Y-170497619D01*
X140090476Y-170402380D02*
X140090476Y-169402380D01*
X140471428Y-169402380D01*
X140566666Y-169450000D01*
X140614285Y-169497619D01*
X140661904Y-169592857D01*
X140661904Y-169735714D01*
X140614285Y-169830952D01*
X140566666Y-169878571D01*
X140471428Y-169926190D01*
X140090476Y-169926190D01*
X141519047Y-169735714D02*
X141519047Y-170402380D01*
X141090476Y-169735714D02*
X141090476Y-170259523D01*
X141138095Y-170354761D01*
X141233333Y-170402380D01*
X141376190Y-170402380D01*
X141471428Y-170354761D01*
X141519047Y-170307142D01*
X141947619Y-170354761D02*
X142042857Y-170402380D01*
X142233333Y-170402380D01*
X142328571Y-170354761D01*
X142376190Y-170259523D01*
X142376190Y-170211904D01*
X142328571Y-170116666D01*
X142233333Y-170069047D01*
X142090476Y-170069047D01*
X141995238Y-170021428D01*
X141947619Y-169926190D01*
X141947619Y-169878571D01*
X141995238Y-169783333D01*
X142090476Y-169735714D01*
X142233333Y-169735714D01*
X142328571Y-169783333D01*
X142804761Y-170402380D02*
X142804761Y-169402380D01*
X143233333Y-170402380D02*
X143233333Y-169878571D01*
X143185714Y-169783333D01*
X143090476Y-169735714D01*
X142947619Y-169735714D01*
X142852380Y-169783333D01*
X142804761Y-169830952D01*
X143471428Y-170497619D02*
X144233333Y-170497619D01*
X144900000Y-169735714D02*
X144900000Y-170402380D01*
X144661904Y-169354761D02*
X144423809Y-170069047D01*
X145042857Y-170069047D01*
X145900000Y-169402380D02*
X145423809Y-169402380D01*
X145376190Y-169878571D01*
X145423809Y-169830952D01*
X145519047Y-169783333D01*
X145757142Y-169783333D01*
X145852380Y-169830952D01*
X145900000Y-169878571D01*
X145947619Y-169973809D01*
X145947619Y-170211904D01*
X145900000Y-170307142D01*
X145852380Y-170354761D01*
X145757142Y-170402380D01*
X145519047Y-170402380D01*
X145423809Y-170354761D01*
X145376190Y-170307142D01*
X146804761Y-170402380D02*
X146804761Y-169402380D01*
X146804761Y-170354761D02*
X146709523Y-170402380D01*
X146519047Y-170402380D01*
X146423809Y-170354761D01*
X146376190Y-170307142D01*
X146328571Y-170211904D01*
X146328571Y-169926190D01*
X146376190Y-169830952D01*
X146423809Y-169783333D01*
X146519047Y-169735714D01*
X146709523Y-169735714D01*
X146804761Y-169783333D01*
X147661904Y-170354761D02*
X147566666Y-170402380D01*
X147376190Y-170402380D01*
X147280952Y-170354761D01*
X147233333Y-170259523D01*
X147233333Y-169878571D01*
X147280952Y-169783333D01*
X147376190Y-169735714D01*
X147566666Y-169735714D01*
X147661904Y-169783333D01*
X147709523Y-169878571D01*
X147709523Y-169973809D01*
X147233333Y-170069047D01*
X148566666Y-169735714D02*
X148566666Y-170545238D01*
X148519047Y-170640476D01*
X148471428Y-170688095D01*
X148376190Y-170735714D01*
X148233333Y-170735714D01*
X148138095Y-170688095D01*
X148566666Y-170354761D02*
X148471428Y-170402380D01*
X148280952Y-170402380D01*
X148185714Y-170354761D01*
X148138095Y-170307142D01*
X148090476Y-170211904D01*
X148090476Y-169926190D01*
X148138095Y-169830952D01*
X148185714Y-169783333D01*
X148280952Y-169735714D01*
X148471428Y-169735714D01*
X148566666Y-169783333D01*
%TO.C,SW17*%
X166390476Y-128904761D02*
X166533333Y-128952380D01*
X166771428Y-128952380D01*
X166866666Y-128904761D01*
X166914285Y-128857142D01*
X166961904Y-128761904D01*
X166961904Y-128666666D01*
X166914285Y-128571428D01*
X166866666Y-128523809D01*
X166771428Y-128476190D01*
X166580952Y-128428571D01*
X166485714Y-128380952D01*
X166438095Y-128333333D01*
X166390476Y-128238095D01*
X166390476Y-128142857D01*
X166438095Y-128047619D01*
X166485714Y-128000000D01*
X166580952Y-127952380D01*
X166819047Y-127952380D01*
X166961904Y-128000000D01*
X167295238Y-127952380D02*
X167533333Y-128952380D01*
X167723809Y-128238095D01*
X167914285Y-128952380D01*
X168152380Y-127952380D01*
X169057142Y-128952380D02*
X168485714Y-128952380D01*
X168771428Y-128952380D02*
X168771428Y-127952380D01*
X168676190Y-128095238D01*
X168580952Y-128190476D01*
X168485714Y-128238095D01*
X169390476Y-127952380D02*
X170057142Y-127952380D01*
X169628571Y-128952380D01*
X162485714Y-144904761D02*
X162628571Y-144952380D01*
X162866666Y-144952380D01*
X162961904Y-144904761D01*
X163009523Y-144857142D01*
X163057142Y-144761904D01*
X163057142Y-144666666D01*
X163009523Y-144571428D01*
X162961904Y-144523809D01*
X162866666Y-144476190D01*
X162676190Y-144428571D01*
X162580952Y-144380952D01*
X162533333Y-144333333D01*
X162485714Y-144238095D01*
X162485714Y-144142857D01*
X162533333Y-144047619D01*
X162580952Y-144000000D01*
X162676190Y-143952380D01*
X162914285Y-143952380D01*
X163057142Y-144000000D01*
X163390476Y-143952380D02*
X163628571Y-144952380D01*
X163819047Y-144238095D01*
X164009523Y-144952380D01*
X164247619Y-143952380D01*
X164390476Y-145047619D02*
X165152380Y-145047619D01*
X165390476Y-144952380D02*
X165390476Y-143952380D01*
X165771428Y-143952380D01*
X165866666Y-144000000D01*
X165914285Y-144047619D01*
X165961904Y-144142857D01*
X165961904Y-144285714D01*
X165914285Y-144380952D01*
X165866666Y-144428571D01*
X165771428Y-144476190D01*
X165390476Y-144476190D01*
X166819047Y-144285714D02*
X166819047Y-144952380D01*
X166390476Y-144285714D02*
X166390476Y-144809523D01*
X166438095Y-144904761D01*
X166533333Y-144952380D01*
X166676190Y-144952380D01*
X166771428Y-144904761D01*
X166819047Y-144857142D01*
X167247619Y-144904761D02*
X167342857Y-144952380D01*
X167533333Y-144952380D01*
X167628571Y-144904761D01*
X167676190Y-144809523D01*
X167676190Y-144761904D01*
X167628571Y-144666666D01*
X167533333Y-144619047D01*
X167390476Y-144619047D01*
X167295238Y-144571428D01*
X167247619Y-144476190D01*
X167247619Y-144428571D01*
X167295238Y-144333333D01*
X167390476Y-144285714D01*
X167533333Y-144285714D01*
X167628571Y-144333333D01*
X168104761Y-144952380D02*
X168104761Y-143952380D01*
X168533333Y-144952380D02*
X168533333Y-144428571D01*
X168485714Y-144333333D01*
X168390476Y-144285714D01*
X168247619Y-144285714D01*
X168152380Y-144333333D01*
X168104761Y-144380952D01*
X168771428Y-145047619D02*
X169533333Y-145047619D01*
X170200000Y-144285714D02*
X170200000Y-144952380D01*
X169961904Y-143904761D02*
X169723809Y-144619047D01*
X170342857Y-144619047D01*
X171200000Y-143952380D02*
X170723809Y-143952380D01*
X170676190Y-144428571D01*
X170723809Y-144380952D01*
X170819047Y-144333333D01*
X171057142Y-144333333D01*
X171152380Y-144380952D01*
X171200000Y-144428571D01*
X171247619Y-144523809D01*
X171247619Y-144761904D01*
X171200000Y-144857142D01*
X171152380Y-144904761D01*
X171057142Y-144952380D01*
X170819047Y-144952380D01*
X170723809Y-144904761D01*
X170676190Y-144857142D01*
X172104761Y-144952380D02*
X172104761Y-143952380D01*
X172104761Y-144904761D02*
X172009523Y-144952380D01*
X171819047Y-144952380D01*
X171723809Y-144904761D01*
X171676190Y-144857142D01*
X171628571Y-144761904D01*
X171628571Y-144476190D01*
X171676190Y-144380952D01*
X171723809Y-144333333D01*
X171819047Y-144285714D01*
X172009523Y-144285714D01*
X172104761Y-144333333D01*
X172961904Y-144904761D02*
X172866666Y-144952380D01*
X172676190Y-144952380D01*
X172580952Y-144904761D01*
X172533333Y-144809523D01*
X172533333Y-144428571D01*
X172580952Y-144333333D01*
X172676190Y-144285714D01*
X172866666Y-144285714D01*
X172961904Y-144333333D01*
X173009523Y-144428571D01*
X173009523Y-144523809D01*
X172533333Y-144619047D01*
X173866666Y-144285714D02*
X173866666Y-145095238D01*
X173819047Y-145190476D01*
X173771428Y-145238095D01*
X173676190Y-145285714D01*
X173533333Y-145285714D01*
X173438095Y-145238095D01*
X173866666Y-144904761D02*
X173771428Y-144952380D01*
X173580952Y-144952380D01*
X173485714Y-144904761D01*
X173438095Y-144857142D01*
X173390476Y-144761904D01*
X173390476Y-144476190D01*
X173438095Y-144380952D01*
X173485714Y-144333333D01*
X173580952Y-144285714D01*
X173771428Y-144285714D01*
X173866666Y-144333333D01*
%TO.C,SW4*%
X103466666Y-97204761D02*
X103609523Y-97252380D01*
X103847619Y-97252380D01*
X103942857Y-97204761D01*
X103990476Y-97157142D01*
X104038095Y-97061904D01*
X104038095Y-96966666D01*
X103990476Y-96871428D01*
X103942857Y-96823809D01*
X103847619Y-96776190D01*
X103657142Y-96728571D01*
X103561904Y-96680952D01*
X103514285Y-96633333D01*
X103466666Y-96538095D01*
X103466666Y-96442857D01*
X103514285Y-96347619D01*
X103561904Y-96300000D01*
X103657142Y-96252380D01*
X103895238Y-96252380D01*
X104038095Y-96300000D01*
X104371428Y-96252380D02*
X104609523Y-97252380D01*
X104800000Y-96538095D01*
X104990476Y-97252380D01*
X105228571Y-96252380D01*
X106038095Y-96585714D02*
X106038095Y-97252380D01*
X105800000Y-96204761D02*
X105561904Y-96919047D01*
X106180952Y-96919047D01*
X99085714Y-113204761D02*
X99228571Y-113252380D01*
X99466666Y-113252380D01*
X99561904Y-113204761D01*
X99609523Y-113157142D01*
X99657142Y-113061904D01*
X99657142Y-112966666D01*
X99609523Y-112871428D01*
X99561904Y-112823809D01*
X99466666Y-112776190D01*
X99276190Y-112728571D01*
X99180952Y-112680952D01*
X99133333Y-112633333D01*
X99085714Y-112538095D01*
X99085714Y-112442857D01*
X99133333Y-112347619D01*
X99180952Y-112300000D01*
X99276190Y-112252380D01*
X99514285Y-112252380D01*
X99657142Y-112300000D01*
X99990476Y-112252380D02*
X100228571Y-113252380D01*
X100419047Y-112538095D01*
X100609523Y-113252380D01*
X100847619Y-112252380D01*
X100990476Y-113347619D02*
X101752380Y-113347619D01*
X101990476Y-113252380D02*
X101990476Y-112252380D01*
X102371428Y-112252380D01*
X102466666Y-112300000D01*
X102514285Y-112347619D01*
X102561904Y-112442857D01*
X102561904Y-112585714D01*
X102514285Y-112680952D01*
X102466666Y-112728571D01*
X102371428Y-112776190D01*
X101990476Y-112776190D01*
X103419047Y-112585714D02*
X103419047Y-113252380D01*
X102990476Y-112585714D02*
X102990476Y-113109523D01*
X103038095Y-113204761D01*
X103133333Y-113252380D01*
X103276190Y-113252380D01*
X103371428Y-113204761D01*
X103419047Y-113157142D01*
X103847619Y-113204761D02*
X103942857Y-113252380D01*
X104133333Y-113252380D01*
X104228571Y-113204761D01*
X104276190Y-113109523D01*
X104276190Y-113061904D01*
X104228571Y-112966666D01*
X104133333Y-112919047D01*
X103990476Y-112919047D01*
X103895238Y-112871428D01*
X103847619Y-112776190D01*
X103847619Y-112728571D01*
X103895238Y-112633333D01*
X103990476Y-112585714D01*
X104133333Y-112585714D01*
X104228571Y-112633333D01*
X104704761Y-113252380D02*
X104704761Y-112252380D01*
X105133333Y-113252380D02*
X105133333Y-112728571D01*
X105085714Y-112633333D01*
X104990476Y-112585714D01*
X104847619Y-112585714D01*
X104752380Y-112633333D01*
X104704761Y-112680952D01*
X105371428Y-113347619D02*
X106133333Y-113347619D01*
X106800000Y-112585714D02*
X106800000Y-113252380D01*
X106561904Y-112204761D02*
X106323809Y-112919047D01*
X106942857Y-112919047D01*
X107800000Y-112252380D02*
X107323809Y-112252380D01*
X107276190Y-112728571D01*
X107323809Y-112680952D01*
X107419047Y-112633333D01*
X107657142Y-112633333D01*
X107752380Y-112680952D01*
X107800000Y-112728571D01*
X107847619Y-112823809D01*
X107847619Y-113061904D01*
X107800000Y-113157142D01*
X107752380Y-113204761D01*
X107657142Y-113252380D01*
X107419047Y-113252380D01*
X107323809Y-113204761D01*
X107276190Y-113157142D01*
X108704761Y-113252380D02*
X108704761Y-112252380D01*
X108704761Y-113204761D02*
X108609523Y-113252380D01*
X108419047Y-113252380D01*
X108323809Y-113204761D01*
X108276190Y-113157142D01*
X108228571Y-113061904D01*
X108228571Y-112776190D01*
X108276190Y-112680952D01*
X108323809Y-112633333D01*
X108419047Y-112585714D01*
X108609523Y-112585714D01*
X108704761Y-112633333D01*
X109561904Y-113204761D02*
X109466666Y-113252380D01*
X109276190Y-113252380D01*
X109180952Y-113204761D01*
X109133333Y-113109523D01*
X109133333Y-112728571D01*
X109180952Y-112633333D01*
X109276190Y-112585714D01*
X109466666Y-112585714D01*
X109561904Y-112633333D01*
X109609523Y-112728571D01*
X109609523Y-112823809D01*
X109133333Y-112919047D01*
X110466666Y-112585714D02*
X110466666Y-113395238D01*
X110419047Y-113490476D01*
X110371428Y-113538095D01*
X110276190Y-113585714D01*
X110133333Y-113585714D01*
X110038095Y-113538095D01*
X110466666Y-113204761D02*
X110371428Y-113252380D01*
X110180952Y-113252380D01*
X110085714Y-113204761D01*
X110038095Y-113157142D01*
X109990476Y-113061904D01*
X109990476Y-112776190D01*
X110038095Y-112680952D01*
X110085714Y-112633333D01*
X110180952Y-112585714D01*
X110371428Y-112585714D01*
X110466666Y-112633333D01*
%TO.C,SW14*%
X166390476Y-65454761D02*
X166533333Y-65502380D01*
X166771428Y-65502380D01*
X166866666Y-65454761D01*
X166914285Y-65407142D01*
X166961904Y-65311904D01*
X166961904Y-65216666D01*
X166914285Y-65121428D01*
X166866666Y-65073809D01*
X166771428Y-65026190D01*
X166580952Y-64978571D01*
X166485714Y-64930952D01*
X166438095Y-64883333D01*
X166390476Y-64788095D01*
X166390476Y-64692857D01*
X166438095Y-64597619D01*
X166485714Y-64550000D01*
X166580952Y-64502380D01*
X166819047Y-64502380D01*
X166961904Y-64550000D01*
X167295238Y-64502380D02*
X167533333Y-65502380D01*
X167723809Y-64788095D01*
X167914285Y-65502380D01*
X168152380Y-64502380D01*
X169057142Y-65502380D02*
X168485714Y-65502380D01*
X168771428Y-65502380D02*
X168771428Y-64502380D01*
X168676190Y-64645238D01*
X168580952Y-64740476D01*
X168485714Y-64788095D01*
X169914285Y-64835714D02*
X169914285Y-65502380D01*
X169676190Y-64454761D02*
X169438095Y-65169047D01*
X170057142Y-65169047D01*
X162485714Y-81454761D02*
X162628571Y-81502380D01*
X162866666Y-81502380D01*
X162961904Y-81454761D01*
X163009523Y-81407142D01*
X163057142Y-81311904D01*
X163057142Y-81216666D01*
X163009523Y-81121428D01*
X162961904Y-81073809D01*
X162866666Y-81026190D01*
X162676190Y-80978571D01*
X162580952Y-80930952D01*
X162533333Y-80883333D01*
X162485714Y-80788095D01*
X162485714Y-80692857D01*
X162533333Y-80597619D01*
X162580952Y-80550000D01*
X162676190Y-80502380D01*
X162914285Y-80502380D01*
X163057142Y-80550000D01*
X163390476Y-80502380D02*
X163628571Y-81502380D01*
X163819047Y-80788095D01*
X164009523Y-81502380D01*
X164247619Y-80502380D01*
X164390476Y-81597619D02*
X165152380Y-81597619D01*
X165390476Y-81502380D02*
X165390476Y-80502380D01*
X165771428Y-80502380D01*
X165866666Y-80550000D01*
X165914285Y-80597619D01*
X165961904Y-80692857D01*
X165961904Y-80835714D01*
X165914285Y-80930952D01*
X165866666Y-80978571D01*
X165771428Y-81026190D01*
X165390476Y-81026190D01*
X166819047Y-80835714D02*
X166819047Y-81502380D01*
X166390476Y-80835714D02*
X166390476Y-81359523D01*
X166438095Y-81454761D01*
X166533333Y-81502380D01*
X166676190Y-81502380D01*
X166771428Y-81454761D01*
X166819047Y-81407142D01*
X167247619Y-81454761D02*
X167342857Y-81502380D01*
X167533333Y-81502380D01*
X167628571Y-81454761D01*
X167676190Y-81359523D01*
X167676190Y-81311904D01*
X167628571Y-81216666D01*
X167533333Y-81169047D01*
X167390476Y-81169047D01*
X167295238Y-81121428D01*
X167247619Y-81026190D01*
X167247619Y-80978571D01*
X167295238Y-80883333D01*
X167390476Y-80835714D01*
X167533333Y-80835714D01*
X167628571Y-80883333D01*
X168104761Y-81502380D02*
X168104761Y-80502380D01*
X168533333Y-81502380D02*
X168533333Y-80978571D01*
X168485714Y-80883333D01*
X168390476Y-80835714D01*
X168247619Y-80835714D01*
X168152380Y-80883333D01*
X168104761Y-80930952D01*
X168771428Y-81597619D02*
X169533333Y-81597619D01*
X170200000Y-80835714D02*
X170200000Y-81502380D01*
X169961904Y-80454761D02*
X169723809Y-81169047D01*
X170342857Y-81169047D01*
X171200000Y-80502380D02*
X170723809Y-80502380D01*
X170676190Y-80978571D01*
X170723809Y-80930952D01*
X170819047Y-80883333D01*
X171057142Y-80883333D01*
X171152380Y-80930952D01*
X171200000Y-80978571D01*
X171247619Y-81073809D01*
X171247619Y-81311904D01*
X171200000Y-81407142D01*
X171152380Y-81454761D01*
X171057142Y-81502380D01*
X170819047Y-81502380D01*
X170723809Y-81454761D01*
X170676190Y-81407142D01*
X172104761Y-81502380D02*
X172104761Y-80502380D01*
X172104761Y-81454761D02*
X172009523Y-81502380D01*
X171819047Y-81502380D01*
X171723809Y-81454761D01*
X171676190Y-81407142D01*
X171628571Y-81311904D01*
X171628571Y-81026190D01*
X171676190Y-80930952D01*
X171723809Y-80883333D01*
X171819047Y-80835714D01*
X172009523Y-80835714D01*
X172104761Y-80883333D01*
X172961904Y-81454761D02*
X172866666Y-81502380D01*
X172676190Y-81502380D01*
X172580952Y-81454761D01*
X172533333Y-81359523D01*
X172533333Y-80978571D01*
X172580952Y-80883333D01*
X172676190Y-80835714D01*
X172866666Y-80835714D01*
X172961904Y-80883333D01*
X173009523Y-80978571D01*
X173009523Y-81073809D01*
X172533333Y-81169047D01*
X173866666Y-80835714D02*
X173866666Y-81645238D01*
X173819047Y-81740476D01*
X173771428Y-81788095D01*
X173676190Y-81835714D01*
X173533333Y-81835714D01*
X173438095Y-81788095D01*
X173866666Y-81454761D02*
X173771428Y-81502380D01*
X173580952Y-81502380D01*
X173485714Y-81454761D01*
X173438095Y-81407142D01*
X173390476Y-81311904D01*
X173390476Y-81026190D01*
X173438095Y-80930952D01*
X173485714Y-80883333D01*
X173580952Y-80835714D01*
X173771428Y-80835714D01*
X173866666Y-80883333D01*
%TO.C,SW6*%
X141566666Y-97204761D02*
X141709523Y-97252380D01*
X141947619Y-97252380D01*
X142042857Y-97204761D01*
X142090476Y-97157142D01*
X142138095Y-97061904D01*
X142138095Y-96966666D01*
X142090476Y-96871428D01*
X142042857Y-96823809D01*
X141947619Y-96776190D01*
X141757142Y-96728571D01*
X141661904Y-96680952D01*
X141614285Y-96633333D01*
X141566666Y-96538095D01*
X141566666Y-96442857D01*
X141614285Y-96347619D01*
X141661904Y-96300000D01*
X141757142Y-96252380D01*
X141995238Y-96252380D01*
X142138095Y-96300000D01*
X142471428Y-96252380D02*
X142709523Y-97252380D01*
X142900000Y-96538095D01*
X143090476Y-97252380D01*
X143328571Y-96252380D01*
X144138095Y-96252380D02*
X143947619Y-96252380D01*
X143852380Y-96300000D01*
X143804761Y-96347619D01*
X143709523Y-96490476D01*
X143661904Y-96680952D01*
X143661904Y-97061904D01*
X143709523Y-97157142D01*
X143757142Y-97204761D01*
X143852380Y-97252380D01*
X144042857Y-97252380D01*
X144138095Y-97204761D01*
X144185714Y-97157142D01*
X144233333Y-97061904D01*
X144233333Y-96823809D01*
X144185714Y-96728571D01*
X144138095Y-96680952D01*
X144042857Y-96633333D01*
X143852380Y-96633333D01*
X143757142Y-96680952D01*
X143709523Y-96728571D01*
X143661904Y-96823809D01*
X137185714Y-113204761D02*
X137328571Y-113252380D01*
X137566666Y-113252380D01*
X137661904Y-113204761D01*
X137709523Y-113157142D01*
X137757142Y-113061904D01*
X137757142Y-112966666D01*
X137709523Y-112871428D01*
X137661904Y-112823809D01*
X137566666Y-112776190D01*
X137376190Y-112728571D01*
X137280952Y-112680952D01*
X137233333Y-112633333D01*
X137185714Y-112538095D01*
X137185714Y-112442857D01*
X137233333Y-112347619D01*
X137280952Y-112300000D01*
X137376190Y-112252380D01*
X137614285Y-112252380D01*
X137757142Y-112300000D01*
X138090476Y-112252380D02*
X138328571Y-113252380D01*
X138519047Y-112538095D01*
X138709523Y-113252380D01*
X138947619Y-112252380D01*
X139090476Y-113347619D02*
X139852380Y-113347619D01*
X140090476Y-113252380D02*
X140090476Y-112252380D01*
X140471428Y-112252380D01*
X140566666Y-112300000D01*
X140614285Y-112347619D01*
X140661904Y-112442857D01*
X140661904Y-112585714D01*
X140614285Y-112680952D01*
X140566666Y-112728571D01*
X140471428Y-112776190D01*
X140090476Y-112776190D01*
X141519047Y-112585714D02*
X141519047Y-113252380D01*
X141090476Y-112585714D02*
X141090476Y-113109523D01*
X141138095Y-113204761D01*
X141233333Y-113252380D01*
X141376190Y-113252380D01*
X141471428Y-113204761D01*
X141519047Y-113157142D01*
X141947619Y-113204761D02*
X142042857Y-113252380D01*
X142233333Y-113252380D01*
X142328571Y-113204761D01*
X142376190Y-113109523D01*
X142376190Y-113061904D01*
X142328571Y-112966666D01*
X142233333Y-112919047D01*
X142090476Y-112919047D01*
X141995238Y-112871428D01*
X141947619Y-112776190D01*
X141947619Y-112728571D01*
X141995238Y-112633333D01*
X142090476Y-112585714D01*
X142233333Y-112585714D01*
X142328571Y-112633333D01*
X142804761Y-113252380D02*
X142804761Y-112252380D01*
X143233333Y-113252380D02*
X143233333Y-112728571D01*
X143185714Y-112633333D01*
X143090476Y-112585714D01*
X142947619Y-112585714D01*
X142852380Y-112633333D01*
X142804761Y-112680952D01*
X143471428Y-113347619D02*
X144233333Y-113347619D01*
X144900000Y-112585714D02*
X144900000Y-113252380D01*
X144661904Y-112204761D02*
X144423809Y-112919047D01*
X145042857Y-112919047D01*
X145900000Y-112252380D02*
X145423809Y-112252380D01*
X145376190Y-112728571D01*
X145423809Y-112680952D01*
X145519047Y-112633333D01*
X145757142Y-112633333D01*
X145852380Y-112680952D01*
X145900000Y-112728571D01*
X145947619Y-112823809D01*
X145947619Y-113061904D01*
X145900000Y-113157142D01*
X145852380Y-113204761D01*
X145757142Y-113252380D01*
X145519047Y-113252380D01*
X145423809Y-113204761D01*
X145376190Y-113157142D01*
X146804761Y-113252380D02*
X146804761Y-112252380D01*
X146804761Y-113204761D02*
X146709523Y-113252380D01*
X146519047Y-113252380D01*
X146423809Y-113204761D01*
X146376190Y-113157142D01*
X146328571Y-113061904D01*
X146328571Y-112776190D01*
X146376190Y-112680952D01*
X146423809Y-112633333D01*
X146519047Y-112585714D01*
X146709523Y-112585714D01*
X146804761Y-112633333D01*
X147661904Y-113204761D02*
X147566666Y-113252380D01*
X147376190Y-113252380D01*
X147280952Y-113204761D01*
X147233333Y-113109523D01*
X147233333Y-112728571D01*
X147280952Y-112633333D01*
X147376190Y-112585714D01*
X147566666Y-112585714D01*
X147661904Y-112633333D01*
X147709523Y-112728571D01*
X147709523Y-112823809D01*
X147233333Y-112919047D01*
X148566666Y-112585714D02*
X148566666Y-113395238D01*
X148519047Y-113490476D01*
X148471428Y-113538095D01*
X148376190Y-113585714D01*
X148233333Y-113585714D01*
X148138095Y-113538095D01*
X148566666Y-113204761D02*
X148471428Y-113252380D01*
X148280952Y-113252380D01*
X148185714Y-113204761D01*
X148138095Y-113157142D01*
X148090476Y-113061904D01*
X148090476Y-112776190D01*
X148138095Y-112680952D01*
X148185714Y-112633333D01*
X148280952Y-112585714D01*
X148471428Y-112585714D01*
X148566666Y-112633333D01*
%TO.C,SW18*%
X166390476Y-147954761D02*
X166533333Y-148002380D01*
X166771428Y-148002380D01*
X166866666Y-147954761D01*
X166914285Y-147907142D01*
X166961904Y-147811904D01*
X166961904Y-147716666D01*
X166914285Y-147621428D01*
X166866666Y-147573809D01*
X166771428Y-147526190D01*
X166580952Y-147478571D01*
X166485714Y-147430952D01*
X166438095Y-147383333D01*
X166390476Y-147288095D01*
X166390476Y-147192857D01*
X166438095Y-147097619D01*
X166485714Y-147050000D01*
X166580952Y-147002380D01*
X166819047Y-147002380D01*
X166961904Y-147050000D01*
X167295238Y-147002380D02*
X167533333Y-148002380D01*
X167723809Y-147288095D01*
X167914285Y-148002380D01*
X168152380Y-147002380D01*
X169057142Y-148002380D02*
X168485714Y-148002380D01*
X168771428Y-148002380D02*
X168771428Y-147002380D01*
X168676190Y-147145238D01*
X168580952Y-147240476D01*
X168485714Y-147288095D01*
X169628571Y-147430952D02*
X169533333Y-147383333D01*
X169485714Y-147335714D01*
X169438095Y-147240476D01*
X169438095Y-147192857D01*
X169485714Y-147097619D01*
X169533333Y-147050000D01*
X169628571Y-147002380D01*
X169819047Y-147002380D01*
X169914285Y-147050000D01*
X169961904Y-147097619D01*
X170009523Y-147192857D01*
X170009523Y-147240476D01*
X169961904Y-147335714D01*
X169914285Y-147383333D01*
X169819047Y-147430952D01*
X169628571Y-147430952D01*
X169533333Y-147478571D01*
X169485714Y-147526190D01*
X169438095Y-147621428D01*
X169438095Y-147811904D01*
X169485714Y-147907142D01*
X169533333Y-147954761D01*
X169628571Y-148002380D01*
X169819047Y-148002380D01*
X169914285Y-147954761D01*
X169961904Y-147907142D01*
X170009523Y-147811904D01*
X170009523Y-147621428D01*
X169961904Y-147526190D01*
X169914285Y-147478571D01*
X169819047Y-147430952D01*
X162485714Y-163954761D02*
X162628571Y-164002380D01*
X162866666Y-164002380D01*
X162961904Y-163954761D01*
X163009523Y-163907142D01*
X163057142Y-163811904D01*
X163057142Y-163716666D01*
X163009523Y-163621428D01*
X162961904Y-163573809D01*
X162866666Y-163526190D01*
X162676190Y-163478571D01*
X162580952Y-163430952D01*
X162533333Y-163383333D01*
X162485714Y-163288095D01*
X162485714Y-163192857D01*
X162533333Y-163097619D01*
X162580952Y-163050000D01*
X162676190Y-163002380D01*
X162914285Y-163002380D01*
X163057142Y-163050000D01*
X163390476Y-163002380D02*
X163628571Y-164002380D01*
X163819047Y-163288095D01*
X164009523Y-164002380D01*
X164247619Y-163002380D01*
X164390476Y-164097619D02*
X165152380Y-164097619D01*
X165390476Y-164002380D02*
X165390476Y-163002380D01*
X165771428Y-163002380D01*
X165866666Y-163050000D01*
X165914285Y-163097619D01*
X165961904Y-163192857D01*
X165961904Y-163335714D01*
X165914285Y-163430952D01*
X165866666Y-163478571D01*
X165771428Y-163526190D01*
X165390476Y-163526190D01*
X166819047Y-163335714D02*
X166819047Y-164002380D01*
X166390476Y-163335714D02*
X166390476Y-163859523D01*
X166438095Y-163954761D01*
X166533333Y-164002380D01*
X166676190Y-164002380D01*
X166771428Y-163954761D01*
X166819047Y-163907142D01*
X167247619Y-163954761D02*
X167342857Y-164002380D01*
X167533333Y-164002380D01*
X167628571Y-163954761D01*
X167676190Y-163859523D01*
X167676190Y-163811904D01*
X167628571Y-163716666D01*
X167533333Y-163669047D01*
X167390476Y-163669047D01*
X167295238Y-163621428D01*
X167247619Y-163526190D01*
X167247619Y-163478571D01*
X167295238Y-163383333D01*
X167390476Y-163335714D01*
X167533333Y-163335714D01*
X167628571Y-163383333D01*
X168104761Y-164002380D02*
X168104761Y-163002380D01*
X168533333Y-164002380D02*
X168533333Y-163478571D01*
X168485714Y-163383333D01*
X168390476Y-163335714D01*
X168247619Y-163335714D01*
X168152380Y-163383333D01*
X168104761Y-163430952D01*
X168771428Y-164097619D02*
X169533333Y-164097619D01*
X170200000Y-163335714D02*
X170200000Y-164002380D01*
X169961904Y-162954761D02*
X169723809Y-163669047D01*
X170342857Y-163669047D01*
X171200000Y-163002380D02*
X170723809Y-163002380D01*
X170676190Y-163478571D01*
X170723809Y-163430952D01*
X170819047Y-163383333D01*
X171057142Y-163383333D01*
X171152380Y-163430952D01*
X171200000Y-163478571D01*
X171247619Y-163573809D01*
X171247619Y-163811904D01*
X171200000Y-163907142D01*
X171152380Y-163954761D01*
X171057142Y-164002380D01*
X170819047Y-164002380D01*
X170723809Y-163954761D01*
X170676190Y-163907142D01*
X172104761Y-164002380D02*
X172104761Y-163002380D01*
X172104761Y-163954761D02*
X172009523Y-164002380D01*
X171819047Y-164002380D01*
X171723809Y-163954761D01*
X171676190Y-163907142D01*
X171628571Y-163811904D01*
X171628571Y-163526190D01*
X171676190Y-163430952D01*
X171723809Y-163383333D01*
X171819047Y-163335714D01*
X172009523Y-163335714D01*
X172104761Y-163383333D01*
X172961904Y-163954761D02*
X172866666Y-164002380D01*
X172676190Y-164002380D01*
X172580952Y-163954761D01*
X172533333Y-163859523D01*
X172533333Y-163478571D01*
X172580952Y-163383333D01*
X172676190Y-163335714D01*
X172866666Y-163335714D01*
X172961904Y-163383333D01*
X173009523Y-163478571D01*
X173009523Y-163573809D01*
X172533333Y-163669047D01*
X173866666Y-163335714D02*
X173866666Y-164145238D01*
X173819047Y-164240476D01*
X173771428Y-164288095D01*
X173676190Y-164335714D01*
X173533333Y-164335714D01*
X173438095Y-164288095D01*
X173866666Y-163954761D02*
X173771428Y-164002380D01*
X173580952Y-164002380D01*
X173485714Y-163954761D01*
X173438095Y-163907142D01*
X173390476Y-163811904D01*
X173390476Y-163526190D01*
X173438095Y-163430952D01*
X173485714Y-163383333D01*
X173580952Y-163335714D01*
X173771428Y-163335714D01*
X173866666Y-163383333D01*
%TO.C,SW19*%
X26790476Y-154354761D02*
X26933333Y-154402380D01*
X27171428Y-154402380D01*
X27266666Y-154354761D01*
X27314285Y-154307142D01*
X27361904Y-154211904D01*
X27361904Y-154116666D01*
X27314285Y-154021428D01*
X27266666Y-153973809D01*
X27171428Y-153926190D01*
X26980952Y-153878571D01*
X26885714Y-153830952D01*
X26838095Y-153783333D01*
X26790476Y-153688095D01*
X26790476Y-153592857D01*
X26838095Y-153497619D01*
X26885714Y-153450000D01*
X26980952Y-153402380D01*
X27219047Y-153402380D01*
X27361904Y-153450000D01*
X27695238Y-153402380D02*
X27933333Y-154402380D01*
X28123809Y-153688095D01*
X28314285Y-154402380D01*
X28552380Y-153402380D01*
X29457142Y-154402380D02*
X28885714Y-154402380D01*
X29171428Y-154402380D02*
X29171428Y-153402380D01*
X29076190Y-153545238D01*
X28980952Y-153640476D01*
X28885714Y-153688095D01*
X29933333Y-154402380D02*
X30123809Y-154402380D01*
X30219047Y-154354761D01*
X30266666Y-154307142D01*
X30361904Y-154164285D01*
X30409523Y-153973809D01*
X30409523Y-153592857D01*
X30361904Y-153497619D01*
X30314285Y-153450000D01*
X30219047Y-153402380D01*
X30028571Y-153402380D01*
X29933333Y-153450000D01*
X29885714Y-153497619D01*
X29838095Y-153592857D01*
X29838095Y-153830952D01*
X29885714Y-153926190D01*
X29933333Y-153973809D01*
X30028571Y-154021428D01*
X30219047Y-154021428D01*
X30314285Y-153973809D01*
X30361904Y-153926190D01*
X30409523Y-153830952D01*
X22885714Y-170354761D02*
X23028571Y-170402380D01*
X23266666Y-170402380D01*
X23361904Y-170354761D01*
X23409523Y-170307142D01*
X23457142Y-170211904D01*
X23457142Y-170116666D01*
X23409523Y-170021428D01*
X23361904Y-169973809D01*
X23266666Y-169926190D01*
X23076190Y-169878571D01*
X22980952Y-169830952D01*
X22933333Y-169783333D01*
X22885714Y-169688095D01*
X22885714Y-169592857D01*
X22933333Y-169497619D01*
X22980952Y-169450000D01*
X23076190Y-169402380D01*
X23314285Y-169402380D01*
X23457142Y-169450000D01*
X23790476Y-169402380D02*
X24028571Y-170402380D01*
X24219047Y-169688095D01*
X24409523Y-170402380D01*
X24647619Y-169402380D01*
X24790476Y-170497619D02*
X25552380Y-170497619D01*
X25790476Y-170402380D02*
X25790476Y-169402380D01*
X26171428Y-169402380D01*
X26266666Y-169450000D01*
X26314285Y-169497619D01*
X26361904Y-169592857D01*
X26361904Y-169735714D01*
X26314285Y-169830952D01*
X26266666Y-169878571D01*
X26171428Y-169926190D01*
X25790476Y-169926190D01*
X27219047Y-169735714D02*
X27219047Y-170402380D01*
X26790476Y-169735714D02*
X26790476Y-170259523D01*
X26838095Y-170354761D01*
X26933333Y-170402380D01*
X27076190Y-170402380D01*
X27171428Y-170354761D01*
X27219047Y-170307142D01*
X27647619Y-170354761D02*
X27742857Y-170402380D01*
X27933333Y-170402380D01*
X28028571Y-170354761D01*
X28076190Y-170259523D01*
X28076190Y-170211904D01*
X28028571Y-170116666D01*
X27933333Y-170069047D01*
X27790476Y-170069047D01*
X27695238Y-170021428D01*
X27647619Y-169926190D01*
X27647619Y-169878571D01*
X27695238Y-169783333D01*
X27790476Y-169735714D01*
X27933333Y-169735714D01*
X28028571Y-169783333D01*
X28504761Y-170402380D02*
X28504761Y-169402380D01*
X28933333Y-170402380D02*
X28933333Y-169878571D01*
X28885714Y-169783333D01*
X28790476Y-169735714D01*
X28647619Y-169735714D01*
X28552380Y-169783333D01*
X28504761Y-169830952D01*
X29171428Y-170497619D02*
X29933333Y-170497619D01*
X30600000Y-169735714D02*
X30600000Y-170402380D01*
X30361904Y-169354761D02*
X30123809Y-170069047D01*
X30742857Y-170069047D01*
X31600000Y-169402380D02*
X31123809Y-169402380D01*
X31076190Y-169878571D01*
X31123809Y-169830952D01*
X31219047Y-169783333D01*
X31457142Y-169783333D01*
X31552380Y-169830952D01*
X31600000Y-169878571D01*
X31647619Y-169973809D01*
X31647619Y-170211904D01*
X31600000Y-170307142D01*
X31552380Y-170354761D01*
X31457142Y-170402380D01*
X31219047Y-170402380D01*
X31123809Y-170354761D01*
X31076190Y-170307142D01*
X32504761Y-170402380D02*
X32504761Y-169402380D01*
X32504761Y-170354761D02*
X32409523Y-170402380D01*
X32219047Y-170402380D01*
X32123809Y-170354761D01*
X32076190Y-170307142D01*
X32028571Y-170211904D01*
X32028571Y-169926190D01*
X32076190Y-169830952D01*
X32123809Y-169783333D01*
X32219047Y-169735714D01*
X32409523Y-169735714D01*
X32504761Y-169783333D01*
X33361904Y-170354761D02*
X33266666Y-170402380D01*
X33076190Y-170402380D01*
X32980952Y-170354761D01*
X32933333Y-170259523D01*
X32933333Y-169878571D01*
X32980952Y-169783333D01*
X33076190Y-169735714D01*
X33266666Y-169735714D01*
X33361904Y-169783333D01*
X33409523Y-169878571D01*
X33409523Y-169973809D01*
X32933333Y-170069047D01*
X34266666Y-169735714D02*
X34266666Y-170545238D01*
X34219047Y-170640476D01*
X34171428Y-170688095D01*
X34076190Y-170735714D01*
X33933333Y-170735714D01*
X33838095Y-170688095D01*
X34266666Y-170354761D02*
X34171428Y-170402380D01*
X33980952Y-170402380D01*
X33885714Y-170354761D01*
X33838095Y-170307142D01*
X33790476Y-170211904D01*
X33790476Y-169926190D01*
X33838095Y-169830952D01*
X33885714Y-169783333D01*
X33980952Y-169735714D01*
X34171428Y-169735714D01*
X34266666Y-169783333D01*
%TO.C,SW16*%
X166390476Y-109854761D02*
X166533333Y-109902380D01*
X166771428Y-109902380D01*
X166866666Y-109854761D01*
X166914285Y-109807142D01*
X166961904Y-109711904D01*
X166961904Y-109616666D01*
X166914285Y-109521428D01*
X166866666Y-109473809D01*
X166771428Y-109426190D01*
X166580952Y-109378571D01*
X166485714Y-109330952D01*
X166438095Y-109283333D01*
X166390476Y-109188095D01*
X166390476Y-109092857D01*
X166438095Y-108997619D01*
X166485714Y-108950000D01*
X166580952Y-108902380D01*
X166819047Y-108902380D01*
X166961904Y-108950000D01*
X167295238Y-108902380D02*
X167533333Y-109902380D01*
X167723809Y-109188095D01*
X167914285Y-109902380D01*
X168152380Y-108902380D01*
X169057142Y-109902380D02*
X168485714Y-109902380D01*
X168771428Y-109902380D02*
X168771428Y-108902380D01*
X168676190Y-109045238D01*
X168580952Y-109140476D01*
X168485714Y-109188095D01*
X169914285Y-108902380D02*
X169723809Y-108902380D01*
X169628571Y-108950000D01*
X169580952Y-108997619D01*
X169485714Y-109140476D01*
X169438095Y-109330952D01*
X169438095Y-109711904D01*
X169485714Y-109807142D01*
X169533333Y-109854761D01*
X169628571Y-109902380D01*
X169819047Y-109902380D01*
X169914285Y-109854761D01*
X169961904Y-109807142D01*
X170009523Y-109711904D01*
X170009523Y-109473809D01*
X169961904Y-109378571D01*
X169914285Y-109330952D01*
X169819047Y-109283333D01*
X169628571Y-109283333D01*
X169533333Y-109330952D01*
X169485714Y-109378571D01*
X169438095Y-109473809D01*
X162485714Y-125854761D02*
X162628571Y-125902380D01*
X162866666Y-125902380D01*
X162961904Y-125854761D01*
X163009523Y-125807142D01*
X163057142Y-125711904D01*
X163057142Y-125616666D01*
X163009523Y-125521428D01*
X162961904Y-125473809D01*
X162866666Y-125426190D01*
X162676190Y-125378571D01*
X162580952Y-125330952D01*
X162533333Y-125283333D01*
X162485714Y-125188095D01*
X162485714Y-125092857D01*
X162533333Y-124997619D01*
X162580952Y-124950000D01*
X162676190Y-124902380D01*
X162914285Y-124902380D01*
X163057142Y-124950000D01*
X163390476Y-124902380D02*
X163628571Y-125902380D01*
X163819047Y-125188095D01*
X164009523Y-125902380D01*
X164247619Y-124902380D01*
X164390476Y-125997619D02*
X165152380Y-125997619D01*
X165390476Y-125902380D02*
X165390476Y-124902380D01*
X165771428Y-124902380D01*
X165866666Y-124950000D01*
X165914285Y-124997619D01*
X165961904Y-125092857D01*
X165961904Y-125235714D01*
X165914285Y-125330952D01*
X165866666Y-125378571D01*
X165771428Y-125426190D01*
X165390476Y-125426190D01*
X166819047Y-125235714D02*
X166819047Y-125902380D01*
X166390476Y-125235714D02*
X166390476Y-125759523D01*
X166438095Y-125854761D01*
X166533333Y-125902380D01*
X166676190Y-125902380D01*
X166771428Y-125854761D01*
X166819047Y-125807142D01*
X167247619Y-125854761D02*
X167342857Y-125902380D01*
X167533333Y-125902380D01*
X167628571Y-125854761D01*
X167676190Y-125759523D01*
X167676190Y-125711904D01*
X167628571Y-125616666D01*
X167533333Y-125569047D01*
X167390476Y-125569047D01*
X167295238Y-125521428D01*
X167247619Y-125426190D01*
X167247619Y-125378571D01*
X167295238Y-125283333D01*
X167390476Y-125235714D01*
X167533333Y-125235714D01*
X167628571Y-125283333D01*
X168104761Y-125902380D02*
X168104761Y-124902380D01*
X168533333Y-125902380D02*
X168533333Y-125378571D01*
X168485714Y-125283333D01*
X168390476Y-125235714D01*
X168247619Y-125235714D01*
X168152380Y-125283333D01*
X168104761Y-125330952D01*
X168771428Y-125997619D02*
X169533333Y-125997619D01*
X170200000Y-125235714D02*
X170200000Y-125902380D01*
X169961904Y-124854761D02*
X169723809Y-125569047D01*
X170342857Y-125569047D01*
X171200000Y-124902380D02*
X170723809Y-124902380D01*
X170676190Y-125378571D01*
X170723809Y-125330952D01*
X170819047Y-125283333D01*
X171057142Y-125283333D01*
X171152380Y-125330952D01*
X171200000Y-125378571D01*
X171247619Y-125473809D01*
X171247619Y-125711904D01*
X171200000Y-125807142D01*
X171152380Y-125854761D01*
X171057142Y-125902380D01*
X170819047Y-125902380D01*
X170723809Y-125854761D01*
X170676190Y-125807142D01*
X172104761Y-125902380D02*
X172104761Y-124902380D01*
X172104761Y-125854761D02*
X172009523Y-125902380D01*
X171819047Y-125902380D01*
X171723809Y-125854761D01*
X171676190Y-125807142D01*
X171628571Y-125711904D01*
X171628571Y-125426190D01*
X171676190Y-125330952D01*
X171723809Y-125283333D01*
X171819047Y-125235714D01*
X172009523Y-125235714D01*
X172104761Y-125283333D01*
X172961904Y-125854761D02*
X172866666Y-125902380D01*
X172676190Y-125902380D01*
X172580952Y-125854761D01*
X172533333Y-125759523D01*
X172533333Y-125378571D01*
X172580952Y-125283333D01*
X172676190Y-125235714D01*
X172866666Y-125235714D01*
X172961904Y-125283333D01*
X173009523Y-125378571D01*
X173009523Y-125473809D01*
X172533333Y-125569047D01*
X173866666Y-125235714D02*
X173866666Y-126045238D01*
X173819047Y-126140476D01*
X173771428Y-126188095D01*
X173676190Y-126235714D01*
X173533333Y-126235714D01*
X173438095Y-126188095D01*
X173866666Y-125854761D02*
X173771428Y-125902380D01*
X173580952Y-125902380D01*
X173485714Y-125854761D01*
X173438095Y-125807142D01*
X173390476Y-125711904D01*
X173390476Y-125426190D01*
X173438095Y-125330952D01*
X173485714Y-125283333D01*
X173580952Y-125235714D01*
X173771428Y-125235714D01*
X173866666Y-125283333D01*
%TO.C,SW15*%
X166390476Y-84504761D02*
X166533333Y-84552380D01*
X166771428Y-84552380D01*
X166866666Y-84504761D01*
X166914285Y-84457142D01*
X166961904Y-84361904D01*
X166961904Y-84266666D01*
X166914285Y-84171428D01*
X166866666Y-84123809D01*
X166771428Y-84076190D01*
X166580952Y-84028571D01*
X166485714Y-83980952D01*
X166438095Y-83933333D01*
X166390476Y-83838095D01*
X166390476Y-83742857D01*
X166438095Y-83647619D01*
X166485714Y-83600000D01*
X166580952Y-83552380D01*
X166819047Y-83552380D01*
X166961904Y-83600000D01*
X167295238Y-83552380D02*
X167533333Y-84552380D01*
X167723809Y-83838095D01*
X167914285Y-84552380D01*
X168152380Y-83552380D01*
X169057142Y-84552380D02*
X168485714Y-84552380D01*
X168771428Y-84552380D02*
X168771428Y-83552380D01*
X168676190Y-83695238D01*
X168580952Y-83790476D01*
X168485714Y-83838095D01*
X169961904Y-83552380D02*
X169485714Y-83552380D01*
X169438095Y-84028571D01*
X169485714Y-83980952D01*
X169580952Y-83933333D01*
X169819047Y-83933333D01*
X169914285Y-83980952D01*
X169961904Y-84028571D01*
X170009523Y-84123809D01*
X170009523Y-84361904D01*
X169961904Y-84457142D01*
X169914285Y-84504761D01*
X169819047Y-84552380D01*
X169580952Y-84552380D01*
X169485714Y-84504761D01*
X169438095Y-84457142D01*
X162485714Y-100504761D02*
X162628571Y-100552380D01*
X162866666Y-100552380D01*
X162961904Y-100504761D01*
X163009523Y-100457142D01*
X163057142Y-100361904D01*
X163057142Y-100266666D01*
X163009523Y-100171428D01*
X162961904Y-100123809D01*
X162866666Y-100076190D01*
X162676190Y-100028571D01*
X162580952Y-99980952D01*
X162533333Y-99933333D01*
X162485714Y-99838095D01*
X162485714Y-99742857D01*
X162533333Y-99647619D01*
X162580952Y-99600000D01*
X162676190Y-99552380D01*
X162914285Y-99552380D01*
X163057142Y-99600000D01*
X163390476Y-99552380D02*
X163628571Y-100552380D01*
X163819047Y-99838095D01*
X164009523Y-100552380D01*
X164247619Y-99552380D01*
X164390476Y-100647619D02*
X165152380Y-100647619D01*
X165390476Y-100552380D02*
X165390476Y-99552380D01*
X165771428Y-99552380D01*
X165866666Y-99600000D01*
X165914285Y-99647619D01*
X165961904Y-99742857D01*
X165961904Y-99885714D01*
X165914285Y-99980952D01*
X165866666Y-100028571D01*
X165771428Y-100076190D01*
X165390476Y-100076190D01*
X166819047Y-99885714D02*
X166819047Y-100552380D01*
X166390476Y-99885714D02*
X166390476Y-100409523D01*
X166438095Y-100504761D01*
X166533333Y-100552380D01*
X166676190Y-100552380D01*
X166771428Y-100504761D01*
X166819047Y-100457142D01*
X167247619Y-100504761D02*
X167342857Y-100552380D01*
X167533333Y-100552380D01*
X167628571Y-100504761D01*
X167676190Y-100409523D01*
X167676190Y-100361904D01*
X167628571Y-100266666D01*
X167533333Y-100219047D01*
X167390476Y-100219047D01*
X167295238Y-100171428D01*
X167247619Y-100076190D01*
X167247619Y-100028571D01*
X167295238Y-99933333D01*
X167390476Y-99885714D01*
X167533333Y-99885714D01*
X167628571Y-99933333D01*
X168104761Y-100552380D02*
X168104761Y-99552380D01*
X168533333Y-100552380D02*
X168533333Y-100028571D01*
X168485714Y-99933333D01*
X168390476Y-99885714D01*
X168247619Y-99885714D01*
X168152380Y-99933333D01*
X168104761Y-99980952D01*
X168771428Y-100647619D02*
X169533333Y-100647619D01*
X170200000Y-99885714D02*
X170200000Y-100552380D01*
X169961904Y-99504761D02*
X169723809Y-100219047D01*
X170342857Y-100219047D01*
X171200000Y-99552380D02*
X170723809Y-99552380D01*
X170676190Y-100028571D01*
X170723809Y-99980952D01*
X170819047Y-99933333D01*
X171057142Y-99933333D01*
X171152380Y-99980952D01*
X171200000Y-100028571D01*
X171247619Y-100123809D01*
X171247619Y-100361904D01*
X171200000Y-100457142D01*
X171152380Y-100504761D01*
X171057142Y-100552380D01*
X170819047Y-100552380D01*
X170723809Y-100504761D01*
X170676190Y-100457142D01*
X172104761Y-100552380D02*
X172104761Y-99552380D01*
X172104761Y-100504761D02*
X172009523Y-100552380D01*
X171819047Y-100552380D01*
X171723809Y-100504761D01*
X171676190Y-100457142D01*
X171628571Y-100361904D01*
X171628571Y-100076190D01*
X171676190Y-99980952D01*
X171723809Y-99933333D01*
X171819047Y-99885714D01*
X172009523Y-99885714D01*
X172104761Y-99933333D01*
X172961904Y-100504761D02*
X172866666Y-100552380D01*
X172676190Y-100552380D01*
X172580952Y-100504761D01*
X172533333Y-100409523D01*
X172533333Y-100028571D01*
X172580952Y-99933333D01*
X172676190Y-99885714D01*
X172866666Y-99885714D01*
X172961904Y-99933333D01*
X173009523Y-100028571D01*
X173009523Y-100123809D01*
X172533333Y-100219047D01*
X173866666Y-99885714D02*
X173866666Y-100695238D01*
X173819047Y-100790476D01*
X173771428Y-100838095D01*
X173676190Y-100885714D01*
X173533333Y-100885714D01*
X173438095Y-100838095D01*
X173866666Y-100504761D02*
X173771428Y-100552380D01*
X173580952Y-100552380D01*
X173485714Y-100504761D01*
X173438095Y-100457142D01*
X173390476Y-100361904D01*
X173390476Y-100076190D01*
X173438095Y-99980952D01*
X173485714Y-99933333D01*
X173580952Y-99885714D01*
X173771428Y-99885714D01*
X173866666Y-99933333D01*
%TO.C,SW9*%
X84416666Y-78154761D02*
X84559523Y-78202380D01*
X84797619Y-78202380D01*
X84892857Y-78154761D01*
X84940476Y-78107142D01*
X84988095Y-78011904D01*
X84988095Y-77916666D01*
X84940476Y-77821428D01*
X84892857Y-77773809D01*
X84797619Y-77726190D01*
X84607142Y-77678571D01*
X84511904Y-77630952D01*
X84464285Y-77583333D01*
X84416666Y-77488095D01*
X84416666Y-77392857D01*
X84464285Y-77297619D01*
X84511904Y-77250000D01*
X84607142Y-77202380D01*
X84845238Y-77202380D01*
X84988095Y-77250000D01*
X85321428Y-77202380D02*
X85559523Y-78202380D01*
X85750000Y-77488095D01*
X85940476Y-78202380D01*
X86178571Y-77202380D01*
X86607142Y-78202380D02*
X86797619Y-78202380D01*
X86892857Y-78154761D01*
X86940476Y-78107142D01*
X87035714Y-77964285D01*
X87083333Y-77773809D01*
X87083333Y-77392857D01*
X87035714Y-77297619D01*
X86988095Y-77250000D01*
X86892857Y-77202380D01*
X86702380Y-77202380D01*
X86607142Y-77250000D01*
X86559523Y-77297619D01*
X86511904Y-77392857D01*
X86511904Y-77630952D01*
X86559523Y-77726190D01*
X86607142Y-77773809D01*
X86702380Y-77821428D01*
X86892857Y-77821428D01*
X86988095Y-77773809D01*
X87035714Y-77726190D01*
X87083333Y-77630952D01*
X80035714Y-94154761D02*
X80178571Y-94202380D01*
X80416666Y-94202380D01*
X80511904Y-94154761D01*
X80559523Y-94107142D01*
X80607142Y-94011904D01*
X80607142Y-93916666D01*
X80559523Y-93821428D01*
X80511904Y-93773809D01*
X80416666Y-93726190D01*
X80226190Y-93678571D01*
X80130952Y-93630952D01*
X80083333Y-93583333D01*
X80035714Y-93488095D01*
X80035714Y-93392857D01*
X80083333Y-93297619D01*
X80130952Y-93250000D01*
X80226190Y-93202380D01*
X80464285Y-93202380D01*
X80607142Y-93250000D01*
X80940476Y-93202380D02*
X81178571Y-94202380D01*
X81369047Y-93488095D01*
X81559523Y-94202380D01*
X81797619Y-93202380D01*
X81940476Y-94297619D02*
X82702380Y-94297619D01*
X82940476Y-94202380D02*
X82940476Y-93202380D01*
X83321428Y-93202380D01*
X83416666Y-93250000D01*
X83464285Y-93297619D01*
X83511904Y-93392857D01*
X83511904Y-93535714D01*
X83464285Y-93630952D01*
X83416666Y-93678571D01*
X83321428Y-93726190D01*
X82940476Y-93726190D01*
X84369047Y-93535714D02*
X84369047Y-94202380D01*
X83940476Y-93535714D02*
X83940476Y-94059523D01*
X83988095Y-94154761D01*
X84083333Y-94202380D01*
X84226190Y-94202380D01*
X84321428Y-94154761D01*
X84369047Y-94107142D01*
X84797619Y-94154761D02*
X84892857Y-94202380D01*
X85083333Y-94202380D01*
X85178571Y-94154761D01*
X85226190Y-94059523D01*
X85226190Y-94011904D01*
X85178571Y-93916666D01*
X85083333Y-93869047D01*
X84940476Y-93869047D01*
X84845238Y-93821428D01*
X84797619Y-93726190D01*
X84797619Y-93678571D01*
X84845238Y-93583333D01*
X84940476Y-93535714D01*
X85083333Y-93535714D01*
X85178571Y-93583333D01*
X85654761Y-94202380D02*
X85654761Y-93202380D01*
X86083333Y-94202380D02*
X86083333Y-93678571D01*
X86035714Y-93583333D01*
X85940476Y-93535714D01*
X85797619Y-93535714D01*
X85702380Y-93583333D01*
X85654761Y-93630952D01*
X86321428Y-94297619D02*
X87083333Y-94297619D01*
X87750000Y-93535714D02*
X87750000Y-94202380D01*
X87511904Y-93154761D02*
X87273809Y-93869047D01*
X87892857Y-93869047D01*
X88750000Y-93202380D02*
X88273809Y-93202380D01*
X88226190Y-93678571D01*
X88273809Y-93630952D01*
X88369047Y-93583333D01*
X88607142Y-93583333D01*
X88702380Y-93630952D01*
X88750000Y-93678571D01*
X88797619Y-93773809D01*
X88797619Y-94011904D01*
X88750000Y-94107142D01*
X88702380Y-94154761D01*
X88607142Y-94202380D01*
X88369047Y-94202380D01*
X88273809Y-94154761D01*
X88226190Y-94107142D01*
X89654761Y-94202380D02*
X89654761Y-93202380D01*
X89654761Y-94154761D02*
X89559523Y-94202380D01*
X89369047Y-94202380D01*
X89273809Y-94154761D01*
X89226190Y-94107142D01*
X89178571Y-94011904D01*
X89178571Y-93726190D01*
X89226190Y-93630952D01*
X89273809Y-93583333D01*
X89369047Y-93535714D01*
X89559523Y-93535714D01*
X89654761Y-93583333D01*
X90511904Y-94154761D02*
X90416666Y-94202380D01*
X90226190Y-94202380D01*
X90130952Y-94154761D01*
X90083333Y-94059523D01*
X90083333Y-93678571D01*
X90130952Y-93583333D01*
X90226190Y-93535714D01*
X90416666Y-93535714D01*
X90511904Y-93583333D01*
X90559523Y-93678571D01*
X90559523Y-93773809D01*
X90083333Y-93869047D01*
X91416666Y-93535714D02*
X91416666Y-94345238D01*
X91369047Y-94440476D01*
X91321428Y-94488095D01*
X91226190Y-94535714D01*
X91083333Y-94535714D01*
X90988095Y-94488095D01*
X91416666Y-94154761D02*
X91321428Y-94202380D01*
X91130952Y-94202380D01*
X91035714Y-94154761D01*
X90988095Y-94107142D01*
X90940476Y-94011904D01*
X90940476Y-93726190D01*
X90988095Y-93630952D01*
X91035714Y-93583333D01*
X91130952Y-93535714D01*
X91321428Y-93535714D01*
X91416666Y-93583333D01*
%TO.C,SW13*%
X166390476Y-46404761D02*
X166533333Y-46452380D01*
X166771428Y-46452380D01*
X166866666Y-46404761D01*
X166914285Y-46357142D01*
X166961904Y-46261904D01*
X166961904Y-46166666D01*
X166914285Y-46071428D01*
X166866666Y-46023809D01*
X166771428Y-45976190D01*
X166580952Y-45928571D01*
X166485714Y-45880952D01*
X166438095Y-45833333D01*
X166390476Y-45738095D01*
X166390476Y-45642857D01*
X166438095Y-45547619D01*
X166485714Y-45500000D01*
X166580952Y-45452380D01*
X166819047Y-45452380D01*
X166961904Y-45500000D01*
X167295238Y-45452380D02*
X167533333Y-46452380D01*
X167723809Y-45738095D01*
X167914285Y-46452380D01*
X168152380Y-45452380D01*
X169057142Y-46452380D02*
X168485714Y-46452380D01*
X168771428Y-46452380D02*
X168771428Y-45452380D01*
X168676190Y-45595238D01*
X168580952Y-45690476D01*
X168485714Y-45738095D01*
X169390476Y-45452380D02*
X170009523Y-45452380D01*
X169676190Y-45833333D01*
X169819047Y-45833333D01*
X169914285Y-45880952D01*
X169961904Y-45928571D01*
X170009523Y-46023809D01*
X170009523Y-46261904D01*
X169961904Y-46357142D01*
X169914285Y-46404761D01*
X169819047Y-46452380D01*
X169533333Y-46452380D01*
X169438095Y-46404761D01*
X169390476Y-46357142D01*
X162485714Y-62404761D02*
X162628571Y-62452380D01*
X162866666Y-62452380D01*
X162961904Y-62404761D01*
X163009523Y-62357142D01*
X163057142Y-62261904D01*
X163057142Y-62166666D01*
X163009523Y-62071428D01*
X162961904Y-62023809D01*
X162866666Y-61976190D01*
X162676190Y-61928571D01*
X162580952Y-61880952D01*
X162533333Y-61833333D01*
X162485714Y-61738095D01*
X162485714Y-61642857D01*
X162533333Y-61547619D01*
X162580952Y-61500000D01*
X162676190Y-61452380D01*
X162914285Y-61452380D01*
X163057142Y-61500000D01*
X163390476Y-61452380D02*
X163628571Y-62452380D01*
X163819047Y-61738095D01*
X164009523Y-62452380D01*
X164247619Y-61452380D01*
X164390476Y-62547619D02*
X165152380Y-62547619D01*
X165390476Y-62452380D02*
X165390476Y-61452380D01*
X165771428Y-61452380D01*
X165866666Y-61500000D01*
X165914285Y-61547619D01*
X165961904Y-61642857D01*
X165961904Y-61785714D01*
X165914285Y-61880952D01*
X165866666Y-61928571D01*
X165771428Y-61976190D01*
X165390476Y-61976190D01*
X166819047Y-61785714D02*
X166819047Y-62452380D01*
X166390476Y-61785714D02*
X166390476Y-62309523D01*
X166438095Y-62404761D01*
X166533333Y-62452380D01*
X166676190Y-62452380D01*
X166771428Y-62404761D01*
X166819047Y-62357142D01*
X167247619Y-62404761D02*
X167342857Y-62452380D01*
X167533333Y-62452380D01*
X167628571Y-62404761D01*
X167676190Y-62309523D01*
X167676190Y-62261904D01*
X167628571Y-62166666D01*
X167533333Y-62119047D01*
X167390476Y-62119047D01*
X167295238Y-62071428D01*
X167247619Y-61976190D01*
X167247619Y-61928571D01*
X167295238Y-61833333D01*
X167390476Y-61785714D01*
X167533333Y-61785714D01*
X167628571Y-61833333D01*
X168104761Y-62452380D02*
X168104761Y-61452380D01*
X168533333Y-62452380D02*
X168533333Y-61928571D01*
X168485714Y-61833333D01*
X168390476Y-61785714D01*
X168247619Y-61785714D01*
X168152380Y-61833333D01*
X168104761Y-61880952D01*
X168771428Y-62547619D02*
X169533333Y-62547619D01*
X170200000Y-61785714D02*
X170200000Y-62452380D01*
X169961904Y-61404761D02*
X169723809Y-62119047D01*
X170342857Y-62119047D01*
X171200000Y-61452380D02*
X170723809Y-61452380D01*
X170676190Y-61928571D01*
X170723809Y-61880952D01*
X170819047Y-61833333D01*
X171057142Y-61833333D01*
X171152380Y-61880952D01*
X171200000Y-61928571D01*
X171247619Y-62023809D01*
X171247619Y-62261904D01*
X171200000Y-62357142D01*
X171152380Y-62404761D01*
X171057142Y-62452380D01*
X170819047Y-62452380D01*
X170723809Y-62404761D01*
X170676190Y-62357142D01*
X172104761Y-62452380D02*
X172104761Y-61452380D01*
X172104761Y-62404761D02*
X172009523Y-62452380D01*
X171819047Y-62452380D01*
X171723809Y-62404761D01*
X171676190Y-62357142D01*
X171628571Y-62261904D01*
X171628571Y-61976190D01*
X171676190Y-61880952D01*
X171723809Y-61833333D01*
X171819047Y-61785714D01*
X172009523Y-61785714D01*
X172104761Y-61833333D01*
X172961904Y-62404761D02*
X172866666Y-62452380D01*
X172676190Y-62452380D01*
X172580952Y-62404761D01*
X172533333Y-62309523D01*
X172533333Y-61928571D01*
X172580952Y-61833333D01*
X172676190Y-61785714D01*
X172866666Y-61785714D01*
X172961904Y-61833333D01*
X173009523Y-61928571D01*
X173009523Y-62023809D01*
X172533333Y-62119047D01*
X173866666Y-61785714D02*
X173866666Y-62595238D01*
X173819047Y-62690476D01*
X173771428Y-62738095D01*
X173676190Y-62785714D01*
X173533333Y-62785714D01*
X173438095Y-62738095D01*
X173866666Y-62404761D02*
X173771428Y-62452380D01*
X173580952Y-62452380D01*
X173485714Y-62404761D01*
X173438095Y-62357142D01*
X173390476Y-62261904D01*
X173390476Y-61976190D01*
X173438095Y-61880952D01*
X173485714Y-61833333D01*
X173580952Y-61785714D01*
X173771428Y-61785714D01*
X173866666Y-61833333D01*
%TO.C,SW2*%
X46316666Y-97204761D02*
X46459523Y-97252380D01*
X46697619Y-97252380D01*
X46792857Y-97204761D01*
X46840476Y-97157142D01*
X46888095Y-97061904D01*
X46888095Y-96966666D01*
X46840476Y-96871428D01*
X46792857Y-96823809D01*
X46697619Y-96776190D01*
X46507142Y-96728571D01*
X46411904Y-96680952D01*
X46364285Y-96633333D01*
X46316666Y-96538095D01*
X46316666Y-96442857D01*
X46364285Y-96347619D01*
X46411904Y-96300000D01*
X46507142Y-96252380D01*
X46745238Y-96252380D01*
X46888095Y-96300000D01*
X47221428Y-96252380D02*
X47459523Y-97252380D01*
X47650000Y-96538095D01*
X47840476Y-97252380D01*
X48078571Y-96252380D01*
X48411904Y-96347619D02*
X48459523Y-96300000D01*
X48554761Y-96252380D01*
X48792857Y-96252380D01*
X48888095Y-96300000D01*
X48935714Y-96347619D01*
X48983333Y-96442857D01*
X48983333Y-96538095D01*
X48935714Y-96680952D01*
X48364285Y-97252380D01*
X48983333Y-97252380D01*
X41935714Y-113204761D02*
X42078571Y-113252380D01*
X42316666Y-113252380D01*
X42411904Y-113204761D01*
X42459523Y-113157142D01*
X42507142Y-113061904D01*
X42507142Y-112966666D01*
X42459523Y-112871428D01*
X42411904Y-112823809D01*
X42316666Y-112776190D01*
X42126190Y-112728571D01*
X42030952Y-112680952D01*
X41983333Y-112633333D01*
X41935714Y-112538095D01*
X41935714Y-112442857D01*
X41983333Y-112347619D01*
X42030952Y-112300000D01*
X42126190Y-112252380D01*
X42364285Y-112252380D01*
X42507142Y-112300000D01*
X42840476Y-112252380D02*
X43078571Y-113252380D01*
X43269047Y-112538095D01*
X43459523Y-113252380D01*
X43697619Y-112252380D01*
X43840476Y-113347619D02*
X44602380Y-113347619D01*
X44840476Y-113252380D02*
X44840476Y-112252380D01*
X45221428Y-112252380D01*
X45316666Y-112300000D01*
X45364285Y-112347619D01*
X45411904Y-112442857D01*
X45411904Y-112585714D01*
X45364285Y-112680952D01*
X45316666Y-112728571D01*
X45221428Y-112776190D01*
X44840476Y-112776190D01*
X46269047Y-112585714D02*
X46269047Y-113252380D01*
X45840476Y-112585714D02*
X45840476Y-113109523D01*
X45888095Y-113204761D01*
X45983333Y-113252380D01*
X46126190Y-113252380D01*
X46221428Y-113204761D01*
X46269047Y-113157142D01*
X46697619Y-113204761D02*
X46792857Y-113252380D01*
X46983333Y-113252380D01*
X47078571Y-113204761D01*
X47126190Y-113109523D01*
X47126190Y-113061904D01*
X47078571Y-112966666D01*
X46983333Y-112919047D01*
X46840476Y-112919047D01*
X46745238Y-112871428D01*
X46697619Y-112776190D01*
X46697619Y-112728571D01*
X46745238Y-112633333D01*
X46840476Y-112585714D01*
X46983333Y-112585714D01*
X47078571Y-112633333D01*
X47554761Y-113252380D02*
X47554761Y-112252380D01*
X47983333Y-113252380D02*
X47983333Y-112728571D01*
X47935714Y-112633333D01*
X47840476Y-112585714D01*
X47697619Y-112585714D01*
X47602380Y-112633333D01*
X47554761Y-112680952D01*
X48221428Y-113347619D02*
X48983333Y-113347619D01*
X49650000Y-112585714D02*
X49650000Y-113252380D01*
X49411904Y-112204761D02*
X49173809Y-112919047D01*
X49792857Y-112919047D01*
X50650000Y-112252380D02*
X50173809Y-112252380D01*
X50126190Y-112728571D01*
X50173809Y-112680952D01*
X50269047Y-112633333D01*
X50507142Y-112633333D01*
X50602380Y-112680952D01*
X50650000Y-112728571D01*
X50697619Y-112823809D01*
X50697619Y-113061904D01*
X50650000Y-113157142D01*
X50602380Y-113204761D01*
X50507142Y-113252380D01*
X50269047Y-113252380D01*
X50173809Y-113204761D01*
X50126190Y-113157142D01*
X51554761Y-113252380D02*
X51554761Y-112252380D01*
X51554761Y-113204761D02*
X51459523Y-113252380D01*
X51269047Y-113252380D01*
X51173809Y-113204761D01*
X51126190Y-113157142D01*
X51078571Y-113061904D01*
X51078571Y-112776190D01*
X51126190Y-112680952D01*
X51173809Y-112633333D01*
X51269047Y-112585714D01*
X51459523Y-112585714D01*
X51554761Y-112633333D01*
X52411904Y-113204761D02*
X52316666Y-113252380D01*
X52126190Y-113252380D01*
X52030952Y-113204761D01*
X51983333Y-113109523D01*
X51983333Y-112728571D01*
X52030952Y-112633333D01*
X52126190Y-112585714D01*
X52316666Y-112585714D01*
X52411904Y-112633333D01*
X52459523Y-112728571D01*
X52459523Y-112823809D01*
X51983333Y-112919047D01*
X53316666Y-112585714D02*
X53316666Y-113395238D01*
X53269047Y-113490476D01*
X53221428Y-113538095D01*
X53126190Y-113585714D01*
X52983333Y-113585714D01*
X52888095Y-113538095D01*
X53316666Y-113204761D02*
X53221428Y-113252380D01*
X53030952Y-113252380D01*
X52935714Y-113204761D01*
X52888095Y-113157142D01*
X52840476Y-113061904D01*
X52840476Y-112776190D01*
X52888095Y-112680952D01*
X52935714Y-112633333D01*
X53030952Y-112585714D01*
X53221428Y-112585714D01*
X53316666Y-112633333D01*
%TO.C,SW8*%
X84416666Y-59104761D02*
X84559523Y-59152380D01*
X84797619Y-59152380D01*
X84892857Y-59104761D01*
X84940476Y-59057142D01*
X84988095Y-58961904D01*
X84988095Y-58866666D01*
X84940476Y-58771428D01*
X84892857Y-58723809D01*
X84797619Y-58676190D01*
X84607142Y-58628571D01*
X84511904Y-58580952D01*
X84464285Y-58533333D01*
X84416666Y-58438095D01*
X84416666Y-58342857D01*
X84464285Y-58247619D01*
X84511904Y-58200000D01*
X84607142Y-58152380D01*
X84845238Y-58152380D01*
X84988095Y-58200000D01*
X85321428Y-58152380D02*
X85559523Y-59152380D01*
X85750000Y-58438095D01*
X85940476Y-59152380D01*
X86178571Y-58152380D01*
X86702380Y-58580952D02*
X86607142Y-58533333D01*
X86559523Y-58485714D01*
X86511904Y-58390476D01*
X86511904Y-58342857D01*
X86559523Y-58247619D01*
X86607142Y-58200000D01*
X86702380Y-58152380D01*
X86892857Y-58152380D01*
X86988095Y-58200000D01*
X87035714Y-58247619D01*
X87083333Y-58342857D01*
X87083333Y-58390476D01*
X87035714Y-58485714D01*
X86988095Y-58533333D01*
X86892857Y-58580952D01*
X86702380Y-58580952D01*
X86607142Y-58628571D01*
X86559523Y-58676190D01*
X86511904Y-58771428D01*
X86511904Y-58961904D01*
X86559523Y-59057142D01*
X86607142Y-59104761D01*
X86702380Y-59152380D01*
X86892857Y-59152380D01*
X86988095Y-59104761D01*
X87035714Y-59057142D01*
X87083333Y-58961904D01*
X87083333Y-58771428D01*
X87035714Y-58676190D01*
X86988095Y-58628571D01*
X86892857Y-58580952D01*
X80035714Y-75104761D02*
X80178571Y-75152380D01*
X80416666Y-75152380D01*
X80511904Y-75104761D01*
X80559523Y-75057142D01*
X80607142Y-74961904D01*
X80607142Y-74866666D01*
X80559523Y-74771428D01*
X80511904Y-74723809D01*
X80416666Y-74676190D01*
X80226190Y-74628571D01*
X80130952Y-74580952D01*
X80083333Y-74533333D01*
X80035714Y-74438095D01*
X80035714Y-74342857D01*
X80083333Y-74247619D01*
X80130952Y-74200000D01*
X80226190Y-74152380D01*
X80464285Y-74152380D01*
X80607142Y-74200000D01*
X80940476Y-74152380D02*
X81178571Y-75152380D01*
X81369047Y-74438095D01*
X81559523Y-75152380D01*
X81797619Y-74152380D01*
X81940476Y-75247619D02*
X82702380Y-75247619D01*
X82940476Y-75152380D02*
X82940476Y-74152380D01*
X83321428Y-74152380D01*
X83416666Y-74200000D01*
X83464285Y-74247619D01*
X83511904Y-74342857D01*
X83511904Y-74485714D01*
X83464285Y-74580952D01*
X83416666Y-74628571D01*
X83321428Y-74676190D01*
X82940476Y-74676190D01*
X84369047Y-74485714D02*
X84369047Y-75152380D01*
X83940476Y-74485714D02*
X83940476Y-75009523D01*
X83988095Y-75104761D01*
X84083333Y-75152380D01*
X84226190Y-75152380D01*
X84321428Y-75104761D01*
X84369047Y-75057142D01*
X84797619Y-75104761D02*
X84892857Y-75152380D01*
X85083333Y-75152380D01*
X85178571Y-75104761D01*
X85226190Y-75009523D01*
X85226190Y-74961904D01*
X85178571Y-74866666D01*
X85083333Y-74819047D01*
X84940476Y-74819047D01*
X84845238Y-74771428D01*
X84797619Y-74676190D01*
X84797619Y-74628571D01*
X84845238Y-74533333D01*
X84940476Y-74485714D01*
X85083333Y-74485714D01*
X85178571Y-74533333D01*
X85654761Y-75152380D02*
X85654761Y-74152380D01*
X86083333Y-75152380D02*
X86083333Y-74628571D01*
X86035714Y-74533333D01*
X85940476Y-74485714D01*
X85797619Y-74485714D01*
X85702380Y-74533333D01*
X85654761Y-74580952D01*
X86321428Y-75247619D02*
X87083333Y-75247619D01*
X87750000Y-74485714D02*
X87750000Y-75152380D01*
X87511904Y-74104761D02*
X87273809Y-74819047D01*
X87892857Y-74819047D01*
X88750000Y-74152380D02*
X88273809Y-74152380D01*
X88226190Y-74628571D01*
X88273809Y-74580952D01*
X88369047Y-74533333D01*
X88607142Y-74533333D01*
X88702380Y-74580952D01*
X88750000Y-74628571D01*
X88797619Y-74723809D01*
X88797619Y-74961904D01*
X88750000Y-75057142D01*
X88702380Y-75104761D01*
X88607142Y-75152380D01*
X88369047Y-75152380D01*
X88273809Y-75104761D01*
X88226190Y-75057142D01*
X89654761Y-75152380D02*
X89654761Y-74152380D01*
X89654761Y-75104761D02*
X89559523Y-75152380D01*
X89369047Y-75152380D01*
X89273809Y-75104761D01*
X89226190Y-75057142D01*
X89178571Y-74961904D01*
X89178571Y-74676190D01*
X89226190Y-74580952D01*
X89273809Y-74533333D01*
X89369047Y-74485714D01*
X89559523Y-74485714D01*
X89654761Y-74533333D01*
X90511904Y-75104761D02*
X90416666Y-75152380D01*
X90226190Y-75152380D01*
X90130952Y-75104761D01*
X90083333Y-75009523D01*
X90083333Y-74628571D01*
X90130952Y-74533333D01*
X90226190Y-74485714D01*
X90416666Y-74485714D01*
X90511904Y-74533333D01*
X90559523Y-74628571D01*
X90559523Y-74723809D01*
X90083333Y-74819047D01*
X91416666Y-74485714D02*
X91416666Y-75295238D01*
X91369047Y-75390476D01*
X91321428Y-75438095D01*
X91226190Y-75485714D01*
X91083333Y-75485714D01*
X90988095Y-75438095D01*
X91416666Y-75104761D02*
X91321428Y-75152380D01*
X91130952Y-75152380D01*
X91035714Y-75104761D01*
X90988095Y-75057142D01*
X90940476Y-74961904D01*
X90940476Y-74676190D01*
X90988095Y-74580952D01*
X91035714Y-74533333D01*
X91130952Y-74485714D01*
X91321428Y-74485714D01*
X91416666Y-74533333D01*
%TO.C,SW5*%
X122516666Y-97204761D02*
X122659523Y-97252380D01*
X122897619Y-97252380D01*
X122992857Y-97204761D01*
X123040476Y-97157142D01*
X123088095Y-97061904D01*
X123088095Y-96966666D01*
X123040476Y-96871428D01*
X122992857Y-96823809D01*
X122897619Y-96776190D01*
X122707142Y-96728571D01*
X122611904Y-96680952D01*
X122564285Y-96633333D01*
X122516666Y-96538095D01*
X122516666Y-96442857D01*
X122564285Y-96347619D01*
X122611904Y-96300000D01*
X122707142Y-96252380D01*
X122945238Y-96252380D01*
X123088095Y-96300000D01*
X123421428Y-96252380D02*
X123659523Y-97252380D01*
X123850000Y-96538095D01*
X124040476Y-97252380D01*
X124278571Y-96252380D01*
X125135714Y-96252380D02*
X124659523Y-96252380D01*
X124611904Y-96728571D01*
X124659523Y-96680952D01*
X124754761Y-96633333D01*
X124992857Y-96633333D01*
X125088095Y-96680952D01*
X125135714Y-96728571D01*
X125183333Y-96823809D01*
X125183333Y-97061904D01*
X125135714Y-97157142D01*
X125088095Y-97204761D01*
X124992857Y-97252380D01*
X124754761Y-97252380D01*
X124659523Y-97204761D01*
X124611904Y-97157142D01*
X118135714Y-113204761D02*
X118278571Y-113252380D01*
X118516666Y-113252380D01*
X118611904Y-113204761D01*
X118659523Y-113157142D01*
X118707142Y-113061904D01*
X118707142Y-112966666D01*
X118659523Y-112871428D01*
X118611904Y-112823809D01*
X118516666Y-112776190D01*
X118326190Y-112728571D01*
X118230952Y-112680952D01*
X118183333Y-112633333D01*
X118135714Y-112538095D01*
X118135714Y-112442857D01*
X118183333Y-112347619D01*
X118230952Y-112300000D01*
X118326190Y-112252380D01*
X118564285Y-112252380D01*
X118707142Y-112300000D01*
X119040476Y-112252380D02*
X119278571Y-113252380D01*
X119469047Y-112538095D01*
X119659523Y-113252380D01*
X119897619Y-112252380D01*
X120040476Y-113347619D02*
X120802380Y-113347619D01*
X121040476Y-113252380D02*
X121040476Y-112252380D01*
X121421428Y-112252380D01*
X121516666Y-112300000D01*
X121564285Y-112347619D01*
X121611904Y-112442857D01*
X121611904Y-112585714D01*
X121564285Y-112680952D01*
X121516666Y-112728571D01*
X121421428Y-112776190D01*
X121040476Y-112776190D01*
X122469047Y-112585714D02*
X122469047Y-113252380D01*
X122040476Y-112585714D02*
X122040476Y-113109523D01*
X122088095Y-113204761D01*
X122183333Y-113252380D01*
X122326190Y-113252380D01*
X122421428Y-113204761D01*
X122469047Y-113157142D01*
X122897619Y-113204761D02*
X122992857Y-113252380D01*
X123183333Y-113252380D01*
X123278571Y-113204761D01*
X123326190Y-113109523D01*
X123326190Y-113061904D01*
X123278571Y-112966666D01*
X123183333Y-112919047D01*
X123040476Y-112919047D01*
X122945238Y-112871428D01*
X122897619Y-112776190D01*
X122897619Y-112728571D01*
X122945238Y-112633333D01*
X123040476Y-112585714D01*
X123183333Y-112585714D01*
X123278571Y-112633333D01*
X123754761Y-113252380D02*
X123754761Y-112252380D01*
X124183333Y-113252380D02*
X124183333Y-112728571D01*
X124135714Y-112633333D01*
X124040476Y-112585714D01*
X123897619Y-112585714D01*
X123802380Y-112633333D01*
X123754761Y-112680952D01*
X124421428Y-113347619D02*
X125183333Y-113347619D01*
X125850000Y-112585714D02*
X125850000Y-113252380D01*
X125611904Y-112204761D02*
X125373809Y-112919047D01*
X125992857Y-112919047D01*
X126850000Y-112252380D02*
X126373809Y-112252380D01*
X126326190Y-112728571D01*
X126373809Y-112680952D01*
X126469047Y-112633333D01*
X126707142Y-112633333D01*
X126802380Y-112680952D01*
X126850000Y-112728571D01*
X126897619Y-112823809D01*
X126897619Y-113061904D01*
X126850000Y-113157142D01*
X126802380Y-113204761D01*
X126707142Y-113252380D01*
X126469047Y-113252380D01*
X126373809Y-113204761D01*
X126326190Y-113157142D01*
X127754761Y-113252380D02*
X127754761Y-112252380D01*
X127754761Y-113204761D02*
X127659523Y-113252380D01*
X127469047Y-113252380D01*
X127373809Y-113204761D01*
X127326190Y-113157142D01*
X127278571Y-113061904D01*
X127278571Y-112776190D01*
X127326190Y-112680952D01*
X127373809Y-112633333D01*
X127469047Y-112585714D01*
X127659523Y-112585714D01*
X127754761Y-112633333D01*
X128611904Y-113204761D02*
X128516666Y-113252380D01*
X128326190Y-113252380D01*
X128230952Y-113204761D01*
X128183333Y-113109523D01*
X128183333Y-112728571D01*
X128230952Y-112633333D01*
X128326190Y-112585714D01*
X128516666Y-112585714D01*
X128611904Y-112633333D01*
X128659523Y-112728571D01*
X128659523Y-112823809D01*
X128183333Y-112919047D01*
X129516666Y-112585714D02*
X129516666Y-113395238D01*
X129469047Y-113490476D01*
X129421428Y-113538095D01*
X129326190Y-113585714D01*
X129183333Y-113585714D01*
X129088095Y-113538095D01*
X129516666Y-113204761D02*
X129421428Y-113252380D01*
X129230952Y-113252380D01*
X129135714Y-113204761D01*
X129088095Y-113157142D01*
X129040476Y-113061904D01*
X129040476Y-112776190D01*
X129088095Y-112680952D01*
X129135714Y-112633333D01*
X129230952Y-112585714D01*
X129421428Y-112585714D01*
X129516666Y-112633333D01*
%TO.C,SW1*%
X27266666Y-97204761D02*
X27409523Y-97252380D01*
X27647619Y-97252380D01*
X27742857Y-97204761D01*
X27790476Y-97157142D01*
X27838095Y-97061904D01*
X27838095Y-96966666D01*
X27790476Y-96871428D01*
X27742857Y-96823809D01*
X27647619Y-96776190D01*
X27457142Y-96728571D01*
X27361904Y-96680952D01*
X27314285Y-96633333D01*
X27266666Y-96538095D01*
X27266666Y-96442857D01*
X27314285Y-96347619D01*
X27361904Y-96300000D01*
X27457142Y-96252380D01*
X27695238Y-96252380D01*
X27838095Y-96300000D01*
X28171428Y-96252380D02*
X28409523Y-97252380D01*
X28600000Y-96538095D01*
X28790476Y-97252380D01*
X29028571Y-96252380D01*
X29933333Y-97252380D02*
X29361904Y-97252380D01*
X29647619Y-97252380D02*
X29647619Y-96252380D01*
X29552380Y-96395238D01*
X29457142Y-96490476D01*
X29361904Y-96538095D01*
X22885714Y-113204761D02*
X23028571Y-113252380D01*
X23266666Y-113252380D01*
X23361904Y-113204761D01*
X23409523Y-113157142D01*
X23457142Y-113061904D01*
X23457142Y-112966666D01*
X23409523Y-112871428D01*
X23361904Y-112823809D01*
X23266666Y-112776190D01*
X23076190Y-112728571D01*
X22980952Y-112680952D01*
X22933333Y-112633333D01*
X22885714Y-112538095D01*
X22885714Y-112442857D01*
X22933333Y-112347619D01*
X22980952Y-112300000D01*
X23076190Y-112252380D01*
X23314285Y-112252380D01*
X23457142Y-112300000D01*
X23790476Y-112252380D02*
X24028571Y-113252380D01*
X24219047Y-112538095D01*
X24409523Y-113252380D01*
X24647619Y-112252380D01*
X24790476Y-113347619D02*
X25552380Y-113347619D01*
X25790476Y-113252380D02*
X25790476Y-112252380D01*
X26171428Y-112252380D01*
X26266666Y-112300000D01*
X26314285Y-112347619D01*
X26361904Y-112442857D01*
X26361904Y-112585714D01*
X26314285Y-112680952D01*
X26266666Y-112728571D01*
X26171428Y-112776190D01*
X25790476Y-112776190D01*
X27219047Y-112585714D02*
X27219047Y-113252380D01*
X26790476Y-112585714D02*
X26790476Y-113109523D01*
X26838095Y-113204761D01*
X26933333Y-113252380D01*
X27076190Y-113252380D01*
X27171428Y-113204761D01*
X27219047Y-113157142D01*
X27647619Y-113204761D02*
X27742857Y-113252380D01*
X27933333Y-113252380D01*
X28028571Y-113204761D01*
X28076190Y-113109523D01*
X28076190Y-113061904D01*
X28028571Y-112966666D01*
X27933333Y-112919047D01*
X27790476Y-112919047D01*
X27695238Y-112871428D01*
X27647619Y-112776190D01*
X27647619Y-112728571D01*
X27695238Y-112633333D01*
X27790476Y-112585714D01*
X27933333Y-112585714D01*
X28028571Y-112633333D01*
X28504761Y-113252380D02*
X28504761Y-112252380D01*
X28933333Y-113252380D02*
X28933333Y-112728571D01*
X28885714Y-112633333D01*
X28790476Y-112585714D01*
X28647619Y-112585714D01*
X28552380Y-112633333D01*
X28504761Y-112680952D01*
X29171428Y-113347619D02*
X29933333Y-113347619D01*
X30600000Y-112585714D02*
X30600000Y-113252380D01*
X30361904Y-112204761D02*
X30123809Y-112919047D01*
X30742857Y-112919047D01*
X31600000Y-112252380D02*
X31123809Y-112252380D01*
X31076190Y-112728571D01*
X31123809Y-112680952D01*
X31219047Y-112633333D01*
X31457142Y-112633333D01*
X31552380Y-112680952D01*
X31600000Y-112728571D01*
X31647619Y-112823809D01*
X31647619Y-113061904D01*
X31600000Y-113157142D01*
X31552380Y-113204761D01*
X31457142Y-113252380D01*
X31219047Y-113252380D01*
X31123809Y-113204761D01*
X31076190Y-113157142D01*
X32504761Y-113252380D02*
X32504761Y-112252380D01*
X32504761Y-113204761D02*
X32409523Y-113252380D01*
X32219047Y-113252380D01*
X32123809Y-113204761D01*
X32076190Y-113157142D01*
X32028571Y-113061904D01*
X32028571Y-112776190D01*
X32076190Y-112680952D01*
X32123809Y-112633333D01*
X32219047Y-112585714D01*
X32409523Y-112585714D01*
X32504761Y-112633333D01*
X33361904Y-113204761D02*
X33266666Y-113252380D01*
X33076190Y-113252380D01*
X32980952Y-113204761D01*
X32933333Y-113109523D01*
X32933333Y-112728571D01*
X32980952Y-112633333D01*
X33076190Y-112585714D01*
X33266666Y-112585714D01*
X33361904Y-112633333D01*
X33409523Y-112728571D01*
X33409523Y-112823809D01*
X32933333Y-112919047D01*
X34266666Y-112585714D02*
X34266666Y-113395238D01*
X34219047Y-113490476D01*
X34171428Y-113538095D01*
X34076190Y-113585714D01*
X33933333Y-113585714D01*
X33838095Y-113538095D01*
X34266666Y-113204761D02*
X34171428Y-113252380D01*
X33980952Y-113252380D01*
X33885714Y-113204761D01*
X33838095Y-113157142D01*
X33790476Y-113061904D01*
X33790476Y-112776190D01*
X33838095Y-112680952D01*
X33885714Y-112633333D01*
X33980952Y-112585714D01*
X34171428Y-112585714D01*
X34266666Y-112633333D01*
%TO.C,SW7*%
X84416666Y-40054761D02*
X84559523Y-40102380D01*
X84797619Y-40102380D01*
X84892857Y-40054761D01*
X84940476Y-40007142D01*
X84988095Y-39911904D01*
X84988095Y-39816666D01*
X84940476Y-39721428D01*
X84892857Y-39673809D01*
X84797619Y-39626190D01*
X84607142Y-39578571D01*
X84511904Y-39530952D01*
X84464285Y-39483333D01*
X84416666Y-39388095D01*
X84416666Y-39292857D01*
X84464285Y-39197619D01*
X84511904Y-39150000D01*
X84607142Y-39102380D01*
X84845238Y-39102380D01*
X84988095Y-39150000D01*
X85321428Y-39102380D02*
X85559523Y-40102380D01*
X85750000Y-39388095D01*
X85940476Y-40102380D01*
X86178571Y-39102380D01*
X86464285Y-39102380D02*
X87130952Y-39102380D01*
X86702380Y-40102380D01*
X80035714Y-56054761D02*
X80178571Y-56102380D01*
X80416666Y-56102380D01*
X80511904Y-56054761D01*
X80559523Y-56007142D01*
X80607142Y-55911904D01*
X80607142Y-55816666D01*
X80559523Y-55721428D01*
X80511904Y-55673809D01*
X80416666Y-55626190D01*
X80226190Y-55578571D01*
X80130952Y-55530952D01*
X80083333Y-55483333D01*
X80035714Y-55388095D01*
X80035714Y-55292857D01*
X80083333Y-55197619D01*
X80130952Y-55150000D01*
X80226190Y-55102380D01*
X80464285Y-55102380D01*
X80607142Y-55150000D01*
X80940476Y-55102380D02*
X81178571Y-56102380D01*
X81369047Y-55388095D01*
X81559523Y-56102380D01*
X81797619Y-55102380D01*
X81940476Y-56197619D02*
X82702380Y-56197619D01*
X82940476Y-56102380D02*
X82940476Y-55102380D01*
X83321428Y-55102380D01*
X83416666Y-55150000D01*
X83464285Y-55197619D01*
X83511904Y-55292857D01*
X83511904Y-55435714D01*
X83464285Y-55530952D01*
X83416666Y-55578571D01*
X83321428Y-55626190D01*
X82940476Y-55626190D01*
X84369047Y-55435714D02*
X84369047Y-56102380D01*
X83940476Y-55435714D02*
X83940476Y-55959523D01*
X83988095Y-56054761D01*
X84083333Y-56102380D01*
X84226190Y-56102380D01*
X84321428Y-56054761D01*
X84369047Y-56007142D01*
X84797619Y-56054761D02*
X84892857Y-56102380D01*
X85083333Y-56102380D01*
X85178571Y-56054761D01*
X85226190Y-55959523D01*
X85226190Y-55911904D01*
X85178571Y-55816666D01*
X85083333Y-55769047D01*
X84940476Y-55769047D01*
X84845238Y-55721428D01*
X84797619Y-55626190D01*
X84797619Y-55578571D01*
X84845238Y-55483333D01*
X84940476Y-55435714D01*
X85083333Y-55435714D01*
X85178571Y-55483333D01*
X85654761Y-56102380D02*
X85654761Y-55102380D01*
X86083333Y-56102380D02*
X86083333Y-55578571D01*
X86035714Y-55483333D01*
X85940476Y-55435714D01*
X85797619Y-55435714D01*
X85702380Y-55483333D01*
X85654761Y-55530952D01*
X86321428Y-56197619D02*
X87083333Y-56197619D01*
X87750000Y-55435714D02*
X87750000Y-56102380D01*
X87511904Y-55054761D02*
X87273809Y-55769047D01*
X87892857Y-55769047D01*
X88750000Y-55102380D02*
X88273809Y-55102380D01*
X88226190Y-55578571D01*
X88273809Y-55530952D01*
X88369047Y-55483333D01*
X88607142Y-55483333D01*
X88702380Y-55530952D01*
X88750000Y-55578571D01*
X88797619Y-55673809D01*
X88797619Y-55911904D01*
X88750000Y-56007142D01*
X88702380Y-56054761D01*
X88607142Y-56102380D01*
X88369047Y-56102380D01*
X88273809Y-56054761D01*
X88226190Y-56007142D01*
X89654761Y-56102380D02*
X89654761Y-55102380D01*
X89654761Y-56054761D02*
X89559523Y-56102380D01*
X89369047Y-56102380D01*
X89273809Y-56054761D01*
X89226190Y-56007142D01*
X89178571Y-55911904D01*
X89178571Y-55626190D01*
X89226190Y-55530952D01*
X89273809Y-55483333D01*
X89369047Y-55435714D01*
X89559523Y-55435714D01*
X89654761Y-55483333D01*
X90511904Y-56054761D02*
X90416666Y-56102380D01*
X90226190Y-56102380D01*
X90130952Y-56054761D01*
X90083333Y-55959523D01*
X90083333Y-55578571D01*
X90130952Y-55483333D01*
X90226190Y-55435714D01*
X90416666Y-55435714D01*
X90511904Y-55483333D01*
X90559523Y-55578571D01*
X90559523Y-55673809D01*
X90083333Y-55769047D01*
X91416666Y-55435714D02*
X91416666Y-56245238D01*
X91369047Y-56340476D01*
X91321428Y-56388095D01*
X91226190Y-56435714D01*
X91083333Y-56435714D01*
X90988095Y-56388095D01*
X91416666Y-56054761D02*
X91321428Y-56102380D01*
X91130952Y-56102380D01*
X91035714Y-56054761D01*
X90988095Y-56007142D01*
X90940476Y-55911904D01*
X90940476Y-55626190D01*
X90988095Y-55530952D01*
X91035714Y-55483333D01*
X91130952Y-55435714D01*
X91321428Y-55435714D01*
X91416666Y-55483333D01*
%TO.C,SW12*%
X83940476Y-154354761D02*
X84083333Y-154402380D01*
X84321428Y-154402380D01*
X84416666Y-154354761D01*
X84464285Y-154307142D01*
X84511904Y-154211904D01*
X84511904Y-154116666D01*
X84464285Y-154021428D01*
X84416666Y-153973809D01*
X84321428Y-153926190D01*
X84130952Y-153878571D01*
X84035714Y-153830952D01*
X83988095Y-153783333D01*
X83940476Y-153688095D01*
X83940476Y-153592857D01*
X83988095Y-153497619D01*
X84035714Y-153450000D01*
X84130952Y-153402380D01*
X84369047Y-153402380D01*
X84511904Y-153450000D01*
X84845238Y-153402380D02*
X85083333Y-154402380D01*
X85273809Y-153688095D01*
X85464285Y-154402380D01*
X85702380Y-153402380D01*
X86607142Y-154402380D02*
X86035714Y-154402380D01*
X86321428Y-154402380D02*
X86321428Y-153402380D01*
X86226190Y-153545238D01*
X86130952Y-153640476D01*
X86035714Y-153688095D01*
X86988095Y-153497619D02*
X87035714Y-153450000D01*
X87130952Y-153402380D01*
X87369047Y-153402380D01*
X87464285Y-153450000D01*
X87511904Y-153497619D01*
X87559523Y-153592857D01*
X87559523Y-153688095D01*
X87511904Y-153830952D01*
X86940476Y-154402380D01*
X87559523Y-154402380D01*
X80035714Y-170354761D02*
X80178571Y-170402380D01*
X80416666Y-170402380D01*
X80511904Y-170354761D01*
X80559523Y-170307142D01*
X80607142Y-170211904D01*
X80607142Y-170116666D01*
X80559523Y-170021428D01*
X80511904Y-169973809D01*
X80416666Y-169926190D01*
X80226190Y-169878571D01*
X80130952Y-169830952D01*
X80083333Y-169783333D01*
X80035714Y-169688095D01*
X80035714Y-169592857D01*
X80083333Y-169497619D01*
X80130952Y-169450000D01*
X80226190Y-169402380D01*
X80464285Y-169402380D01*
X80607142Y-169450000D01*
X80940476Y-169402380D02*
X81178571Y-170402380D01*
X81369047Y-169688095D01*
X81559523Y-170402380D01*
X81797619Y-169402380D01*
X81940476Y-170497619D02*
X82702380Y-170497619D01*
X82940476Y-170402380D02*
X82940476Y-169402380D01*
X83321428Y-169402380D01*
X83416666Y-169450000D01*
X83464285Y-169497619D01*
X83511904Y-169592857D01*
X83511904Y-169735714D01*
X83464285Y-169830952D01*
X83416666Y-169878571D01*
X83321428Y-169926190D01*
X82940476Y-169926190D01*
X84369047Y-169735714D02*
X84369047Y-170402380D01*
X83940476Y-169735714D02*
X83940476Y-170259523D01*
X83988095Y-170354761D01*
X84083333Y-170402380D01*
X84226190Y-170402380D01*
X84321428Y-170354761D01*
X84369047Y-170307142D01*
X84797619Y-170354761D02*
X84892857Y-170402380D01*
X85083333Y-170402380D01*
X85178571Y-170354761D01*
X85226190Y-170259523D01*
X85226190Y-170211904D01*
X85178571Y-170116666D01*
X85083333Y-170069047D01*
X84940476Y-170069047D01*
X84845238Y-170021428D01*
X84797619Y-169926190D01*
X84797619Y-169878571D01*
X84845238Y-169783333D01*
X84940476Y-169735714D01*
X85083333Y-169735714D01*
X85178571Y-169783333D01*
X85654761Y-170402380D02*
X85654761Y-169402380D01*
X86083333Y-170402380D02*
X86083333Y-169878571D01*
X86035714Y-169783333D01*
X85940476Y-169735714D01*
X85797619Y-169735714D01*
X85702380Y-169783333D01*
X85654761Y-169830952D01*
X86321428Y-170497619D02*
X87083333Y-170497619D01*
X87750000Y-169735714D02*
X87750000Y-170402380D01*
X87511904Y-169354761D02*
X87273809Y-170069047D01*
X87892857Y-170069047D01*
X88750000Y-169402380D02*
X88273809Y-169402380D01*
X88226190Y-169878571D01*
X88273809Y-169830952D01*
X88369047Y-169783333D01*
X88607142Y-169783333D01*
X88702380Y-169830952D01*
X88750000Y-169878571D01*
X88797619Y-169973809D01*
X88797619Y-170211904D01*
X88750000Y-170307142D01*
X88702380Y-170354761D01*
X88607142Y-170402380D01*
X88369047Y-170402380D01*
X88273809Y-170354761D01*
X88226190Y-170307142D01*
X89654761Y-170402380D02*
X89654761Y-169402380D01*
X89654761Y-170354761D02*
X89559523Y-170402380D01*
X89369047Y-170402380D01*
X89273809Y-170354761D01*
X89226190Y-170307142D01*
X89178571Y-170211904D01*
X89178571Y-169926190D01*
X89226190Y-169830952D01*
X89273809Y-169783333D01*
X89369047Y-169735714D01*
X89559523Y-169735714D01*
X89654761Y-169783333D01*
X90511904Y-170354761D02*
X90416666Y-170402380D01*
X90226190Y-170402380D01*
X90130952Y-170354761D01*
X90083333Y-170259523D01*
X90083333Y-169878571D01*
X90130952Y-169783333D01*
X90226190Y-169735714D01*
X90416666Y-169735714D01*
X90511904Y-169783333D01*
X90559523Y-169878571D01*
X90559523Y-169973809D01*
X90083333Y-170069047D01*
X91416666Y-169735714D02*
X91416666Y-170545238D01*
X91369047Y-170640476D01*
X91321428Y-170688095D01*
X91226190Y-170735714D01*
X91083333Y-170735714D01*
X90988095Y-170688095D01*
X91416666Y-170354761D02*
X91321428Y-170402380D01*
X91130952Y-170402380D01*
X91035714Y-170354761D01*
X90988095Y-170307142D01*
X90940476Y-170211904D01*
X90940476Y-169926190D01*
X90988095Y-169830952D01*
X91035714Y-169783333D01*
X91130952Y-169735714D01*
X91321428Y-169735714D01*
X91416666Y-169783333D01*
%TO.C,SW23*%
X141090476Y-40054761D02*
X141233333Y-40102380D01*
X141471428Y-40102380D01*
X141566666Y-40054761D01*
X141614285Y-40007142D01*
X141661904Y-39911904D01*
X141661904Y-39816666D01*
X141614285Y-39721428D01*
X141566666Y-39673809D01*
X141471428Y-39626190D01*
X141280952Y-39578571D01*
X141185714Y-39530952D01*
X141138095Y-39483333D01*
X141090476Y-39388095D01*
X141090476Y-39292857D01*
X141138095Y-39197619D01*
X141185714Y-39150000D01*
X141280952Y-39102380D01*
X141519047Y-39102380D01*
X141661904Y-39150000D01*
X141995238Y-39102380D02*
X142233333Y-40102380D01*
X142423809Y-39388095D01*
X142614285Y-40102380D01*
X142852380Y-39102380D01*
X143185714Y-39197619D02*
X143233333Y-39150000D01*
X143328571Y-39102380D01*
X143566666Y-39102380D01*
X143661904Y-39150000D01*
X143709523Y-39197619D01*
X143757142Y-39292857D01*
X143757142Y-39388095D01*
X143709523Y-39530952D01*
X143138095Y-40102380D01*
X143757142Y-40102380D01*
X144090476Y-39102380D02*
X144709523Y-39102380D01*
X144376190Y-39483333D01*
X144519047Y-39483333D01*
X144614285Y-39530952D01*
X144661904Y-39578571D01*
X144709523Y-39673809D01*
X144709523Y-39911904D01*
X144661904Y-40007142D01*
X144614285Y-40054761D01*
X144519047Y-40102380D01*
X144233333Y-40102380D01*
X144138095Y-40054761D01*
X144090476Y-40007142D01*
X137185714Y-56054761D02*
X137328571Y-56102380D01*
X137566666Y-56102380D01*
X137661904Y-56054761D01*
X137709523Y-56007142D01*
X137757142Y-55911904D01*
X137757142Y-55816666D01*
X137709523Y-55721428D01*
X137661904Y-55673809D01*
X137566666Y-55626190D01*
X137376190Y-55578571D01*
X137280952Y-55530952D01*
X137233333Y-55483333D01*
X137185714Y-55388095D01*
X137185714Y-55292857D01*
X137233333Y-55197619D01*
X137280952Y-55150000D01*
X137376190Y-55102380D01*
X137614285Y-55102380D01*
X137757142Y-55150000D01*
X138090476Y-55102380D02*
X138328571Y-56102380D01*
X138519047Y-55388095D01*
X138709523Y-56102380D01*
X138947619Y-55102380D01*
X139090476Y-56197619D02*
X139852380Y-56197619D01*
X140090476Y-56102380D02*
X140090476Y-55102380D01*
X140471428Y-55102380D01*
X140566666Y-55150000D01*
X140614285Y-55197619D01*
X140661904Y-55292857D01*
X140661904Y-55435714D01*
X140614285Y-55530952D01*
X140566666Y-55578571D01*
X140471428Y-55626190D01*
X140090476Y-55626190D01*
X141519047Y-55435714D02*
X141519047Y-56102380D01*
X141090476Y-55435714D02*
X141090476Y-55959523D01*
X141138095Y-56054761D01*
X141233333Y-56102380D01*
X141376190Y-56102380D01*
X141471428Y-56054761D01*
X141519047Y-56007142D01*
X141947619Y-56054761D02*
X142042857Y-56102380D01*
X142233333Y-56102380D01*
X142328571Y-56054761D01*
X142376190Y-55959523D01*
X142376190Y-55911904D01*
X142328571Y-55816666D01*
X142233333Y-55769047D01*
X142090476Y-55769047D01*
X141995238Y-55721428D01*
X141947619Y-55626190D01*
X141947619Y-55578571D01*
X141995238Y-55483333D01*
X142090476Y-55435714D01*
X142233333Y-55435714D01*
X142328571Y-55483333D01*
X142804761Y-56102380D02*
X142804761Y-55102380D01*
X143233333Y-56102380D02*
X143233333Y-55578571D01*
X143185714Y-55483333D01*
X143090476Y-55435714D01*
X142947619Y-55435714D01*
X142852380Y-55483333D01*
X142804761Y-55530952D01*
X143471428Y-56197619D02*
X144233333Y-56197619D01*
X144900000Y-55435714D02*
X144900000Y-56102380D01*
X144661904Y-55054761D02*
X144423809Y-55769047D01*
X145042857Y-55769047D01*
X145900000Y-55102380D02*
X145423809Y-55102380D01*
X145376190Y-55578571D01*
X145423809Y-55530952D01*
X145519047Y-55483333D01*
X145757142Y-55483333D01*
X145852380Y-55530952D01*
X145900000Y-55578571D01*
X145947619Y-55673809D01*
X145947619Y-55911904D01*
X145900000Y-56007142D01*
X145852380Y-56054761D01*
X145757142Y-56102380D01*
X145519047Y-56102380D01*
X145423809Y-56054761D01*
X145376190Y-56007142D01*
X146804761Y-56102380D02*
X146804761Y-55102380D01*
X146804761Y-56054761D02*
X146709523Y-56102380D01*
X146519047Y-56102380D01*
X146423809Y-56054761D01*
X146376190Y-56007142D01*
X146328571Y-55911904D01*
X146328571Y-55626190D01*
X146376190Y-55530952D01*
X146423809Y-55483333D01*
X146519047Y-55435714D01*
X146709523Y-55435714D01*
X146804761Y-55483333D01*
X147661904Y-56054761D02*
X147566666Y-56102380D01*
X147376190Y-56102380D01*
X147280952Y-56054761D01*
X147233333Y-55959523D01*
X147233333Y-55578571D01*
X147280952Y-55483333D01*
X147376190Y-55435714D01*
X147566666Y-55435714D01*
X147661904Y-55483333D01*
X147709523Y-55578571D01*
X147709523Y-55673809D01*
X147233333Y-55769047D01*
X148566666Y-55435714D02*
X148566666Y-56245238D01*
X148519047Y-56340476D01*
X148471428Y-56388095D01*
X148376190Y-56435714D01*
X148233333Y-56435714D01*
X148138095Y-56388095D01*
X148566666Y-56054761D02*
X148471428Y-56102380D01*
X148280952Y-56102380D01*
X148185714Y-56054761D01*
X148138095Y-56007142D01*
X148090476Y-55911904D01*
X148090476Y-55626190D01*
X148138095Y-55530952D01*
X148185714Y-55483333D01*
X148280952Y-55435714D01*
X148471428Y-55435714D01*
X148566666Y-55483333D01*
%TO.C,SW20*%
X26790476Y-40054761D02*
X26933333Y-40102380D01*
X27171428Y-40102380D01*
X27266666Y-40054761D01*
X27314285Y-40007142D01*
X27361904Y-39911904D01*
X27361904Y-39816666D01*
X27314285Y-39721428D01*
X27266666Y-39673809D01*
X27171428Y-39626190D01*
X26980952Y-39578571D01*
X26885714Y-39530952D01*
X26838095Y-39483333D01*
X26790476Y-39388095D01*
X26790476Y-39292857D01*
X26838095Y-39197619D01*
X26885714Y-39150000D01*
X26980952Y-39102380D01*
X27219047Y-39102380D01*
X27361904Y-39150000D01*
X27695238Y-39102380D02*
X27933333Y-40102380D01*
X28123809Y-39388095D01*
X28314285Y-40102380D01*
X28552380Y-39102380D01*
X28885714Y-39197619D02*
X28933333Y-39150000D01*
X29028571Y-39102380D01*
X29266666Y-39102380D01*
X29361904Y-39150000D01*
X29409523Y-39197619D01*
X29457142Y-39292857D01*
X29457142Y-39388095D01*
X29409523Y-39530952D01*
X28838095Y-40102380D01*
X29457142Y-40102380D01*
X30076190Y-39102380D02*
X30171428Y-39102380D01*
X30266666Y-39150000D01*
X30314285Y-39197619D01*
X30361904Y-39292857D01*
X30409523Y-39483333D01*
X30409523Y-39721428D01*
X30361904Y-39911904D01*
X30314285Y-40007142D01*
X30266666Y-40054761D01*
X30171428Y-40102380D01*
X30076190Y-40102380D01*
X29980952Y-40054761D01*
X29933333Y-40007142D01*
X29885714Y-39911904D01*
X29838095Y-39721428D01*
X29838095Y-39483333D01*
X29885714Y-39292857D01*
X29933333Y-39197619D01*
X29980952Y-39150000D01*
X30076190Y-39102380D01*
X22885714Y-56054761D02*
X23028571Y-56102380D01*
X23266666Y-56102380D01*
X23361904Y-56054761D01*
X23409523Y-56007142D01*
X23457142Y-55911904D01*
X23457142Y-55816666D01*
X23409523Y-55721428D01*
X23361904Y-55673809D01*
X23266666Y-55626190D01*
X23076190Y-55578571D01*
X22980952Y-55530952D01*
X22933333Y-55483333D01*
X22885714Y-55388095D01*
X22885714Y-55292857D01*
X22933333Y-55197619D01*
X22980952Y-55150000D01*
X23076190Y-55102380D01*
X23314285Y-55102380D01*
X23457142Y-55150000D01*
X23790476Y-55102380D02*
X24028571Y-56102380D01*
X24219047Y-55388095D01*
X24409523Y-56102380D01*
X24647619Y-55102380D01*
X24790476Y-56197619D02*
X25552380Y-56197619D01*
X25790476Y-56102380D02*
X25790476Y-55102380D01*
X26171428Y-55102380D01*
X26266666Y-55150000D01*
X26314285Y-55197619D01*
X26361904Y-55292857D01*
X26361904Y-55435714D01*
X26314285Y-55530952D01*
X26266666Y-55578571D01*
X26171428Y-55626190D01*
X25790476Y-55626190D01*
X27219047Y-55435714D02*
X27219047Y-56102380D01*
X26790476Y-55435714D02*
X26790476Y-55959523D01*
X26838095Y-56054761D01*
X26933333Y-56102380D01*
X27076190Y-56102380D01*
X27171428Y-56054761D01*
X27219047Y-56007142D01*
X27647619Y-56054761D02*
X27742857Y-56102380D01*
X27933333Y-56102380D01*
X28028571Y-56054761D01*
X28076190Y-55959523D01*
X28076190Y-55911904D01*
X28028571Y-55816666D01*
X27933333Y-55769047D01*
X27790476Y-55769047D01*
X27695238Y-55721428D01*
X27647619Y-55626190D01*
X27647619Y-55578571D01*
X27695238Y-55483333D01*
X27790476Y-55435714D01*
X27933333Y-55435714D01*
X28028571Y-55483333D01*
X28504761Y-56102380D02*
X28504761Y-55102380D01*
X28933333Y-56102380D02*
X28933333Y-55578571D01*
X28885714Y-55483333D01*
X28790476Y-55435714D01*
X28647619Y-55435714D01*
X28552380Y-55483333D01*
X28504761Y-55530952D01*
X29171428Y-56197619D02*
X29933333Y-56197619D01*
X30600000Y-55435714D02*
X30600000Y-56102380D01*
X30361904Y-55054761D02*
X30123809Y-55769047D01*
X30742857Y-55769047D01*
X31600000Y-55102380D02*
X31123809Y-55102380D01*
X31076190Y-55578571D01*
X31123809Y-55530952D01*
X31219047Y-55483333D01*
X31457142Y-55483333D01*
X31552380Y-55530952D01*
X31600000Y-55578571D01*
X31647619Y-55673809D01*
X31647619Y-55911904D01*
X31600000Y-56007142D01*
X31552380Y-56054761D01*
X31457142Y-56102380D01*
X31219047Y-56102380D01*
X31123809Y-56054761D01*
X31076190Y-56007142D01*
X32504761Y-56102380D02*
X32504761Y-55102380D01*
X32504761Y-56054761D02*
X32409523Y-56102380D01*
X32219047Y-56102380D01*
X32123809Y-56054761D01*
X32076190Y-56007142D01*
X32028571Y-55911904D01*
X32028571Y-55626190D01*
X32076190Y-55530952D01*
X32123809Y-55483333D01*
X32219047Y-55435714D01*
X32409523Y-55435714D01*
X32504761Y-55483333D01*
X33361904Y-56054761D02*
X33266666Y-56102380D01*
X33076190Y-56102380D01*
X32980952Y-56054761D01*
X32933333Y-55959523D01*
X32933333Y-55578571D01*
X32980952Y-55483333D01*
X33076190Y-55435714D01*
X33266666Y-55435714D01*
X33361904Y-55483333D01*
X33409523Y-55578571D01*
X33409523Y-55673809D01*
X32933333Y-55769047D01*
X34266666Y-55435714D02*
X34266666Y-56245238D01*
X34219047Y-56340476D01*
X34171428Y-56388095D01*
X34076190Y-56435714D01*
X33933333Y-56435714D01*
X33838095Y-56388095D01*
X34266666Y-56054761D02*
X34171428Y-56102380D01*
X33980952Y-56102380D01*
X33885714Y-56054761D01*
X33838095Y-56007142D01*
X33790476Y-55911904D01*
X33790476Y-55626190D01*
X33838095Y-55530952D01*
X33885714Y-55483333D01*
X33980952Y-55435714D01*
X34171428Y-55435714D01*
X34266666Y-55483333D01*
%TO.C,SW3*%
X65366666Y-97204761D02*
X65509523Y-97252380D01*
X65747619Y-97252380D01*
X65842857Y-97204761D01*
X65890476Y-97157142D01*
X65938095Y-97061904D01*
X65938095Y-96966666D01*
X65890476Y-96871428D01*
X65842857Y-96823809D01*
X65747619Y-96776190D01*
X65557142Y-96728571D01*
X65461904Y-96680952D01*
X65414285Y-96633333D01*
X65366666Y-96538095D01*
X65366666Y-96442857D01*
X65414285Y-96347619D01*
X65461904Y-96300000D01*
X65557142Y-96252380D01*
X65795238Y-96252380D01*
X65938095Y-96300000D01*
X66271428Y-96252380D02*
X66509523Y-97252380D01*
X66700000Y-96538095D01*
X66890476Y-97252380D01*
X67128571Y-96252380D01*
X67414285Y-96252380D02*
X68033333Y-96252380D01*
X67700000Y-96633333D01*
X67842857Y-96633333D01*
X67938095Y-96680952D01*
X67985714Y-96728571D01*
X68033333Y-96823809D01*
X68033333Y-97061904D01*
X67985714Y-97157142D01*
X67938095Y-97204761D01*
X67842857Y-97252380D01*
X67557142Y-97252380D01*
X67461904Y-97204761D01*
X67414285Y-97157142D01*
X60985714Y-113204761D02*
X61128571Y-113252380D01*
X61366666Y-113252380D01*
X61461904Y-113204761D01*
X61509523Y-113157142D01*
X61557142Y-113061904D01*
X61557142Y-112966666D01*
X61509523Y-112871428D01*
X61461904Y-112823809D01*
X61366666Y-112776190D01*
X61176190Y-112728571D01*
X61080952Y-112680952D01*
X61033333Y-112633333D01*
X60985714Y-112538095D01*
X60985714Y-112442857D01*
X61033333Y-112347619D01*
X61080952Y-112300000D01*
X61176190Y-112252380D01*
X61414285Y-112252380D01*
X61557142Y-112300000D01*
X61890476Y-112252380D02*
X62128571Y-113252380D01*
X62319047Y-112538095D01*
X62509523Y-113252380D01*
X62747619Y-112252380D01*
X62890476Y-113347619D02*
X63652380Y-113347619D01*
X63890476Y-113252380D02*
X63890476Y-112252380D01*
X64271428Y-112252380D01*
X64366666Y-112300000D01*
X64414285Y-112347619D01*
X64461904Y-112442857D01*
X64461904Y-112585714D01*
X64414285Y-112680952D01*
X64366666Y-112728571D01*
X64271428Y-112776190D01*
X63890476Y-112776190D01*
X65319047Y-112585714D02*
X65319047Y-113252380D01*
X64890476Y-112585714D02*
X64890476Y-113109523D01*
X64938095Y-113204761D01*
X65033333Y-113252380D01*
X65176190Y-113252380D01*
X65271428Y-113204761D01*
X65319047Y-113157142D01*
X65747619Y-113204761D02*
X65842857Y-113252380D01*
X66033333Y-113252380D01*
X66128571Y-113204761D01*
X66176190Y-113109523D01*
X66176190Y-113061904D01*
X66128571Y-112966666D01*
X66033333Y-112919047D01*
X65890476Y-112919047D01*
X65795238Y-112871428D01*
X65747619Y-112776190D01*
X65747619Y-112728571D01*
X65795238Y-112633333D01*
X65890476Y-112585714D01*
X66033333Y-112585714D01*
X66128571Y-112633333D01*
X66604761Y-113252380D02*
X66604761Y-112252380D01*
X67033333Y-113252380D02*
X67033333Y-112728571D01*
X66985714Y-112633333D01*
X66890476Y-112585714D01*
X66747619Y-112585714D01*
X66652380Y-112633333D01*
X66604761Y-112680952D01*
X67271428Y-113347619D02*
X68033333Y-113347619D01*
X68700000Y-112585714D02*
X68700000Y-113252380D01*
X68461904Y-112204761D02*
X68223809Y-112919047D01*
X68842857Y-112919047D01*
X69700000Y-112252380D02*
X69223809Y-112252380D01*
X69176190Y-112728571D01*
X69223809Y-112680952D01*
X69319047Y-112633333D01*
X69557142Y-112633333D01*
X69652380Y-112680952D01*
X69700000Y-112728571D01*
X69747619Y-112823809D01*
X69747619Y-113061904D01*
X69700000Y-113157142D01*
X69652380Y-113204761D01*
X69557142Y-113252380D01*
X69319047Y-113252380D01*
X69223809Y-113204761D01*
X69176190Y-113157142D01*
X70604761Y-113252380D02*
X70604761Y-112252380D01*
X70604761Y-113204761D02*
X70509523Y-113252380D01*
X70319047Y-113252380D01*
X70223809Y-113204761D01*
X70176190Y-113157142D01*
X70128571Y-113061904D01*
X70128571Y-112776190D01*
X70176190Y-112680952D01*
X70223809Y-112633333D01*
X70319047Y-112585714D01*
X70509523Y-112585714D01*
X70604761Y-112633333D01*
X71461904Y-113204761D02*
X71366666Y-113252380D01*
X71176190Y-113252380D01*
X71080952Y-113204761D01*
X71033333Y-113109523D01*
X71033333Y-112728571D01*
X71080952Y-112633333D01*
X71176190Y-112585714D01*
X71366666Y-112585714D01*
X71461904Y-112633333D01*
X71509523Y-112728571D01*
X71509523Y-112823809D01*
X71033333Y-112919047D01*
X72366666Y-112585714D02*
X72366666Y-113395238D01*
X72319047Y-113490476D01*
X72271428Y-113538095D01*
X72176190Y-113585714D01*
X72033333Y-113585714D01*
X71938095Y-113538095D01*
X72366666Y-113204761D02*
X72271428Y-113252380D01*
X72080952Y-113252380D01*
X71985714Y-113204761D01*
X71938095Y-113157142D01*
X71890476Y-113061904D01*
X71890476Y-112776190D01*
X71938095Y-112680952D01*
X71985714Y-112633333D01*
X72080952Y-112585714D01*
X72271428Y-112585714D01*
X72366666Y-112633333D01*
%TO.C,SW10*%
X83940476Y-116254761D02*
X84083333Y-116302380D01*
X84321428Y-116302380D01*
X84416666Y-116254761D01*
X84464285Y-116207142D01*
X84511904Y-116111904D01*
X84511904Y-116016666D01*
X84464285Y-115921428D01*
X84416666Y-115873809D01*
X84321428Y-115826190D01*
X84130952Y-115778571D01*
X84035714Y-115730952D01*
X83988095Y-115683333D01*
X83940476Y-115588095D01*
X83940476Y-115492857D01*
X83988095Y-115397619D01*
X84035714Y-115350000D01*
X84130952Y-115302380D01*
X84369047Y-115302380D01*
X84511904Y-115350000D01*
X84845238Y-115302380D02*
X85083333Y-116302380D01*
X85273809Y-115588095D01*
X85464285Y-116302380D01*
X85702380Y-115302380D01*
X86607142Y-116302380D02*
X86035714Y-116302380D01*
X86321428Y-116302380D02*
X86321428Y-115302380D01*
X86226190Y-115445238D01*
X86130952Y-115540476D01*
X86035714Y-115588095D01*
X87226190Y-115302380D02*
X87321428Y-115302380D01*
X87416666Y-115350000D01*
X87464285Y-115397619D01*
X87511904Y-115492857D01*
X87559523Y-115683333D01*
X87559523Y-115921428D01*
X87511904Y-116111904D01*
X87464285Y-116207142D01*
X87416666Y-116254761D01*
X87321428Y-116302380D01*
X87226190Y-116302380D01*
X87130952Y-116254761D01*
X87083333Y-116207142D01*
X87035714Y-116111904D01*
X86988095Y-115921428D01*
X86988095Y-115683333D01*
X87035714Y-115492857D01*
X87083333Y-115397619D01*
X87130952Y-115350000D01*
X87226190Y-115302380D01*
X80035714Y-132254761D02*
X80178571Y-132302380D01*
X80416666Y-132302380D01*
X80511904Y-132254761D01*
X80559523Y-132207142D01*
X80607142Y-132111904D01*
X80607142Y-132016666D01*
X80559523Y-131921428D01*
X80511904Y-131873809D01*
X80416666Y-131826190D01*
X80226190Y-131778571D01*
X80130952Y-131730952D01*
X80083333Y-131683333D01*
X80035714Y-131588095D01*
X80035714Y-131492857D01*
X80083333Y-131397619D01*
X80130952Y-131350000D01*
X80226190Y-131302380D01*
X80464285Y-131302380D01*
X80607142Y-131350000D01*
X80940476Y-131302380D02*
X81178571Y-132302380D01*
X81369047Y-131588095D01*
X81559523Y-132302380D01*
X81797619Y-131302380D01*
X81940476Y-132397619D02*
X82702380Y-132397619D01*
X82940476Y-132302380D02*
X82940476Y-131302380D01*
X83321428Y-131302380D01*
X83416666Y-131350000D01*
X83464285Y-131397619D01*
X83511904Y-131492857D01*
X83511904Y-131635714D01*
X83464285Y-131730952D01*
X83416666Y-131778571D01*
X83321428Y-131826190D01*
X82940476Y-131826190D01*
X84369047Y-131635714D02*
X84369047Y-132302380D01*
X83940476Y-131635714D02*
X83940476Y-132159523D01*
X83988095Y-132254761D01*
X84083333Y-132302380D01*
X84226190Y-132302380D01*
X84321428Y-132254761D01*
X84369047Y-132207142D01*
X84797619Y-132254761D02*
X84892857Y-132302380D01*
X85083333Y-132302380D01*
X85178571Y-132254761D01*
X85226190Y-132159523D01*
X85226190Y-132111904D01*
X85178571Y-132016666D01*
X85083333Y-131969047D01*
X84940476Y-131969047D01*
X84845238Y-131921428D01*
X84797619Y-131826190D01*
X84797619Y-131778571D01*
X84845238Y-131683333D01*
X84940476Y-131635714D01*
X85083333Y-131635714D01*
X85178571Y-131683333D01*
X85654761Y-132302380D02*
X85654761Y-131302380D01*
X86083333Y-132302380D02*
X86083333Y-131778571D01*
X86035714Y-131683333D01*
X85940476Y-131635714D01*
X85797619Y-131635714D01*
X85702380Y-131683333D01*
X85654761Y-131730952D01*
X86321428Y-132397619D02*
X87083333Y-132397619D01*
X87750000Y-131635714D02*
X87750000Y-132302380D01*
X87511904Y-131254761D02*
X87273809Y-131969047D01*
X87892857Y-131969047D01*
X88750000Y-131302380D02*
X88273809Y-131302380D01*
X88226190Y-131778571D01*
X88273809Y-131730952D01*
X88369047Y-131683333D01*
X88607142Y-131683333D01*
X88702380Y-131730952D01*
X88750000Y-131778571D01*
X88797619Y-131873809D01*
X88797619Y-132111904D01*
X88750000Y-132207142D01*
X88702380Y-132254761D01*
X88607142Y-132302380D01*
X88369047Y-132302380D01*
X88273809Y-132254761D01*
X88226190Y-132207142D01*
X89654761Y-132302380D02*
X89654761Y-131302380D01*
X89654761Y-132254761D02*
X89559523Y-132302380D01*
X89369047Y-132302380D01*
X89273809Y-132254761D01*
X89226190Y-132207142D01*
X89178571Y-132111904D01*
X89178571Y-131826190D01*
X89226190Y-131730952D01*
X89273809Y-131683333D01*
X89369047Y-131635714D01*
X89559523Y-131635714D01*
X89654761Y-131683333D01*
X90511904Y-132254761D02*
X90416666Y-132302380D01*
X90226190Y-132302380D01*
X90130952Y-132254761D01*
X90083333Y-132159523D01*
X90083333Y-131778571D01*
X90130952Y-131683333D01*
X90226190Y-131635714D01*
X90416666Y-131635714D01*
X90511904Y-131683333D01*
X90559523Y-131778571D01*
X90559523Y-131873809D01*
X90083333Y-131969047D01*
X91416666Y-131635714D02*
X91416666Y-132445238D01*
X91369047Y-132540476D01*
X91321428Y-132588095D01*
X91226190Y-132635714D01*
X91083333Y-132635714D01*
X90988095Y-132588095D01*
X91416666Y-132254761D02*
X91321428Y-132302380D01*
X91130952Y-132302380D01*
X91035714Y-132254761D01*
X90988095Y-132207142D01*
X90940476Y-132111904D01*
X90940476Y-131826190D01*
X90988095Y-131730952D01*
X91035714Y-131683333D01*
X91130952Y-131635714D01*
X91321428Y-131635714D01*
X91416666Y-131683333D01*
%TO.C,SW22*%
X83940476Y-97204761D02*
X84083333Y-97252380D01*
X84321428Y-97252380D01*
X84416666Y-97204761D01*
X84464285Y-97157142D01*
X84511904Y-97061904D01*
X84511904Y-96966666D01*
X84464285Y-96871428D01*
X84416666Y-96823809D01*
X84321428Y-96776190D01*
X84130952Y-96728571D01*
X84035714Y-96680952D01*
X83988095Y-96633333D01*
X83940476Y-96538095D01*
X83940476Y-96442857D01*
X83988095Y-96347619D01*
X84035714Y-96300000D01*
X84130952Y-96252380D01*
X84369047Y-96252380D01*
X84511904Y-96300000D01*
X84845238Y-96252380D02*
X85083333Y-97252380D01*
X85273809Y-96538095D01*
X85464285Y-97252380D01*
X85702380Y-96252380D01*
X86035714Y-96347619D02*
X86083333Y-96300000D01*
X86178571Y-96252380D01*
X86416666Y-96252380D01*
X86511904Y-96300000D01*
X86559523Y-96347619D01*
X86607142Y-96442857D01*
X86607142Y-96538095D01*
X86559523Y-96680952D01*
X85988095Y-97252380D01*
X86607142Y-97252380D01*
X86988095Y-96347619D02*
X87035714Y-96300000D01*
X87130952Y-96252380D01*
X87369047Y-96252380D01*
X87464285Y-96300000D01*
X87511904Y-96347619D01*
X87559523Y-96442857D01*
X87559523Y-96538095D01*
X87511904Y-96680952D01*
X86940476Y-97252380D01*
X87559523Y-97252380D01*
X80035714Y-113204761D02*
X80178571Y-113252380D01*
X80416666Y-113252380D01*
X80511904Y-113204761D01*
X80559523Y-113157142D01*
X80607142Y-113061904D01*
X80607142Y-112966666D01*
X80559523Y-112871428D01*
X80511904Y-112823809D01*
X80416666Y-112776190D01*
X80226190Y-112728571D01*
X80130952Y-112680952D01*
X80083333Y-112633333D01*
X80035714Y-112538095D01*
X80035714Y-112442857D01*
X80083333Y-112347619D01*
X80130952Y-112300000D01*
X80226190Y-112252380D01*
X80464285Y-112252380D01*
X80607142Y-112300000D01*
X80940476Y-112252380D02*
X81178571Y-113252380D01*
X81369047Y-112538095D01*
X81559523Y-113252380D01*
X81797619Y-112252380D01*
X81940476Y-113347619D02*
X82702380Y-113347619D01*
X82940476Y-113252380D02*
X82940476Y-112252380D01*
X83321428Y-112252380D01*
X83416666Y-112300000D01*
X83464285Y-112347619D01*
X83511904Y-112442857D01*
X83511904Y-112585714D01*
X83464285Y-112680952D01*
X83416666Y-112728571D01*
X83321428Y-112776190D01*
X82940476Y-112776190D01*
X84369047Y-112585714D02*
X84369047Y-113252380D01*
X83940476Y-112585714D02*
X83940476Y-113109523D01*
X83988095Y-113204761D01*
X84083333Y-113252380D01*
X84226190Y-113252380D01*
X84321428Y-113204761D01*
X84369047Y-113157142D01*
X84797619Y-113204761D02*
X84892857Y-113252380D01*
X85083333Y-113252380D01*
X85178571Y-113204761D01*
X85226190Y-113109523D01*
X85226190Y-113061904D01*
X85178571Y-112966666D01*
X85083333Y-112919047D01*
X84940476Y-112919047D01*
X84845238Y-112871428D01*
X84797619Y-112776190D01*
X84797619Y-112728571D01*
X84845238Y-112633333D01*
X84940476Y-112585714D01*
X85083333Y-112585714D01*
X85178571Y-112633333D01*
X85654761Y-113252380D02*
X85654761Y-112252380D01*
X86083333Y-113252380D02*
X86083333Y-112728571D01*
X86035714Y-112633333D01*
X85940476Y-112585714D01*
X85797619Y-112585714D01*
X85702380Y-112633333D01*
X85654761Y-112680952D01*
X86321428Y-113347619D02*
X87083333Y-113347619D01*
X87750000Y-112585714D02*
X87750000Y-113252380D01*
X87511904Y-112204761D02*
X87273809Y-112919047D01*
X87892857Y-112919047D01*
X88750000Y-112252380D02*
X88273809Y-112252380D01*
X88226190Y-112728571D01*
X88273809Y-112680952D01*
X88369047Y-112633333D01*
X88607142Y-112633333D01*
X88702380Y-112680952D01*
X88750000Y-112728571D01*
X88797619Y-112823809D01*
X88797619Y-113061904D01*
X88750000Y-113157142D01*
X88702380Y-113204761D01*
X88607142Y-113252380D01*
X88369047Y-113252380D01*
X88273809Y-113204761D01*
X88226190Y-113157142D01*
X89654761Y-113252380D02*
X89654761Y-112252380D01*
X89654761Y-113204761D02*
X89559523Y-113252380D01*
X89369047Y-113252380D01*
X89273809Y-113204761D01*
X89226190Y-113157142D01*
X89178571Y-113061904D01*
X89178571Y-112776190D01*
X89226190Y-112680952D01*
X89273809Y-112633333D01*
X89369047Y-112585714D01*
X89559523Y-112585714D01*
X89654761Y-112633333D01*
X90511904Y-113204761D02*
X90416666Y-113252380D01*
X90226190Y-113252380D01*
X90130952Y-113204761D01*
X90083333Y-113109523D01*
X90083333Y-112728571D01*
X90130952Y-112633333D01*
X90226190Y-112585714D01*
X90416666Y-112585714D01*
X90511904Y-112633333D01*
X90559523Y-112728571D01*
X90559523Y-112823809D01*
X90083333Y-112919047D01*
X91416666Y-112585714D02*
X91416666Y-113395238D01*
X91369047Y-113490476D01*
X91321428Y-113538095D01*
X91226190Y-113585714D01*
X91083333Y-113585714D01*
X90988095Y-113538095D01*
X91416666Y-113204761D02*
X91321428Y-113252380D01*
X91130952Y-113252380D01*
X91035714Y-113204761D01*
X90988095Y-113157142D01*
X90940476Y-113061904D01*
X90940476Y-112776190D01*
X90988095Y-112680952D01*
X91035714Y-112633333D01*
X91130952Y-112585714D01*
X91321428Y-112585714D01*
X91416666Y-112633333D01*
D12*
%TO.C,SW11*%
X78650000Y-150000000D02*
X92850000Y-150000000D01*
X78650000Y-135800000D02*
X78650000Y-150000000D01*
X92850000Y-135800000D02*
X78650000Y-135800000D01*
X92850000Y-150000000D02*
X92850000Y-135800000D01*
%TO.C,SW21*%
X135800000Y-154850000D02*
X135800000Y-169050000D01*
X135800000Y-169050000D02*
X150000000Y-169050000D01*
X150000000Y-154850000D02*
X135800000Y-154850000D01*
X150000000Y-169050000D02*
X150000000Y-154850000D01*
%TO.C,SW17*%
X161100000Y-129400000D02*
X161100000Y-143600000D01*
X175300000Y-129400000D02*
X161100000Y-129400000D01*
X161100000Y-143600000D02*
X175300000Y-143600000D01*
X175300000Y-143600000D02*
X175300000Y-129400000D01*
%TO.C,SW4*%
X111900000Y-97700000D02*
X97700000Y-97700000D01*
X97700000Y-97700000D02*
X97700000Y-111900000D01*
X111900000Y-111900000D02*
X111900000Y-97700000D01*
X97700000Y-111900000D02*
X111900000Y-111900000D01*
%TO.C,SW14*%
X175300000Y-80150000D02*
X175300000Y-65950000D01*
X175300000Y-65950000D02*
X161100000Y-65950000D01*
X161100000Y-80150000D02*
X175300000Y-80150000D01*
X161100000Y-65950000D02*
X161100000Y-80150000D01*
%TO.C,SW6*%
X135800000Y-97700000D02*
X135800000Y-111900000D01*
X135800000Y-111900000D02*
X150000000Y-111900000D01*
X150000000Y-97700000D02*
X135800000Y-97700000D01*
X150000000Y-111900000D02*
X150000000Y-97700000D01*
%TO.C,SW18*%
X175300000Y-162650000D02*
X175300000Y-148450000D01*
X161100000Y-148450000D02*
X161100000Y-162650000D01*
X175300000Y-148450000D02*
X161100000Y-148450000D01*
X161100000Y-162650000D02*
X175300000Y-162650000D01*
%TO.C,SW19*%
X21500000Y-154850000D02*
X21500000Y-169050000D01*
X21500000Y-169050000D02*
X35700000Y-169050000D01*
X35700000Y-154850000D02*
X21500000Y-154850000D01*
X35700000Y-169050000D02*
X35700000Y-154850000D01*
%TO.C,SW16*%
X161100000Y-110350000D02*
X161100000Y-124550000D01*
X175300000Y-110350000D02*
X161100000Y-110350000D01*
X175300000Y-124550000D02*
X175300000Y-110350000D01*
X161100000Y-124550000D02*
X175300000Y-124550000D01*
%TO.C,SW15*%
X175300000Y-99200000D02*
X175300000Y-85000000D01*
X161100000Y-99200000D02*
X175300000Y-99200000D01*
X175300000Y-85000000D02*
X161100000Y-85000000D01*
X161100000Y-85000000D02*
X161100000Y-99200000D01*
%TO.C,SW9*%
X78650000Y-78650000D02*
X78650000Y-92850000D01*
X92850000Y-78650000D02*
X78650000Y-78650000D01*
X78650000Y-92850000D02*
X92850000Y-92850000D01*
X92850000Y-92850000D02*
X92850000Y-78650000D01*
%TO.C,SW13*%
X161100000Y-61100000D02*
X175300000Y-61100000D01*
X161100000Y-46900000D02*
X161100000Y-61100000D01*
X175300000Y-46900000D02*
X161100000Y-46900000D01*
X175300000Y-61100000D02*
X175300000Y-46900000D01*
%TO.C,SW2*%
X54750000Y-111900000D02*
X54750000Y-97700000D01*
X40550000Y-111900000D02*
X54750000Y-111900000D01*
X40550000Y-97700000D02*
X40550000Y-111900000D01*
X54750000Y-97700000D02*
X40550000Y-97700000D01*
%TO.C,SW8*%
X78650000Y-73800000D02*
X92850000Y-73800000D01*
X78650000Y-59600000D02*
X78650000Y-73800000D01*
X92850000Y-73800000D02*
X92850000Y-59600000D01*
X92850000Y-59600000D02*
X78650000Y-59600000D01*
%TO.C,SW5*%
X130950000Y-97700000D02*
X116750000Y-97700000D01*
X130950000Y-111900000D02*
X130950000Y-97700000D01*
X116750000Y-111900000D02*
X130950000Y-111900000D01*
X116750000Y-97700000D02*
X116750000Y-111900000D01*
%TO.C,SW1*%
X35700000Y-111900000D02*
X35700000Y-97700000D01*
X21500000Y-97700000D02*
X21500000Y-111900000D01*
X21500000Y-111900000D02*
X35700000Y-111900000D01*
X35700000Y-97700000D02*
X21500000Y-97700000D01*
%TO.C,SW7*%
X92850000Y-40550000D02*
X78650000Y-40550000D01*
X78650000Y-40550000D02*
X78650000Y-54750000D01*
X92850000Y-54750000D02*
X92850000Y-40550000D01*
X78650000Y-54750000D02*
X92850000Y-54750000D01*
%TO.C,SW12*%
X78650000Y-169050000D02*
X92850000Y-169050000D01*
X78650000Y-154850000D02*
X78650000Y-169050000D01*
X92850000Y-169050000D02*
X92850000Y-154850000D01*
X92850000Y-154850000D02*
X78650000Y-154850000D01*
%TO.C,SW23*%
X150000000Y-54750000D02*
X150000000Y-40550000D01*
X135800000Y-54750000D02*
X150000000Y-54750000D01*
X150000000Y-40550000D02*
X135800000Y-40550000D01*
X135800000Y-40550000D02*
X135800000Y-54750000D01*
%TO.C,SW20*%
X21500000Y-40550000D02*
X21500000Y-54750000D01*
X21500000Y-54750000D02*
X35700000Y-54750000D01*
X35700000Y-54750000D02*
X35700000Y-40550000D01*
X35700000Y-40550000D02*
X21500000Y-40550000D01*
%TO.C,SW3*%
X73800000Y-97700000D02*
X59600000Y-97700000D01*
X59600000Y-111900000D02*
X73800000Y-111900000D01*
X59600000Y-97700000D02*
X59600000Y-111900000D01*
X73800000Y-111900000D02*
X73800000Y-97700000D01*
%TO.C,SW10*%
X78650000Y-130950000D02*
X92850000Y-130950000D01*
X78650000Y-116750000D02*
X78650000Y-130950000D01*
X92850000Y-130950000D02*
X92850000Y-116750000D01*
X92850000Y-116750000D02*
X78650000Y-116750000D01*
%TO.C,SW22*%
X78650000Y-97700000D02*
X78650000Y-111900000D01*
X92850000Y-111900000D02*
X92850000Y-97700000D01*
X78650000Y-111900000D02*
X92850000Y-111900000D01*
X92850000Y-97700000D02*
X78650000Y-97700000D01*
%TD*%
M02*
