%TF.GenerationSoftware,KiCad,Pcbnew,(6.0.4)*%
%TF.CreationDate,2022-05-24T13:04:00-03:00*%
%TF.ProjectId,G-Code_Keeb,472d436f-6465-45f4-9b65-65622e6b6963,1*%
%TF.SameCoordinates,Original*%
%TF.FileFunction,Legend,Bot*%
%TF.FilePolarity,Positive*%
%FSLAX46Y46*%
G04 Gerber Fmt 4.6, Leading zero omitted, Abs format (unit mm)*
G04 Created by KiCad (PCBNEW (6.0.4)) date 2022-05-24 13:04:00*
%MOMM*%
%LPD*%
G01*
G04 APERTURE LIST*
%ADD10C,0.300000*%
%ADD11C,0.150000*%
%ADD12C,0.120000*%
G04 APERTURE END LIST*
D10*
X75200238Y-28933428D02*
X73905000Y-28933428D01*
X73095476Y-28933428D02*
X71800238Y-28933428D01*
X70990714Y-28933428D02*
X69695476Y-28933428D01*
X68885952Y-28933428D02*
X67590714Y-28933428D01*
X66781190Y-28933428D02*
X65485952Y-28933428D01*
X64676428Y-28933428D02*
X63381190Y-28933428D01*
X62571666Y-28933428D02*
X61276428Y-28933428D01*
X60466904Y-28933428D02*
X59171666Y-28933428D01*
X58362142Y-28933428D02*
X57066904Y-28933428D01*
X56257380Y-28933428D02*
X54962142Y-28933428D01*
X54152619Y-28933428D02*
X52857380Y-28933428D01*
X52047857Y-28933428D02*
X50752619Y-28933428D01*
X49943095Y-28933428D02*
X48647857Y-28933428D01*
X47838333Y-28933428D02*
X46543095Y-28933428D01*
X45733571Y-28933428D02*
X44438333Y-28933428D01*
X74795476Y-32884714D02*
X74795476Y-30456142D01*
X71719285Y-31427571D02*
X72285952Y-31427571D01*
X72285952Y-32318047D02*
X72285952Y-30618047D01*
X71476428Y-30618047D01*
X70100238Y-31184714D02*
X70100238Y-32318047D01*
X70828809Y-31184714D02*
X70828809Y-32075190D01*
X70747857Y-32237095D01*
X70585952Y-32318047D01*
X70343095Y-32318047D01*
X70181190Y-32237095D01*
X70100238Y-32156142D01*
X69290714Y-31184714D02*
X69290714Y-32318047D01*
X69290714Y-31346619D02*
X69209761Y-31265666D01*
X69047857Y-31184714D01*
X68805000Y-31184714D01*
X68643095Y-31265666D01*
X68562142Y-31427571D01*
X68562142Y-32318047D01*
X67024047Y-32237095D02*
X67185952Y-32318047D01*
X67509761Y-32318047D01*
X67671666Y-32237095D01*
X67752619Y-32156142D01*
X67833571Y-31994238D01*
X67833571Y-31508523D01*
X67752619Y-31346619D01*
X67671666Y-31265666D01*
X67509761Y-31184714D01*
X67185952Y-31184714D01*
X67024047Y-31265666D01*
X66538333Y-31184714D02*
X65890714Y-31184714D01*
X66295476Y-30618047D02*
X66295476Y-32075190D01*
X66214523Y-32237095D01*
X66052619Y-32318047D01*
X65890714Y-32318047D01*
X65324047Y-32318047D02*
X65324047Y-31184714D01*
X65324047Y-30618047D02*
X65405000Y-30699000D01*
X65324047Y-30779952D01*
X65243095Y-30699000D01*
X65324047Y-30618047D01*
X65324047Y-30779952D01*
X64271666Y-32318047D02*
X64433571Y-32237095D01*
X64514523Y-32156142D01*
X64595476Y-31994238D01*
X64595476Y-31508523D01*
X64514523Y-31346619D01*
X64433571Y-31265666D01*
X64271666Y-31184714D01*
X64028809Y-31184714D01*
X63866904Y-31265666D01*
X63785952Y-31346619D01*
X63705000Y-31508523D01*
X63705000Y-31994238D01*
X63785952Y-32156142D01*
X63866904Y-32237095D01*
X64028809Y-32318047D01*
X64271666Y-32318047D01*
X62976428Y-31184714D02*
X62976428Y-32318047D01*
X62976428Y-31346619D02*
X62895476Y-31265666D01*
X62733571Y-31184714D01*
X62490714Y-31184714D01*
X62328809Y-31265666D01*
X62247857Y-31427571D01*
X62247857Y-32318047D01*
X59738333Y-32884714D02*
X59738333Y-30456142D01*
X57228809Y-32318047D02*
X57228809Y-30618047D01*
X56662142Y-31832333D01*
X56095476Y-30618047D01*
X56095476Y-32318047D01*
X54314523Y-32156142D02*
X54395476Y-32237095D01*
X54638333Y-32318047D01*
X54800238Y-32318047D01*
X55043095Y-32237095D01*
X55204999Y-32075190D01*
X55285952Y-31913285D01*
X55366904Y-31589476D01*
X55366904Y-31346619D01*
X55285952Y-31022809D01*
X55204999Y-30860904D01*
X55043095Y-30699000D01*
X54800238Y-30618047D01*
X54638333Y-30618047D01*
X54395476Y-30699000D01*
X54314523Y-30779952D01*
X53585952Y-30618047D02*
X53585952Y-31994238D01*
X53504999Y-32156142D01*
X53424047Y-32237095D01*
X53262142Y-32318047D01*
X52938333Y-32318047D01*
X52776428Y-32237095D01*
X52695476Y-32156142D01*
X52614523Y-31994238D01*
X52614523Y-30618047D01*
X50509761Y-31184714D02*
X50509761Y-32884714D01*
X50509761Y-31265666D02*
X50347857Y-31184714D01*
X50024047Y-31184714D01*
X49862142Y-31265666D01*
X49781190Y-31346619D01*
X49700238Y-31508523D01*
X49700238Y-31994238D01*
X49781190Y-32156142D01*
X49862142Y-32237095D01*
X50024047Y-32318047D01*
X50347857Y-32318047D01*
X50509761Y-32237095D01*
X48971666Y-32318047D02*
X48971666Y-31184714D01*
X48971666Y-30618047D02*
X49052619Y-30699000D01*
X48971666Y-30779952D01*
X48890714Y-30699000D01*
X48971666Y-30618047D01*
X48971666Y-30779952D01*
X48162142Y-31184714D02*
X48162142Y-32318047D01*
X48162142Y-31346619D02*
X48081190Y-31265666D01*
X47919285Y-31184714D01*
X47676428Y-31184714D01*
X47514523Y-31265666D01*
X47433571Y-31427571D01*
X47433571Y-32318047D01*
X44924047Y-32884714D02*
X44924047Y-30456142D01*
X75200238Y-34407428D02*
X73905000Y-34407428D01*
X73095476Y-34407428D02*
X71800238Y-34407428D01*
X70990714Y-34407428D02*
X69695476Y-34407428D01*
X68885952Y-34407428D02*
X67590714Y-34407428D01*
X66781190Y-34407428D02*
X65485952Y-34407428D01*
X64676428Y-34407428D02*
X63381190Y-34407428D01*
X62571666Y-34407428D02*
X61276428Y-34407428D01*
X60466904Y-34407428D02*
X59171666Y-34407428D01*
X58362142Y-34407428D02*
X57066904Y-34407428D01*
X56257380Y-34407428D02*
X54962142Y-34407428D01*
X54152619Y-34407428D02*
X52857380Y-34407428D01*
X52047857Y-34407428D02*
X50752619Y-34407428D01*
X49943095Y-34407428D02*
X48647857Y-34407428D01*
X47838333Y-34407428D02*
X46543095Y-34407428D01*
X45733571Y-34407428D02*
X44438333Y-34407428D01*
X74795476Y-38358714D02*
X74795476Y-35930142D01*
X72447857Y-36092047D02*
X71314523Y-37792047D01*
X71314523Y-36092047D02*
X72447857Y-37792047D01*
X70666904Y-37144428D02*
X69371666Y-37144428D01*
X70019285Y-37792047D02*
X70019285Y-36496809D01*
X67671666Y-37792047D02*
X68643095Y-37792047D01*
X68157380Y-37792047D02*
X68157380Y-36092047D01*
X68319285Y-36334904D01*
X68481190Y-36496809D01*
X68643095Y-36577761D01*
X58766904Y-38358714D02*
X58766904Y-35930142D01*
X56257380Y-37792047D02*
X56257380Y-36092047D01*
X55609761Y-36092047D01*
X55447857Y-36173000D01*
X55366904Y-36253952D01*
X55285952Y-36415857D01*
X55285952Y-36658714D01*
X55366904Y-36820619D01*
X55447857Y-36901571D01*
X55609761Y-36982523D01*
X56257380Y-36982523D01*
X54557380Y-37792047D02*
X54557380Y-36092047D01*
X54152619Y-36092047D01*
X53909761Y-36173000D01*
X53747857Y-36334904D01*
X53666904Y-36496809D01*
X53585952Y-36820619D01*
X53585952Y-37063476D01*
X53666904Y-37387285D01*
X53747857Y-37549190D01*
X53909761Y-37711095D01*
X54152619Y-37792047D01*
X54557380Y-37792047D01*
X52533571Y-36092047D02*
X52371666Y-36092047D01*
X52209761Y-36173000D01*
X52128809Y-36253952D01*
X52047857Y-36415857D01*
X51966904Y-36739666D01*
X51966904Y-37144428D01*
X52047857Y-37468238D01*
X52128809Y-37630142D01*
X52209761Y-37711095D01*
X52371666Y-37792047D01*
X52533571Y-37792047D01*
X52695476Y-37711095D01*
X52776428Y-37630142D01*
X52857380Y-37468238D01*
X52938333Y-37144428D01*
X52938333Y-36739666D01*
X52857380Y-36415857D01*
X52776428Y-36253952D01*
X52695476Y-36173000D01*
X52533571Y-36092047D01*
X44357380Y-38358714D02*
X44357380Y-35930142D01*
X75200238Y-39881428D02*
X73905000Y-39881428D01*
X73095476Y-39881428D02*
X71800238Y-39881428D01*
X70990714Y-39881428D02*
X69695476Y-39881428D01*
X68885952Y-39881428D02*
X67590714Y-39881428D01*
X66781190Y-39881428D02*
X65485952Y-39881428D01*
X64676428Y-39881428D02*
X63381190Y-39881428D01*
X62571666Y-39881428D02*
X61276428Y-39881428D01*
X60466904Y-39881428D02*
X59171666Y-39881428D01*
X58362142Y-39881428D02*
X57066904Y-39881428D01*
X56257380Y-39881428D02*
X54962142Y-39881428D01*
X54152619Y-39881428D02*
X52857380Y-39881428D01*
X52047857Y-39881428D02*
X50752619Y-39881428D01*
X49943095Y-39881428D02*
X48647857Y-39881428D01*
X47838333Y-39881428D02*
X46543095Y-39881428D01*
X45733571Y-39881428D02*
X44438333Y-39881428D01*
X74795476Y-43832714D02*
X74795476Y-41404142D01*
X72447857Y-41566047D02*
X71314523Y-43266047D01*
X71314523Y-41566047D02*
X72447857Y-43266047D01*
X70666904Y-42618428D02*
X69371666Y-42618428D01*
X70019285Y-43266047D02*
X70019285Y-41970809D01*
X67671666Y-43266047D02*
X68643095Y-43266047D01*
X68157380Y-43266047D02*
X68157380Y-41566047D01*
X68319285Y-41808904D01*
X68481190Y-41970809D01*
X68643095Y-42051761D01*
X66619285Y-41566047D02*
X66457380Y-41566047D01*
X66295476Y-41647000D01*
X66214523Y-41727952D01*
X66133571Y-41889857D01*
X66052619Y-42213666D01*
X66052619Y-42618428D01*
X66133571Y-42942238D01*
X66214523Y-43104142D01*
X66295476Y-43185095D01*
X66457380Y-43266047D01*
X66619285Y-43266047D01*
X66781190Y-43185095D01*
X66862142Y-43104142D01*
X66943095Y-42942238D01*
X67024047Y-42618428D01*
X67024047Y-42213666D01*
X66943095Y-41889857D01*
X66862142Y-41727952D01*
X66781190Y-41647000D01*
X66619285Y-41566047D01*
X58443095Y-43832714D02*
X58443095Y-41404142D01*
X55933571Y-43266047D02*
X55933571Y-41566047D01*
X55285952Y-41566047D01*
X55124047Y-41647000D01*
X55043095Y-41727952D01*
X54962142Y-41889857D01*
X54962142Y-42132714D01*
X55043095Y-42294619D01*
X55124047Y-42375571D01*
X55285952Y-42456523D01*
X55933571Y-42456523D01*
X53666904Y-42375571D02*
X53424047Y-42456523D01*
X53343095Y-42537476D01*
X53262142Y-42699380D01*
X53262142Y-42942238D01*
X53343095Y-43104142D01*
X53424047Y-43185095D01*
X53585952Y-43266047D01*
X54233571Y-43266047D01*
X54233571Y-41566047D01*
X53666904Y-41566047D01*
X53505000Y-41647000D01*
X53424047Y-41727952D01*
X53343095Y-41889857D01*
X53343095Y-42051761D01*
X53424047Y-42213666D01*
X53505000Y-42294619D01*
X53666904Y-42375571D01*
X54233571Y-42375571D01*
X52695476Y-41566047D02*
X51562142Y-41566047D01*
X52290714Y-43266047D01*
X44033571Y-43832714D02*
X44033571Y-41404142D01*
X75200238Y-45355428D02*
X73905000Y-45355428D01*
X73095476Y-45355428D02*
X71800238Y-45355428D01*
X70990714Y-45355428D02*
X69695476Y-45355428D01*
X68885952Y-45355428D02*
X67590714Y-45355428D01*
X66781190Y-45355428D02*
X65485952Y-45355428D01*
X64676428Y-45355428D02*
X63381190Y-45355428D01*
X62571666Y-45355428D02*
X61276428Y-45355428D01*
X60466904Y-45355428D02*
X59171666Y-45355428D01*
X58362142Y-45355428D02*
X57066904Y-45355428D01*
X56257380Y-45355428D02*
X54962142Y-45355428D01*
X54152619Y-45355428D02*
X52857380Y-45355428D01*
X52047857Y-45355428D02*
X50752619Y-45355428D01*
X49943095Y-45355428D02*
X48647857Y-45355428D01*
X47838333Y-45355428D02*
X46543095Y-45355428D01*
X45733571Y-45355428D02*
X44438333Y-45355428D01*
X74795476Y-49306714D02*
X74795476Y-46878142D01*
X72447857Y-47040047D02*
X71314523Y-48740047D01*
X71314523Y-47040047D02*
X72447857Y-48740047D01*
X70666904Y-48092428D02*
X69371666Y-48092428D01*
X70019285Y-48740047D02*
X70019285Y-47444809D01*
X67671666Y-48740047D02*
X68643095Y-48740047D01*
X68157380Y-48740047D02*
X68157380Y-47040047D01*
X68319285Y-47282904D01*
X68481190Y-47444809D01*
X68643095Y-47525761D01*
X66619285Y-47040047D02*
X66457380Y-47040047D01*
X66295476Y-47121000D01*
X66214523Y-47201952D01*
X66133571Y-47363857D01*
X66052619Y-47687666D01*
X66052619Y-48092428D01*
X66133571Y-48416238D01*
X66214523Y-48578142D01*
X66295476Y-48659095D01*
X66457380Y-48740047D01*
X66619285Y-48740047D01*
X66781190Y-48659095D01*
X66862142Y-48578142D01*
X66943095Y-48416238D01*
X67024047Y-48092428D01*
X67024047Y-47687666D01*
X66943095Y-47363857D01*
X66862142Y-47201952D01*
X66781190Y-47121000D01*
X66619285Y-47040047D01*
X65000238Y-47040047D02*
X64838333Y-47040047D01*
X64676428Y-47121000D01*
X64595476Y-47201952D01*
X64514523Y-47363857D01*
X64433571Y-47687666D01*
X64433571Y-48092428D01*
X64514523Y-48416238D01*
X64595476Y-48578142D01*
X64676428Y-48659095D01*
X64838333Y-48740047D01*
X65000238Y-48740047D01*
X65162142Y-48659095D01*
X65243095Y-48578142D01*
X65324047Y-48416238D01*
X65405000Y-48092428D01*
X65405000Y-47687666D01*
X65324047Y-47363857D01*
X65243095Y-47201952D01*
X65162142Y-47121000D01*
X65000238Y-47040047D01*
X58119285Y-49306714D02*
X58119285Y-46878142D01*
X55609761Y-48740047D02*
X55609761Y-47040047D01*
X54962142Y-47040047D01*
X54800238Y-47121000D01*
X54719285Y-47201952D01*
X54638333Y-47363857D01*
X54638333Y-47606714D01*
X54719285Y-47768619D01*
X54800238Y-47849571D01*
X54962142Y-47930523D01*
X55609761Y-47930523D01*
X53343095Y-47849571D02*
X53100238Y-47930523D01*
X53019285Y-48011476D01*
X52938333Y-48173380D01*
X52938333Y-48416238D01*
X53019285Y-48578142D01*
X53100238Y-48659095D01*
X53262142Y-48740047D01*
X53909761Y-48740047D01*
X53909761Y-47040047D01*
X53343095Y-47040047D01*
X53181190Y-47121000D01*
X53100238Y-47201952D01*
X53019285Y-47363857D01*
X53019285Y-47525761D01*
X53100238Y-47687666D01*
X53181190Y-47768619D01*
X53343095Y-47849571D01*
X53909761Y-47849571D01*
X52290714Y-47201952D02*
X52209761Y-47121000D01*
X52047857Y-47040047D01*
X51643095Y-47040047D01*
X51481190Y-47121000D01*
X51400238Y-47201952D01*
X51319285Y-47363857D01*
X51319285Y-47525761D01*
X51400238Y-47768619D01*
X52371666Y-48740047D01*
X51319285Y-48740047D01*
X43709761Y-49306714D02*
X43709761Y-46878142D01*
X75200238Y-50829428D02*
X73905000Y-50829428D01*
X73095476Y-50829428D02*
X71800238Y-50829428D01*
X70990714Y-50829428D02*
X69695476Y-50829428D01*
X68885952Y-50829428D02*
X67590714Y-50829428D01*
X66781190Y-50829428D02*
X65485952Y-50829428D01*
X64676428Y-50829428D02*
X63381190Y-50829428D01*
X62571666Y-50829428D02*
X61276428Y-50829428D01*
X60466904Y-50829428D02*
X59171666Y-50829428D01*
X58362142Y-50829428D02*
X57066904Y-50829428D01*
X56257380Y-50829428D02*
X54962142Y-50829428D01*
X54152619Y-50829428D02*
X52857380Y-50829428D01*
X52047857Y-50829428D02*
X50752619Y-50829428D01*
X49943095Y-50829428D02*
X48647857Y-50829428D01*
X47838333Y-50829428D02*
X46543095Y-50829428D01*
X45733571Y-50829428D02*
X44438333Y-50829428D01*
X74795476Y-54780714D02*
X74795476Y-52352142D01*
X72447857Y-52514047D02*
X71314523Y-54214047D01*
X71314523Y-52514047D02*
X72447857Y-54214047D01*
X70666904Y-53566428D02*
X69371666Y-53566428D01*
X67671666Y-54214047D02*
X68643095Y-54214047D01*
X68157380Y-54214047D02*
X68157380Y-52514047D01*
X68319285Y-52756904D01*
X68481190Y-52918809D01*
X68643095Y-52999761D01*
X58766904Y-54780714D02*
X58766904Y-52352142D01*
X56257380Y-54214047D02*
X56257380Y-52514047D01*
X55609761Y-52514047D01*
X55447857Y-52595000D01*
X55366904Y-52675952D01*
X55285952Y-52837857D01*
X55285952Y-53080714D01*
X55366904Y-53242619D01*
X55447857Y-53323571D01*
X55609761Y-53404523D01*
X56257380Y-53404523D01*
X54557380Y-54214047D02*
X54557380Y-52514047D01*
X54152619Y-52514047D01*
X53909761Y-52595000D01*
X53747857Y-52756904D01*
X53666904Y-52918809D01*
X53585952Y-53242619D01*
X53585952Y-53485476D01*
X53666904Y-53809285D01*
X53747857Y-53971190D01*
X53909761Y-54133095D01*
X54152619Y-54214047D01*
X54557380Y-54214047D01*
X52128809Y-52514047D02*
X52452619Y-52514047D01*
X52614523Y-52595000D01*
X52695476Y-52675952D01*
X52857380Y-52918809D01*
X52938333Y-53242619D01*
X52938333Y-53890238D01*
X52857380Y-54052142D01*
X52776428Y-54133095D01*
X52614523Y-54214047D01*
X52290714Y-54214047D01*
X52128809Y-54133095D01*
X52047857Y-54052142D01*
X51966904Y-53890238D01*
X51966904Y-53485476D01*
X52047857Y-53323571D01*
X52128809Y-53242619D01*
X52290714Y-53161666D01*
X52614523Y-53161666D01*
X52776428Y-53242619D01*
X52857380Y-53323571D01*
X52938333Y-53485476D01*
X44357380Y-54780714D02*
X44357380Y-52352142D01*
X75200238Y-56303428D02*
X73905000Y-56303428D01*
X73095476Y-56303428D02*
X71800238Y-56303428D01*
X70990714Y-56303428D02*
X69695476Y-56303428D01*
X68885952Y-56303428D02*
X67590714Y-56303428D01*
X66781190Y-56303428D02*
X65485952Y-56303428D01*
X64676428Y-56303428D02*
X63381190Y-56303428D01*
X62571666Y-56303428D02*
X61276428Y-56303428D01*
X60466904Y-56303428D02*
X59171666Y-56303428D01*
X58362142Y-56303428D02*
X57066904Y-56303428D01*
X56257380Y-56303428D02*
X54962142Y-56303428D01*
X54152619Y-56303428D02*
X52857380Y-56303428D01*
X52047857Y-56303428D02*
X50752619Y-56303428D01*
X49943095Y-56303428D02*
X48647857Y-56303428D01*
X47838333Y-56303428D02*
X46543095Y-56303428D01*
X45733571Y-56303428D02*
X44438333Y-56303428D01*
X74795476Y-60254714D02*
X74795476Y-57826142D01*
X72447857Y-57988047D02*
X71314523Y-59688047D01*
X71314523Y-57988047D02*
X72447857Y-59688047D01*
X70666904Y-59040428D02*
X69371666Y-59040428D01*
X67671666Y-59688047D02*
X68643095Y-59688047D01*
X68157380Y-59688047D02*
X68157380Y-57988047D01*
X68319285Y-58230904D01*
X68481190Y-58392809D01*
X68643095Y-58473761D01*
X66619285Y-57988047D02*
X66457380Y-57988047D01*
X66295476Y-58069000D01*
X66214523Y-58149952D01*
X66133571Y-58311857D01*
X66052619Y-58635666D01*
X66052619Y-59040428D01*
X66133571Y-59364238D01*
X66214523Y-59526142D01*
X66295476Y-59607095D01*
X66457380Y-59688047D01*
X66619285Y-59688047D01*
X66781190Y-59607095D01*
X66862142Y-59526142D01*
X66943095Y-59364238D01*
X67024047Y-59040428D01*
X67024047Y-58635666D01*
X66943095Y-58311857D01*
X66862142Y-58149952D01*
X66781190Y-58069000D01*
X66619285Y-57988047D01*
X58443095Y-60254714D02*
X58443095Y-57826142D01*
X55933571Y-59688047D02*
X55933571Y-57988047D01*
X55285952Y-57988047D01*
X55124047Y-58069000D01*
X55043095Y-58149952D01*
X54962142Y-58311857D01*
X54962142Y-58554714D01*
X55043095Y-58716619D01*
X55124047Y-58797571D01*
X55285952Y-58878523D01*
X55933571Y-58878523D01*
X54233571Y-59688047D02*
X54233571Y-57988047D01*
X53828809Y-57988047D01*
X53585952Y-58069000D01*
X53424047Y-58230904D01*
X53343095Y-58392809D01*
X53262142Y-58716619D01*
X53262142Y-58959476D01*
X53343095Y-59283285D01*
X53424047Y-59445190D01*
X53585952Y-59607095D01*
X53828809Y-59688047D01*
X54233571Y-59688047D01*
X52695476Y-57988047D02*
X51562142Y-57988047D01*
X52290714Y-59688047D01*
X44033571Y-60254714D02*
X44033571Y-57826142D01*
X75200238Y-61777428D02*
X73905000Y-61777428D01*
X73095476Y-61777428D02*
X71800238Y-61777428D01*
X70990714Y-61777428D02*
X69695476Y-61777428D01*
X68885952Y-61777428D02*
X67590714Y-61777428D01*
X66781190Y-61777428D02*
X65485952Y-61777428D01*
X64676428Y-61777428D02*
X63381190Y-61777428D01*
X62571666Y-61777428D02*
X61276428Y-61777428D01*
X60466904Y-61777428D02*
X59171666Y-61777428D01*
X58362142Y-61777428D02*
X57066904Y-61777428D01*
X56257380Y-61777428D02*
X54962142Y-61777428D01*
X54152619Y-61777428D02*
X52857380Y-61777428D01*
X52047857Y-61777428D02*
X50752619Y-61777428D01*
X49943095Y-61777428D02*
X48647857Y-61777428D01*
X47838333Y-61777428D02*
X46543095Y-61777428D01*
X45733571Y-61777428D02*
X44438333Y-61777428D01*
X74795476Y-65728714D02*
X74795476Y-63300142D01*
X72447857Y-63462047D02*
X71314523Y-65162047D01*
X71314523Y-63462047D02*
X72447857Y-65162047D01*
X70666904Y-64514428D02*
X69371666Y-64514428D01*
X67671666Y-65162047D02*
X68643095Y-65162047D01*
X68157380Y-65162047D02*
X68157380Y-63462047D01*
X68319285Y-63704904D01*
X68481190Y-63866809D01*
X68643095Y-63947761D01*
X66619285Y-63462047D02*
X66457380Y-63462047D01*
X66295476Y-63543000D01*
X66214523Y-63623952D01*
X66133571Y-63785857D01*
X66052619Y-64109666D01*
X66052619Y-64514428D01*
X66133571Y-64838238D01*
X66214523Y-65000142D01*
X66295476Y-65081095D01*
X66457380Y-65162047D01*
X66619285Y-65162047D01*
X66781190Y-65081095D01*
X66862142Y-65000142D01*
X66943095Y-64838238D01*
X67024047Y-64514428D01*
X67024047Y-64109666D01*
X66943095Y-63785857D01*
X66862142Y-63623952D01*
X66781190Y-63543000D01*
X66619285Y-63462047D01*
X65000238Y-63462047D02*
X64838333Y-63462047D01*
X64676428Y-63543000D01*
X64595476Y-63623952D01*
X64514523Y-63785857D01*
X64433571Y-64109666D01*
X64433571Y-64514428D01*
X64514523Y-64838238D01*
X64595476Y-65000142D01*
X64676428Y-65081095D01*
X64838333Y-65162047D01*
X65000238Y-65162047D01*
X65162142Y-65081095D01*
X65243095Y-65000142D01*
X65324047Y-64838238D01*
X65405000Y-64514428D01*
X65405000Y-64109666D01*
X65324047Y-63785857D01*
X65243095Y-63623952D01*
X65162142Y-63543000D01*
X65000238Y-63462047D01*
X58119285Y-65728714D02*
X58119285Y-63300142D01*
X55609761Y-65162047D02*
X55609761Y-63462047D01*
X54962142Y-63462047D01*
X54800238Y-63543000D01*
X54719285Y-63623952D01*
X54638333Y-63785857D01*
X54638333Y-64028714D01*
X54719285Y-64190619D01*
X54800238Y-64271571D01*
X54962142Y-64352523D01*
X55609761Y-64352523D01*
X53343095Y-64271571D02*
X53100238Y-64352523D01*
X53019285Y-64433476D01*
X52938333Y-64595380D01*
X52938333Y-64838238D01*
X53019285Y-65000142D01*
X53100238Y-65081095D01*
X53262142Y-65162047D01*
X53909761Y-65162047D01*
X53909761Y-63462047D01*
X53343095Y-63462047D01*
X53181190Y-63543000D01*
X53100238Y-63623952D01*
X53019285Y-63785857D01*
X53019285Y-63947761D01*
X53100238Y-64109666D01*
X53181190Y-64190619D01*
X53343095Y-64271571D01*
X53909761Y-64271571D01*
X51481190Y-64028714D02*
X51481190Y-65162047D01*
X51885952Y-63381095D02*
X52290714Y-64595380D01*
X51238333Y-64595380D01*
X43709761Y-65728714D02*
X43709761Y-63300142D01*
X75200238Y-67251428D02*
X73905000Y-67251428D01*
X73095476Y-67251428D02*
X71800238Y-67251428D01*
X70990714Y-67251428D02*
X69695476Y-67251428D01*
X68885952Y-67251428D02*
X67590714Y-67251428D01*
X66781190Y-67251428D02*
X65485952Y-67251428D01*
X64676428Y-67251428D02*
X63381190Y-67251428D01*
X62571666Y-67251428D02*
X61276428Y-67251428D01*
X60466904Y-67251428D02*
X59171666Y-67251428D01*
X58362142Y-67251428D02*
X57066904Y-67251428D01*
X56257380Y-67251428D02*
X54962142Y-67251428D01*
X54152619Y-67251428D02*
X52857380Y-67251428D01*
X52047857Y-67251428D02*
X50752619Y-67251428D01*
X49943095Y-67251428D02*
X48647857Y-67251428D01*
X47838333Y-67251428D02*
X46543095Y-67251428D01*
X45733571Y-67251428D02*
X44438333Y-67251428D01*
X74795476Y-71202714D02*
X74795476Y-68774142D01*
X71962142Y-69826523D02*
X71962142Y-70636047D01*
X72528809Y-68936047D02*
X71962142Y-69826523D01*
X71395476Y-68936047D01*
X70828809Y-69988428D02*
X69533571Y-69988428D01*
X70181190Y-70636047D02*
X70181190Y-69340809D01*
X67833571Y-70636047D02*
X68805000Y-70636047D01*
X68319285Y-70636047D02*
X68319285Y-68936047D01*
X68481190Y-69178904D01*
X68643095Y-69340809D01*
X68805000Y-69421761D01*
X58928809Y-71202714D02*
X58928809Y-68774142D01*
X56419285Y-70636047D02*
X56419285Y-68936047D01*
X55771666Y-68936047D01*
X55609761Y-69017000D01*
X55528809Y-69097952D01*
X55447857Y-69259857D01*
X55447857Y-69502714D01*
X55528809Y-69664619D01*
X55609761Y-69745571D01*
X55771666Y-69826523D01*
X56419285Y-69826523D01*
X54152619Y-69745571D02*
X53909761Y-69826523D01*
X53828809Y-69907476D01*
X53747857Y-70069380D01*
X53747857Y-70312238D01*
X53828809Y-70474142D01*
X53909761Y-70555095D01*
X54071666Y-70636047D01*
X54719285Y-70636047D01*
X54719285Y-68936047D01*
X54152619Y-68936047D01*
X53990714Y-69017000D01*
X53909761Y-69097952D01*
X53828809Y-69259857D01*
X53828809Y-69421761D01*
X53909761Y-69583666D01*
X53990714Y-69664619D01*
X54152619Y-69745571D01*
X54719285Y-69745571D01*
X52209761Y-68936047D02*
X53019285Y-68936047D01*
X53100238Y-69745571D01*
X53019285Y-69664619D01*
X52857380Y-69583666D01*
X52452619Y-69583666D01*
X52290714Y-69664619D01*
X52209761Y-69745571D01*
X52128809Y-69907476D01*
X52128809Y-70312238D01*
X52209761Y-70474142D01*
X52290714Y-70555095D01*
X52452619Y-70636047D01*
X52857380Y-70636047D01*
X53019285Y-70555095D01*
X53100238Y-70474142D01*
X44519285Y-71202714D02*
X44519285Y-68774142D01*
X75200238Y-72725428D02*
X73905000Y-72725428D01*
X73095476Y-72725428D02*
X71800238Y-72725428D01*
X70990714Y-72725428D02*
X69695476Y-72725428D01*
X68885952Y-72725428D02*
X67590714Y-72725428D01*
X66781190Y-72725428D02*
X65485952Y-72725428D01*
X64676428Y-72725428D02*
X63381190Y-72725428D01*
X62571666Y-72725428D02*
X61276428Y-72725428D01*
X60466904Y-72725428D02*
X59171666Y-72725428D01*
X58362142Y-72725428D02*
X57066904Y-72725428D01*
X56257380Y-72725428D02*
X54962142Y-72725428D01*
X54152619Y-72725428D02*
X52857380Y-72725428D01*
X52047857Y-72725428D02*
X50752619Y-72725428D01*
X49943095Y-72725428D02*
X48647857Y-72725428D01*
X47838333Y-72725428D02*
X46543095Y-72725428D01*
X45733571Y-72725428D02*
X44438333Y-72725428D01*
X74795476Y-76676714D02*
X74795476Y-74248142D01*
X71962142Y-75300523D02*
X71962142Y-76110047D01*
X72528809Y-74410047D02*
X71962142Y-75300523D01*
X71395476Y-74410047D01*
X70828809Y-75462428D02*
X69533571Y-75462428D01*
X70181190Y-76110047D02*
X70181190Y-74814809D01*
X67833571Y-76110047D02*
X68805000Y-76110047D01*
X68319285Y-76110047D02*
X68319285Y-74410047D01*
X68481190Y-74652904D01*
X68643095Y-74814809D01*
X68805000Y-74895761D01*
X66781190Y-74410047D02*
X66619285Y-74410047D01*
X66457380Y-74491000D01*
X66376428Y-74571952D01*
X66295476Y-74733857D01*
X66214523Y-75057666D01*
X66214523Y-75462428D01*
X66295476Y-75786238D01*
X66376428Y-75948142D01*
X66457380Y-76029095D01*
X66619285Y-76110047D01*
X66781190Y-76110047D01*
X66943095Y-76029095D01*
X67024047Y-75948142D01*
X67105000Y-75786238D01*
X67185952Y-75462428D01*
X67185952Y-75057666D01*
X67105000Y-74733857D01*
X67024047Y-74571952D01*
X66943095Y-74491000D01*
X66781190Y-74410047D01*
X58605000Y-76676714D02*
X58605000Y-74248142D01*
X56095476Y-76110047D02*
X56095476Y-74410047D01*
X55447857Y-74410047D01*
X55285952Y-74491000D01*
X55205000Y-74571952D01*
X55124047Y-74733857D01*
X55124047Y-74976714D01*
X55205000Y-75138619D01*
X55285952Y-75219571D01*
X55447857Y-75300523D01*
X56095476Y-75300523D01*
X53828809Y-75219571D02*
X53585952Y-75300523D01*
X53505000Y-75381476D01*
X53424047Y-75543380D01*
X53424047Y-75786238D01*
X53505000Y-75948142D01*
X53585952Y-76029095D01*
X53747857Y-76110047D01*
X54395476Y-76110047D01*
X54395476Y-74410047D01*
X53828809Y-74410047D01*
X53666904Y-74491000D01*
X53585952Y-74571952D01*
X53505000Y-74733857D01*
X53505000Y-74895761D01*
X53585952Y-75057666D01*
X53666904Y-75138619D01*
X53828809Y-75219571D01*
X54395476Y-75219571D01*
X51966904Y-74410047D02*
X52290714Y-74410047D01*
X52452619Y-74491000D01*
X52533571Y-74571952D01*
X52695476Y-74814809D01*
X52776428Y-75138619D01*
X52776428Y-75786238D01*
X52695476Y-75948142D01*
X52614523Y-76029095D01*
X52452619Y-76110047D01*
X52128809Y-76110047D01*
X51966904Y-76029095D01*
X51885952Y-75948142D01*
X51805000Y-75786238D01*
X51805000Y-75381476D01*
X51885952Y-75219571D01*
X51966904Y-75138619D01*
X52128809Y-75057666D01*
X52452619Y-75057666D01*
X52614523Y-75138619D01*
X52695476Y-75219571D01*
X52776428Y-75381476D01*
X44195476Y-76676714D02*
X44195476Y-74248142D01*
X75200238Y-78199428D02*
X73905000Y-78199428D01*
X73095476Y-78199428D02*
X71800238Y-78199428D01*
X70990714Y-78199428D02*
X69695476Y-78199428D01*
X68885952Y-78199428D02*
X67590714Y-78199428D01*
X66781190Y-78199428D02*
X65485952Y-78199428D01*
X64676428Y-78199428D02*
X63381190Y-78199428D01*
X62571666Y-78199428D02*
X61276428Y-78199428D01*
X60466904Y-78199428D02*
X59171666Y-78199428D01*
X58362142Y-78199428D02*
X57066904Y-78199428D01*
X56257380Y-78199428D02*
X54962142Y-78199428D01*
X54152619Y-78199428D02*
X52857380Y-78199428D01*
X52047857Y-78199428D02*
X50752619Y-78199428D01*
X49943095Y-78199428D02*
X48647857Y-78199428D01*
X47838333Y-78199428D02*
X46543095Y-78199428D01*
X45733571Y-78199428D02*
X44438333Y-78199428D01*
X74795476Y-82150714D02*
X74795476Y-79722142D01*
X71962142Y-80774523D02*
X71962142Y-81584047D01*
X72528809Y-79884047D02*
X71962142Y-80774523D01*
X71395476Y-79884047D01*
X70828809Y-80936428D02*
X69533571Y-80936428D01*
X70181190Y-81584047D02*
X70181190Y-80288809D01*
X67833571Y-81584047D02*
X68805000Y-81584047D01*
X68319285Y-81584047D02*
X68319285Y-79884047D01*
X68481190Y-80126904D01*
X68643095Y-80288809D01*
X68805000Y-80369761D01*
X66781190Y-79884047D02*
X66619285Y-79884047D01*
X66457380Y-79965000D01*
X66376428Y-80045952D01*
X66295476Y-80207857D01*
X66214523Y-80531666D01*
X66214523Y-80936428D01*
X66295476Y-81260238D01*
X66376428Y-81422142D01*
X66457380Y-81503095D01*
X66619285Y-81584047D01*
X66781190Y-81584047D01*
X66943095Y-81503095D01*
X67024047Y-81422142D01*
X67105000Y-81260238D01*
X67185952Y-80936428D01*
X67185952Y-80531666D01*
X67105000Y-80207857D01*
X67024047Y-80045952D01*
X66943095Y-79965000D01*
X66781190Y-79884047D01*
X65162142Y-79884047D02*
X65000238Y-79884047D01*
X64838333Y-79965000D01*
X64757380Y-80045952D01*
X64676428Y-80207857D01*
X64595476Y-80531666D01*
X64595476Y-80936428D01*
X64676428Y-81260238D01*
X64757380Y-81422142D01*
X64838333Y-81503095D01*
X65000238Y-81584047D01*
X65162142Y-81584047D01*
X65324047Y-81503095D01*
X65405000Y-81422142D01*
X65485952Y-81260238D01*
X65566904Y-80936428D01*
X65566904Y-80531666D01*
X65485952Y-80207857D01*
X65405000Y-80045952D01*
X65324047Y-79965000D01*
X65162142Y-79884047D01*
X58281190Y-82150714D02*
X58281190Y-79722142D01*
X55771666Y-81584047D02*
X55771666Y-79884047D01*
X55124047Y-79884047D01*
X54962142Y-79965000D01*
X54881190Y-80045952D01*
X54800238Y-80207857D01*
X54800238Y-80450714D01*
X54881190Y-80612619D01*
X54962142Y-80693571D01*
X55124047Y-80774523D01*
X55771666Y-80774523D01*
X53100238Y-81422142D02*
X53181190Y-81503095D01*
X53424047Y-81584047D01*
X53585952Y-81584047D01*
X53828809Y-81503095D01*
X53990714Y-81341190D01*
X54071666Y-81179285D01*
X54152619Y-80855476D01*
X54152619Y-80612619D01*
X54071666Y-80288809D01*
X53990714Y-80126904D01*
X53828809Y-79965000D01*
X53585952Y-79884047D01*
X53424047Y-79884047D01*
X53181190Y-79965000D01*
X53100238Y-80045952D01*
X52533571Y-79884047D02*
X51400238Y-79884047D01*
X52128809Y-81584047D01*
X43871666Y-82150714D02*
X43871666Y-79722142D01*
X75200238Y-83673428D02*
X73905000Y-83673428D01*
X73095476Y-83673428D02*
X71800238Y-83673428D01*
X70990714Y-83673428D02*
X69695476Y-83673428D01*
X68885952Y-83673428D02*
X67590714Y-83673428D01*
X66781190Y-83673428D02*
X65485952Y-83673428D01*
X64676428Y-83673428D02*
X63381190Y-83673428D01*
X62571666Y-83673428D02*
X61276428Y-83673428D01*
X60466904Y-83673428D02*
X59171666Y-83673428D01*
X58362142Y-83673428D02*
X57066904Y-83673428D01*
X56257380Y-83673428D02*
X54962142Y-83673428D01*
X54152619Y-83673428D02*
X52857380Y-83673428D01*
X52047857Y-83673428D02*
X50752619Y-83673428D01*
X49943095Y-83673428D02*
X48647857Y-83673428D01*
X47838333Y-83673428D02*
X46543095Y-83673428D01*
X45733571Y-83673428D02*
X44438333Y-83673428D01*
X74795476Y-87624714D02*
X74795476Y-85196142D01*
X71962142Y-86248523D02*
X71962142Y-87058047D01*
X72528809Y-85358047D02*
X71962142Y-86248523D01*
X71395476Y-85358047D01*
X70828809Y-86410428D02*
X69533571Y-86410428D01*
X67833571Y-87058047D02*
X68805000Y-87058047D01*
X68319285Y-87058047D02*
X68319285Y-85358047D01*
X68481190Y-85600904D01*
X68643095Y-85762809D01*
X68805000Y-85843761D01*
X58928809Y-87624714D02*
X58928809Y-85196142D01*
X56419285Y-87058047D02*
X56419285Y-85358047D01*
X55771666Y-85358047D01*
X55609761Y-85439000D01*
X55528809Y-85519952D01*
X55447857Y-85681857D01*
X55447857Y-85924714D01*
X55528809Y-86086619D01*
X55609761Y-86167571D01*
X55771666Y-86248523D01*
X56419285Y-86248523D01*
X54719285Y-87058047D02*
X54719285Y-85358047D01*
X54314523Y-85358047D01*
X54071666Y-85439000D01*
X53909761Y-85600904D01*
X53828809Y-85762809D01*
X53747857Y-86086619D01*
X53747857Y-86329476D01*
X53828809Y-86653285D01*
X53909761Y-86815190D01*
X54071666Y-86977095D01*
X54314523Y-87058047D01*
X54719285Y-87058047D01*
X53181190Y-85358047D02*
X52128809Y-85358047D01*
X52695476Y-86005666D01*
X52452619Y-86005666D01*
X52290714Y-86086619D01*
X52209761Y-86167571D01*
X52128809Y-86329476D01*
X52128809Y-86734238D01*
X52209761Y-86896142D01*
X52290714Y-86977095D01*
X52452619Y-87058047D01*
X52938333Y-87058047D01*
X53100238Y-86977095D01*
X53181190Y-86896142D01*
X44519285Y-87624714D02*
X44519285Y-85196142D01*
X75200238Y-89147428D02*
X73905000Y-89147428D01*
X73095476Y-89147428D02*
X71800238Y-89147428D01*
X70990714Y-89147428D02*
X69695476Y-89147428D01*
X68885952Y-89147428D02*
X67590714Y-89147428D01*
X66781190Y-89147428D02*
X65485952Y-89147428D01*
X64676428Y-89147428D02*
X63381190Y-89147428D01*
X62571666Y-89147428D02*
X61276428Y-89147428D01*
X60466904Y-89147428D02*
X59171666Y-89147428D01*
X58362142Y-89147428D02*
X57066904Y-89147428D01*
X56257380Y-89147428D02*
X54962142Y-89147428D01*
X54152619Y-89147428D02*
X52857380Y-89147428D01*
X52047857Y-89147428D02*
X50752619Y-89147428D01*
X49943095Y-89147428D02*
X48647857Y-89147428D01*
X47838333Y-89147428D02*
X46543095Y-89147428D01*
X45733571Y-89147428D02*
X44438333Y-89147428D01*
X74795476Y-93098714D02*
X74795476Y-90670142D01*
X71962142Y-91722523D02*
X71962142Y-92532047D01*
X72528809Y-90832047D02*
X71962142Y-91722523D01*
X71395476Y-90832047D01*
X70828809Y-91884428D02*
X69533571Y-91884428D01*
X67833571Y-92532047D02*
X68805000Y-92532047D01*
X68319285Y-92532047D02*
X68319285Y-90832047D01*
X68481190Y-91074904D01*
X68643095Y-91236809D01*
X68805000Y-91317761D01*
X66781190Y-90832047D02*
X66619285Y-90832047D01*
X66457380Y-90913000D01*
X66376428Y-90993952D01*
X66295476Y-91155857D01*
X66214523Y-91479666D01*
X66214523Y-91884428D01*
X66295476Y-92208238D01*
X66376428Y-92370142D01*
X66457380Y-92451095D01*
X66619285Y-92532047D01*
X66781190Y-92532047D01*
X66943095Y-92451095D01*
X67024047Y-92370142D01*
X67105000Y-92208238D01*
X67185952Y-91884428D01*
X67185952Y-91479666D01*
X67105000Y-91155857D01*
X67024047Y-90993952D01*
X66943095Y-90913000D01*
X66781190Y-90832047D01*
X58605000Y-93098714D02*
X58605000Y-90670142D01*
X56095476Y-92532047D02*
X56095476Y-90832047D01*
X55447857Y-90832047D01*
X55285952Y-90913000D01*
X55205000Y-90993952D01*
X55124047Y-91155857D01*
X55124047Y-91398714D01*
X55205000Y-91560619D01*
X55285952Y-91641571D01*
X55447857Y-91722523D01*
X56095476Y-91722523D01*
X54395476Y-92532047D02*
X54395476Y-90832047D01*
X53990714Y-90832047D01*
X53747857Y-90913000D01*
X53585952Y-91074904D01*
X53505000Y-91236809D01*
X53424047Y-91560619D01*
X53424047Y-91803476D01*
X53505000Y-92127285D01*
X53585952Y-92289190D01*
X53747857Y-92451095D01*
X53990714Y-92532047D01*
X54395476Y-92532047D01*
X52776428Y-90993952D02*
X52695476Y-90913000D01*
X52533571Y-90832047D01*
X52128809Y-90832047D01*
X51966904Y-90913000D01*
X51885952Y-90993952D01*
X51805000Y-91155857D01*
X51805000Y-91317761D01*
X51885952Y-91560619D01*
X52857380Y-92532047D01*
X51805000Y-92532047D01*
X44195476Y-93098714D02*
X44195476Y-90670142D01*
X75200238Y-94621428D02*
X73905000Y-94621428D01*
X73095476Y-94621428D02*
X71800238Y-94621428D01*
X70990714Y-94621428D02*
X69695476Y-94621428D01*
X68885952Y-94621428D02*
X67590714Y-94621428D01*
X66781190Y-94621428D02*
X65485952Y-94621428D01*
X64676428Y-94621428D02*
X63381190Y-94621428D01*
X62571666Y-94621428D02*
X61276428Y-94621428D01*
X60466904Y-94621428D02*
X59171666Y-94621428D01*
X58362142Y-94621428D02*
X57066904Y-94621428D01*
X56257380Y-94621428D02*
X54962142Y-94621428D01*
X54152619Y-94621428D02*
X52857380Y-94621428D01*
X52047857Y-94621428D02*
X50752619Y-94621428D01*
X49943095Y-94621428D02*
X48647857Y-94621428D01*
X47838333Y-94621428D02*
X46543095Y-94621428D01*
X45733571Y-94621428D02*
X44438333Y-94621428D01*
X74795476Y-98572714D02*
X74795476Y-96144142D01*
X71962142Y-97196523D02*
X71962142Y-98006047D01*
X72528809Y-96306047D02*
X71962142Y-97196523D01*
X71395476Y-96306047D01*
X70828809Y-97358428D02*
X69533571Y-97358428D01*
X67833571Y-98006047D02*
X68805000Y-98006047D01*
X68319285Y-98006047D02*
X68319285Y-96306047D01*
X68481190Y-96548904D01*
X68643095Y-96710809D01*
X68805000Y-96791761D01*
X66781190Y-96306047D02*
X66619285Y-96306047D01*
X66457380Y-96387000D01*
X66376428Y-96467952D01*
X66295476Y-96629857D01*
X66214523Y-96953666D01*
X66214523Y-97358428D01*
X66295476Y-97682238D01*
X66376428Y-97844142D01*
X66457380Y-97925095D01*
X66619285Y-98006047D01*
X66781190Y-98006047D01*
X66943095Y-97925095D01*
X67024047Y-97844142D01*
X67105000Y-97682238D01*
X67185952Y-97358428D01*
X67185952Y-96953666D01*
X67105000Y-96629857D01*
X67024047Y-96467952D01*
X66943095Y-96387000D01*
X66781190Y-96306047D01*
X65162142Y-96306047D02*
X65000238Y-96306047D01*
X64838333Y-96387000D01*
X64757380Y-96467952D01*
X64676428Y-96629857D01*
X64595476Y-96953666D01*
X64595476Y-97358428D01*
X64676428Y-97682238D01*
X64757380Y-97844142D01*
X64838333Y-97925095D01*
X65000238Y-98006047D01*
X65162142Y-98006047D01*
X65324047Y-97925095D01*
X65405000Y-97844142D01*
X65485952Y-97682238D01*
X65566904Y-97358428D01*
X65566904Y-96953666D01*
X65485952Y-96629857D01*
X65405000Y-96467952D01*
X65324047Y-96387000D01*
X65162142Y-96306047D01*
X58281190Y-98572714D02*
X58281190Y-96144142D01*
X55771666Y-98006047D02*
X55771666Y-96306047D01*
X55124047Y-96306047D01*
X54962142Y-96387000D01*
X54881190Y-96467952D01*
X54800238Y-96629857D01*
X54800238Y-96872714D01*
X54881190Y-97034619D01*
X54962142Y-97115571D01*
X55124047Y-97196523D01*
X55771666Y-97196523D01*
X54071666Y-98006047D02*
X54071666Y-96306047D01*
X53666904Y-96306047D01*
X53424047Y-96387000D01*
X53262142Y-96548904D01*
X53181190Y-96710809D01*
X53100238Y-97034619D01*
X53100238Y-97277476D01*
X53181190Y-97601285D01*
X53262142Y-97763190D01*
X53424047Y-97925095D01*
X53666904Y-98006047D01*
X54071666Y-98006047D01*
X51481190Y-98006047D02*
X52452619Y-98006047D01*
X51966904Y-98006047D02*
X51966904Y-96306047D01*
X52128809Y-96548904D01*
X52290714Y-96710809D01*
X52452619Y-96791761D01*
X43871666Y-98572714D02*
X43871666Y-96144142D01*
X75200238Y-100095428D02*
X73905000Y-100095428D01*
X73095476Y-100095428D02*
X71800238Y-100095428D01*
X70990714Y-100095428D02*
X69695476Y-100095428D01*
X68885952Y-100095428D02*
X67590714Y-100095428D01*
X66781190Y-100095428D02*
X65485952Y-100095428D01*
X64676428Y-100095428D02*
X63381190Y-100095428D01*
X62571666Y-100095428D02*
X61276428Y-100095428D01*
X60466904Y-100095428D02*
X59171666Y-100095428D01*
X58362142Y-100095428D02*
X57066904Y-100095428D01*
X56257380Y-100095428D02*
X54962142Y-100095428D01*
X54152619Y-100095428D02*
X52857380Y-100095428D01*
X52047857Y-100095428D02*
X50752619Y-100095428D01*
X49943095Y-100095428D02*
X48647857Y-100095428D01*
X47838333Y-100095428D02*
X46543095Y-100095428D01*
X45733571Y-100095428D02*
X44438333Y-100095428D01*
X74795476Y-104046714D02*
X74795476Y-101618142D01*
X72447857Y-101780047D02*
X71314523Y-101780047D01*
X72447857Y-103480047D01*
X71314523Y-103480047D01*
X70666904Y-102832428D02*
X69371666Y-102832428D01*
X70019285Y-103480047D02*
X70019285Y-102184809D01*
X68238333Y-101780047D02*
X68076428Y-101780047D01*
X67914523Y-101861000D01*
X67833571Y-101941952D01*
X67752619Y-102103857D01*
X67671666Y-102427666D01*
X67671666Y-102832428D01*
X67752619Y-103156238D01*
X67833571Y-103318142D01*
X67914523Y-103399095D01*
X68076428Y-103480047D01*
X68238333Y-103480047D01*
X68400238Y-103399095D01*
X68481190Y-103318142D01*
X68562142Y-103156238D01*
X68643095Y-102832428D01*
X68643095Y-102427666D01*
X68562142Y-102103857D01*
X68481190Y-101941952D01*
X68400238Y-101861000D01*
X68238333Y-101780047D01*
X66943095Y-103318142D02*
X66862142Y-103399095D01*
X66943095Y-103480047D01*
X67024047Y-103399095D01*
X66943095Y-103318142D01*
X66943095Y-103480047D01*
X65243095Y-103480047D02*
X66214523Y-103480047D01*
X65728809Y-103480047D02*
X65728809Y-101780047D01*
X65890714Y-102022904D01*
X66052619Y-102184809D01*
X66214523Y-102265761D01*
X58928809Y-104046714D02*
X58928809Y-101618142D01*
X56419285Y-103480047D02*
X56419285Y-101780047D01*
X55771666Y-101780047D01*
X55609761Y-101861000D01*
X55528809Y-101941952D01*
X55447857Y-102103857D01*
X55447857Y-102346714D01*
X55528809Y-102508619D01*
X55609761Y-102589571D01*
X55771666Y-102670523D01*
X56419285Y-102670523D01*
X54152619Y-102589571D02*
X54719285Y-102589571D01*
X54719285Y-103480047D02*
X54719285Y-101780047D01*
X53909761Y-101780047D01*
X52938333Y-101780047D02*
X52776428Y-101780047D01*
X52614523Y-101861000D01*
X52533571Y-101941952D01*
X52452619Y-102103857D01*
X52371666Y-102427666D01*
X52371666Y-102832428D01*
X52452619Y-103156238D01*
X52533571Y-103318142D01*
X52614523Y-103399095D01*
X52776428Y-103480047D01*
X52938333Y-103480047D01*
X53100238Y-103399095D01*
X53181190Y-103318142D01*
X53262142Y-103156238D01*
X53343095Y-102832428D01*
X53343095Y-102427666D01*
X53262142Y-102103857D01*
X53181190Y-101941952D01*
X53100238Y-101861000D01*
X52938333Y-101780047D01*
X44762142Y-104046714D02*
X44762142Y-101618142D01*
X75200238Y-105569428D02*
X73905000Y-105569428D01*
X73095476Y-105569428D02*
X71800238Y-105569428D01*
X70990714Y-105569428D02*
X69695476Y-105569428D01*
X68885952Y-105569428D02*
X67590714Y-105569428D01*
X66781190Y-105569428D02*
X65485952Y-105569428D01*
X64676428Y-105569428D02*
X63381190Y-105569428D01*
X62571666Y-105569428D02*
X61276428Y-105569428D01*
X60466904Y-105569428D02*
X59171666Y-105569428D01*
X58362142Y-105569428D02*
X57066904Y-105569428D01*
X56257380Y-105569428D02*
X54962142Y-105569428D01*
X54152619Y-105569428D02*
X52857380Y-105569428D01*
X52047857Y-105569428D02*
X50752619Y-105569428D01*
X49943095Y-105569428D02*
X48647857Y-105569428D01*
X47838333Y-105569428D02*
X46543095Y-105569428D01*
X45733571Y-105569428D02*
X44438333Y-105569428D01*
X74795476Y-109520714D02*
X74795476Y-107092142D01*
X72447857Y-107254047D02*
X71314523Y-107254047D01*
X72447857Y-108954047D01*
X71314523Y-108954047D01*
X70666904Y-108306428D02*
X69371666Y-108306428D01*
X70019285Y-108954047D02*
X70019285Y-107658809D01*
X67671666Y-108954047D02*
X68643095Y-108954047D01*
X68157380Y-108954047D02*
X68157380Y-107254047D01*
X68319285Y-107496904D01*
X68481190Y-107658809D01*
X68643095Y-107739761D01*
X58766904Y-109520714D02*
X58766904Y-107092142D01*
X56257380Y-108954047D02*
X56257380Y-107254047D01*
X55609761Y-107254047D01*
X55447857Y-107335000D01*
X55366904Y-107415952D01*
X55285952Y-107577857D01*
X55285952Y-107820714D01*
X55366904Y-107982619D01*
X55447857Y-108063571D01*
X55609761Y-108144523D01*
X56257380Y-108144523D01*
X53990714Y-108063571D02*
X54557380Y-108063571D01*
X54557380Y-108954047D02*
X54557380Y-107254047D01*
X53747857Y-107254047D01*
X52209761Y-108954047D02*
X53181190Y-108954047D01*
X52695476Y-108954047D02*
X52695476Y-107254047D01*
X52857380Y-107496904D01*
X53019285Y-107658809D01*
X53181190Y-107739761D01*
X44600238Y-109520714D02*
X44600238Y-107092142D01*
X75200238Y-111043428D02*
X73905000Y-111043428D01*
X73095476Y-111043428D02*
X71800238Y-111043428D01*
X70990714Y-111043428D02*
X69695476Y-111043428D01*
X68885952Y-111043428D02*
X67590714Y-111043428D01*
X66781190Y-111043428D02*
X65485952Y-111043428D01*
X64676428Y-111043428D02*
X63381190Y-111043428D01*
X62571666Y-111043428D02*
X61276428Y-111043428D01*
X60466904Y-111043428D02*
X59171666Y-111043428D01*
X58362142Y-111043428D02*
X57066904Y-111043428D01*
X56257380Y-111043428D02*
X54962142Y-111043428D01*
X54152619Y-111043428D02*
X52857380Y-111043428D01*
X52047857Y-111043428D02*
X50752619Y-111043428D01*
X49943095Y-111043428D02*
X48647857Y-111043428D01*
X47838333Y-111043428D02*
X46543095Y-111043428D01*
X45733571Y-111043428D02*
X44438333Y-111043428D01*
X74795476Y-114994714D02*
X74795476Y-112566142D01*
X72447857Y-112728047D02*
X71314523Y-112728047D01*
X72447857Y-114428047D01*
X71314523Y-114428047D01*
X70666904Y-113780428D02*
X69371666Y-113780428D01*
X70019285Y-114428047D02*
X70019285Y-113132809D01*
X67671666Y-114428047D02*
X68643095Y-114428047D01*
X68157380Y-114428047D02*
X68157380Y-112728047D01*
X68319285Y-112970904D01*
X68481190Y-113132809D01*
X68643095Y-113213761D01*
X66619285Y-112728047D02*
X66457380Y-112728047D01*
X66295476Y-112809000D01*
X66214523Y-112889952D01*
X66133571Y-113051857D01*
X66052619Y-113375666D01*
X66052619Y-113780428D01*
X66133571Y-114104238D01*
X66214523Y-114266142D01*
X66295476Y-114347095D01*
X66457380Y-114428047D01*
X66619285Y-114428047D01*
X66781190Y-114347095D01*
X66862142Y-114266142D01*
X66943095Y-114104238D01*
X67024047Y-113780428D01*
X67024047Y-113375666D01*
X66943095Y-113051857D01*
X66862142Y-112889952D01*
X66781190Y-112809000D01*
X66619285Y-112728047D01*
X58443095Y-114994714D02*
X58443095Y-112566142D01*
X55933571Y-114428047D02*
X55933571Y-112728047D01*
X55285952Y-112728047D01*
X55124047Y-112809000D01*
X55043095Y-112889952D01*
X54962142Y-113051857D01*
X54962142Y-113294714D01*
X55043095Y-113456619D01*
X55124047Y-113537571D01*
X55285952Y-113618523D01*
X55933571Y-113618523D01*
X53666904Y-113537571D02*
X54233571Y-113537571D01*
X54233571Y-114428047D02*
X54233571Y-112728047D01*
X53424047Y-112728047D01*
X52047857Y-113294714D02*
X52047857Y-114428047D01*
X52452619Y-112647095D02*
X52857380Y-113861380D01*
X51804999Y-113861380D01*
X44276428Y-114994714D02*
X44276428Y-112566142D01*
X75200238Y-116517428D02*
X73905000Y-116517428D01*
X73095476Y-116517428D02*
X71800238Y-116517428D01*
X70990714Y-116517428D02*
X69695476Y-116517428D01*
X68885952Y-116517428D02*
X67590714Y-116517428D01*
X66781190Y-116517428D02*
X65485952Y-116517428D01*
X64676428Y-116517428D02*
X63381190Y-116517428D01*
X62571666Y-116517428D02*
X61276428Y-116517428D01*
X60466904Y-116517428D02*
X59171666Y-116517428D01*
X58362142Y-116517428D02*
X57066904Y-116517428D01*
X56257380Y-116517428D02*
X54962142Y-116517428D01*
X54152619Y-116517428D02*
X52857380Y-116517428D01*
X52047857Y-116517428D02*
X50752619Y-116517428D01*
X49943095Y-116517428D02*
X48647857Y-116517428D01*
X47838333Y-116517428D02*
X46543095Y-116517428D01*
X45733571Y-116517428D02*
X44438333Y-116517428D01*
X74795476Y-120468714D02*
X74795476Y-118040142D01*
X72447857Y-118202047D02*
X71314523Y-118202047D01*
X72447857Y-119902047D01*
X71314523Y-119902047D01*
X70666904Y-119254428D02*
X69371666Y-119254428D01*
X68238333Y-118202047D02*
X68076428Y-118202047D01*
X67914523Y-118283000D01*
X67833571Y-118363952D01*
X67752619Y-118525857D01*
X67671666Y-118849666D01*
X67671666Y-119254428D01*
X67752619Y-119578238D01*
X67833571Y-119740142D01*
X67914523Y-119821095D01*
X68076428Y-119902047D01*
X68238333Y-119902047D01*
X68400238Y-119821095D01*
X68481190Y-119740142D01*
X68562142Y-119578238D01*
X68643095Y-119254428D01*
X68643095Y-118849666D01*
X68562142Y-118525857D01*
X68481190Y-118363952D01*
X68400238Y-118283000D01*
X68238333Y-118202047D01*
X66943095Y-119740142D02*
X66862142Y-119821095D01*
X66943095Y-119902047D01*
X67024047Y-119821095D01*
X66943095Y-119740142D01*
X66943095Y-119902047D01*
X65243095Y-119902047D02*
X66214523Y-119902047D01*
X65728809Y-119902047D02*
X65728809Y-118202047D01*
X65890714Y-118444904D01*
X66052619Y-118606809D01*
X66214523Y-118687761D01*
X58928809Y-120468714D02*
X58928809Y-118040142D01*
X56419285Y-119902047D02*
X56419285Y-118202047D01*
X55771666Y-118202047D01*
X55609761Y-118283000D01*
X55528809Y-118363952D01*
X55447857Y-118525857D01*
X55447857Y-118768714D01*
X55528809Y-118930619D01*
X55609761Y-119011571D01*
X55771666Y-119092523D01*
X56419285Y-119092523D01*
X54719285Y-119011571D02*
X54152619Y-119011571D01*
X53909761Y-119902047D02*
X54719285Y-119902047D01*
X54719285Y-118202047D01*
X53909761Y-118202047D01*
X52452619Y-118202047D02*
X52776428Y-118202047D01*
X52938333Y-118283000D01*
X53019285Y-118363952D01*
X53181190Y-118606809D01*
X53262142Y-118930619D01*
X53262142Y-119578238D01*
X53181190Y-119740142D01*
X53100238Y-119821095D01*
X52938333Y-119902047D01*
X52614523Y-119902047D01*
X52452619Y-119821095D01*
X52371666Y-119740142D01*
X52290714Y-119578238D01*
X52290714Y-119173476D01*
X52371666Y-119011571D01*
X52452619Y-118930619D01*
X52614523Y-118849666D01*
X52938333Y-118849666D01*
X53100238Y-118930619D01*
X53181190Y-119011571D01*
X53262142Y-119173476D01*
X44681190Y-120468714D02*
X44681190Y-118040142D01*
X75200238Y-121991428D02*
X73905000Y-121991428D01*
X73095476Y-121991428D02*
X71800238Y-121991428D01*
X70990714Y-121991428D02*
X69695476Y-121991428D01*
X68885952Y-121991428D02*
X67590714Y-121991428D01*
X66781190Y-121991428D02*
X65485952Y-121991428D01*
X64676428Y-121991428D02*
X63381190Y-121991428D01*
X62571666Y-121991428D02*
X61276428Y-121991428D01*
X60466904Y-121991428D02*
X59171666Y-121991428D01*
X58362142Y-121991428D02*
X57066904Y-121991428D01*
X56257380Y-121991428D02*
X54962142Y-121991428D01*
X54152619Y-121991428D02*
X52857380Y-121991428D01*
X52047857Y-121991428D02*
X50752619Y-121991428D01*
X49943095Y-121991428D02*
X48647857Y-121991428D01*
X47838333Y-121991428D02*
X46543095Y-121991428D01*
X45733571Y-121991428D02*
X44438333Y-121991428D01*
X74795476Y-125942714D02*
X74795476Y-123514142D01*
X72447857Y-123676047D02*
X71314523Y-123676047D01*
X72447857Y-125376047D01*
X71314523Y-125376047D01*
X70666904Y-124728428D02*
X69371666Y-124728428D01*
X67671666Y-125376047D02*
X68643095Y-125376047D01*
X68157380Y-125376047D02*
X68157380Y-123676047D01*
X68319285Y-123918904D01*
X68481190Y-124080809D01*
X68643095Y-124161761D01*
X58766904Y-125942714D02*
X58766904Y-123514142D01*
X56257380Y-125376047D02*
X56257380Y-123676047D01*
X55609761Y-123676047D01*
X55447857Y-123757000D01*
X55366904Y-123837952D01*
X55285952Y-123999857D01*
X55285952Y-124242714D01*
X55366904Y-124404619D01*
X55447857Y-124485571D01*
X55609761Y-124566523D01*
X56257380Y-124566523D01*
X53990714Y-124485571D02*
X53747857Y-124566523D01*
X53666904Y-124647476D01*
X53585952Y-124809380D01*
X53585952Y-125052238D01*
X53666904Y-125214142D01*
X53747857Y-125295095D01*
X53909761Y-125376047D01*
X54557380Y-125376047D01*
X54557380Y-123676047D01*
X53990714Y-123676047D01*
X53828809Y-123757000D01*
X53747857Y-123837952D01*
X53666904Y-123999857D01*
X53666904Y-124161761D01*
X53747857Y-124323666D01*
X53828809Y-124404619D01*
X53990714Y-124485571D01*
X54557380Y-124485571D01*
X52533571Y-123676047D02*
X52371666Y-123676047D01*
X52209761Y-123757000D01*
X52128809Y-123837952D01*
X52047857Y-123999857D01*
X51966904Y-124323666D01*
X51966904Y-124728428D01*
X52047857Y-125052238D01*
X52128809Y-125214142D01*
X52209761Y-125295095D01*
X52371666Y-125376047D01*
X52533571Y-125376047D01*
X52695476Y-125295095D01*
X52776428Y-125214142D01*
X52857380Y-125052238D01*
X52938333Y-124728428D01*
X52938333Y-124323666D01*
X52857380Y-123999857D01*
X52776428Y-123837952D01*
X52695476Y-123757000D01*
X52533571Y-123676047D01*
X44357380Y-125942714D02*
X44357380Y-123514142D01*
X75200238Y-127465428D02*
X73905000Y-127465428D01*
X73095476Y-127465428D02*
X71800238Y-127465428D01*
X70990714Y-127465428D02*
X69695476Y-127465428D01*
X68885952Y-127465428D02*
X67590714Y-127465428D01*
X66781190Y-127465428D02*
X65485952Y-127465428D01*
X64676428Y-127465428D02*
X63381190Y-127465428D01*
X62571666Y-127465428D02*
X61276428Y-127465428D01*
X60466904Y-127465428D02*
X59171666Y-127465428D01*
X58362142Y-127465428D02*
X57066904Y-127465428D01*
X56257380Y-127465428D02*
X54962142Y-127465428D01*
X54152619Y-127465428D02*
X52857380Y-127465428D01*
X52047857Y-127465428D02*
X50752619Y-127465428D01*
X49943095Y-127465428D02*
X48647857Y-127465428D01*
X47838333Y-127465428D02*
X46543095Y-127465428D01*
X45733571Y-127465428D02*
X44438333Y-127465428D01*
X74795476Y-131416714D02*
X74795476Y-128988142D01*
X72447857Y-129150047D02*
X71314523Y-129150047D01*
X72447857Y-130850047D01*
X71314523Y-130850047D01*
X70666904Y-130202428D02*
X69371666Y-130202428D01*
X67671666Y-130850047D02*
X68643095Y-130850047D01*
X68157380Y-130850047D02*
X68157380Y-129150047D01*
X68319285Y-129392904D01*
X68481190Y-129554809D01*
X68643095Y-129635761D01*
X66619285Y-129150047D02*
X66457380Y-129150047D01*
X66295476Y-129231000D01*
X66214523Y-129311952D01*
X66133571Y-129473857D01*
X66052619Y-129797666D01*
X66052619Y-130202428D01*
X66133571Y-130526238D01*
X66214523Y-130688142D01*
X66295476Y-130769095D01*
X66457380Y-130850047D01*
X66619285Y-130850047D01*
X66781190Y-130769095D01*
X66862142Y-130688142D01*
X66943095Y-130526238D01*
X67024047Y-130202428D01*
X67024047Y-129797666D01*
X66943095Y-129473857D01*
X66862142Y-129311952D01*
X66781190Y-129231000D01*
X66619285Y-129150047D01*
X58443095Y-131416714D02*
X58443095Y-128988142D01*
X55933571Y-130850047D02*
X55933571Y-129150047D01*
X55285952Y-129150047D01*
X55124047Y-129231000D01*
X55043095Y-129311952D01*
X54962142Y-129473857D01*
X54962142Y-129716714D01*
X55043095Y-129878619D01*
X55124047Y-129959571D01*
X55285952Y-130040523D01*
X55933571Y-130040523D01*
X53666904Y-129959571D02*
X53424047Y-130040523D01*
X53343095Y-130121476D01*
X53262142Y-130283380D01*
X53262142Y-130526238D01*
X53343095Y-130688142D01*
X53424047Y-130769095D01*
X53585952Y-130850047D01*
X54233571Y-130850047D01*
X54233571Y-129150047D01*
X53666904Y-129150047D01*
X53505000Y-129231000D01*
X53424047Y-129311952D01*
X53343095Y-129473857D01*
X53343095Y-129635761D01*
X53424047Y-129797666D01*
X53505000Y-129878619D01*
X53666904Y-129959571D01*
X54233571Y-129959571D01*
X51643095Y-130850047D02*
X52614523Y-130850047D01*
X52128809Y-130850047D02*
X52128809Y-129150047D01*
X52290714Y-129392904D01*
X52452619Y-129554809D01*
X52614523Y-129635761D01*
X44033571Y-131416714D02*
X44033571Y-128988142D01*
X75200238Y-132939428D02*
X73905000Y-132939428D01*
X73095476Y-132939428D02*
X71800238Y-132939428D01*
X70990714Y-132939428D02*
X69695476Y-132939428D01*
X68885952Y-132939428D02*
X67590714Y-132939428D01*
X66781190Y-132939428D02*
X65485952Y-132939428D01*
X64676428Y-132939428D02*
X63381190Y-132939428D01*
X62571666Y-132939428D02*
X61276428Y-132939428D01*
X60466904Y-132939428D02*
X59171666Y-132939428D01*
X58362142Y-132939428D02*
X57066904Y-132939428D01*
X56257380Y-132939428D02*
X54962142Y-132939428D01*
X54152619Y-132939428D02*
X52857380Y-132939428D01*
X52047857Y-132939428D02*
X50752619Y-132939428D01*
X49943095Y-132939428D02*
X48647857Y-132939428D01*
X47838333Y-132939428D02*
X46543095Y-132939428D01*
X45733571Y-132939428D02*
X44438333Y-132939428D01*
X74795476Y-136890714D02*
X74795476Y-134462142D01*
X72285952Y-136324047D02*
X72285952Y-134624047D01*
X72285952Y-135433571D02*
X71314523Y-135433571D01*
X71314523Y-136324047D02*
X71314523Y-134624047D01*
X70181190Y-134624047D02*
X69857380Y-134624047D01*
X69695476Y-134705000D01*
X69533571Y-134866904D01*
X69452619Y-135190714D01*
X69452619Y-135757380D01*
X69533571Y-136081190D01*
X69695476Y-136243095D01*
X69857380Y-136324047D01*
X70181190Y-136324047D01*
X70343095Y-136243095D01*
X70505000Y-136081190D01*
X70585952Y-135757380D01*
X70585952Y-135190714D01*
X70505000Y-134866904D01*
X70343095Y-134705000D01*
X70181190Y-134624047D01*
X68724047Y-136324047D02*
X68724047Y-134624047D01*
X68157380Y-135838333D01*
X67590714Y-134624047D01*
X67590714Y-136324047D01*
X66781190Y-135433571D02*
X66214523Y-135433571D01*
X65971666Y-136324047D02*
X66781190Y-136324047D01*
X66781190Y-134624047D01*
X65971666Y-134624047D01*
X58362142Y-136890714D02*
X58362142Y-134462142D01*
X55852619Y-136324047D02*
X55852619Y-134624047D01*
X55204999Y-134624047D01*
X55043095Y-134705000D01*
X54962142Y-134785952D01*
X54881190Y-134947857D01*
X54881190Y-135190714D01*
X54962142Y-135352619D01*
X55043095Y-135433571D01*
X55204999Y-135514523D01*
X55852619Y-135514523D01*
X54152619Y-136324047D02*
X54152619Y-134624047D01*
X53747857Y-134624047D01*
X53504999Y-134705000D01*
X53343095Y-134866904D01*
X53262142Y-135028809D01*
X53181190Y-135352619D01*
X53181190Y-135595476D01*
X53262142Y-135919285D01*
X53343095Y-136081190D01*
X53504999Y-136243095D01*
X53747857Y-136324047D01*
X54152619Y-136324047D01*
X51643095Y-134624047D02*
X52452619Y-134624047D01*
X52533571Y-135433571D01*
X52452619Y-135352619D01*
X52290714Y-135271666D01*
X51885952Y-135271666D01*
X51724047Y-135352619D01*
X51643095Y-135433571D01*
X51562142Y-135595476D01*
X51562142Y-136000238D01*
X51643095Y-136162142D01*
X51724047Y-136243095D01*
X51885952Y-136324047D01*
X52290714Y-136324047D01*
X52452619Y-136243095D01*
X52533571Y-136162142D01*
X43952619Y-136890714D02*
X43952619Y-134462142D01*
X75200238Y-138413428D02*
X73905000Y-138413428D01*
X73095476Y-138413428D02*
X71800238Y-138413428D01*
X70990714Y-138413428D02*
X69695476Y-138413428D01*
X68885952Y-138413428D02*
X67590714Y-138413428D01*
X66781190Y-138413428D02*
X65485952Y-138413428D01*
X64676428Y-138413428D02*
X63381190Y-138413428D01*
X62571666Y-138413428D02*
X61276428Y-138413428D01*
X60466904Y-138413428D02*
X59171666Y-138413428D01*
X58362142Y-138413428D02*
X57066904Y-138413428D01*
X56257380Y-138413428D02*
X54962142Y-138413428D01*
X54152619Y-138413428D02*
X52857380Y-138413428D01*
X52047857Y-138413428D02*
X50752619Y-138413428D01*
X49943095Y-138413428D02*
X48647857Y-138413428D01*
X47838333Y-138413428D02*
X46543095Y-138413428D01*
X45733571Y-138413428D02*
X44438333Y-138413428D01*
X74795476Y-142364714D02*
X74795476Y-139936142D01*
X72285952Y-141798047D02*
X72285952Y-140098047D01*
X72285952Y-140907571D02*
X71314523Y-140907571D01*
X71314523Y-141798047D02*
X71314523Y-140098047D01*
X70181190Y-140098047D02*
X69857380Y-140098047D01*
X69695476Y-140179000D01*
X69533571Y-140340904D01*
X69452619Y-140664714D01*
X69452619Y-141231380D01*
X69533571Y-141555190D01*
X69695476Y-141717095D01*
X69857380Y-141798047D01*
X70181190Y-141798047D01*
X70343095Y-141717095D01*
X70505000Y-141555190D01*
X70585952Y-141231380D01*
X70585952Y-140664714D01*
X70505000Y-140340904D01*
X70343095Y-140179000D01*
X70181190Y-140098047D01*
X68724047Y-141798047D02*
X68724047Y-140098047D01*
X68157380Y-141312333D01*
X67590714Y-140098047D01*
X67590714Y-141798047D01*
X66781190Y-140907571D02*
X66214523Y-140907571D01*
X65971666Y-141798047D02*
X66781190Y-141798047D01*
X66781190Y-140098047D01*
X65971666Y-140098047D01*
X64109761Y-140098047D02*
X62976428Y-141798047D01*
X62976428Y-140098047D02*
X64109761Y-141798047D01*
X58038333Y-142364714D02*
X58038333Y-139936142D01*
X55528809Y-141798047D02*
X55528809Y-140098047D01*
X54881190Y-140098047D01*
X54719285Y-140179000D01*
X54638333Y-140259952D01*
X54557380Y-140421857D01*
X54557380Y-140664714D01*
X54638333Y-140826619D01*
X54719285Y-140907571D01*
X54881190Y-140988523D01*
X55528809Y-140988523D01*
X52857380Y-141636142D02*
X52938333Y-141717095D01*
X53181190Y-141798047D01*
X53343095Y-141798047D01*
X53585952Y-141717095D01*
X53747857Y-141555190D01*
X53828809Y-141393285D01*
X53909761Y-141069476D01*
X53909761Y-140826619D01*
X53828809Y-140502809D01*
X53747857Y-140340904D01*
X53585952Y-140179000D01*
X53343095Y-140098047D01*
X53181190Y-140098047D01*
X52938333Y-140179000D01*
X52857380Y-140259952D01*
X51400238Y-140098047D02*
X51724047Y-140098047D01*
X51885952Y-140179000D01*
X51966904Y-140259952D01*
X52128809Y-140502809D01*
X52209761Y-140826619D01*
X52209761Y-141474238D01*
X52128809Y-141636142D01*
X52047857Y-141717095D01*
X51885952Y-141798047D01*
X51562142Y-141798047D01*
X51400238Y-141717095D01*
X51319285Y-141636142D01*
X51238333Y-141474238D01*
X51238333Y-141069476D01*
X51319285Y-140907571D01*
X51400238Y-140826619D01*
X51562142Y-140745666D01*
X51885952Y-140745666D01*
X52047857Y-140826619D01*
X52128809Y-140907571D01*
X52209761Y-141069476D01*
X43628809Y-142364714D02*
X43628809Y-139936142D01*
X75200238Y-143887428D02*
X73905000Y-143887428D01*
X73095476Y-143887428D02*
X71800238Y-143887428D01*
X70990714Y-143887428D02*
X69695476Y-143887428D01*
X68885952Y-143887428D02*
X67590714Y-143887428D01*
X66781190Y-143887428D02*
X65485952Y-143887428D01*
X64676428Y-143887428D02*
X63381190Y-143887428D01*
X62571666Y-143887428D02*
X61276428Y-143887428D01*
X60466904Y-143887428D02*
X59171666Y-143887428D01*
X58362142Y-143887428D02*
X57066904Y-143887428D01*
X56257380Y-143887428D02*
X54962142Y-143887428D01*
X54152619Y-143887428D02*
X52857380Y-143887428D01*
X52047857Y-143887428D02*
X50752619Y-143887428D01*
X49943095Y-143887428D02*
X48647857Y-143887428D01*
X47838333Y-143887428D02*
X46543095Y-143887428D01*
X45733571Y-143887428D02*
X44438333Y-143887428D01*
X74795476Y-147838714D02*
X74795476Y-145410142D01*
X72285952Y-147272047D02*
X72285952Y-145572047D01*
X72285952Y-146381571D02*
X71314523Y-146381571D01*
X71314523Y-147272047D02*
X71314523Y-145572047D01*
X70181190Y-145572047D02*
X69857380Y-145572047D01*
X69695476Y-145653000D01*
X69533571Y-145814904D01*
X69452619Y-146138714D01*
X69452619Y-146705380D01*
X69533571Y-147029190D01*
X69695476Y-147191095D01*
X69857380Y-147272047D01*
X70181190Y-147272047D01*
X70343095Y-147191095D01*
X70505000Y-147029190D01*
X70585952Y-146705380D01*
X70585952Y-146138714D01*
X70505000Y-145814904D01*
X70343095Y-145653000D01*
X70181190Y-145572047D01*
X68724047Y-147272047D02*
X68724047Y-145572047D01*
X68157380Y-146786333D01*
X67590714Y-145572047D01*
X67590714Y-147272047D01*
X66781190Y-146381571D02*
X66214523Y-146381571D01*
X65971666Y-147272047D02*
X66781190Y-147272047D01*
X66781190Y-145572047D01*
X65971666Y-145572047D01*
X63624047Y-146462523D02*
X63624047Y-147272047D01*
X64190714Y-145572047D02*
X63624047Y-146462523D01*
X63057380Y-145572047D01*
X58200238Y-147838714D02*
X58200238Y-145410142D01*
X55690714Y-147272047D02*
X55690714Y-145572047D01*
X55043095Y-145572047D01*
X54881190Y-145653000D01*
X54800238Y-145733952D01*
X54719285Y-145895857D01*
X54719285Y-146138714D01*
X54800238Y-146300619D01*
X54881190Y-146381571D01*
X55043095Y-146462523D01*
X55690714Y-146462523D01*
X53424047Y-146381571D02*
X53181190Y-146462523D01*
X53100238Y-146543476D01*
X53019285Y-146705380D01*
X53019285Y-146948238D01*
X53100238Y-147110142D01*
X53181190Y-147191095D01*
X53343095Y-147272047D01*
X53990714Y-147272047D01*
X53990714Y-145572047D01*
X53424047Y-145572047D01*
X53262142Y-145653000D01*
X53181190Y-145733952D01*
X53100238Y-145895857D01*
X53100238Y-146057761D01*
X53181190Y-146219666D01*
X53262142Y-146300619D01*
X53424047Y-146381571D01*
X53990714Y-146381571D01*
X52452619Y-145572047D02*
X51400238Y-145572047D01*
X51966904Y-146219666D01*
X51724047Y-146219666D01*
X51562142Y-146300619D01*
X51481190Y-146381571D01*
X51400238Y-146543476D01*
X51400238Y-146948238D01*
X51481190Y-147110142D01*
X51562142Y-147191095D01*
X51724047Y-147272047D01*
X52209761Y-147272047D01*
X52371666Y-147191095D01*
X52452619Y-147110142D01*
X43790714Y-147838714D02*
X43790714Y-145410142D01*
X75200238Y-149361428D02*
X73905000Y-149361428D01*
X73095476Y-149361428D02*
X71800238Y-149361428D01*
X70990714Y-149361428D02*
X69695476Y-149361428D01*
X68885952Y-149361428D02*
X67590714Y-149361428D01*
X66781190Y-149361428D02*
X65485952Y-149361428D01*
X64676428Y-149361428D02*
X63381190Y-149361428D01*
X62571666Y-149361428D02*
X61276428Y-149361428D01*
X60466904Y-149361428D02*
X59171666Y-149361428D01*
X58362142Y-149361428D02*
X57066904Y-149361428D01*
X56257380Y-149361428D02*
X54962142Y-149361428D01*
X54152619Y-149361428D02*
X52857380Y-149361428D01*
X52047857Y-149361428D02*
X50752619Y-149361428D01*
X49943095Y-149361428D02*
X48647857Y-149361428D01*
X47838333Y-149361428D02*
X46543095Y-149361428D01*
X45733571Y-149361428D02*
X44438333Y-149361428D01*
X74795476Y-153312714D02*
X74795476Y-150884142D01*
X72285952Y-152746047D02*
X72285952Y-151046047D01*
X72285952Y-151855571D02*
X71314523Y-151855571D01*
X71314523Y-152746047D02*
X71314523Y-151046047D01*
X70181190Y-151046047D02*
X69857380Y-151046047D01*
X69695476Y-151127000D01*
X69533571Y-151288904D01*
X69452619Y-151612714D01*
X69452619Y-152179380D01*
X69533571Y-152503190D01*
X69695476Y-152665095D01*
X69857380Y-152746047D01*
X70181190Y-152746047D01*
X70343095Y-152665095D01*
X70505000Y-152503190D01*
X70585952Y-152179380D01*
X70585952Y-151612714D01*
X70505000Y-151288904D01*
X70343095Y-151127000D01*
X70181190Y-151046047D01*
X68724047Y-152746047D02*
X68724047Y-151046047D01*
X68157380Y-152260333D01*
X67590714Y-151046047D01*
X67590714Y-152746047D01*
X66781190Y-151855571D02*
X66214523Y-151855571D01*
X65971666Y-152746047D02*
X66781190Y-152746047D01*
X66781190Y-151046047D01*
X65971666Y-151046047D01*
X64109761Y-151046047D02*
X62976428Y-152746047D01*
X62976428Y-151046047D02*
X64109761Y-152746047D01*
X62005000Y-151936523D02*
X62005000Y-152746047D01*
X62571666Y-151046047D02*
X62005000Y-151936523D01*
X61438333Y-151046047D01*
X57876428Y-153312714D02*
X57876428Y-150884142D01*
X55366904Y-152746047D02*
X55366904Y-151046047D01*
X54719285Y-151046047D01*
X54557380Y-151127000D01*
X54476428Y-151207952D01*
X54395476Y-151369857D01*
X54395476Y-151612714D01*
X54476428Y-151774619D01*
X54557380Y-151855571D01*
X54719285Y-151936523D01*
X55366904Y-151936523D01*
X53666904Y-152746047D02*
X53666904Y-151046047D01*
X53262142Y-151046047D01*
X53019285Y-151127000D01*
X52857380Y-151288904D01*
X52776428Y-151450809D01*
X52695476Y-151774619D01*
X52695476Y-152017476D01*
X52776428Y-152341285D01*
X52857380Y-152503190D01*
X53019285Y-152665095D01*
X53262142Y-152746047D01*
X53666904Y-152746047D01*
X51238333Y-151612714D02*
X51238333Y-152746047D01*
X51643095Y-150965095D02*
X52047857Y-152179380D01*
X50995476Y-152179380D01*
X43466904Y-153312714D02*
X43466904Y-150884142D01*
X75200238Y-154835428D02*
X73905000Y-154835428D01*
X73095476Y-154835428D02*
X71800238Y-154835428D01*
X70990714Y-154835428D02*
X69695476Y-154835428D01*
X68885952Y-154835428D02*
X67590714Y-154835428D01*
X66781190Y-154835428D02*
X65485952Y-154835428D01*
X64676428Y-154835428D02*
X63381190Y-154835428D01*
X62571666Y-154835428D02*
X61276428Y-154835428D01*
X60466904Y-154835428D02*
X59171666Y-154835428D01*
X58362142Y-154835428D02*
X57066904Y-154835428D01*
X56257380Y-154835428D02*
X54962142Y-154835428D01*
X54152619Y-154835428D02*
X52857380Y-154835428D01*
X52047857Y-154835428D02*
X50752619Y-154835428D01*
X49943095Y-154835428D02*
X48647857Y-154835428D01*
X47838333Y-154835428D02*
X46543095Y-154835428D01*
X45733571Y-154835428D02*
X44438333Y-154835428D01*
X74795476Y-158786714D02*
X74795476Y-156358142D01*
X72285952Y-158220047D02*
X72285952Y-156520047D01*
X72285952Y-157329571D02*
X71314523Y-157329571D01*
X71314523Y-158220047D02*
X71314523Y-156520047D01*
X70181190Y-156520047D02*
X69857380Y-156520047D01*
X69695476Y-156601000D01*
X69533571Y-156762904D01*
X69452619Y-157086714D01*
X69452619Y-157653380D01*
X69533571Y-157977190D01*
X69695476Y-158139095D01*
X69857380Y-158220047D01*
X70181190Y-158220047D01*
X70343095Y-158139095D01*
X70505000Y-157977190D01*
X70585952Y-157653380D01*
X70585952Y-157086714D01*
X70505000Y-156762904D01*
X70343095Y-156601000D01*
X70181190Y-156520047D01*
X68724047Y-158220047D02*
X68724047Y-156520047D01*
X68157380Y-157734333D01*
X67590714Y-156520047D01*
X67590714Y-158220047D01*
X66781190Y-157329571D02*
X66214523Y-157329571D01*
X65971666Y-158220047D02*
X66781190Y-158220047D01*
X66781190Y-156520047D01*
X65971666Y-156520047D01*
X64109761Y-156520047D02*
X62976428Y-156520047D01*
X64109761Y-158220047D01*
X62976428Y-158220047D01*
X58038333Y-158786714D02*
X58038333Y-156358142D01*
X55528809Y-158220047D02*
X55528809Y-156520047D01*
X54881190Y-156520047D01*
X54719285Y-156601000D01*
X54638333Y-156681952D01*
X54557380Y-156843857D01*
X54557380Y-157086714D01*
X54638333Y-157248619D01*
X54719285Y-157329571D01*
X54881190Y-157410523D01*
X55528809Y-157410523D01*
X53262142Y-157329571D02*
X53828809Y-157329571D01*
X53828809Y-158220047D02*
X53828809Y-156520047D01*
X53019285Y-156520047D01*
X51562142Y-156520047D02*
X52371666Y-156520047D01*
X52452619Y-157329571D01*
X52371666Y-157248619D01*
X52209761Y-157167666D01*
X51805000Y-157167666D01*
X51643095Y-157248619D01*
X51562142Y-157329571D01*
X51481190Y-157491476D01*
X51481190Y-157896238D01*
X51562142Y-158058142D01*
X51643095Y-158139095D01*
X51805000Y-158220047D01*
X52209761Y-158220047D01*
X52371666Y-158139095D01*
X52452619Y-158058142D01*
X43871666Y-158786714D02*
X43871666Y-156358142D01*
X75200238Y-160309428D02*
X73905000Y-160309428D01*
X73095476Y-160309428D02*
X71800238Y-160309428D01*
X70990714Y-160309428D02*
X69695476Y-160309428D01*
X68885952Y-160309428D02*
X67590714Y-160309428D01*
X66781190Y-160309428D02*
X65485952Y-160309428D01*
X64676428Y-160309428D02*
X63381190Y-160309428D01*
X62571666Y-160309428D02*
X61276428Y-160309428D01*
X60466904Y-160309428D02*
X59171666Y-160309428D01*
X58362142Y-160309428D02*
X57066904Y-160309428D01*
X56257380Y-160309428D02*
X54962142Y-160309428D01*
X54152619Y-160309428D02*
X52857380Y-160309428D01*
X52047857Y-160309428D02*
X50752619Y-160309428D01*
X49943095Y-160309428D02*
X48647857Y-160309428D01*
X47838333Y-160309428D02*
X46543095Y-160309428D01*
X45733571Y-160309428D02*
X44438333Y-160309428D01*
X151195000Y-63058571D02*
X151195000Y-61558571D01*
X150837857Y-61558571D01*
X150623571Y-61630000D01*
X150480714Y-61772857D01*
X150409285Y-61915714D01*
X150337857Y-62201428D01*
X150337857Y-62415714D01*
X150409285Y-62701428D01*
X150480714Y-62844285D01*
X150623571Y-62987142D01*
X150837857Y-63058571D01*
X151195000Y-63058571D01*
X149695000Y-62487142D02*
X148552142Y-62487142D01*
X149123571Y-63058571D02*
X149123571Y-61915714D01*
D11*
X119616190Y-37557142D02*
X119663809Y-37604761D01*
X119806666Y-37652380D01*
X119901904Y-37652380D01*
X120044761Y-37604761D01*
X120140000Y-37509523D01*
X120187619Y-37414285D01*
X120235238Y-37223809D01*
X120235238Y-37080952D01*
X120187619Y-36890476D01*
X120140000Y-36795238D01*
X120044761Y-36700000D01*
X119901904Y-36652380D01*
X119806666Y-36652380D01*
X119663809Y-36700000D01*
X119616190Y-36747619D01*
X119187619Y-37652380D02*
X119187619Y-36652380D01*
X118759047Y-37652380D02*
X118759047Y-37128571D01*
X118806666Y-37033333D01*
X118901904Y-36985714D01*
X119044761Y-36985714D01*
X119140000Y-37033333D01*
X119187619Y-37080952D01*
X118140000Y-37652380D02*
X118235238Y-37604761D01*
X118282857Y-37557142D01*
X118330476Y-37461904D01*
X118330476Y-37176190D01*
X118282857Y-37080952D01*
X118235238Y-37033333D01*
X118140000Y-36985714D01*
X117997142Y-36985714D01*
X117901904Y-37033333D01*
X117854285Y-37080952D01*
X117806666Y-37176190D01*
X117806666Y-37461904D01*
X117854285Y-37557142D01*
X117901904Y-37604761D01*
X117997142Y-37652380D01*
X118140000Y-37652380D01*
X117235238Y-37652380D02*
X117330476Y-37604761D01*
X117378095Y-37557142D01*
X117425714Y-37461904D01*
X117425714Y-37176190D01*
X117378095Y-37080952D01*
X117330476Y-37033333D01*
X117235238Y-36985714D01*
X117092380Y-36985714D01*
X116997142Y-37033333D01*
X116949523Y-37080952D01*
X116901904Y-37176190D01*
X116901904Y-37461904D01*
X116949523Y-37557142D01*
X116997142Y-37604761D01*
X117092380Y-37652380D01*
X117235238Y-37652380D01*
X116520952Y-37604761D02*
X116425714Y-37652380D01*
X116235238Y-37652380D01*
X116140000Y-37604761D01*
X116092380Y-37509523D01*
X116092380Y-37461904D01*
X116140000Y-37366666D01*
X116235238Y-37319047D01*
X116378095Y-37319047D01*
X116473333Y-37271428D01*
X116520952Y-37176190D01*
X116520952Y-37128571D01*
X116473333Y-37033333D01*
X116378095Y-36985714D01*
X116235238Y-36985714D01*
X116140000Y-37033333D01*
X115282857Y-37604761D02*
X115378095Y-37652380D01*
X115568571Y-37652380D01*
X115663809Y-37604761D01*
X115711428Y-37509523D01*
X115711428Y-37128571D01*
X115663809Y-37033333D01*
X115568571Y-36985714D01*
X115378095Y-36985714D01*
X115282857Y-37033333D01*
X115235238Y-37128571D01*
X115235238Y-37223809D01*
X115711428Y-37319047D01*
X114187619Y-36985714D02*
X113806666Y-36985714D01*
X114044761Y-36652380D02*
X114044761Y-37509523D01*
X113997142Y-37604761D01*
X113901904Y-37652380D01*
X113806666Y-37652380D01*
X113473333Y-37652380D02*
X113473333Y-36652380D01*
X113044761Y-37652380D02*
X113044761Y-37128571D01*
X113092380Y-37033333D01*
X113187619Y-36985714D01*
X113330476Y-36985714D01*
X113425714Y-37033333D01*
X113473333Y-37080952D01*
X112187619Y-37604761D02*
X112282857Y-37652380D01*
X112473333Y-37652380D01*
X112568571Y-37604761D01*
X112616190Y-37509523D01*
X112616190Y-37128571D01*
X112568571Y-37033333D01*
X112473333Y-36985714D01*
X112282857Y-36985714D01*
X112187619Y-37033333D01*
X112140000Y-37128571D01*
X112140000Y-37223809D01*
X112616190Y-37319047D01*
X111092380Y-36985714D02*
X110711428Y-36985714D01*
X110949523Y-36652380D02*
X110949523Y-37509523D01*
X110901904Y-37604761D01*
X110806666Y-37652380D01*
X110711428Y-37652380D01*
X109949523Y-37652380D02*
X109949523Y-37128571D01*
X109997142Y-37033333D01*
X110092380Y-36985714D01*
X110282857Y-36985714D01*
X110378095Y-37033333D01*
X109949523Y-37604761D02*
X110044761Y-37652380D01*
X110282857Y-37652380D01*
X110378095Y-37604761D01*
X110425714Y-37509523D01*
X110425714Y-37414285D01*
X110378095Y-37319047D01*
X110282857Y-37271428D01*
X110044761Y-37271428D01*
X109949523Y-37223809D01*
X109044761Y-37604761D02*
X109140000Y-37652380D01*
X109330476Y-37652380D01*
X109425714Y-37604761D01*
X109473333Y-37557142D01*
X109520952Y-37461904D01*
X109520952Y-37176190D01*
X109473333Y-37080952D01*
X109425714Y-37033333D01*
X109330476Y-36985714D01*
X109140000Y-36985714D01*
X109044761Y-37033333D01*
X108759047Y-36985714D02*
X108378095Y-36985714D01*
X108616190Y-36652380D02*
X108616190Y-37509523D01*
X108568571Y-37604761D01*
X108473333Y-37652380D01*
X108378095Y-37652380D01*
X107330476Y-37604761D02*
X107235238Y-37652380D01*
X107044761Y-37652380D01*
X106949523Y-37604761D01*
X106901904Y-37509523D01*
X106901904Y-37461904D01*
X106949523Y-37366666D01*
X107044761Y-37319047D01*
X107187619Y-37319047D01*
X107282857Y-37271428D01*
X107330476Y-37176190D01*
X107330476Y-37128571D01*
X107282857Y-37033333D01*
X107187619Y-36985714D01*
X107044761Y-36985714D01*
X106949523Y-37033333D01*
X106568571Y-36985714D02*
X106378095Y-37652380D01*
X106187619Y-37176190D01*
X105997142Y-37652380D01*
X105806666Y-36985714D01*
X105425714Y-37652380D02*
X105425714Y-36985714D01*
X105425714Y-36652380D02*
X105473333Y-36700000D01*
X105425714Y-36747619D01*
X105378095Y-36700000D01*
X105425714Y-36652380D01*
X105425714Y-36747619D01*
X105092380Y-36985714D02*
X104711428Y-36985714D01*
X104949523Y-36652380D02*
X104949523Y-37509523D01*
X104901904Y-37604761D01*
X104806666Y-37652380D01*
X104711428Y-37652380D01*
X103949523Y-37604761D02*
X104044761Y-37652380D01*
X104235238Y-37652380D01*
X104330476Y-37604761D01*
X104378095Y-37557142D01*
X104425714Y-37461904D01*
X104425714Y-37176190D01*
X104378095Y-37080952D01*
X104330476Y-37033333D01*
X104235238Y-36985714D01*
X104044761Y-36985714D01*
X103949523Y-37033333D01*
X103520952Y-37652380D02*
X103520952Y-36652380D01*
X103092380Y-37652380D02*
X103092380Y-37128571D01*
X103140000Y-37033333D01*
X103235238Y-36985714D01*
X103378095Y-36985714D01*
X103473333Y-37033333D01*
X103520952Y-37080952D01*
X119973333Y-39262380D02*
X119973333Y-38595714D01*
X119973333Y-38690952D02*
X119925714Y-38643333D01*
X119830476Y-38595714D01*
X119687619Y-38595714D01*
X119592380Y-38643333D01*
X119544761Y-38738571D01*
X119544761Y-39262380D01*
X119544761Y-38738571D02*
X119497142Y-38643333D01*
X119401904Y-38595714D01*
X119259047Y-38595714D01*
X119163809Y-38643333D01*
X119116190Y-38738571D01*
X119116190Y-39262380D01*
X118497142Y-39262380D02*
X118592380Y-39214761D01*
X118640000Y-39167142D01*
X118687619Y-39071904D01*
X118687619Y-38786190D01*
X118640000Y-38690952D01*
X118592380Y-38643333D01*
X118497142Y-38595714D01*
X118354285Y-38595714D01*
X118259047Y-38643333D01*
X118211428Y-38690952D01*
X118163809Y-38786190D01*
X118163809Y-39071904D01*
X118211428Y-39167142D01*
X118259047Y-39214761D01*
X118354285Y-39262380D01*
X118497142Y-39262380D01*
X117782857Y-39214761D02*
X117687619Y-39262380D01*
X117497142Y-39262380D01*
X117401904Y-39214761D01*
X117354285Y-39119523D01*
X117354285Y-39071904D01*
X117401904Y-38976666D01*
X117497142Y-38929047D01*
X117640000Y-38929047D01*
X117735238Y-38881428D01*
X117782857Y-38786190D01*
X117782857Y-38738571D01*
X117735238Y-38643333D01*
X117640000Y-38595714D01*
X117497142Y-38595714D01*
X117401904Y-38643333D01*
X117068571Y-38595714D02*
X116687619Y-38595714D01*
X116925714Y-38262380D02*
X116925714Y-39119523D01*
X116878095Y-39214761D01*
X116782857Y-39262380D01*
X116687619Y-39262380D01*
X115640000Y-39214761D02*
X115544761Y-39262380D01*
X115354285Y-39262380D01*
X115259047Y-39214761D01*
X115211428Y-39119523D01*
X115211428Y-39071904D01*
X115259047Y-38976666D01*
X115354285Y-38929047D01*
X115497142Y-38929047D01*
X115592380Y-38881428D01*
X115640000Y-38786190D01*
X115640000Y-38738571D01*
X115592380Y-38643333D01*
X115497142Y-38595714D01*
X115354285Y-38595714D01*
X115259047Y-38643333D01*
X114354285Y-38595714D02*
X114354285Y-39262380D01*
X114782857Y-38595714D02*
X114782857Y-39119523D01*
X114735238Y-39214761D01*
X114640000Y-39262380D01*
X114497142Y-39262380D01*
X114401904Y-39214761D01*
X114354285Y-39167142D01*
X113878095Y-39262380D02*
X113878095Y-38595714D01*
X113878095Y-38262380D02*
X113925714Y-38310000D01*
X113878095Y-38357619D01*
X113830476Y-38310000D01*
X113878095Y-38262380D01*
X113878095Y-38357619D01*
X113544761Y-38595714D02*
X113163809Y-38595714D01*
X113401904Y-38262380D02*
X113401904Y-39119523D01*
X113354285Y-39214761D01*
X113259047Y-39262380D01*
X113163809Y-39262380D01*
X112401904Y-39262380D02*
X112401904Y-38738571D01*
X112449523Y-38643333D01*
X112544761Y-38595714D01*
X112735238Y-38595714D01*
X112830476Y-38643333D01*
X112401904Y-39214761D02*
X112497142Y-39262380D01*
X112735238Y-39262380D01*
X112830476Y-39214761D01*
X112878095Y-39119523D01*
X112878095Y-39024285D01*
X112830476Y-38929047D01*
X112735238Y-38881428D01*
X112497142Y-38881428D01*
X112401904Y-38833809D01*
X111925714Y-39262380D02*
X111925714Y-38262380D01*
X111925714Y-38643333D02*
X111830476Y-38595714D01*
X111640000Y-38595714D01*
X111544761Y-38643333D01*
X111497142Y-38690952D01*
X111449523Y-38786190D01*
X111449523Y-39071904D01*
X111497142Y-39167142D01*
X111544761Y-39214761D01*
X111640000Y-39262380D01*
X111830476Y-39262380D01*
X111925714Y-39214761D01*
X110878095Y-39262380D02*
X110973333Y-39214761D01*
X111020952Y-39119523D01*
X111020952Y-38262380D01*
X110116190Y-39214761D02*
X110211428Y-39262380D01*
X110401904Y-39262380D01*
X110497142Y-39214761D01*
X110544761Y-39119523D01*
X110544761Y-38738571D01*
X110497142Y-38643333D01*
X110401904Y-38595714D01*
X110211428Y-38595714D01*
X110116190Y-38643333D01*
X110068571Y-38738571D01*
X110068571Y-38833809D01*
X110544761Y-38929047D01*
X109020952Y-38595714D02*
X108640000Y-38595714D01*
X108878095Y-39262380D02*
X108878095Y-38405238D01*
X108830476Y-38310000D01*
X108735238Y-38262380D01*
X108640000Y-38262380D01*
X108163809Y-39262380D02*
X108259047Y-39214761D01*
X108306666Y-39167142D01*
X108354285Y-39071904D01*
X108354285Y-38786190D01*
X108306666Y-38690952D01*
X108259047Y-38643333D01*
X108163809Y-38595714D01*
X108020952Y-38595714D01*
X107925714Y-38643333D01*
X107878095Y-38690952D01*
X107830476Y-38786190D01*
X107830476Y-39071904D01*
X107878095Y-39167142D01*
X107925714Y-39214761D01*
X108020952Y-39262380D01*
X108163809Y-39262380D01*
X107401904Y-39262380D02*
X107401904Y-38595714D01*
X107401904Y-38786190D02*
X107354285Y-38690952D01*
X107306666Y-38643333D01*
X107211428Y-38595714D01*
X107116190Y-38595714D01*
X106116190Y-38595714D02*
X105878095Y-39262380D01*
X105640000Y-38595714D02*
X105878095Y-39262380D01*
X105973333Y-39500476D01*
X106020952Y-39548095D01*
X106116190Y-39595714D01*
X105116190Y-39262380D02*
X105211428Y-39214761D01*
X105259047Y-39167142D01*
X105306666Y-39071904D01*
X105306666Y-38786190D01*
X105259047Y-38690952D01*
X105211428Y-38643333D01*
X105116190Y-38595714D01*
X104973333Y-38595714D01*
X104878095Y-38643333D01*
X104830476Y-38690952D01*
X104782857Y-38786190D01*
X104782857Y-39071904D01*
X104830476Y-39167142D01*
X104878095Y-39214761D01*
X104973333Y-39262380D01*
X105116190Y-39262380D01*
X103925714Y-38595714D02*
X103925714Y-39262380D01*
X104354285Y-38595714D02*
X104354285Y-39119523D01*
X104306666Y-39214761D01*
X104211428Y-39262380D01*
X104068571Y-39262380D01*
X103973333Y-39214761D01*
X103925714Y-39167142D01*
X103449523Y-39262380D02*
X103449523Y-38595714D01*
X103449523Y-38786190D02*
X103401904Y-38690952D01*
X103354285Y-38643333D01*
X103259047Y-38595714D01*
X103163809Y-38595714D01*
X114592380Y-40205714D02*
X114592380Y-40872380D01*
X115020952Y-40205714D02*
X115020952Y-40729523D01*
X114973333Y-40824761D01*
X114878095Y-40872380D01*
X114735238Y-40872380D01*
X114640000Y-40824761D01*
X114592380Y-40777142D01*
X114163809Y-40824761D02*
X114068571Y-40872380D01*
X113878095Y-40872380D01*
X113782857Y-40824761D01*
X113735238Y-40729523D01*
X113735238Y-40681904D01*
X113782857Y-40586666D01*
X113878095Y-40539047D01*
X114020952Y-40539047D01*
X114116190Y-40491428D01*
X114163809Y-40396190D01*
X114163809Y-40348571D01*
X114116190Y-40253333D01*
X114020952Y-40205714D01*
X113878095Y-40205714D01*
X113782857Y-40253333D01*
X112925714Y-40824761D02*
X113020952Y-40872380D01*
X113211428Y-40872380D01*
X113306666Y-40824761D01*
X113354285Y-40729523D01*
X113354285Y-40348571D01*
X113306666Y-40253333D01*
X113211428Y-40205714D01*
X113020952Y-40205714D01*
X112925714Y-40253333D01*
X112878095Y-40348571D01*
X112878095Y-40443809D01*
X113354285Y-40539047D01*
X111259047Y-40824761D02*
X111354285Y-40872380D01*
X111544761Y-40872380D01*
X111640000Y-40824761D01*
X111687619Y-40777142D01*
X111735238Y-40681904D01*
X111735238Y-40396190D01*
X111687619Y-40300952D01*
X111640000Y-40253333D01*
X111544761Y-40205714D01*
X111354285Y-40205714D01*
X111259047Y-40253333D01*
X110401904Y-40872380D02*
X110401904Y-40348571D01*
X110449523Y-40253333D01*
X110544761Y-40205714D01*
X110735238Y-40205714D01*
X110830476Y-40253333D01*
X110401904Y-40824761D02*
X110497142Y-40872380D01*
X110735238Y-40872380D01*
X110830476Y-40824761D01*
X110878095Y-40729523D01*
X110878095Y-40634285D01*
X110830476Y-40539047D01*
X110735238Y-40491428D01*
X110497142Y-40491428D01*
X110401904Y-40443809D01*
X109973333Y-40824761D02*
X109878095Y-40872380D01*
X109687619Y-40872380D01*
X109592380Y-40824761D01*
X109544761Y-40729523D01*
X109544761Y-40681904D01*
X109592380Y-40586666D01*
X109687619Y-40539047D01*
X109830476Y-40539047D01*
X109925714Y-40491428D01*
X109973333Y-40396190D01*
X109973333Y-40348571D01*
X109925714Y-40253333D01*
X109830476Y-40205714D01*
X109687619Y-40205714D01*
X109592380Y-40253333D01*
X108735238Y-40824761D02*
X108830476Y-40872380D01*
X109020952Y-40872380D01*
X109116190Y-40824761D01*
X109163809Y-40729523D01*
X109163809Y-40348571D01*
X109116190Y-40253333D01*
X109020952Y-40205714D01*
X108830476Y-40205714D01*
X108735238Y-40253333D01*
X108687619Y-40348571D01*
X108687619Y-40443809D01*
X109163809Y-40539047D01*
X108259047Y-40777142D02*
X108211428Y-40824761D01*
X108259047Y-40872380D01*
X108306666Y-40824761D01*
X108259047Y-40777142D01*
X108259047Y-40872380D01*
D10*
X151195000Y-60518571D02*
X151195000Y-59018571D01*
X150837857Y-59018571D01*
X150623571Y-59090000D01*
X150480714Y-59232857D01*
X150409285Y-59375714D01*
X150337857Y-59661428D01*
X150337857Y-59875714D01*
X150409285Y-60161428D01*
X150480714Y-60304285D01*
X150623571Y-60447142D01*
X150837857Y-60518571D01*
X151195000Y-60518571D01*
X149695000Y-59947142D02*
X148552142Y-59947142D01*
X151623571Y-64170000D02*
X151766428Y-64098571D01*
X151980714Y-64098571D01*
X152195000Y-64170000D01*
X152337857Y-64312857D01*
X152409285Y-64455714D01*
X152480714Y-64741428D01*
X152480714Y-64955714D01*
X152409285Y-65241428D01*
X152337857Y-65384285D01*
X152195000Y-65527142D01*
X151980714Y-65598571D01*
X151837857Y-65598571D01*
X151623571Y-65527142D01*
X151552142Y-65455714D01*
X151552142Y-64955714D01*
X151837857Y-64955714D01*
X150909285Y-65598571D02*
X150909285Y-64098571D01*
X150052142Y-65598571D01*
X150052142Y-64098571D01*
X149337857Y-65598571D02*
X149337857Y-64098571D01*
X148980714Y-64098571D01*
X148766428Y-64170000D01*
X148623571Y-64312857D01*
X148552142Y-64455714D01*
X148480714Y-64741428D01*
X148480714Y-64955714D01*
X148552142Y-65241428D01*
X148623571Y-65384285D01*
X148766428Y-65527142D01*
X148980714Y-65598571D01*
X149337857Y-65598571D01*
X149837857Y-56478571D02*
X150552142Y-56478571D01*
X150623571Y-57192857D01*
X150552142Y-57121428D01*
X150409285Y-57050000D01*
X150052142Y-57050000D01*
X149909285Y-57121428D01*
X149837857Y-57192857D01*
X149766428Y-57335714D01*
X149766428Y-57692857D01*
X149837857Y-57835714D01*
X149909285Y-57907142D01*
X150052142Y-57978571D01*
X150409285Y-57978571D01*
X150552142Y-57907142D01*
X150623571Y-57835714D01*
X149337857Y-56478571D02*
X148837857Y-57978571D01*
X148337857Y-56478571D01*
D11*
%TO.C,C1*%
X131356190Y-76207142D02*
X131403809Y-76254761D01*
X131546666Y-76302380D01*
X131641904Y-76302380D01*
X131784762Y-76254761D01*
X131880000Y-76159523D01*
X131927619Y-76064285D01*
X131975238Y-75873809D01*
X131975238Y-75730952D01*
X131927619Y-75540476D01*
X131880000Y-75445238D01*
X131784762Y-75350000D01*
X131641904Y-75302380D01*
X131546666Y-75302380D01*
X131403809Y-75350000D01*
X131356190Y-75397619D01*
X130403809Y-76302380D02*
X130975238Y-76302380D01*
X130689524Y-76302380D02*
X130689524Y-75302380D01*
X130784762Y-75445238D01*
X130880000Y-75540476D01*
X130975238Y-75588095D01*
%TO.C,J1*%
X146822857Y-54422380D02*
X146822857Y-55136666D01*
X146870476Y-55279523D01*
X146965714Y-55374761D01*
X147108571Y-55422380D01*
X147203809Y-55422380D01*
X145822857Y-55422380D02*
X146394285Y-55422380D01*
X146108571Y-55422380D02*
X146108571Y-54422380D01*
X146203809Y-54565238D01*
X146299047Y-54660476D01*
X146394285Y-54708095D01*
%TO.C,C7*%
X113756190Y-68707142D02*
X113803809Y-68754761D01*
X113946666Y-68802380D01*
X114041904Y-68802380D01*
X114184762Y-68754761D01*
X114280000Y-68659523D01*
X114327619Y-68564285D01*
X114375238Y-68373809D01*
X114375238Y-68230952D01*
X114327619Y-68040476D01*
X114280000Y-67945238D01*
X114184762Y-67850000D01*
X114041904Y-67802380D01*
X113946666Y-67802380D01*
X113803809Y-67850000D01*
X113756190Y-67897619D01*
X113422857Y-67802380D02*
X112756190Y-67802380D01*
X113184762Y-68802380D01*
%TO.C,SW24*%
X122184761Y-30522976D02*
X122232380Y-30665833D01*
X122232380Y-30903928D01*
X122184761Y-30999166D01*
X122137142Y-31046785D01*
X122041904Y-31094404D01*
X121946666Y-31094404D01*
X121851428Y-31046785D01*
X121803809Y-30999166D01*
X121756190Y-30903928D01*
X121708571Y-30713452D01*
X121660952Y-30618214D01*
X121613333Y-30570595D01*
X121518095Y-30522976D01*
X121422857Y-30522976D01*
X121327619Y-30570595D01*
X121280000Y-30618214D01*
X121232380Y-30713452D01*
X121232380Y-30951547D01*
X121280000Y-31094404D01*
X121232380Y-31427738D02*
X122232380Y-31665833D01*
X121518095Y-31856309D01*
X122232380Y-32046785D01*
X121232380Y-32284880D01*
X121327619Y-32618214D02*
X121280000Y-32665833D01*
X121232380Y-32761071D01*
X121232380Y-32999166D01*
X121280000Y-33094404D01*
X121327619Y-33142023D01*
X121422857Y-33189642D01*
X121518095Y-33189642D01*
X121660952Y-33142023D01*
X122232380Y-32570595D01*
X122232380Y-33189642D01*
X121565714Y-34046785D02*
X122232380Y-34046785D01*
X121184761Y-33808690D02*
X121899047Y-33570595D01*
X121899047Y-34189642D01*
%TO.C,SW25*%
X101284761Y-30540476D02*
X101332380Y-30683333D01*
X101332380Y-30921428D01*
X101284761Y-31016666D01*
X101237142Y-31064285D01*
X101141904Y-31111904D01*
X101046666Y-31111904D01*
X100951428Y-31064285D01*
X100903809Y-31016666D01*
X100856190Y-30921428D01*
X100808571Y-30730952D01*
X100760952Y-30635714D01*
X100713333Y-30588095D01*
X100618095Y-30540476D01*
X100522857Y-30540476D01*
X100427619Y-30588095D01*
X100380000Y-30635714D01*
X100332380Y-30730952D01*
X100332380Y-30969047D01*
X100380000Y-31111904D01*
X100332380Y-31445238D02*
X101332380Y-31683333D01*
X100618095Y-31873809D01*
X101332380Y-32064285D01*
X100332380Y-32302380D01*
X100427619Y-32635714D02*
X100380000Y-32683333D01*
X100332380Y-32778571D01*
X100332380Y-33016666D01*
X100380000Y-33111904D01*
X100427619Y-33159523D01*
X100522857Y-33207142D01*
X100618095Y-33207142D01*
X100760952Y-33159523D01*
X101332380Y-32588095D01*
X101332380Y-33207142D01*
X100332380Y-34111904D02*
X100332380Y-33635714D01*
X100808571Y-33588095D01*
X100760952Y-33635714D01*
X100713333Y-33730952D01*
X100713333Y-33969047D01*
X100760952Y-34064285D01*
X100808571Y-34111904D01*
X100903809Y-34159523D01*
X101141904Y-34159523D01*
X101237142Y-34111904D01*
X101284761Y-34064285D01*
X101332380Y-33969047D01*
X101332380Y-33730952D01*
X101284761Y-33635714D01*
X101237142Y-33588095D01*
%TO.C,R3*%
X115311904Y-46023333D02*
X114835714Y-45690000D01*
X115311904Y-45451904D02*
X114311904Y-45451904D01*
X114311904Y-45832857D01*
X114359524Y-45928095D01*
X114407143Y-45975714D01*
X114502381Y-46023333D01*
X114645238Y-46023333D01*
X114740476Y-45975714D01*
X114788095Y-45928095D01*
X114835714Y-45832857D01*
X114835714Y-45451904D01*
X114311904Y-46356666D02*
X114311904Y-46975714D01*
X114692857Y-46642380D01*
X114692857Y-46785238D01*
X114740476Y-46880476D01*
X114788095Y-46928095D01*
X114883333Y-46975714D01*
X115121428Y-46975714D01*
X115216666Y-46928095D01*
X115264285Y-46880476D01*
X115311904Y-46785238D01*
X115311904Y-46499523D01*
X115264285Y-46404285D01*
X115216666Y-46356666D01*
%TO.C,C9*%
X126807142Y-52583333D02*
X126854761Y-52535714D01*
X126902380Y-52392857D01*
X126902380Y-52297619D01*
X126854761Y-52154761D01*
X126759523Y-52059523D01*
X126664285Y-52011904D01*
X126473809Y-51964285D01*
X126330952Y-51964285D01*
X126140476Y-52011904D01*
X126045238Y-52059523D01*
X125950000Y-52154761D01*
X125902380Y-52297619D01*
X125902380Y-52392857D01*
X125950000Y-52535714D01*
X125997619Y-52583333D01*
X126902380Y-53059523D02*
X126902380Y-53250000D01*
X126854761Y-53345238D01*
X126807142Y-53392857D01*
X126664285Y-53488095D01*
X126473809Y-53535714D01*
X126092857Y-53535714D01*
X125997619Y-53488095D01*
X125950000Y-53440476D01*
X125902380Y-53345238D01*
X125902380Y-53154761D01*
X125950000Y-53059523D01*
X125997619Y-53011904D01*
X126092857Y-52964285D01*
X126330952Y-52964285D01*
X126426190Y-53011904D01*
X126473809Y-53059523D01*
X126521428Y-53154761D01*
X126521428Y-53345238D01*
X126473809Y-53440476D01*
X126426190Y-53488095D01*
X126330952Y-53535714D01*
%TO.C,Y1*%
X124815714Y-75026190D02*
X124815714Y-75502380D01*
X125149047Y-74502380D02*
X124815714Y-75026190D01*
X124482381Y-74502380D01*
X123625238Y-75502380D02*
X124196666Y-75502380D01*
X123910952Y-75502380D02*
X123910952Y-74502380D01*
X124006190Y-74645238D01*
X124101428Y-74740476D01*
X124196666Y-74788095D01*
%TO.C,R2*%
X139946190Y-64872380D02*
X140279524Y-64396190D01*
X140517619Y-64872380D02*
X140517619Y-63872380D01*
X140136666Y-63872380D01*
X140041428Y-63920000D01*
X139993809Y-63967619D01*
X139946190Y-64062857D01*
X139946190Y-64205714D01*
X139993809Y-64300952D01*
X140041428Y-64348571D01*
X140136666Y-64396190D01*
X140517619Y-64396190D01*
X139565238Y-63967619D02*
X139517619Y-63920000D01*
X139422381Y-63872380D01*
X139184285Y-63872380D01*
X139089047Y-63920000D01*
X139041428Y-63967619D01*
X138993809Y-64062857D01*
X138993809Y-64158095D01*
X139041428Y-64300952D01*
X139612857Y-64872380D01*
X138993809Y-64872380D01*
X139741428Y-59227619D02*
X139693809Y-59180000D01*
X139598571Y-59132380D01*
X139360476Y-59132380D01*
X139265238Y-59180000D01*
X139217619Y-59227619D01*
X139170000Y-59322857D01*
X139170000Y-59418095D01*
X139217619Y-59560952D01*
X139789047Y-60132380D01*
X139170000Y-60132380D01*
X138789047Y-59227619D02*
X138741428Y-59180000D01*
X138646190Y-59132380D01*
X138408095Y-59132380D01*
X138312857Y-59180000D01*
X138265238Y-59227619D01*
X138217619Y-59322857D01*
X138217619Y-59418095D01*
X138265238Y-59560952D01*
X138836666Y-60132380D01*
X138217619Y-60132380D01*
X137217619Y-60132380D02*
X137550952Y-59656190D01*
X137789047Y-60132380D02*
X137789047Y-59132380D01*
X137408095Y-59132380D01*
X137312857Y-59180000D01*
X137265238Y-59227619D01*
X137217619Y-59322857D01*
X137217619Y-59465714D01*
X137265238Y-59560952D01*
X137312857Y-59608571D01*
X137408095Y-59656190D01*
X137789047Y-59656190D01*
%TO.C,C8*%
X118246666Y-52583333D02*
X118294285Y-52535714D01*
X118341904Y-52392857D01*
X118341904Y-52297619D01*
X118294285Y-52154761D01*
X118199047Y-52059523D01*
X118103809Y-52011904D01*
X117913333Y-51964285D01*
X117770476Y-51964285D01*
X117580000Y-52011904D01*
X117484762Y-52059523D01*
X117389524Y-52154761D01*
X117341904Y-52297619D01*
X117341904Y-52392857D01*
X117389524Y-52535714D01*
X117437143Y-52583333D01*
X117770476Y-53154761D02*
X117722857Y-53059523D01*
X117675238Y-53011904D01*
X117580000Y-52964285D01*
X117532381Y-52964285D01*
X117437143Y-53011904D01*
X117389524Y-53059523D01*
X117341904Y-53154761D01*
X117341904Y-53345238D01*
X117389524Y-53440476D01*
X117437143Y-53488095D01*
X117532381Y-53535714D01*
X117580000Y-53535714D01*
X117675238Y-53488095D01*
X117722857Y-53440476D01*
X117770476Y-53345238D01*
X117770476Y-53154761D01*
X117818095Y-53059523D01*
X117865714Y-53011904D01*
X117960952Y-52964285D01*
X118151428Y-52964285D01*
X118246666Y-53011904D01*
X118294285Y-53059523D01*
X118341904Y-53154761D01*
X118341904Y-53345238D01*
X118294285Y-53440476D01*
X118246666Y-53488095D01*
X118151428Y-53535714D01*
X117960952Y-53535714D01*
X117865714Y-53488095D01*
X117818095Y-53440476D01*
X117770476Y-53345238D01*
%TO.C,C6*%
X128746666Y-73283333D02*
X128794285Y-73235714D01*
X128841904Y-73092857D01*
X128841904Y-72997619D01*
X128794285Y-72854761D01*
X128699047Y-72759523D01*
X128603809Y-72711904D01*
X128413333Y-72664285D01*
X128270476Y-72664285D01*
X128080000Y-72711904D01*
X127984762Y-72759523D01*
X127889524Y-72854761D01*
X127841904Y-72997619D01*
X127841904Y-73092857D01*
X127889524Y-73235714D01*
X127937143Y-73283333D01*
X127841904Y-74140476D02*
X127841904Y-73950000D01*
X127889524Y-73854761D01*
X127937143Y-73807142D01*
X128080000Y-73711904D01*
X128270476Y-73664285D01*
X128651428Y-73664285D01*
X128746666Y-73711904D01*
X128794285Y-73759523D01*
X128841904Y-73854761D01*
X128841904Y-74045238D01*
X128794285Y-74140476D01*
X128746666Y-74188095D01*
X128651428Y-74235714D01*
X128413333Y-74235714D01*
X128318095Y-74188095D01*
X128270476Y-74140476D01*
X128222857Y-74045238D01*
X128222857Y-73854761D01*
X128270476Y-73759523D01*
X128318095Y-73711904D01*
X128413333Y-73664285D01*
%TO.C,U1*%
X124701428Y-55102380D02*
X124701428Y-55911904D01*
X124653809Y-56007142D01*
X124606190Y-56054761D01*
X124510952Y-56102380D01*
X124320476Y-56102380D01*
X124225238Y-56054761D01*
X124177619Y-56007142D01*
X124130000Y-55911904D01*
X124130000Y-55102380D01*
X123130000Y-56102380D02*
X123701428Y-56102380D01*
X123415714Y-56102380D02*
X123415714Y-55102380D01*
X123510952Y-55245238D01*
X123606190Y-55340476D01*
X123701428Y-55388095D01*
%TO.C,C5*%
X132966666Y-67257142D02*
X133014285Y-67304761D01*
X133157142Y-67352380D01*
X133252380Y-67352380D01*
X133395238Y-67304761D01*
X133490476Y-67209523D01*
X133538095Y-67114285D01*
X133585714Y-66923809D01*
X133585714Y-66780952D01*
X133538095Y-66590476D01*
X133490476Y-66495238D01*
X133395238Y-66400000D01*
X133252380Y-66352380D01*
X133157142Y-66352380D01*
X133014285Y-66400000D01*
X132966666Y-66447619D01*
X132061904Y-66352380D02*
X132538095Y-66352380D01*
X132585714Y-66828571D01*
X132538095Y-66780952D01*
X132442857Y-66733333D01*
X132204761Y-66733333D01*
X132109523Y-66780952D01*
X132061904Y-66828571D01*
X132014285Y-66923809D01*
X132014285Y-67161904D01*
X132061904Y-67257142D01*
X132109523Y-67304761D01*
X132204761Y-67352380D01*
X132442857Y-67352380D01*
X132538095Y-67304761D01*
X132585714Y-67257142D01*
%TO.C,C4*%
X133927788Y-55883333D02*
X133975407Y-55835714D01*
X134023026Y-55692857D01*
X134023026Y-55597619D01*
X133975407Y-55454761D01*
X133880169Y-55359523D01*
X133784931Y-55311904D01*
X133594455Y-55264285D01*
X133451598Y-55264285D01*
X133261122Y-55311904D01*
X133165884Y-55359523D01*
X133070646Y-55454761D01*
X133023026Y-55597619D01*
X133023026Y-55692857D01*
X133070646Y-55835714D01*
X133118265Y-55883333D01*
X133356360Y-56740476D02*
X134023026Y-56740476D01*
X132975407Y-56502380D02*
X133689693Y-56264285D01*
X133689693Y-56883333D01*
%TO.C,R1*%
X138646190Y-58232380D02*
X138979524Y-57756190D01*
X139217619Y-58232380D02*
X139217619Y-57232380D01*
X138836666Y-57232380D01*
X138741428Y-57280000D01*
X138693809Y-57327619D01*
X138646190Y-57422857D01*
X138646190Y-57565714D01*
X138693809Y-57660952D01*
X138741428Y-57708571D01*
X138836666Y-57756190D01*
X139217619Y-57756190D01*
X137693809Y-58232380D02*
X138265238Y-58232380D01*
X137979524Y-58232380D02*
X137979524Y-57232380D01*
X138074762Y-57375238D01*
X138170000Y-57470476D01*
X138265238Y-57518095D01*
X139741428Y-62067619D02*
X139693809Y-62020000D01*
X139598571Y-61972380D01*
X139360476Y-61972380D01*
X139265238Y-62020000D01*
X139217619Y-62067619D01*
X139170000Y-62162857D01*
X139170000Y-62258095D01*
X139217619Y-62400952D01*
X139789047Y-62972380D01*
X139170000Y-62972380D01*
X138789047Y-62067619D02*
X138741428Y-62020000D01*
X138646190Y-61972380D01*
X138408095Y-61972380D01*
X138312857Y-62020000D01*
X138265238Y-62067619D01*
X138217619Y-62162857D01*
X138217619Y-62258095D01*
X138265238Y-62400952D01*
X138836666Y-62972380D01*
X138217619Y-62972380D01*
X137217619Y-62972380D02*
X137550952Y-62496190D01*
X137789047Y-62972380D02*
X137789047Y-61972380D01*
X137408095Y-61972380D01*
X137312857Y-62020000D01*
X137265238Y-62067619D01*
X137217619Y-62162857D01*
X137217619Y-62305714D01*
X137265238Y-62400952D01*
X137312857Y-62448571D01*
X137408095Y-62496190D01*
X137789047Y-62496190D01*
%TO.C,R4*%
X110056666Y-57632380D02*
X110390000Y-57156190D01*
X110628095Y-57632380D02*
X110628095Y-56632380D01*
X110247142Y-56632380D01*
X110151904Y-56680000D01*
X110104285Y-56727619D01*
X110056666Y-56822857D01*
X110056666Y-56965714D01*
X110104285Y-57060952D01*
X110151904Y-57108571D01*
X110247142Y-57156190D01*
X110628095Y-57156190D01*
X109199523Y-56965714D02*
X109199523Y-57632380D01*
X109437619Y-56584761D02*
X109675714Y-57299047D01*
X109056666Y-57299047D01*
%TO.C,C2*%
X117656190Y-76207142D02*
X117703809Y-76254761D01*
X117846666Y-76302380D01*
X117941904Y-76302380D01*
X118084762Y-76254761D01*
X118180000Y-76159523D01*
X118227619Y-76064285D01*
X118275238Y-75873809D01*
X118275238Y-75730952D01*
X118227619Y-75540476D01*
X118180000Y-75445238D01*
X118084762Y-75350000D01*
X117941904Y-75302380D01*
X117846666Y-75302380D01*
X117703809Y-75350000D01*
X117656190Y-75397619D01*
X117275238Y-75397619D02*
X117227619Y-75350000D01*
X117132381Y-75302380D01*
X116894285Y-75302380D01*
X116799047Y-75350000D01*
X116751428Y-75397619D01*
X116703809Y-75492857D01*
X116703809Y-75588095D01*
X116751428Y-75730952D01*
X117322857Y-76302380D01*
X116703809Y-76302380D01*
%TO.C,C3*%
X132966666Y-65107142D02*
X133014285Y-65154761D01*
X133157142Y-65202380D01*
X133252380Y-65202380D01*
X133395238Y-65154761D01*
X133490476Y-65059523D01*
X133538095Y-64964285D01*
X133585714Y-64773809D01*
X133585714Y-64630952D01*
X133538095Y-64440476D01*
X133490476Y-64345238D01*
X133395238Y-64250000D01*
X133252380Y-64202380D01*
X133157142Y-64202380D01*
X133014285Y-64250000D01*
X132966666Y-64297619D01*
X132633333Y-64202380D02*
X132014285Y-64202380D01*
X132347619Y-64583333D01*
X132204761Y-64583333D01*
X132109523Y-64630952D01*
X132061904Y-64678571D01*
X132014285Y-64773809D01*
X132014285Y-65011904D01*
X132061904Y-65107142D01*
X132109523Y-65154761D01*
X132204761Y-65202380D01*
X132490476Y-65202380D01*
X132585714Y-65154761D01*
X132633333Y-65107142D01*
D12*
%TO.C,C1*%
X131818524Y-76980000D02*
X130560524Y-76980000D01*
X131818524Y-78820000D02*
X130560524Y-78820000D01*
%TO.C,J1*%
X147819524Y-58570000D02*
X145159524Y-58570000D01*
X147819524Y-57300000D02*
X147819524Y-55970000D01*
X147819524Y-55970000D02*
X146489524Y-55970000D01*
X147819524Y-66250000D02*
X145159524Y-66250000D01*
X145159524Y-58570000D02*
X145159524Y-66250000D01*
X147819524Y-58570000D02*
X147819524Y-66250000D01*
%TO.C,C7*%
X112960524Y-67220000D02*
X114218524Y-67220000D01*
X112960524Y-65380000D02*
X114218524Y-65380000D01*
%TO.C,SW24*%
X119960000Y-35362500D02*
X119960000Y-35872500D01*
X117800000Y-32532500D02*
X114400000Y-32532500D01*
X119440000Y-35362500D02*
X119440000Y-35872500D01*
X112240000Y-28862500D02*
X112240000Y-32762500D01*
X112240000Y-35362500D02*
X112240000Y-35872500D01*
X113300000Y-32532500D02*
X112760000Y-32532500D01*
X119960000Y-35872500D02*
X119440000Y-35872500D01*
X119440000Y-32532500D02*
X118900000Y-32532500D01*
X119440000Y-32532500D02*
X119440000Y-32762500D01*
X112760000Y-32532500D02*
X112760000Y-32762500D01*
X112760000Y-35872500D02*
X112240000Y-35872500D01*
X112760000Y-35362500D02*
X112760000Y-35872500D01*
X119960000Y-28862500D02*
X119960000Y-32762500D01*
X119960000Y-28862500D02*
X112240000Y-28862500D01*
%TO.C,SW25*%
X108800000Y-35450000D02*
X104300000Y-35450000D01*
X110050000Y-31450000D02*
X110050000Y-32950000D01*
X103050000Y-32950000D02*
X103050000Y-31450000D01*
X104300000Y-28950000D02*
X108800000Y-28950000D01*
%TO.C,R3*%
X112019524Y-44270000D02*
X113859524Y-44270000D01*
X112939524Y-43320000D02*
X112939524Y-44270000D01*
X112019524Y-48110000D02*
X112019524Y-44270000D01*
X112939524Y-49060000D02*
X112939524Y-48110000D01*
X113859524Y-44270000D02*
X113859524Y-48110000D01*
X113859524Y-48110000D02*
X112019524Y-48110000D01*
%TO.C,C9*%
X127580000Y-52121000D02*
X127580000Y-53379000D01*
X129420000Y-52121000D02*
X129420000Y-53379000D01*
%TO.C,Y1*%
X126689524Y-79750000D02*
X121989524Y-79750000D01*
X126689524Y-76050000D02*
X121989524Y-76050000D01*
X126689524Y-79750000D02*
G75*
G03*
X126689524Y-76050000I0J1850000D01*
G01*
X121989524Y-76050000D02*
G75*
G03*
X121989524Y-79750000I0J-1850000D01*
G01*
%TO.C,R2*%
X141349524Y-59700000D02*
X140399524Y-59700000D01*
X135609524Y-59700000D02*
X136559524Y-59700000D01*
X140399524Y-60620000D02*
X136559524Y-60620000D01*
X140399524Y-58780000D02*
X140399524Y-60620000D01*
X136559524Y-60620000D02*
X136559524Y-58780000D01*
X136559524Y-58780000D02*
X140399524Y-58780000D01*
%TO.C,C8*%
X119019524Y-52121000D02*
X119019524Y-53379000D01*
X120859524Y-52121000D02*
X120859524Y-53379000D01*
%TO.C,C6*%
X125419524Y-74079000D02*
X125419524Y-72821000D01*
X127259524Y-74079000D02*
X127259524Y-72821000D01*
D11*
%TO.C,U1*%
X129114524Y-58500000D02*
X130389524Y-58500000D01*
X118764524Y-68275000D02*
X119439524Y-68275000D01*
X118764524Y-68275000D02*
X118764524Y-67600000D01*
X129114524Y-68275000D02*
X128439524Y-68275000D01*
X118764524Y-57925000D02*
X118764524Y-58600000D01*
X129114524Y-57925000D02*
X129114524Y-58500000D01*
X118764524Y-57925000D02*
X119439524Y-57925000D01*
X129114524Y-57925000D02*
X128439524Y-57925000D01*
X129114524Y-68275000D02*
X129114524Y-67600000D01*
D12*
%TO.C,C5*%
X136718524Y-67820000D02*
X135460524Y-67820000D01*
X136718524Y-65980000D02*
X135460524Y-65980000D01*
%TO.C,C4*%
X136540646Y-55421000D02*
X136540646Y-56679000D01*
X134700646Y-55421000D02*
X134700646Y-56679000D01*
%TO.C,R1*%
X141349524Y-62500000D02*
X140399524Y-62500000D01*
X136559524Y-61580000D02*
X140399524Y-61580000D01*
X135609524Y-62500000D02*
X136559524Y-62500000D01*
X136559524Y-63420000D02*
X136559524Y-61580000D01*
X140399524Y-61580000D02*
X140399524Y-63420000D01*
X140399524Y-63420000D02*
X136559524Y-63420000D01*
%TO.C,R4*%
X107970000Y-60020000D02*
X107970000Y-58180000D01*
X107970000Y-58180000D02*
X111810000Y-58180000D01*
X111810000Y-58180000D02*
X111810000Y-60020000D01*
X107020000Y-59100000D02*
X107970000Y-59100000D01*
X111810000Y-60020000D02*
X107970000Y-60020000D01*
X112760000Y-59100000D02*
X111810000Y-59100000D01*
%TO.C,C2*%
X118118524Y-78820000D02*
X116860524Y-78820000D01*
X118118524Y-76980000D02*
X116860524Y-76980000D01*
%TO.C,C3*%
X136698524Y-63830000D02*
X135440524Y-63830000D01*
X136698524Y-65670000D02*
X135440524Y-65670000D01*
%TD*%
M02*
