%TF.GenerationSoftware,KiCad,Pcbnew,(6.0.4)*%
%TF.CreationDate,2022-05-19T11:32:38-03:00*%
%TF.ProjectId,G-Code_Keeb,472d436f-6465-45f4-9b65-65622e6b6963,1*%
%TF.SameCoordinates,Original*%
%TF.FileFunction,Paste,Bot*%
%TF.FilePolarity,Positive*%
%FSLAX46Y46*%
G04 Gerber Fmt 4.6, Leading zero omitted, Abs format (unit mm)*
G04 Created by KiCad (PCBNEW (6.0.4)) date 2022-05-19 11:32:38*
%MOMM*%
%LPD*%
G01*
G04 APERTURE LIST*
%ADD10R,1.500000X0.550000*%
%ADD11R,0.550000X1.500000*%
G04 APERTURE END LIST*
D10*
%TO.C,U1*%
X129639524Y-69100000D03*
X129639524Y-69900000D03*
X129639524Y-70700000D03*
X129639524Y-71500000D03*
X129639524Y-72300000D03*
X129639524Y-73100000D03*
X129639524Y-73900000D03*
X129639524Y-74700000D03*
X129639524Y-75500000D03*
X129639524Y-76300000D03*
X129639524Y-77100000D03*
D11*
X127939524Y-78800000D03*
X127139524Y-78800000D03*
X126339524Y-78800000D03*
X125539524Y-78800000D03*
X124739524Y-78800000D03*
X123939524Y-78800000D03*
X123139524Y-78800000D03*
X122339524Y-78800000D03*
X121539524Y-78800000D03*
X120739524Y-78800000D03*
X119939524Y-78800000D03*
D10*
X118239524Y-77100000D03*
X118239524Y-76300000D03*
X118239524Y-75500000D03*
X118239524Y-74700000D03*
X118239524Y-73900000D03*
X118239524Y-73100000D03*
X118239524Y-72300000D03*
X118239524Y-71500000D03*
X118239524Y-70700000D03*
X118239524Y-69900000D03*
X118239524Y-69100000D03*
D11*
X119939524Y-67400000D03*
X120739524Y-67400000D03*
X121539524Y-67400000D03*
X122339524Y-67400000D03*
X123139524Y-67400000D03*
X123939524Y-67400000D03*
X124739524Y-67400000D03*
X125539524Y-67400000D03*
X126339524Y-67400000D03*
X127139524Y-67400000D03*
X127939524Y-67400000D03*
%TD*%
M02*
