M48
; DRILL file {KiCad (6.0.4)} date Sun May 22 15:07:10 2022
; FORMAT={-:-/ absolute / inch / decimal}
; #@! TF.CreationDate,2022-05-22T15:07:10-03:00
; #@! TF.GenerationSoftware,Kicad,Pcbnew,(6.0.4)
; #@! TF.FileFunction,NonPlated,1,2,NPTH
FMAT,2
INCH
; #@! TA.AperFunction,NonPlated,NPTH,ComponentDrill
T1C0.0689
; #@! TA.AperFunction,NonPlated,NPTH,ComponentDrill
T2C0.1260
; #@! TA.AperFunction,NonPlated,NPTH,ComponentDrill
T3C0.1575
%
G90
G05
T1
X0.926Y-1.4823
X0.926Y-3.7323
X0.926Y-5.9823
X1.326Y-1.4823
X1.326Y-3.7323
X1.326Y-5.9823
X1.676Y-3.7323
X2.076Y-3.7323
X2.426Y-3.7323
X2.826Y-3.7323
X3.176Y-1.4823
X3.176Y-2.2323
X3.176Y-2.9823
X3.176Y-3.7323
X3.176Y-4.4823
X3.176Y-5.2323
X3.176Y-5.9823
X3.576Y-1.4823
X3.576Y-2.2323
X3.576Y-2.9823
X3.576Y-3.7323
X3.576Y-4.4823
X3.576Y-5.2323
X3.576Y-5.9823
X3.926Y-3.7323
X4.326Y-3.7323
X4.676Y-3.7323
X5.076Y-3.7323
X5.426Y-1.4823
X5.426Y-3.7323
X5.426Y-5.9823
X5.826Y-1.4823
X5.826Y-3.7323
X5.826Y-5.9823
X6.422Y-1.7323
X6.422Y-2.4823
X6.422Y-3.2323
X6.422Y-4.2303
X6.422Y-4.9803
X6.422Y-5.7303
X6.822Y-1.7323
X6.822Y-2.4823
X6.822Y-3.2323
X6.822Y-4.2303
X6.822Y-4.9803
X6.822Y-5.7303
T2
X1.563Y-1.9213
X1.563Y-5.5433
X6.1831Y-1.9213
X6.1831Y-5.5433
T3
X1.126Y-1.4823
X1.126Y-3.7323
X1.126Y-5.9823
X1.876Y-3.7323
X2.626Y-3.7323
X3.376Y-1.4823
X3.376Y-2.2323
X3.376Y-2.9823
X3.376Y-3.7323
X3.376Y-4.4823
X3.376Y-5.2323
X3.376Y-5.9823
X4.126Y-3.7323
X4.876Y-3.7323
X5.626Y-1.4823
X5.626Y-3.7323
X5.626Y-5.9823
X6.622Y-1.7323
X6.622Y-2.4823
X6.622Y-3.2323
X6.622Y-4.2303
X6.622Y-4.9803
X6.622Y-5.7303
T0
M30
